<svg width="18" height="18" viewBox="0 0 18 18" fill="none" xmlns="http://www.w3.org/2000/svg">
<path opacity="0.3" d="M12.7482 4.20446L7.78033 13.8H11.6497L16.6176 4.20446H12.7482Z" fill="black"/>
<path d="M16.6765 11.7595V8.56123H16.6801C16.9127 8.56123 16.9412 8.72106 16.9412 8.95202V11.3688C16.9412 11.5998 16.9127 11.7595 16.6801 11.7595H16.6765ZM15.6177 12.5427H17.41C17.7585 12.5427 18 12.3045 18 11.9607V8.36007C18 8.01632 17.7585 7.77808 17.41 7.77808H15.6177V12.5427Z" fill="black"/>
<path d="M11.6471 8.56123H11.6507C11.8833 8.56123 11.9118 8.72106 11.9118 8.95202V9.38352C11.9118 9.61451 11.8793 9.77788 11.6471 9.77788V8.56123ZM12.3807 10.2266C12.7291 10.2266 12.9706 9.98833 12.9706 9.64455V8.36007C12.9706 8.01632 12.7291 7.77808 12.3807 7.77808H10.5883V10.2266V12.5427H11.6471V10.6789H11.6507C11.8833 10.6789 11.9118 10.8387 11.9118 11.0697V12.5427H12.9706V10.8086C12.9706 10.4648 12.7291 10.2266 12.3807 10.2266" fill="black"/>
<path d="M7.74822 12.5427C8.09668 12.5427 8.33819 12.3045 8.33819 11.9607V10.4086C8.33425 9.94102 7.01467 9.41592 7.01467 9.41592V8.62184C7.01467 8.5487 7.07391 8.48946 7.14703 8.48946C7.22017 8.48946 7.27939 8.5487 7.27939 8.62184L7.2804 9.41592H8.33819V8.34353C8.33819 7.99975 8.09668 7.76151 7.74822 7.76151H6.54584C6.19741 7.76151 5.95587 7.99975 5.95587 8.34353V9.631C5.96016 10.0982 7.27939 10.6236 7.27939 10.6236V11.6825C7.27939 11.7556 7.22017 11.8148 7.14703 11.8148C7.07391 11.8148 7.01467 11.7556 7.01467 11.6825L7.0137 10.6236H5.95587V11.9607C5.95587 12.3045 6.19741 12.5427 6.54584 12.5427H7.74822Z" fill="black"/>
<path d="M1.0724 10.8883L1.22426 9.16777L1.37616 10.8883H1.0724ZM0.628676 7.77808L0 12.5427H0.926471L1.00821 11.6163H1.4403L1.52206 12.5427H2.44856L1.81987 7.77808H1.78676H0.661765H0.628676" fill="black"/>
<path d="M14.1091 10.8883L14.261 9.16777L14.4129 10.8883H14.1091ZM13.6654 7.77808L13.0367 12.5427H13.9632L14.045 11.6163H14.477L14.5588 12.5427H15.4853L14.8565 7.77808H14.8235H13.6985H13.6654Z" fill="black"/>
<path d="M8.93383 8.57218V12.5427H9.9927V8.57218H10.4559V7.77808H8.40442V8.57218H8.93383" fill="black"/>
<path d="M4.83085 10.1604V12.5427H5.75736V7.77808H4.43382L4.16911 9.68393L3.90439 7.77808H2.58087V12.5427H3.50734V10.1604L3.83821 12.5427H4.49998L4.83085 10.1604Z" fill="black"/>
</svg>
