<svg width="18" height="18" viewBox="0 0 18 18" fill="none" xmlns="http://www.w3.org/2000/svg">
<path opacity="0.3" d="M12.7482 2.10022L7.78033 11.6958H11.6497L16.6176 2.10022H12.7482Z" fill="black"/>
<path d="M16.6765 9.6553V6.45699H16.6801C16.9127 6.45699 16.9412 6.61681 16.9412 6.84777V9.26454C16.9412 9.4955 16.9127 9.6553 16.6801 9.6553H16.6765ZM15.6177 10.4385H17.41C17.7585 10.4385 18 10.2003 18 9.85646V6.25582C18 5.91207 17.7585 5.67383 17.41 5.67383H15.6177V10.4385Z" fill="black"/>
<path d="M11.6471 6.45699H11.6507C11.8833 6.45699 11.9118 6.61681 11.9118 6.84777V7.27928C11.9118 7.51026 11.8793 7.67363 11.6471 7.67363V6.45699ZM12.3807 8.12232C12.7291 8.12232 12.9706 7.88408 12.9706 7.5403V6.25582C12.9706 5.91207 12.7291 5.67383 12.3807 5.67383H10.5883V8.12232V10.4385H11.6471V8.57468H11.6507C11.8833 8.57468 11.9118 8.73448 11.9118 8.96547V10.4385H12.9706V8.70434C12.9706 8.36056 12.7291 8.12232 12.3807 8.12232Z" fill="black"/>
<path d="M7.74822 10.4385C8.09668 10.4385 8.33819 10.2003 8.33819 9.85646V8.30432C8.33425 7.83677 7.01467 7.31167 7.01467 7.31167V6.51759C7.01467 6.44445 7.07391 6.38521 7.14703 6.38521C7.22017 6.38521 7.27939 6.44445 7.27939 6.51759L7.2804 7.31167H8.33819V6.23928C8.33819 5.8955 8.09668 5.65726 7.74822 5.65726H6.54584C6.19741 5.65726 5.95587 5.8955 5.95587 6.23928V7.52676C5.96016 7.994 7.27939 8.5194 7.27939 8.5194V9.57827C7.27939 9.65134 7.22017 9.71058 7.14703 9.71058C7.07391 9.71058 7.01467 9.65134 7.01467 9.57827L7.0137 8.5194H5.95587V9.85646C5.95587 10.2003 6.19741 10.4385 6.54584 10.4385H7.74822Z" fill="black"/>
<path d="M1.0724 8.78407L1.22426 7.06352L1.37616 8.78407H1.0724ZM0.628676 5.67383L0 10.4385H0.926471L1.00821 9.51205H1.4403L1.52206 10.4385H2.44856L1.81987 5.67383H1.78676H0.661765H0.628676Z" fill="black"/>
<path d="M14.1091 8.78407L14.261 7.06352L14.4129 8.78407H14.1091ZM13.6654 5.67383L13.0367 10.4385H13.9632L14.045 9.51205H14.477L14.5588 10.4385H15.4853L14.8565 5.67383H14.8235H13.6985H13.6654Z" fill="black"/>
<path d="M8.93383 6.46793V10.4385H9.9927V6.46793H10.4559V5.67383H8.40442V6.46793H8.93383Z" fill="black"/>
<path d="M4.83085 8.05617V10.4385H5.75736V5.67383H4.43382L4.16911 7.57968L3.90439 5.67383H2.58087V10.4385H3.50734V8.05617L3.83821 10.4385H4.49998L4.83085 8.05617Z" fill="black"/>
<path d="M3.43798 15.752H2.36198C2.20731 15.752 2.08331 15.7027 1.98998 15.604C1.89664 15.5053 1.84998 15.3747 1.84998 15.212V13.624C1.84998 13.4747 1.89398 13.348 1.98198 13.244C2.07264 13.1373 2.21131 13.084 2.39798 13.084H3.40198V13.916H2.99398V13.436H2.55798C2.44864 13.436 2.37398 13.452 2.33398 13.484C2.29664 13.516 2.27798 13.5773 2.27798 13.668V15.156C2.27798 15.2493 2.29398 15.3133 2.32598 15.348C2.36064 15.3827 2.42331 15.4 2.51398 15.4H3.03398V14.92H3.43798V15.752Z" fill="black"/>
<path d="M4.43854 14.608V15.4H4.65854V15.752H3.79854V15.4H4.01854V13.436H3.79854V13.084H5.01854C5.19187 13.084 5.32787 13.1293 5.42654 13.22C5.5252 13.3107 5.57454 13.4373 5.57454 13.6V14.056C5.57454 14.2213 5.52387 14.3547 5.42254 14.456C5.3212 14.5573 5.18654 14.608 5.01854 14.608H4.43854ZM4.43854 14.248H4.84654C4.96654 14.248 5.04787 14.2293 5.09054 14.192C5.1332 14.1547 5.15454 14.084 5.15454 13.98V13.724C5.15454 13.6147 5.1372 13.54 5.10254 13.5C5.06787 13.4573 5.00387 13.436 4.91054 13.436H4.43854V14.248Z" fill="black"/>
<path d="M7.45751 15.752H6.38151C6.22684 15.752 6.10284 15.7027 6.00951 15.604C5.91617 15.5053 5.86951 15.3747 5.86951 15.212V13.624C5.86951 13.4747 5.91351 13.348 6.00151 13.244C6.09217 13.1373 6.23084 13.084 6.41751 13.084H7.42151V13.916H7.01351V13.436H6.57751C6.46817 13.436 6.39351 13.452 6.35351 13.484C6.31617 13.516 6.29751 13.5773 6.29751 13.668V15.156C6.29751 15.2493 6.31351 15.3133 6.34551 15.348C6.38017 15.3827 6.44284 15.4 6.53351 15.4H7.05351V14.92H7.45751V15.752Z" fill="black"/>
<path d="M9.51729 14.252H10.1853C10.34 14.252 10.4666 14.296 10.5653 14.384C10.664 14.472 10.7133 14.5853 10.7133 14.724V15.256C10.7133 15.4053 10.6626 15.5293 10.5613 15.628C10.4626 15.724 10.3346 15.772 10.1773 15.772H9.63729C9.43995 15.772 9.29595 15.7093 9.20529 15.584C9.13329 15.4853 9.09729 15.3427 9.09729 15.156V13.612C9.09729 13.4413 9.14529 13.308 9.24129 13.212C9.33729 13.1133 9.46795 13.064 9.63329 13.064H10.1573C10.312 13.064 10.4386 13.112 10.5373 13.208C10.636 13.3013 10.6853 13.4227 10.6853 13.572V13.796H10.2573V13.704C10.2573 13.5947 10.2386 13.52 10.2013 13.48C10.1666 13.4373 10.1013 13.416 10.0053 13.416H9.78529C9.68662 13.416 9.61729 13.436 9.57729 13.476C9.53729 13.5133 9.51729 13.58 9.51729 13.676V14.252ZM9.51729 14.608V15.16C9.51729 15.2587 9.53329 15.3267 9.56529 15.364C9.59729 15.4013 9.65462 15.42 9.73729 15.42H10.0293C10.2 15.42 10.2853 15.332 10.2853 15.156V14.876C10.2853 14.7747 10.2666 14.7053 10.2293 14.668C10.1946 14.628 10.1293 14.608 10.0333 14.608H9.51729Z" fill="black"/>
<path d="M12.132 15.752H11.26V15.4H11.484V13.564L11.072 13.768V13.436L11.912 13V15.4H12.132V15.752Z" fill="black"/>
<path d="M14.1193 15.06V15.752H12.5153V14.832L13.6993 14.096V13.744C13.6993 13.624 13.6913 13.5467 13.6753 13.512C13.6459 13.448 13.5806 13.416 13.4793 13.416H13.1833C13.0899 13.416 13.0246 13.4333 12.9873 13.468C12.9526 13.5027 12.9353 13.5653 12.9353 13.656V13.936H12.5153V13.592C12.5153 13.432 12.5659 13.304 12.6673 13.208C12.7686 13.112 12.9033 13.064 13.0713 13.064H13.5953C13.7606 13.064 13.8886 13.1093 13.9793 13.2C14.0726 13.2907 14.1193 13.4187 14.1193 13.584V14.284L12.9353 15.02V15.4H13.6993V15.06H14.1193Z" fill="black"/>
<path d="M16.1545 13.584V14.008C16.1545 14.2 16.0772 14.3307 15.9225 14.4C16.0105 14.4507 16.0705 14.5027 16.1025 14.556C16.1372 14.6067 16.1545 14.6773 16.1545 14.768V15.248C16.1545 15.408 16.1052 15.536 16.0065 15.632C15.9105 15.7253 15.7812 15.772 15.6185 15.772H15.0825C14.7252 15.772 14.5465 15.584 14.5465 15.208V14.776C14.5465 14.68 14.5625 14.604 14.5945 14.548C14.6292 14.492 14.6892 14.4427 14.7745 14.4C14.6865 14.352 14.6265 14.3013 14.5945 14.248C14.5625 14.192 14.5465 14.112 14.5465 14.008V13.6C14.5465 13.4453 14.5918 13.3173 14.6825 13.216C14.7758 13.1147 14.9132 13.064 15.0945 13.064H15.6225C15.7878 13.064 15.9172 13.1107 16.0105 13.204C16.1065 13.2947 16.1545 13.4213 16.1545 13.584ZM15.4785 14.572H15.2025C15.1172 14.572 15.0572 14.5933 15.0225 14.636C14.9878 14.676 14.9705 14.748 14.9705 14.852V15.14C14.9705 15.244 14.9865 15.3173 15.0185 15.36C15.0532 15.4 15.1118 15.42 15.1945 15.42H15.4665C15.6158 15.42 15.6998 15.368 15.7185 15.264C15.7238 15.24 15.7265 15.2027 15.7265 15.152V14.82C15.7265 14.6547 15.6438 14.572 15.4785 14.572ZM15.5105 13.416H15.2065C15.1185 13.416 15.0572 13.432 15.0225 13.464C14.9878 13.4933 14.9705 13.5467 14.9705 13.624V13.976C14.9705 14.0667 14.9865 14.1293 15.0185 14.164C15.0532 14.1987 15.1158 14.216 15.2065 14.216H15.4625C15.5665 14.216 15.6358 14.2 15.6705 14.168C15.7078 14.1333 15.7265 14.0667 15.7265 13.968V13.624C15.7265 13.4853 15.6545 13.416 15.5105 13.416Z" fill="black"/>
</svg>
