<svg width="18" height="18" viewBox="0 0 18 18" fill="none" xmlns="http://www.w3.org/2000/svg">
<path opacity="0.3" d="M12.7482 2.10022L7.78033 11.6958H11.6497L16.6176 2.10022H12.7482Z" fill="black"/>
<path d="M16.6765 9.6553V6.45699H16.6801C16.9127 6.45699 16.9412 6.61681 16.9412 6.84777V9.26454C16.9412 9.4955 16.9127 9.6553 16.6801 9.6553H16.6765ZM15.6177 10.4385H17.41C17.7585 10.4385 18 10.2003 18 9.85646V6.25582C18 5.91207 17.7585 5.67383 17.41 5.67383H15.6177V10.4385Z" fill="black"/>
<path d="M11.6471 6.45699H11.6507C11.8833 6.45699 11.9118 6.61681 11.9118 6.84777V7.27928C11.9118 7.51026 11.8793 7.67363 11.6471 7.67363V6.45699ZM12.3807 8.12232C12.7291 8.12232 12.9706 7.88408 12.9706 7.5403V6.25582C12.9706 5.91207 12.7291 5.67383 12.3807 5.67383H10.5883V8.12232V10.4385H11.6471V8.57468H11.6507C11.8833 8.57468 11.9118 8.73448 11.9118 8.96547V10.4385H12.9706V8.70434C12.9706 8.36056 12.7291 8.12232 12.3807 8.12232" fill="black"/>
<path d="M7.74822 10.4385C8.09668 10.4385 8.33819 10.2003 8.33819 9.85646V8.30432C8.33425 7.83677 7.01467 7.31167 7.01467 7.31167V6.51759C7.01467 6.44445 7.07391 6.38521 7.14703 6.38521C7.22017 6.38521 7.27939 6.44445 7.27939 6.51759L7.2804 7.31167H8.33819V6.23928C8.33819 5.8955 8.09668 5.65726 7.74822 5.65726H6.54584C6.19741 5.65726 5.95587 5.8955 5.95587 6.23928V7.52676C5.96016 7.994 7.27939 8.5194 7.27939 8.5194V9.57827C7.27939 9.65134 7.22017 9.71058 7.14703 9.71058C7.07391 9.71058 7.01467 9.65134 7.01467 9.57827L7.0137 8.5194H5.95587V9.85646C5.95587 10.2003 6.19741 10.4385 6.54584 10.4385H7.74822Z" fill="black"/>
<path d="M1.0724 8.78407L1.22426 7.06352L1.37616 8.78407H1.0724ZM0.628676 5.67383L0 10.4385H0.926471L1.00821 9.51205H1.4403L1.52206 10.4385H2.44856L1.81987 5.67383H1.78676H0.661765H0.628676" fill="black"/>
<path d="M14.1091 8.78407L14.261 7.06352L14.4129 8.78407H14.1091ZM13.6654 5.67383L13.0367 10.4385H13.9632L14.045 9.51205H14.477L14.5588 10.4385H15.4853L14.8565 5.67383H14.8235H13.6985H13.6654Z" fill="black"/>
<path d="M8.93383 6.46793V10.4385H9.9927V6.46793H10.4559V5.67383H8.40442V6.46793H8.93383" fill="black"/>
<path d="M4.83085 8.05617V10.4385H5.75736V5.67383H4.43382L4.16911 7.57968L3.90439 5.67383H2.58087V10.4385H3.50734V8.05617L3.83821 10.4385H4.49998L4.83085 8.05617Z" fill="black"/>
<path d="M4.05797 15.688H2.98197C2.8273 15.688 2.7033 15.6387 2.60997 15.54C2.51664 15.4413 2.46997 15.3107 2.46997 15.148V13.56C2.46997 13.4107 2.51397 13.284 2.60197 13.18C2.69264 13.0733 2.8313 13.02 3.01797 13.02H4.02197V13.852H3.61397V13.372H3.17797C3.06864 13.372 2.99397 13.388 2.95397 13.42C2.91664 13.452 2.89797 13.5133 2.89797 13.604V15.092C2.89797 15.1853 2.91397 15.2493 2.94597 15.284C2.98064 15.3187 3.0433 15.336 3.13397 15.336H3.65397V14.856H4.05797V15.688Z" fill="black"/>
<path d="M5.05853 14.544V15.336H5.27853V15.688H4.41853V15.336H4.63853V13.372H4.41853V13.02H5.63853C5.81187 13.02 5.94787 13.0653 6.04653 13.156C6.1452 13.2467 6.19453 13.3733 6.19453 13.536V13.992C6.19453 14.1573 6.14387 14.2907 6.04253 14.392C5.9412 14.4933 5.80653 14.544 5.63853 14.544H5.05853ZM5.05853 14.184H5.46653C5.58653 14.184 5.66787 14.1653 5.71053 14.128C5.7532 14.0907 5.77453 14.02 5.77453 13.916V13.66C5.77453 13.5507 5.7572 13.476 5.72253 13.436C5.68787 13.3933 5.62387 13.372 5.53053 13.372H5.05853V14.184Z" fill="black"/>
<path d="M8.0775 15.688H7.0015C6.84684 15.688 6.72284 15.6387 6.6295 15.54C6.53617 15.4413 6.4895 15.3107 6.4895 15.148V13.56C6.4895 13.4107 6.5335 13.284 6.6215 13.18C6.71217 13.0733 6.85084 13.02 7.0375 13.02H8.0415V13.852H7.6335V13.372H7.1975C7.08817 13.372 7.0135 13.388 6.9735 13.42C6.93617 13.452 6.9175 13.5133 6.9175 13.604V15.092C6.9175 15.1853 6.9335 15.2493 6.9655 15.284C7.00017 15.3187 7.06284 15.336 7.1535 15.336H7.6735V14.856H8.0775V15.688Z" fill="black"/>
<path d="M11.1333 14.928V15.688H10.7133V14.928H9.61328V14.512L10.6733 13.02H11.1333V14.568H11.4253V14.928H11.1333ZM10.7133 14.568V13.592L10.0213 14.568H10.7133Z" fill="black"/>
<path d="M12.1607 14.188H12.8287C12.9834 14.188 13.1101 14.232 13.2087 14.32C13.3074 14.408 13.3567 14.5213 13.3567 14.66V15.192C13.3567 15.3413 13.3061 15.4653 13.2047 15.564C13.1061 15.66 12.9781 15.708 12.8207 15.708H12.2807C12.0834 15.708 11.9394 15.6453 11.8487 15.52C11.7767 15.4213 11.7407 15.2787 11.7407 15.092V13.548C11.7407 13.3773 11.7887 13.244 11.8847 13.148C11.9807 13.0493 12.1114 13 12.2767 13H12.8007C12.9554 13 13.0821 13.048 13.1807 13.144C13.2794 13.2373 13.3287 13.3587 13.3287 13.508V13.732H12.9007V13.64C12.9007 13.5307 12.8821 13.456 12.8447 13.416C12.8101 13.3733 12.7447 13.352 12.6487 13.352H12.4287C12.3301 13.352 12.2607 13.372 12.2207 13.412C12.1807 13.4493 12.1607 13.516 12.1607 13.612V14.188ZM12.1607 14.544V15.096C12.1607 15.1947 12.1767 15.2627 12.2087 15.3C12.2407 15.3373 12.2981 15.356 12.3807 15.356H12.6727C12.8434 15.356 12.9287 15.268 12.9287 15.092V14.812C12.9287 14.7107 12.9101 14.6413 12.8727 14.604C12.8381 14.564 12.7727 14.544 12.6767 14.544H12.1607Z" fill="black"/>
<path d="M15.2388 14.928V15.688H14.8188V14.928H13.7188V14.512L14.7788 13.02H15.2388V14.568H15.5308V14.928H15.2388ZM14.8188 14.568V13.592L14.1268 14.568H14.8188Z" fill="black"/>
</svg>
