<svg width="18" height="18" viewBox="0 0 18 18" fill="none" xmlns="http://www.w3.org/2000/svg">
<path d="M9.22266 4.15385C10.0547 4.15385 11.0977 3.60458 11.7187 2.87222C12.2812 2.20852 12.6914 1.28163 12.6914 0.354736C12.6914 0.228862 12.6797 0.102988 12.6562 0C11.7305 0.0343293 10.6172 0.606485 9.94922 1.37317C9.42188 1.95677 8.94141 2.87222 8.94141 3.81055C8.94141 3.94787 8.96484 4.08519 8.97656 4.13096C9.03516 4.1424 9.12891 4.15385 9.22266 4.15385ZM6.29297 18C7.42969 18 7.93359 17.2562 9.35156 17.2562C10.793 17.2562 11.1094 17.9771 12.375 17.9771C13.6172 17.9771 14.4492 16.8557 15.2344 15.7572C16.1133 14.4984 16.4766 13.2626 16.5 13.2053C16.418 13.1825 14.0391 12.2327 14.0391 9.56643C14.0391 7.25493 15.9141 6.2136 16.0195 6.1335C14.7773 4.39415 12.8906 4.34838 12.375 4.34838C10.9805 4.34838 9.84375 5.17228 9.12891 5.17228C8.35547 5.17228 7.33594 4.39415 6.12891 4.39415C3.83203 4.39415 1.5 6.24793 1.5 9.74952C1.5 11.9237 2.36719 14.2238 3.43359 15.7114C4.34766 16.9701 5.14453 18 6.29297 18Z" fill="black"/>
</svg>
