<svg width="18" height="18" viewBox="0 0 18 18" fill="none" xmlns="http://www.w3.org/2000/svg">
<path d="M15.2333 13.2177H17C16.447 14.3402 15.5982 15.2195 14.4536 15.8554C13.1431 16.5853 11.545 16.9502 9.65941 16.9502C7.83463 16.9502 6.25868 16.6406 4.93157 16.0213C3.60446 15.4075 2.61742 14.5006 1.97045 13.3007C1.32348 12.0952 1 10.7847 1 9.3691C1 7.81528 1.36772 6.36928 2.10316 5.0311C2.8386 3.6874 3.845 2.68101 5.12234 2.01192C6.39969 1.33731 7.85951 1 9.50181 1C10.8953 1 12.1339 1.27095 13.2177 1.81286C14.3015 2.35476 15.1282 3.12614 15.6978 4.12701C16.2729 5.12234 16.5604 6.21168 16.5604 7.39502C16.5604 8.80508 16.1263 10.0797 15.2582 11.2188C14.1688 12.6565 12.7726 13.3753 11.0695 13.3753C10.6105 13.3753 10.2649 13.2951 10.0327 13.1348C9.80041 12.9744 9.64559 12.7394 9.56817 12.4298C8.91567 13.0601 8.16364 13.3753 7.31208 13.3753C6.39416 13.3753 5.63107 13.0601 5.02281 12.4298C4.42008 11.7938 4.11871 10.9506 4.11871 9.89995C4.11871 8.60048 4.48367 7.41438 5.21358 6.34163C6.09832 5.03663 7.2319 4.38414 8.61431 4.38414C9.59858 4.38414 10.3257 4.76015 10.7957 5.51218L11.0031 4.5915H13.1928L11.9404 10.5386C11.863 10.9146 11.8243 11.1579 11.8243 11.2685C11.8243 11.4068 11.8547 11.5118 11.9155 11.5837C11.9819 11.6501 12.0593 11.6833 12.1477 11.6833C12.4132 11.6833 12.756 11.5229 13.1763 11.2022C13.7403 10.7819 14.1965 10.2179 14.5448 9.51011C14.8932 8.80232 15.0674 8.06964 15.0674 7.31208C15.0674 5.95179 14.5753 4.81545 13.591 3.90306C12.6067 2.98514 11.2326 2.52618 9.46864 2.52618C7.97011 2.52618 6.69829 2.83307 5.65319 3.44686C4.61362 4.05512 3.82841 4.91498 3.29756 6.02644C2.77225 7.13237 2.50959 8.28529 2.50959 9.48523C2.50959 10.652 2.80266 11.7137 3.3888 12.6703C3.98047 13.6269 4.80715 14.3237 5.86884 14.7605C6.93606 15.2029 8.15535 15.4241 9.5267 15.4241C10.8483 15.4241 11.9846 15.2388 12.9357 14.8683C13.8868 14.5034 14.6527 13.9532 15.2333 13.2177ZM6.26698 9.80871C6.26698 10.511 6.40798 11.028 6.68999 11.3598C6.97754 11.6915 7.33143 11.8574 7.75168 11.8574C8.06687 11.8574 8.36271 11.78 8.63919 11.6252C8.84932 11.5146 9.05668 11.3404 9.26128 11.1026C9.55435 10.7653 9.80594 10.2732 10.0161 9.62623C10.2317 8.97926 10.3396 8.37653 10.3396 7.81804C10.3396 7.19319 10.193 6.71488 9.89995 6.3831C9.61241 6.04579 9.24745 5.87714 8.80508 5.87714C8.32953 5.87714 7.88993 6.06238 7.48626 6.43287C7.0826 6.79782 6.77847 7.32037 6.57387 8.00052C6.36928 8.68066 6.26698 9.28339 6.26698 9.80871Z" fill="black"/>
</svg>
