<svg width="18" height="18" viewBox="0 0 18 18" fill="none" xmlns="http://www.w3.org/2000/svg">
<path d="M13.0842 9.86202C13.0576 9.81656 13.0415 9.76193 13.0415 9.70131C13.0415 9.64636 13.0555 9.5966 13.0771 9.55394C13.1053 9.50916 13.1524 9.48072 13.1907 9.45757C13.1925 9.45646 13.1946 9.45521 13.1964 9.45413C13.2018 9.45087 13.2069 9.44771 13.2118 9.44461C13.6866 9.15584 14.024 8.54882 14.024 7.84579C14.024 6.90301 13.4307 6.1305 12.6948 6.07092C12.6031 6.05889 12.396 6.06009 12.396 6.06009H11.3584C10.9983 6.06009 10.7054 6.45012 10.7054 6.93049L10.7066 6.93198V11.9435H11.5934V7.28966H11.5929C11.5929 7.14381 11.6817 7.02483 11.7909 7.02483H12.3892C12.4434 7.02483 12.6059 7.02899 12.6381 7.03507C12.9026 7.06417 13.1176 7.31564 13.18 7.64808C13.1833 7.66174 13.1857 7.67527 13.1876 7.68892V7.69188C13.1909 7.71173 13.1927 7.73074 13.1944 7.74997L13.1946 7.75146C13.1978 7.78222 13.1983 7.8137 13.1983 7.84579C13.1983 8.15192 13.0719 8.41972 12.8844 8.5586C12.8467 8.58875 12.8071 8.61489 12.7659 8.63749C12.7365 8.65515 12.7023 8.67164 12.6667 8.68767C12.4272 8.80028 12.3248 8.86682 12.2249 8.99484C12.1129 9.1511 12.042 9.36234 12.0402 9.59569C12.0383 9.81493 12.0957 10.0153 12.1931 10.1707L13.3196 11.9442H14.3746L13.0842 9.86202Z" fill="black"/>
<path fill-rule="evenodd" clip-rule="evenodd" d="M2.25303 6.06455C1.9656 6.06455 1.7205 6.24262 1.62561 6.49708V6.50183L0 11.9442H0.974424L1.34992 10.466H3.16085L3.55537 11.9442H4.55353L2.88519 6.49708H2.88044C2.78461 6.24382 2.54059 6.06455 2.25303 6.06455ZM2.2435 7.3146L2.87092 9.70073H1.63036L2.2435 7.3146Z" fill="black"/>
<path fill-rule="evenodd" clip-rule="evenodd" d="M7.59622 6.49708C7.69114 6.24262 7.93636 6.06455 8.22363 6.06455C8.51116 6.06455 8.75512 6.24382 8.85105 6.49708H8.8558L10.5241 11.9442H9.52601L9.13149 10.466H7.32052L6.94503 11.9442H5.97064L7.59622 6.50183V6.49708ZM8.84155 9.70073L8.2141 7.3146L7.60096 9.70073H8.84155Z" fill="black"/>
<path d="M17.5244 11.9357C17.4916 11.9357 17.4156 11.9164 17.2763 11.7875C17.1575 11.6775 17.0392 11.5668 16.9211 11.4554C16.7878 11.3294 16.6849 11.2707 16.597 11.2707C16.5436 11.2707 16.4941 11.292 16.4498 11.3341C16.4054 11.3766 16.3819 11.4322 16.3819 11.495C16.3819 11.5612 16.4052 11.6181 16.4511 11.6639C16.482 11.6948 16.5181 11.7155 16.5591 11.7257V11.9315C16.4666 11.9185 16.3865 11.8762 16.3156 11.8031C16.2286 11.7132 16.1862 11.6109 16.1862 11.4904C16.1862 11.3708 16.2283 11.2724 16.315 11.1898C16.4025 11.1063 16.5016 11.0658 16.6177 11.0658C16.7398 11.0658 16.8636 11.1254 16.9858 11.2429C17.1206 11.3726 17.2494 11.4978 17.3719 11.6183L17.4783 11.7229L17.4836 11.0658H17.6729V11.8494C17.6729 11.8629 17.6572 11.881 17.63 11.899C17.5931 11.9234 17.5576 11.9357 17.5244 11.9357Z" fill="black"/>
<path fill-rule="evenodd" clip-rule="evenodd" d="M16.8721 10.6328C17.0787 10.7233 17.156 10.7368 17.1838 10.7368C17.3216 10.7368 17.4404 10.6931 17.5469 10.6033C17.6502 10.5161 17.7005 10.4104 17.7005 10.28C17.7005 10.1356 17.6541 10.0148 17.5584 9.91086C17.4642 9.80843 17.3499 9.75868 17.2091 9.75868C17.0808 9.75868 16.9783 9.80271 16.8957 9.89337C16.8116 9.98572 16.7707 10.1001 16.7707 10.2431V10.3433L16.1862 10.0648V10.3015C16.2143 10.3165 16.2716 10.3464 16.3885 10.4053C16.5455 10.4846 16.7082 10.5611 16.8721 10.6328ZM17.0192 10.0515C17.0749 9.99775 17.1426 9.9705 17.2207 9.9705C17.292 9.9705 17.3549 9.99509 17.4075 10.0437C17.4613 10.0936 17.4886 10.1615 17.4886 10.2454C17.4886 10.3265 17.4641 10.3931 17.4159 10.4434C17.3669 10.4944 17.2997 10.5204 17.2161 10.5204C17.1499 10.5204 17.0864 10.4942 17.0273 10.4427C16.9655 10.389 16.9342 10.3234 16.9342 10.2478C16.9342 10.172 16.9627 10.106 17.0192 10.0515Z" fill="black"/>
<path fill-rule="evenodd" clip-rule="evenodd" d="M16.9537 9.50568C16.7345 9.50568 16.5538 9.43089 16.4014 9.27707C16.2488 9.123 16.1747 8.94746 16.1747 8.74055C16.1747 8.53815 16.2488 8.36492 16.4014 8.21082C16.5539 8.05697 16.7255 7.98211 16.926 7.98211C17.1252 7.98211 17.2982 8.04965 17.4549 8.18838C17.6094 8.32515 17.6845 8.49825 17.6845 8.71749C17.6845 8.93247 17.6179 9.11435 17.481 9.27337C17.3467 9.42972 17.1743 9.50568 16.9537 9.50568ZM16.926 8.19404C16.7867 8.19404 16.6608 8.24851 16.5515 8.35598C16.442 8.46375 16.3865 8.59002 16.3865 8.73128C16.3865 8.89143 16.4446 9.0273 16.5594 9.13519C16.6731 9.24202 16.8058 9.29619 16.9537 9.29619C17.1098 9.29619 17.2399 9.23955 17.3402 9.12794C17.4387 9.01826 17.4886 8.88558 17.4886 8.73362C17.4886 8.58657 17.4361 8.45861 17.3325 8.35328C17.2284 8.24756 17.0917 8.19404 16.926 8.19404Z" fill="black"/>
<path fill-rule="evenodd" clip-rule="evenodd" d="M16.4014 7.48897C16.5538 7.64281 16.7344 7.7176 16.9537 7.7176C17.1743 7.7176 17.3467 7.64167 17.481 7.48539C17.6179 7.32627 17.6845 7.1444 17.6845 6.92942C17.6845 6.71017 17.6094 6.53708 17.4549 6.4003C17.2983 6.26158 17.1252 6.1941 16.926 6.1941C16.7255 6.1941 16.5539 6.26889 16.4014 6.42274C16.2488 6.57685 16.1747 6.75007 16.1747 6.95247C16.1747 7.15939 16.2488 7.33492 16.4014 7.48897ZM16.5515 6.56794C16.6608 6.46043 16.7867 6.40596 16.926 6.40596C17.0917 6.40596 17.2284 6.45949 17.3325 6.56521C17.4361 6.67057 17.4886 6.79849 17.4886 6.94554C17.4886 7.0975 17.4387 7.23018 17.3402 7.33987C17.2399 7.45147 17.1098 7.50809 16.9537 7.50809C16.8058 7.50809 16.6731 7.45394 16.5594 7.34712C16.4446 7.23922 16.3865 7.10336 16.3865 6.9432C16.3865 6.80194 16.442 6.67567 16.5515 6.56794Z" fill="black"/>
<path fill-rule="evenodd" clip-rule="evenodd" d="M15.72 6.36921C15.7155 6.36571 15.709 6.36397 15.7004 6.36397H15.6861V6.42831H15.6617V6.27691H15.7137C15.7314 6.27691 15.7443 6.27834 15.7523 6.28113C15.7602 6.28393 15.7665 6.28879 15.7713 6.29574C15.776 6.30273 15.7784 6.31013 15.7784 6.31797C15.7784 6.32898 15.7744 6.33862 15.7665 6.34684C15.7586 6.35503 15.7482 6.35964 15.7351 6.36062C15.7405 6.36284 15.7448 6.36556 15.748 6.36864C15.754 6.37461 15.7615 6.3846 15.7704 6.39865L15.7888 6.42831H15.759L15.7456 6.40443C15.735 6.38569 15.7265 6.37392 15.72 6.36921ZM15.7384 6.30006C15.734 6.29828 15.7258 6.29744 15.7138 6.29744H15.6861V6.34311H15.7157C15.7299 6.34311 15.7395 6.34098 15.7447 6.33678C15.7499 6.33254 15.7524 6.32695 15.7524 6.32C15.7524 6.31554 15.7512 6.31152 15.7487 6.30796C15.7462 6.30442 15.7428 6.30179 15.7384 6.30006Z" fill="black"/>
<path fill-rule="evenodd" clip-rule="evenodd" d="M15.7234 6.20981C15.747 6.20981 15.77 6.21585 15.7925 6.22802C15.815 6.24013 15.8325 6.25744 15.8451 6.28C15.8576 6.30256 15.8639 6.3261 15.8639 6.35055C15.8639 6.3748 15.8577 6.3981 15.8454 6.42047C15.833 6.44285 15.8157 6.46021 15.7934 6.47258C15.7711 6.48492 15.7477 6.4911 15.7234 6.4911C15.699 6.4911 15.6757 6.48492 15.6534 6.47258C15.6311 6.46021 15.6137 6.44285 15.6013 6.42047C15.5889 6.3981 15.5826 6.3748 15.5826 6.35055C15.5826 6.3261 15.5889 6.30256 15.6016 6.28C15.6141 6.25744 15.6317 6.24013 15.6542 6.22802C15.6767 6.21585 15.6998 6.20981 15.7234 6.20981ZM15.7234 6.23314C15.7036 6.23314 15.6844 6.23819 15.6657 6.2483C15.647 6.25843 15.6324 6.2729 15.6218 6.29177C15.6112 6.31058 15.6059 6.33019 15.6059 6.35055C15.6059 6.37083 15.6111 6.39023 15.6215 6.40883C15.6318 6.42738 15.6464 6.44189 15.665 6.45226C15.6837 6.46264 15.7031 6.4678 15.7234 6.4678C15.7436 6.4678 15.7631 6.46264 15.7817 6.45226C15.8004 6.44189 15.8148 6.42738 15.8251 6.40883C15.8355 6.39023 15.8406 6.37083 15.8406 6.35055C15.8406 6.33019 15.8353 6.31058 15.8249 6.29177C15.8144 6.2729 15.7998 6.25843 15.781 6.2483C15.7622 6.23819 15.743 6.23314 15.7234 6.23314Z" fill="black"/>
<path d="M17.9231 6.3208L17.8831 6.1941H17.8441V6.35272H17.8684V6.21765L17.9111 6.35272H17.935L17.9759 6.21957V6.35272H18V6.1941H17.9619L17.9231 6.3208Z" fill="black"/>
<path d="M15.3938 6.20981H14.4815V11.9442H15.3938V6.20981Z" fill="black"/>
<path d="M3.41735 6.95813V6.18812H7.16758V6.95813H5.74641V11.9442H4.8338V6.95813H3.41735Z" fill="black"/>
<path d="M17.7481 6.21765V6.35272H17.7746V6.21765H17.8264V6.1941H17.6967V6.21765H17.7481Z" fill="black"/>
</svg>
