<svg width="18" height="18" viewBox="0 0 18 18" fill="none" xmlns="http://www.w3.org/2000/svg">
<path d="M1.33174 3.72998V4.90523C1.43403 4.78658 1.54756 4.69861 1.67235 4.64133C1.79918 4.58201 1.93624 4.55235 2.08353 4.55235C2.25332 4.55235 2.40061 4.57894 2.5254 4.63213C2.65019 4.68532 2.74531 4.75998 2.81077 4.85613C2.87624 4.95228 2.9151 5.04638 2.92738 5.13844C2.9417 5.23049 2.94886 5.42688 2.94886 5.72759V7.56258C2.94886 7.86125 2.9284 8.08423 2.88749 8.23151C2.84862 8.37676 2.75554 8.50359 2.60825 8.61201C2.46096 8.71839 2.28606 8.77158 2.08353 8.77158C1.93829 8.77158 1.80225 8.73987 1.67542 8.67645C1.55063 8.61304 1.43607 8.51791 1.33174 8.39108L1.25196 8.69793H0.0920559V3.72998H1.33174ZM1.70917 5.78283C1.70917 5.57212 1.69587 5.43506 1.66928 5.37164C1.64269 5.30618 1.59052 5.27345 1.51279 5.27345C1.4371 5.27345 1.388 5.30209 1.3655 5.35937C1.34299 5.4146 1.33174 5.55576 1.33174 5.78283V7.53803C1.33174 7.75692 1.34402 7.89705 1.36856 7.95842C1.39516 8.01979 1.4463 8.05047 1.52199 8.05047C1.59973 8.05047 1.64985 8.01876 1.67235 7.95535C1.6969 7.89193 1.70917 7.73953 1.70917 7.49814V5.78283Z" fill="black"/>
<path d="M4.63348 3.72998V8.69793H3.35697V3.72998H4.63348Z" fill="black"/>
<path d="M6.18923 6.20322H5.02625V5.93012C5.02625 5.61508 5.06205 5.37267 5.13365 5.20288C5.2073 5.03104 5.35356 4.87966 5.57245 4.74873C5.79134 4.61781 6.07569 4.55235 6.4255 4.55235C6.84487 4.55235 7.16093 4.62701 7.37368 4.77635C7.58643 4.92364 7.71429 5.10571 7.75725 5.32255C7.8002 5.53735 7.82168 5.98126 7.82168 6.65429V8.69793H6.61575V8.33585C6.54006 8.48109 6.44187 8.59053 6.32117 8.66418C6.20252 8.73578 6.06035 8.77158 5.89465 8.77158C5.6778 8.77158 5.47835 8.71123 5.29628 8.59053C5.11626 8.46779 5.02625 8.20083 5.02625 7.78965V7.45518C5.02625 7.15037 5.07433 6.94273 5.17047 6.83226C5.26662 6.7218 5.50494 6.59292 5.88544 6.44563C6.29253 6.28607 6.5104 6.17867 6.53904 6.12343C6.56768 6.0682 6.582 5.95569 6.582 5.7859C6.582 5.57314 6.56563 5.43506 6.5329 5.37164C6.50222 5.30618 6.45005 5.27345 6.37641 5.27345C6.29253 5.27345 6.24037 5.30107 6.21991 5.3563C6.19945 5.40949 6.18923 5.54962 6.18923 5.77669V6.20322ZM6.582 6.76169C6.38357 6.90693 6.26799 7.02865 6.23525 7.12684C6.20457 7.22504 6.18923 7.36619 6.18923 7.5503C6.18923 7.76101 6.20252 7.89705 6.22912 7.95842C6.25776 8.01979 6.31299 8.05047 6.39482 8.05047C6.47255 8.05047 6.52267 8.02695 6.54518 7.9799C6.56972 7.9308 6.582 7.80397 6.582 7.5994V6.76169Z" fill="black"/>
<path d="M10.9884 6.16333H9.8193V5.69384C9.8193 5.53019 9.806 5.41972 9.77941 5.36244C9.75281 5.30311 9.70372 5.27345 9.63212 5.27345C9.56052 5.27345 9.51245 5.29902 9.4879 5.35016C9.46335 5.40131 9.45107 5.51587 9.45107 5.69384V7.61474C9.45107 7.75998 9.46949 7.86943 9.50631 7.94307C9.54313 8.01467 9.59734 8.05047 9.66894 8.05047C9.75281 8.05047 9.80907 8.01263 9.83771 7.93694C9.86839 7.86125 9.88374 7.71805 9.88374 7.50734V7.02251H10.9884C10.9864 7.34778 10.9741 7.59224 10.9516 7.75589C10.9311 7.9175 10.8626 8.08423 10.746 8.25606C10.6314 8.42586 10.4811 8.55473 10.2949 8.6427C10.1088 8.72862 9.87862 8.77158 9.6045 8.77158C9.25469 8.77158 8.9775 8.71225 8.77293 8.5936C8.56836 8.47291 8.42312 8.30516 8.3372 8.09036C8.25332 7.87352 8.21139 7.56667 8.21139 7.1698V6.01297C8.21139 5.66725 8.24616 5.40642 8.31572 5.23049C8.38527 5.05456 8.53358 4.89807 8.76066 4.76101C8.98773 4.6219 9.26389 4.55235 9.58916 4.55235C9.91238 4.55235 10.1885 4.62088 10.4177 4.75794C10.6468 4.895 10.7992 5.06786 10.8749 5.27652C10.9506 5.48518 10.9884 5.78078 10.9884 6.16333Z" fill="black"/>
<path d="M14.0293 4.62599L13.5261 6.24924L14.1797 8.69793H12.986L12.5994 6.92432V8.69793H11.3597V3.72998H12.5994V5.81658L12.986 4.62599H14.0293Z" fill="black"/>
<path d="M2.62359 11.4259H1.52506V11.2049C1.52506 11.0167 1.51381 10.8981 1.49131 10.849C1.47085 10.7978 1.41766 10.7723 1.33174 10.7723C1.26219 10.7723 1.21002 10.7958 1.17525 10.8428C1.14047 10.8878 1.12308 10.9564 1.12308 11.0484C1.12308 11.1732 1.13126 11.2653 1.14763 11.3246C1.16604 11.3819 1.21821 11.4453 1.30413 11.5148C1.39209 11.5844 1.57109 11.6857 1.84112 11.8186C2.20116 11.9946 2.43744 12.1603 2.54995 12.3157C2.66246 12.4712 2.71872 12.6972 2.71872 12.9939C2.71872 13.3253 2.67576 13.5759 2.58984 13.7457C2.50392 13.9134 2.3597 14.0433 2.15718 14.1354C1.9567 14.2254 1.71429 14.2704 1.42994 14.2704C1.1149 14.2704 0.844869 14.2213 0.619843 14.1231C0.396863 14.0249 0.243437 13.8919 0.159564 13.7242C0.0756904 13.5564 0.0337538 13.3028 0.0337538 12.9632V12.7668H1.13229V13.0246C1.13229 13.2434 1.14558 13.3856 1.17218 13.4511C1.20082 13.5165 1.25605 13.5493 1.33788 13.5493C1.42584 13.5493 1.48721 13.5278 1.52199 13.4848C1.55677 13.4398 1.57416 13.3468 1.57416 13.2056C1.57416 13.0113 1.55165 12.8895 1.50665 12.8404C1.4596 12.7914 1.21923 12.6461 0.785544 12.4047C0.421412 12.2001 0.199454 12.015 0.119673 11.8493C0.0398909 11.6816 0 11.4831 0 11.254C0 10.9288 0.0429594 10.6894 0.128878 10.536C0.214797 10.3805 0.360041 10.2608 0.56461 10.177C0.771224 10.0931 1.01057 10.0512 1.28265 10.0512C1.55268 10.0512 1.78179 10.0859 1.97 10.1555C2.16025 10.223 2.30549 10.313 2.40573 10.4255C2.50801 10.538 2.56938 10.6424 2.58984 10.7385C2.61234 10.8347 2.62359 10.985 2.62359 11.1896V11.4259Z" fill="black"/>
<path d="M4.35731 9.58167V10.223H4.69178V10.8674H4.35731V13.046C4.35731 13.314 4.37061 13.4634 4.3972 13.494C4.42584 13.5247 4.54143 13.5401 4.74395 13.5401V14.1967H4.24378C3.96147 14.1967 3.75997 14.1855 3.63928 14.163C3.51858 14.1384 3.41221 14.0842 3.32015 14.0004C3.22809 13.9144 3.17082 13.8173 3.14831 13.7088C3.12581 13.5984 3.11456 13.3406 3.11456 12.9356V10.8674H2.8476V10.223H3.11456V9.58167H4.35731Z" fill="black"/>
<path d="M7.76952 11.5547V12.552C7.76952 12.9182 7.75111 13.1872 7.71429 13.359C7.67746 13.5288 7.5987 13.6884 7.47801 13.8377C7.35731 13.985 7.20184 14.0945 7.01159 14.1661C6.82339 14.2356 6.60655 14.2704 6.36106 14.2704C6.08694 14.2704 5.85476 14.2407 5.66451 14.1814C5.47426 14.12 5.32595 14.029 5.21957 13.9083C5.11524 13.7856 5.04057 13.6383 4.99557 13.4664C4.95056 13.2925 4.92806 13.0327 4.92806 12.687V11.6437C4.92806 11.2653 4.96897 10.9697 5.0508 10.7569C5.13263 10.5442 5.27992 10.3733 5.49267 10.2445C5.70542 10.1156 5.9775 10.0512 6.3089 10.0512C6.58711 10.0512 6.82544 10.0931 7.02387 10.177C7.22434 10.2588 7.37879 10.3662 7.48721 10.4992C7.59564 10.6321 7.66928 10.7692 7.70815 10.9103C7.74906 11.0515 7.76952 11.2663 7.76952 11.5547ZM6.52983 11.2479C6.52983 11.0392 6.51858 10.9083 6.49608 10.8551C6.47358 10.7999 6.4255 10.7723 6.35186 10.7723C6.27821 10.7723 6.22912 10.7999 6.20457 10.8551C6.18002 10.9083 6.16775 11.0392 6.16775 11.2479V13.0859C6.16775 13.2782 6.18002 13.404 6.20457 13.4634C6.22912 13.5206 6.27719 13.5493 6.34879 13.5493C6.42243 13.5493 6.47051 13.5227 6.49301 13.4695C6.51756 13.4163 6.52983 13.3018 6.52983 13.1258V11.2479Z" fill="black"/>
<path d="M9.42039 10.1248L9.37129 10.6587C9.55131 10.2762 9.81214 10.0737 10.1538 10.0512V11.4842C9.9267 11.4842 9.75997 11.5148 9.6536 11.5762C9.54722 11.6376 9.48176 11.7235 9.45721 11.834C9.43266 11.9424 9.42039 12.194 9.42039 12.5888V14.1967H8.1807V10.1248H9.42039Z" fill="black"/>
<path d="M11.7095 9.22879V9.87625H10.433V9.22879H11.7095ZM11.7095 10.1248V14.1967H10.433V10.1248H11.7095Z" fill="black"/>
<path d="M14.9652 12.2329H13.3604V13.1135C13.3604 13.2977 13.3737 13.4163 13.4003 13.4695C13.4269 13.5227 13.478 13.5493 13.5537 13.5493C13.6478 13.5493 13.7102 13.5145 13.7409 13.4449C13.7736 13.3733 13.79 13.2363 13.79 13.0338V12.4968H14.9652V12.7975C14.9652 13.0491 14.9489 13.2424 14.9161 13.3774C14.8854 13.5125 14.8118 13.6567 14.6952 13.8101C14.5786 13.9635 14.4303 14.0791 14.2503 14.1568C14.0723 14.2325 13.8483 14.2704 13.5782 14.2704C13.3164 14.2704 13.0852 14.2325 12.8848 14.1568C12.6843 14.0812 12.5278 13.9779 12.4153 13.8469C12.3048 13.714 12.2281 13.5687 12.1851 13.4112C12.1422 13.2516 12.1207 13.0205 12.1207 12.7177V11.5302C12.1207 11.1742 12.1688 10.894 12.2649 10.6894C12.3611 10.4828 12.5186 10.3253 12.7375 10.2169C12.9564 10.1064 13.208 10.0512 13.4923 10.0512C13.8401 10.0512 14.1265 10.1176 14.3515 10.2506C14.5786 10.3815 14.7371 10.5564 14.8271 10.7753C14.9192 10.9922 14.9652 11.298 14.9652 11.6928V12.2329ZM13.7225 11.5701V11.2724C13.7225 11.0617 13.7112 10.9257 13.6887 10.8643C13.6662 10.8029 13.6202 10.7723 13.5506 10.7723C13.4647 10.7723 13.4115 10.7989 13.3911 10.852C13.3706 10.9032 13.3604 11.0433 13.3604 11.2724V11.5701H13.7225Z" fill="black"/>
<path d="M17.9049 11.4259H16.8063V11.2049C16.8063 11.0167 16.7951 10.8981 16.7726 10.849C16.7521 10.7978 16.6989 10.7723 16.613 10.7723C16.5435 10.7723 16.4913 10.7958 16.4565 10.8428C16.4218 10.8878 16.4044 10.9564 16.4044 11.0484C16.4044 11.1732 16.4125 11.2653 16.4289 11.3246C16.4473 11.3819 16.4995 11.4453 16.5854 11.5148C16.6734 11.5844 16.8524 11.6857 17.1224 11.8186C17.4824 11.9946 17.7187 12.1603 17.8312 12.3157C17.9437 12.4712 18 12.6972 18 12.9939C18 13.3253 17.957 13.5759 17.8711 13.7457C17.7852 13.9134 17.641 14.0433 17.4385 14.1354C17.238 14.2254 16.9956 14.2704 16.7112 14.2704C16.3962 14.2704 16.1262 14.2213 15.9011 14.1231C15.6781 14.0249 15.5247 13.8919 15.4408 13.7242C15.357 13.5564 15.315 13.3028 15.315 12.9632V12.7668H16.4136V13.0246C16.4136 13.2434 16.4269 13.3856 16.4535 13.4511C16.4821 13.5165 16.5373 13.5493 16.6192 13.5493C16.7071 13.5493 16.7685 13.5278 16.8033 13.4848C16.8381 13.4398 16.8554 13.3468 16.8554 13.2056C16.8554 13.0113 16.8329 12.8895 16.7879 12.8404C16.7409 12.7914 16.5005 12.6461 16.0668 12.4047C15.7027 12.2001 15.4807 12.015 15.401 11.8493C15.3212 11.6816 15.2813 11.4831 15.2813 11.254C15.2813 10.9288 15.3242 10.6894 15.4102 10.536C15.4961 10.3805 15.6413 10.2608 15.8459 10.177C16.0525 10.0931 16.2919 10.0512 16.5639 10.0512C16.834 10.0512 17.0631 10.0859 17.2513 10.1555C17.4415 10.223 17.5868 10.313 17.687 10.4255C17.7893 10.538 17.8507 10.6424 17.8711 10.7385C17.8936 10.8347 17.9049 10.985 17.9049 11.1896V11.4259Z" fill="black"/>
</svg>
