<svg width="18" height="18" viewBox="0 0 18 18" fill="none" xmlns="http://www.w3.org/2000/svg">
<path d="M3.36044 11.5039C3.32181 11.5039 3.19025 11.5425 3.07419 11.7127C2.95818 11.8829 2.4321 12.7494 2.33928 12.9118C2.23865 13.0743 2.26965 13.1439 2.37791 13.1439C2.47073 13.1439 2.49397 13.1439 2.60998 13.1439C2.7183 13.1439 2.81887 13.0201 2.85755 12.935C2.91174 12.8577 3.53058 11.852 3.63115 11.7051C3.71622 11.558 3.66214 11.504 3.59246 11.504C3.53069 11.5039 3.36044 11.5039 3.36044 11.5039Z" fill="black"/>
<path d="M1.24848 13.1439C1.64306 13.1285 1.90607 13.1129 2.21552 12.5482C2.34703 12.2929 1.9757 12.2851 1.9757 12.2851C1.92151 12.2851 2.31609 12.2929 2.52497 11.8519C2.71841 11.4496 2.37797 11.4806 2.31614 11.4729C2.02214 11.4341 1.47286 11.4496 1.05515 11.4729C0.970029 11.4729 0.869462 11.5888 0.815276 11.6585C0.776644 11.7358 0.134499 12.7724 0.0416807 12.9194C-0.058942 13.0741 0.0416807 13.1361 0.142248 13.1438C0.436199 13.1594 0.807528 13.1594 1.24848 13.1439ZM1.58887 12.6024C1.48061 12.8267 1.27942 12.8345 1.16341 12.8345C1.05515 12.8345 0.892653 12.8345 0.853965 12.8345C0.815276 12.8345 0.776588 12.8345 0.815276 12.7494C0.869462 12.6798 0.946783 12.556 0.977778 12.5095C1.00872 12.4554 1.0396 12.4399 1.10923 12.4399C1.10923 12.4399 1.3723 12.4399 1.44192 12.4399C1.5038 12.4399 1.66625 12.4322 1.58887 12.6024ZM1.87508 11.9371C1.76682 12.1613 1.55793 12.1613 1.44962 12.1613C1.33361 12.1613 1.31036 12.1613 1.26398 12.1613C1.23299 12.1613 1.17886 12.1613 1.23299 12.0917C1.28717 12.0143 1.34899 11.8828 1.38768 11.8364C1.42632 11.79 1.45731 11.7667 1.5115 11.7667C1.5115 11.7667 1.67394 11.7667 1.73582 11.7667C1.79775 11.7668 1.96026 11.7668 1.87508 11.9371Z" fill="black"/>
<path d="M14.1291 12.1227L13.6186 12.9349C13.5103 13.1051 13.6032 13.1439 13.6572 13.1439C13.7115 13.1439 13.7887 13.1439 13.8816 13.1439C13.9666 13.1439 14.0286 13.1361 14.1601 12.9349L14.6707 12.1072C14.8099 11.8828 14.6397 11.8984 14.5314 11.8984C14.3381 11.9061 14.2917 11.8984 14.1291 12.1227Z" fill="black"/>
<path d="M16.2335 12.1768H15.6222C15.5604 12.1768 15.4752 12.2311 15.4288 12.2929C15.3902 12.3548 15.4134 12.4167 15.4752 12.4167C15.4752 12.409 15.7227 12.4167 15.9084 12.4167C16.1018 12.409 16.1715 12.5405 15.9627 12.8267C15.9239 12.8885 15.8388 12.9892 15.7691 13.0278C15.7691 13.0278 15.5989 13.167 15.0497 13.167C14.5468 13.167 14.5236 13.1128 14.5236 13.1128C14.4773 13.0741 14.4619 13.0046 14.4773 12.9657C14.5005 12.9348 14.5779 12.9039 14.6397 12.9039H15.2741C15.3359 12.9039 15.4211 12.8498 15.4597 12.7801C15.5062 12.7183 15.4829 12.641 15.4211 12.641C15.4211 12.641 15.1735 12.641 14.9492 12.641C14.7249 12.641 14.7558 12.4938 14.926 12.2464C14.9724 12.1767 15.0575 12.0917 15.1194 12.0452C15.1194 12.0452 15.305 11.906 15.8466 11.906C16.0633 11.906 16.4268 11.8828 16.4036 12.0685C16.3959 12.1537 16.2721 12.1768 16.2335 12.1768Z" fill="black"/>
<path d="M17.8347 12.1846H17.3396C17.2777 12.1846 17.1926 12.2388 17.154 12.3161L16.86 12.7726C16.8213 12.8345 16.8446 12.9041 16.891 12.9041C16.891 12.9041 17.3939 12.9041 17.4789 12.9041C17.564 12.9041 17.6182 12.9118 17.6104 12.935C17.6027 13.0201 17.4789 13.1671 16.7904 13.1671C16.1715 13.1671 16.2102 13.082 16.2178 12.9893C16.2333 12.8886 16.5349 12.4091 16.6278 12.262C16.7207 12.1074 16.8522 11.9061 17.4633 11.9061C18.0359 11.9061 18.0048 12.0376 17.9971 12.0686C17.9972 12.0995 17.9663 12.1846 17.8347 12.1846Z" fill="black"/>
<path d="M14.9647 11.4342C15.011 11.4342 15.0653 11.4807 15.0265 11.558C14.9801 11.6199 14.9647 11.6509 14.9415 11.6973C14.9105 11.7436 14.8408 11.7668 14.7558 11.7668C14.6707 11.7668 14.4696 11.7668 14.4387 11.7668C14.3768 11.7668 14.3768 11.7127 14.4076 11.6587C14.4308 11.6123 14.4463 11.589 14.4696 11.558C14.4928 11.5194 14.5314 11.4342 14.6552 11.4342H14.9647Z" fill="black"/>
<path d="M5.71223 12.3238C5.59622 12.3238 5.54978 12.4013 5.52659 12.4399C5.51109 12.4709 5.4879 12.494 5.45696 12.5482C5.43372 12.6024 5.44147 12.6564 5.4724 12.6564C5.51104 12.6564 5.71992 12.6564 5.80504 12.6564C5.90567 12.6564 5.95974 12.6254 5.99068 12.5791C6.02168 12.5249 6.02937 12.5094 6.07581 12.4321C6.12994 12.3547 6.06031 12.3237 6.02162 12.3237L5.71223 12.3238Z" fill="black"/>
<path d="M13.402 12.6411C13.6031 12.3161 13.4793 12.5172 13.7655 12.0609C14.0441 11.5966 13.6031 11.5039 13.1698 11.5039C12.5045 11.5039 12.3033 11.5348 12.3033 11.5348C12.2338 11.5348 12.1409 11.5966 12.1023 11.6741L11.2976 12.9737C11.2513 13.0511 11.2667 13.1129 11.3287 13.1284C11.3287 13.1284 11.5221 13.1438 12.1873 13.1438C13.1003 13.1439 13.1853 12.9737 13.402 12.6411ZM13.1312 12.0609C13.1312 12.0609 12.7831 12.6101 12.7598 12.6411C12.7289 12.6875 12.6206 12.8345 12.4581 12.8345C12.3576 12.8345 12.2184 12.8345 12.1178 12.8345C12.0559 12.8345 12.0249 12.8267 12.0637 12.7648L12.6206 11.8751C12.6439 11.8442 12.6825 11.821 12.7289 11.821C12.8218 11.821 12.992 11.821 13.0615 11.821C13.1699 11.821 13.2008 11.9371 13.1312 12.0609Z" fill="black"/>
<path d="M8.07176 12.3858C7.87837 12.3858 7.81649 12.4012 7.6463 12.409C7.57667 12.409 7.48385 12.4631 7.44517 12.5404L7.28272 12.8189C7.08159 13.1361 7.51479 13.1593 7.85518 13.1593C8.40451 13.1593 8.66747 13.0046 8.66747 13.0046C8.73709 12.9736 8.82222 12.8885 8.86091 12.8189L9.21679 12.2387C9.25548 12.1768 9.27103 12.0685 9.23218 12.0066C9.23218 12.0066 9.1858 11.8984 8.63653 11.8984C8.095 11.8984 7.87837 11.9835 7.87837 11.9835C7.81649 12.0144 7.73912 12.0685 7.71587 12.0995C7.70049 12.1458 7.73137 12.1768 7.7933 12.1768H8.59784C8.65977 12.1768 8.68296 12.2311 8.65202 12.2851C8.5824 12.378 8.46639 12.3858 8.46639 12.3858H8.07176ZM8.38121 12.7648V12.7726C8.32702 12.85 8.21871 12.9196 8.15688 12.9196H7.84743C7.78555 12.9196 7.76231 12.85 7.81644 12.7726V12.7648C7.87062 12.6798 7.97888 12.6101 8.04076 12.6101H8.35021C8.41215 12.6101 8.43534 12.6798 8.38121 12.7648Z" fill="black"/>
<path d="M7.00421 12.2929C7.05834 12.2155 7.14341 12.1614 7.20529 12.1614H7.4528C7.49149 12.1614 7.61525 12.1537 7.62305 12.0764C7.6308 11.9526 7.36773 11.9217 7.26717 11.9217C6.90359 11.9217 6.7024 11.9372 6.49352 12.2466C6.33107 12.494 6.16862 12.7495 6.06031 12.9351C5.96749 13.1054 6.05262 13.144 6.10675 13.144C6.16093 13.144 6.246 13.144 6.33107 13.144C6.41614 13.144 6.47807 13.1363 6.60958 12.9351L7.00421 12.2929Z" fill="black"/>
<path d="M5.38734 12.1305L5.0392 12.7107C4.99276 12.7724 5.0392 12.8034 5.07783 12.8034C5.12427 12.8034 5.16295 12.8034 5.20164 12.8034C5.24033 12.8034 5.29446 12.8499 5.24802 12.9195C5.20939 12.9969 5.20164 13.0278 5.16301 13.0741C5.13202 13.1284 5.07789 13.1438 4.98507 13.1438C4.92324 13.1438 4.87681 13.1438 4.83806 13.1438C4.7375 13.1438 4.79163 12.9968 4.79163 12.9968C4.64468 13.1593 4.30429 13.1593 3.9484 13.1593C3.60807 13.1593 3.16706 13.1593 3.36825 12.8189L3.80146 12.1227C3.87108 12.0066 3.92521 11.9603 3.99484 11.9293C3.99484 11.9293 4.01028 11.906 4.19592 11.906C4.31973 11.906 4.48218 11.906 4.34298 12.1227L3.9484 12.7648C3.90202 12.8267 3.92521 12.8886 3.99484 12.8886H4.26555C4.33517 12.8886 4.4203 12.8269 4.47443 12.7648C4.47443 12.7648 4.67556 12.4167 4.85356 12.1305C4.89994 12.0609 5.01601 11.9061 5.13202 11.9061C5.13202 11.9061 5.24033 11.9061 5.32546 11.9061C5.41058 11.9061 5.51109 11.9294 5.38734 12.1305Z" fill="black"/>
<path d="M8.90729 13.4688H9.54943L9.68094 13.4766C9.75051 13.4766 9.83564 13.4148 9.87432 13.3373L10.0058 13.1439C9.9207 13.1594 9.83564 13.1594 9.73507 13.1594C9.41018 13.1594 8.96153 13.1594 9.16255 12.819L9.58032 12.146C9.63445 12.0686 9.71957 11.9836 9.7737 11.9526C9.7737 11.9372 9.80464 11.9294 9.98264 11.9294C10.0986 11.9294 10.2843 11.8984 10.1218 12.146L9.75051 12.7649C9.70413 12.8268 9.71957 12.8887 9.78145 12.8887H10.0446C10.0987 12.8887 10.1992 12.827 10.238 12.7649L10.6247 12.146C10.6634 12.0686 10.7562 11.9836 10.8182 11.9526C10.8182 11.9526 10.8492 11.9294 11.0269 11.9294C11.1276 11.9294 11.3288 11.8984 11.1663 12.146L10.8414 12.6644C10.8259 12.6876 10.8182 12.6953 10.8027 12.734L10.3928 13.3993C10.3464 13.4689 10.2613 13.5541 10.1994 13.5928C10.1994 13.5928 9.92862 13.7474 9.38715 13.7474C9.36396 13.7474 9.33291 13.7474 9.30972 13.7474C8.80683 13.732 8.83008 13.701 8.79914 13.6778C8.76814 13.67 8.7372 13.6236 8.7449 13.5617C8.75253 13.5075 8.82216 13.4688 8.90729 13.4688Z" fill="black"/>
<path d="M3.80146 4.79655C3.78596 4.79655 3.78596 4.80441 3.77821 4.81205C3.10518 5.75584 2.71066 6.38249 2.29284 7.15608L2.24646 7.24115L2.23866 7.27215C2.20002 7.34958 2.20772 7.43459 2.2619 7.50422C2.50942 7.89099 3.89422 8.34744 6.98091 8.34744C9.28625 8.34744 11.7386 7.97611 11.7386 7.27995C11.7386 6.62231 9.32494 6.22785 6.98091 6.22785C6.19951 6.22785 5.43366 6.32841 5.21703 6.3671C5.42591 6.04215 6.30782 4.85843 6.30782 4.85079C6.32327 4.83535 6.32327 4.83535 6.32327 4.8276V4.81216C6.30782 4.80441 6.30007 4.79666 6.28463 4.79666L3.80146 4.79655ZM4.69881 7.27989C4.69881 7.14064 5.57303 6.93951 6.98096 6.93951C8.3889 6.93951 9.25543 7.14064 9.25543 7.27989C9.25543 7.43454 8.38896 7.62798 6.98096 7.62798C5.57297 7.62803 4.69881 7.43465 4.69881 7.27989Z" fill="black"/>
<path d="M5.54978 10.7535C5.9443 10.7612 17.0457 11.1479 17.2933 7.21027C17.4943 3.95327 9.325 4.26278 9.325 4.26278C9.30961 4.26278 9.25543 4.26278 9.25543 4.30141C9.25543 4.34785 9.27862 4.35565 9.30961 4.35565C11.5762 4.35565 15.2587 5.2607 15.1427 7.21027C15.0498 8.78845 12.172 10.645 5.54984 10.645C5.5189 10.645 5.48796 10.676 5.48796 10.6992C5.4879 10.7225 5.51109 10.7457 5.54978 10.7535Z" fill="black"/>
<path d="M15.7305 10.4672H15.514V10.4208H16.009V10.4672H15.8079V10.854H15.7305V10.4672Z" fill="black"/>
<path d="M16.1174 10.4208H16.2102L16.3727 10.7844L16.5429 10.4208H16.6357V10.854H16.5738V10.4981H16.5661L16.4036 10.854H16.3417L16.1792 10.4981V10.854H16.1174V10.4208Z" fill="black"/>
<path d="M3.36044 11.5039C3.32181 11.5039 3.19025 11.5425 3.07419 11.7127C2.95818 11.8829 2.4321 12.7494 2.33928 12.9118C2.23865 13.0743 2.26965 13.1439 2.37791 13.1439C2.47073 13.1439 2.49397 13.1439 2.60998 13.1439C2.7183 13.1439 2.81887 13.0201 2.85755 12.935C2.91174 12.8577 3.53058 11.852 3.63115 11.7051C3.71622 11.558 3.66214 11.504 3.59246 11.504C3.53069 11.5039 3.36044 11.5039 3.36044 11.5039Z" fill="black"/>
<path d="M1.24848 13.1439C1.64306 13.1285 1.90607 13.1129 2.21552 12.5482C2.34703 12.2929 1.9757 12.2851 1.9757 12.2851C1.92151 12.2851 2.31609 12.2929 2.52497 11.8519C2.71841 11.4496 2.37797 11.4806 2.31614 11.4729C2.02214 11.4341 1.47286 11.4496 1.05515 11.4729C0.970029 11.4729 0.869462 11.5888 0.815276 11.6585C0.776644 11.7358 0.134499 12.7724 0.0416807 12.9194C-0.058942 13.0741 0.0416807 13.1361 0.142248 13.1438C0.436199 13.1594 0.807528 13.1594 1.24848 13.1439ZM1.58887 12.6024C1.48061 12.8267 1.27942 12.8345 1.16341 12.8345C1.05515 12.8345 0.892653 12.8345 0.853965 12.8345C0.815276 12.8345 0.776588 12.8345 0.815276 12.7494C0.869462 12.6798 0.946783 12.556 0.977778 12.5095C1.00872 12.4554 1.0396 12.4399 1.10923 12.4399C1.10923 12.4399 1.3723 12.4399 1.44192 12.4399C1.5038 12.4399 1.66625 12.4322 1.58887 12.6024ZM1.87508 11.9371C1.76682 12.1613 1.55793 12.1613 1.44962 12.1613C1.33361 12.1613 1.31036 12.1613 1.26398 12.1613C1.23299 12.1613 1.17886 12.1613 1.23299 12.0917C1.28717 12.0143 1.34899 11.8828 1.38768 11.8364C1.42632 11.79 1.45731 11.7667 1.5115 11.7667C1.5115 11.7667 1.67394 11.7667 1.73582 11.7667C1.79775 11.7668 1.96026 11.7668 1.87508 11.9371Z" fill="black"/>
<path d="M14.1291 12.1227L13.6186 12.9349C13.5103 13.1051 13.6032 13.1439 13.6572 13.1439C13.7115 13.1439 13.7887 13.1439 13.8816 13.1439C13.9666 13.1439 14.0286 13.1361 14.1601 12.9349L14.6707 12.1072C14.8099 11.8828 14.6397 11.8984 14.5314 11.8984C14.3381 11.9061 14.2917 11.8984 14.1291 12.1227Z" fill="black"/>
<path d="M16.2335 12.1768H15.6222C15.5604 12.1768 15.4752 12.2311 15.4288 12.2929C15.3902 12.3548 15.4134 12.4167 15.4752 12.4167C15.4752 12.409 15.7227 12.4167 15.9084 12.4167C16.1018 12.409 16.1715 12.5405 15.9627 12.8267C15.9239 12.8885 15.8388 12.9892 15.7691 13.0278C15.7691 13.0278 15.5989 13.167 15.0497 13.167C14.5468 13.167 14.5236 13.1128 14.5236 13.1128C14.4773 13.0741 14.4619 13.0046 14.4773 12.9657C14.5005 12.9348 14.5779 12.9039 14.6397 12.9039H15.2741C15.3359 12.9039 15.4211 12.8498 15.4597 12.7801C15.5062 12.7183 15.4829 12.641 15.4211 12.641C15.4211 12.641 15.1735 12.641 14.9492 12.641C14.7249 12.641 14.7558 12.4938 14.926 12.2464C14.9724 12.1767 15.0575 12.0917 15.1194 12.0452C15.1194 12.0452 15.305 11.906 15.8466 11.906C16.0633 11.906 16.4268 11.8828 16.4036 12.0685C16.3959 12.1537 16.2721 12.1768 16.2335 12.1768Z" fill="black"/>
<path d="M17.8347 12.1846H17.3396C17.2777 12.1846 17.1926 12.2388 17.154 12.3161L16.86 12.7726C16.8213 12.8345 16.8446 12.9041 16.891 12.9041C16.891 12.9041 17.3939 12.9041 17.4789 12.9041C17.564 12.9041 17.6182 12.9118 17.6104 12.935C17.6027 13.0201 17.4789 13.1671 16.7904 13.1671C16.1715 13.1671 16.2102 13.082 16.2178 12.9893C16.2333 12.8886 16.5349 12.4091 16.6278 12.262C16.7207 12.1074 16.8522 11.9061 17.4633 11.9061C18.0359 11.9061 18.0048 12.0376 17.9971 12.0686C17.9972 12.0995 17.9663 12.1846 17.8347 12.1846Z" fill="black"/>
<path d="M14.9647 11.4342C15.011 11.4342 15.0653 11.4807 15.0265 11.558C14.9801 11.6199 14.9647 11.6509 14.9415 11.6973C14.9105 11.7436 14.8408 11.7668 14.7558 11.7668C14.6707 11.7668 14.4696 11.7668 14.4387 11.7668C14.3768 11.7668 14.3768 11.7127 14.4076 11.6587C14.4308 11.6123 14.4463 11.589 14.4696 11.558C14.4928 11.5194 14.5314 11.4342 14.6552 11.4342H14.9647Z" fill="black"/>
<path d="M5.71223 12.3238C5.59622 12.3238 5.54978 12.4013 5.52659 12.4399C5.51109 12.4709 5.4879 12.494 5.45696 12.5482C5.43372 12.6024 5.44147 12.6564 5.4724 12.6564C5.51104 12.6564 5.71992 12.6564 5.80504 12.6564C5.90567 12.6564 5.95974 12.6254 5.99068 12.5791C6.02168 12.5249 6.02937 12.5094 6.07581 12.4321C6.12994 12.3547 6.06031 12.3237 6.02162 12.3237L5.71223 12.3238Z" fill="black"/>
<path d="M13.402 12.6411C13.6031 12.3161 13.4793 12.5172 13.7655 12.0609C14.0441 11.5966 13.6031 11.5039 13.1698 11.5039C12.5045 11.5039 12.3033 11.5348 12.3033 11.5348C12.2338 11.5348 12.1409 11.5966 12.1023 11.6741L11.2976 12.9737C11.2513 13.0511 11.2667 13.1129 11.3287 13.1284C11.3287 13.1284 11.5221 13.1438 12.1873 13.1438C13.1003 13.1439 13.1853 12.9737 13.402 12.6411ZM13.1312 12.0609C13.1312 12.0609 12.7831 12.6101 12.7598 12.6411C12.7289 12.6875 12.6206 12.8345 12.4581 12.8345C12.3576 12.8345 12.2184 12.8345 12.1178 12.8345C12.0559 12.8345 12.0249 12.8267 12.0637 12.7648L12.6206 11.8751C12.6439 11.8442 12.6825 11.821 12.7289 11.821C12.8218 11.821 12.992 11.821 13.0615 11.821C13.1699 11.821 13.2008 11.9371 13.1312 12.0609Z" fill="black"/>
<path d="M8.07176 12.3858C7.87837 12.3858 7.81649 12.4012 7.6463 12.409C7.57667 12.409 7.48385 12.4631 7.44517 12.5404L7.28272 12.8189C7.08159 13.1361 7.51479 13.1593 7.85518 13.1593C8.40451 13.1593 8.66747 13.0046 8.66747 13.0046C8.73709 12.9736 8.82222 12.8885 8.86091 12.8189L9.21679 12.2387C9.25548 12.1768 9.27103 12.0685 9.23218 12.0066C9.23218 12.0066 9.1858 11.8984 8.63653 11.8984C8.095 11.8984 7.87837 11.9835 7.87837 11.9835C7.81649 12.0144 7.73912 12.0685 7.71587 12.0995C7.70049 12.1458 7.73137 12.1768 7.7933 12.1768H8.59784C8.65977 12.1768 8.68296 12.2311 8.65202 12.2851C8.5824 12.378 8.46639 12.3858 8.46639 12.3858H8.07176ZM8.38121 12.7648V12.7726C8.32702 12.85 8.21871 12.9196 8.15688 12.9196H7.84743C7.78555 12.9196 7.76231 12.85 7.81644 12.7726V12.7648C7.87062 12.6798 7.97888 12.6101 8.04076 12.6101H8.35021C8.41215 12.6101 8.43534 12.6798 8.38121 12.7648Z" fill="black"/>
<path d="M7.00421 12.2929C7.05834 12.2155 7.14341 12.1614 7.20529 12.1614H7.4528C7.49149 12.1614 7.61525 12.1537 7.62305 12.0764C7.6308 11.9526 7.36773 11.9217 7.26717 11.9217C6.90359 11.9217 6.7024 11.9372 6.49352 12.2466C6.33107 12.494 6.16862 12.7495 6.06031 12.9351C5.96749 13.1054 6.05262 13.144 6.10675 13.144C6.16093 13.144 6.246 13.144 6.33107 13.144C6.41614 13.144 6.47807 13.1363 6.60958 12.9351L7.00421 12.2929Z" fill="black"/>
<path d="M5.38734 12.1305L5.0392 12.7107C4.99276 12.7724 5.0392 12.8034 5.07783 12.8034C5.12427 12.8034 5.16295 12.8034 5.20164 12.8034C5.24033 12.8034 5.29446 12.8499 5.24802 12.9195C5.20939 12.9969 5.20164 13.0278 5.16301 13.0741C5.13202 13.1284 5.07789 13.1438 4.98507 13.1438C4.92324 13.1438 4.87681 13.1438 4.83806 13.1438C4.7375 13.1438 4.79163 12.9968 4.79163 12.9968C4.64468 13.1593 4.30429 13.1593 3.9484 13.1593C3.60807 13.1593 3.16706 13.1593 3.36825 12.8189L3.80146 12.1227C3.87108 12.0066 3.92521 11.9603 3.99484 11.9293C3.99484 11.9293 4.01028 11.906 4.19592 11.906C4.31973 11.906 4.48218 11.906 4.34298 12.1227L3.9484 12.7648C3.90202 12.8267 3.92521 12.8886 3.99484 12.8886H4.26555C4.33517 12.8886 4.4203 12.8269 4.47443 12.7648C4.47443 12.7648 4.67556 12.4167 4.85356 12.1305C4.89994 12.0609 5.01601 11.9061 5.13202 11.9061C5.13202 11.9061 5.24033 11.9061 5.32546 11.9061C5.41058 11.9061 5.51109 11.9294 5.38734 12.1305Z" fill="black"/>
<path d="M8.90729 13.4688H9.54943L9.68094 13.4766C9.75051 13.4766 9.83564 13.4148 9.87432 13.3373L10.0058 13.1439C9.9207 13.1594 9.83564 13.1594 9.73507 13.1594C9.41018 13.1594 8.96153 13.1594 9.16255 12.819L9.58032 12.146C9.63445 12.0686 9.71957 11.9836 9.7737 11.9526C9.7737 11.9372 9.80464 11.9294 9.98264 11.9294C10.0986 11.9294 10.2843 11.8984 10.1218 12.146L9.75051 12.7649C9.70413 12.8268 9.71957 12.8887 9.78145 12.8887H10.0446C10.0987 12.8887 10.1992 12.827 10.238 12.7649L10.6247 12.146C10.6634 12.0686 10.7562 11.9836 10.8182 11.9526C10.8182 11.9526 10.8492 11.9294 11.0269 11.9294C11.1276 11.9294 11.3288 11.8984 11.1663 12.146L10.8414 12.6644C10.8259 12.6876 10.8182 12.6953 10.8027 12.734L10.3928 13.3993C10.3464 13.4689 10.2613 13.5541 10.1994 13.5928C10.1994 13.5928 9.92862 13.7474 9.38715 13.7474C9.36396 13.7474 9.33291 13.7474 9.30972 13.7474C8.80683 13.732 8.83008 13.701 8.79914 13.6778C8.76814 13.67 8.7372 13.6236 8.7449 13.5617C8.75253 13.5075 8.82216 13.4688 8.90729 13.4688Z" fill="black"/>
<path d="M3.80146 4.79655C3.78596 4.79655 3.78596 4.80441 3.77821 4.81205C3.10518 5.75584 2.71066 6.38249 2.29284 7.15608L2.24646 7.24115L2.23866 7.27215C2.20002 7.34958 2.20772 7.43459 2.2619 7.50422C2.50942 7.89099 3.89422 8.34744 6.98091 8.34744C9.28625 8.34744 11.7386 7.97611 11.7386 7.27995C11.7386 6.62231 9.32494 6.22785 6.98091 6.22785C6.19951 6.22785 5.43366 6.32841 5.21703 6.3671C5.42591 6.04215 6.30782 4.85843 6.30782 4.85079C6.32327 4.83535 6.32327 4.83535 6.32327 4.8276V4.81216C6.30782 4.80441 6.30007 4.79666 6.28463 4.79666L3.80146 4.79655ZM4.69881 7.27989C4.69881 7.14064 5.57303 6.93951 6.98096 6.93951C8.3889 6.93951 9.25543 7.14064 9.25543 7.27989C9.25543 7.43454 8.38896 7.62798 6.98096 7.62798C5.57297 7.62803 4.69881 7.43465 4.69881 7.27989Z" fill="black"/>
<path d="M5.54978 10.7535C5.9443 10.7612 17.0457 11.1479 17.2933 7.21027C17.4943 3.95327 9.325 4.26278 9.325 4.26278C9.30961 4.26278 9.25543 4.26278 9.25543 4.30141C9.25543 4.34785 9.27862 4.35565 9.30961 4.35565C11.5762 4.35565 15.2587 5.2607 15.1427 7.21027C15.0498 8.78845 12.172 10.645 5.54984 10.645C5.5189 10.645 5.48796 10.676 5.48796 10.6992C5.4879 10.7225 5.51109 10.7457 5.54978 10.7535Z" fill="black"/>
<path d="M15.7305 10.4672H15.514V10.4208H16.009V10.4672H15.8079V10.854H15.7305V10.4672Z" fill="black"/>
<path d="M16.1174 10.4208H16.2102L16.3727 10.7844L16.5429 10.4208H16.6357V10.854H16.5738V10.4981H16.5661L16.4036 10.854H16.3417L16.1792 10.4981V10.854H16.1174V10.4208Z" fill="black"/>
</svg>
