<svg width="18" height="18" viewBox="0 0 18 18" fill="none" xmlns="http://www.w3.org/2000/svg">
<path d="M16.1554 4.64601C16.1541 4.69702 16.1524 4.73889 16.1507 4.7539C16.1376 4.86883 16.1507 4.92316 15.8184 4.92316C15.4862 4.92316 15.4993 4.86883 15.4862 4.7539C15.4819 4.71652 15.4779 4.51187 15.4784 4.41617C15.4788 4.3204 15.4819 4.11581 15.4862 4.07843C15.4993 3.9635 15.4862 3.90917 15.8184 3.90917C16.1507 3.90917 16.1376 3.9635 16.1507 4.07843C16.1525 4.0941 16.1541 4.13913 16.1553 4.19324H16.6099C16.607 4.09056 16.6021 4.00471 16.597 3.95996C16.5708 3.73011 16.6616 3.51001 15.8189 3.51001C14.9763 3.51001 15.0671 3.73011 15.0409 3.95996C15.0324 4.03478 15.0245 4.2247 15.0253 4.41617C15.0261 4.60763 15.0324 4.79755 15.0409 4.87237C15.0671 5.10222 14.9763 5.32227 15.8189 5.32227C16.6616 5.32227 16.5708 5.10222 16.597 4.87237C16.602 4.82867 16.6061 4.74565 16.609 4.64601H16.1554Z" fill="black"/>
<path d="M10.7659 3.55598L10.3225 4.848L9.87898 3.55598L9.21546 3.55254V5.28676H9.65899V3.99479L10.1025 5.28676H10.546L10.986 3.99479V5.28676H11.4294V3.55254L10.7659 3.55598Z" fill="black"/>
<path d="M16.7094 3.55254H17.984V3.99479H17.5685V5.28676H17.125V3.99479H16.7094V3.55254Z" fill="black"/>
<path d="M13.2907 5.28676L13.7994 3.55083H14.4605L14.9704 5.28676H14.5269L14.4221 4.92809H13.8402L13.9227 4.64601H14.3383L14.1323 3.93908L13.7342 5.28676H13.2907Z" fill="black"/>
<path d="M8.14745 3.90917C8.47974 3.90917 8.46663 3.9635 8.47974 4.07843C8.48396 4.11581 8.48712 4.3204 8.48751 4.41617C8.4879 4.51187 8.48396 4.71652 8.47974 4.7539C8.46663 4.86883 8.47974 4.92316 8.14745 4.92316C7.81522 4.92316 7.82827 4.86883 7.81522 4.7539C7.81094 4.71652 7.807 4.51187 7.80739 4.41617C7.80778 4.3204 7.81094 4.11581 7.81522 4.07843C7.82827 3.9635 7.81522 3.90917 8.14745 3.90917L8.14795 3.51001C7.30537 3.51001 7.39618 3.73011 7.36996 3.95996C7.36141 4.03478 7.35353 4.2247 7.35436 4.41617C7.35514 4.60763 7.36141 4.79755 7.36996 4.87237C7.39618 5.10222 7.30537 5.32227 8.14795 5.32227C8.99058 5.32227 8.89978 5.10222 8.92599 4.87237C8.93454 4.79755 8.94082 4.60763 8.9416 4.41617C8.94243 4.2247 8.93454 4.03478 8.92599 3.95996C8.89978 3.73011 8.99058 3.51001 8.14795 3.51001L8.14745 3.90917Z" fill="black"/>
<path d="M6.65007 4.64601C6.64874 4.69702 6.64707 4.73889 6.64535 4.7539C6.63225 4.86883 6.64535 4.92316 6.31307 4.92316C5.98083 4.92316 5.99394 4.86883 5.98083 4.7539C5.97656 4.71652 5.97261 4.51187 5.97306 4.41617C5.97345 4.3204 5.97656 4.11581 5.98083 4.07843C5.99394 3.9635 5.98083 3.90917 6.31307 3.90917C6.64535 3.90917 6.63225 3.9635 6.64535 4.07843C6.64713 4.0941 6.64874 4.13913 6.65002 4.19324H7.10455C7.1016 4.09056 7.09677 4.00471 7.09166 3.95996C7.06545 3.73011 7.15625 3.51001 6.31362 3.51001C5.47101 3.51001 5.5618 3.73011 5.53558 3.95996C5.52708 4.03478 5.5192 4.2247 5.51997 4.41617C5.52081 4.60763 5.52708 4.79755 5.53558 4.87237C5.5618 5.10222 5.47101 5.32227 6.31362 5.32227C7.15625 5.32227 7.06545 5.10222 7.09166 4.87237C7.0966 4.82867 7.10083 4.74565 7.1036 4.64601H6.65007Z" fill="black"/>
<path d="M12.5093 4.89015L12.2401 4.88998V4.49442L12.5092 4.49282C12.8415 4.49282 12.8311 4.43848 12.8442 4.32356C12.8485 4.28612 12.8476 4.31686 12.8472 4.22115C12.8468 4.12539 12.8485 4.15829 12.8442 4.12091C12.8311 4.00598 12.8415 3.95159 12.5092 3.95159L12.24 3.95231L12.2405 5.28505H11.7961V3.55254H12.5093C13.3519 3.55254 13.2595 3.7732 13.2905 4.00244C13.2942 4.02963 13.2942 4.15497 13.2942 4.22254C13.2942 4.27687 13.2942 4.40221 13.2905 4.44197C13.2693 4.67232 13.3519 4.89015 12.5093 4.89015Z" fill="black"/>
<path d="M17.2058 13.0818C17.5381 13.0818 17.525 13.1361 17.5381 13.251C17.5424 13.2884 17.5455 13.493 17.5459 13.5888C17.5463 13.6845 17.5424 13.8891 17.5381 13.9265C17.525 14.0415 17.5381 14.0958 17.2058 14.0958C16.8736 14.0958 16.8867 14.0415 16.8736 13.9265C16.8693 13.8891 16.8653 13.6845 16.8657 13.5888C16.8661 13.493 16.8693 13.2884 16.8736 13.251C16.8867 13.1361 16.8736 13.0818 17.2058 13.0818L17.2063 12.6827C16.3637 12.6827 16.4545 12.9027 16.4283 13.1326C16.4198 13.2074 16.4119 13.3973 16.4127 13.5888C16.4135 13.7802 16.4198 13.9702 16.4283 14.045C16.4545 14.2748 16.3637 14.4949 17.2063 14.4949C18.0489 14.4949 17.9581 14.2748 17.9843 14.045C17.9929 13.9702 17.9992 13.7802 17.9999 13.5888C18.0008 13.3973 17.9929 13.2074 17.9843 13.1326C17.9581 12.9027 18.0489 12.6827 17.2063 12.6827L17.2058 13.0818Z" fill="black"/>
<path d="M10.1867 14.4426L10.6953 12.7066H11.3565L11.8663 14.4426H11.4228L11.3181 14.0839H10.7362L10.8186 13.8018H11.2343L11.0282 13.0949L10.6301 14.4426H10.1867Z" fill="black"/>
<path d="M6.49101 14.4426L6.99969 12.7066H7.66082L8.17066 14.4426H7.72719L7.62239 14.0839H7.04051L7.12293 13.8018H7.53858L7.33259 13.0949L6.93449 14.4426H6.49101Z" fill="black"/>
<path d="M2.40432 12.7252V14.4594H1.96079V12.7252H2.40432Z" fill="black"/>
<path d="M4.99882 12.7252V14.4594H4.55536V12.7252H4.99882Z" fill="black"/>
<path d="M5.23456 12.7252H6.50917V13.1674H6.09358V14.4594H5.65016V13.1674H5.23456V12.7252Z" fill="black"/>
<path d="M8.85584 14.0206V12.7252H8.41231V14.4611H9.55769V14.0206H8.85584Z" fill="black"/>
<path d="M16.1454 12.7252V14.4594H15.702V12.7252H16.1454Z" fill="black"/>
<path d="M14.3977 12.7262H14.6386C15.4813 12.7262 15.3905 12.9473 15.4167 13.1772C15.4252 13.252 15.4331 13.3862 15.4323 13.5776C15.4314 13.7691 15.4252 13.9347 15.4167 14.0095C15.3905 14.2393 15.4813 14.4594 14.6386 14.4594H13.8651V12.7262H14.3977L14.3907 13.1248L14.3104 13.1242V14.0638L14.6381 14.0603C14.9704 14.0603 14.9573 14.006 14.9704 13.891C14.9746 13.8536 14.9786 13.6734 14.9782 13.5776C14.9778 13.4819 14.9746 13.333 14.9704 13.2956C14.9573 13.1807 14.9704 13.1263 14.6381 13.1263L14.3907 13.1248L14.3977 12.7262Z" fill="black"/>
<path d="M13.5741 13.5888L13.5736 12.7251H13.1204V13.5888C13.1208 13.6845 13.1169 13.8891 13.1126 13.9265C13.0995 14.0415 13.1126 14.0958 12.7804 14.0958C12.4481 14.0958 12.4612 14.0415 12.4481 13.9265C12.4439 13.8891 12.4406 13.6845 12.441 13.5888L12.4416 12.7252H11.9872V13.5888C11.9881 13.7802 11.9943 13.9702 12.0028 14.045C12.029 14.2748 11.9382 14.4949 12.7809 14.4949C13.6235 14.4949 13.5327 14.2748 13.5589 14.045C13.5674 13.9702 13.5732 13.7802 13.5741 13.5888Z" fill="black"/>
<path d="M3.81561 13.8186C3.81427 13.8696 3.8126 13.9115 3.81088 13.9265C3.7978 14.0415 3.81088 14.0958 3.47862 14.0958C3.14637 14.0958 3.15947 14.0415 3.14637 13.9265C3.14209 13.8891 3.13817 13.6845 3.13856 13.5888C3.13897 13.493 3.14209 13.2884 3.14637 13.251C3.15947 13.1361 3.14637 13.0818 3.47862 13.0818C3.81088 13.0818 3.7978 13.1361 3.81088 13.251C3.81268 13.2667 3.81427 13.256 3.81552 13.3102L4.27007 13.3101C4.26715 13.2074 4.26226 13.1773 4.25717 13.1326C4.23096 12.9027 4.32175 12.6827 3.47915 12.6827C2.63652 12.6827 2.72732 12.9027 2.70113 13.1326C2.6926 13.2074 2.68471 13.3973 2.68551 13.5888C2.68633 13.7802 2.6926 13.9702 2.70113 14.045C2.72732 14.2748 2.63652 14.4949 3.47915 14.4949C4.32175 14.4949 4.23096 14.2748 4.25717 14.045C4.26215 14.0013 4.26636 13.9183 4.26916 13.8186H3.81561Z" fill="black"/>
<path d="M3.47809 13.5401V13.8186H4.26916V13.5401H3.47809Z" fill="black"/>
<path d="M0.642557 12.7262H0.8835C1.72612 12.7262 1.63533 12.9473 1.66151 13.1772C1.67007 13.252 1.67794 13.3862 1.67714 13.5776C1.67631 13.7691 1.67007 13.9347 1.66151 14.0095C1.63533 14.2393 1.72612 14.4594 0.8835 14.4594H0.109993V12.7262H0.642557L0.63557 13.1248L0.555256 13.1242V14.0638L0.882978 14.0603C1.21523 14.0603 1.20213 14.006 1.21523 13.891C1.21951 13.8536 1.22345 13.6734 1.22304 13.5776C1.22265 13.4819 1.21951 13.333 1.21523 13.2956C1.20213 13.1807 1.21523 13.1263 0.882978 13.1263L0.63557 13.1248L0.642557 12.7262Z" fill="black"/>
<path d="M3.88462 11.8169L1.10869 11.8137C0.707032 11.8137 0.381459 11.4889 0.381459 11.0884V6.87476C0.381459 6.47422 0.707032 6.14955 1.10869 6.14955L2.84605 6.14756C3.05467 6.14756 3.22386 5.97891 3.22386 5.77083L3.22894 4.08607C3.22894 3.99889 3.29986 3.92817 3.38729 3.92817H4.4058C4.49323 3.92817 4.56419 3.99889 4.56419 4.08607L4.57465 11.6596C4.57465 11.7467 4.50372 11.8175 4.41629 11.8175L3.88462 11.8169L3.87169 12.1932L4.56642 12.193C4.77506 12.193 4.94424 12.0243 4.94424 11.8162V3.92512C4.94424 3.71709 4.77506 3.54845 4.56642 3.54845H3.23018C3.02156 3.54845 2.85236 3.71709 2.85236 3.92512L2.85427 5.61414C2.85427 5.70132 2.78335 5.7721 2.69586 5.7721L1.10869 5.76922C0.496374 5.76922 0 6.26414 0 6.87476V11.0884C0 11.699 0.496374 12.194 1.10869 12.194L3.87169 12.1932L3.88462 11.8169Z" fill="black"/>
<path d="M2.85232 10.2659V7.53988C2.85232 7.31142 2.66659 7.12621 2.43745 7.12621C2.20837 7.12621 2.02265 7.31142 2.02265 7.53988V10.4825C2.02265 10.711 2.20837 10.8962 2.43745 10.8962C2.66659 10.8962 2.85232 10.711 2.85232 10.4825V10.2659L3.22939 10.2788V10.4825C3.22939 10.9186 2.87481 11.2722 2.43745 11.2722C2.00015 11.2722 1.64557 10.9186 1.64557 10.4825V7.53988C1.64557 7.10378 2.00015 6.75015 2.43745 6.75015C2.87481 6.75015 3.22939 7.10378 3.22939 7.53988V10.2788L2.85232 10.2659Z" fill="black"/>
<path d="M6.52306 11.8169L6.00355 11.8169C5.91602 11.8169 5.84515 11.7461 5.84515 11.659L5.85148 6.31083C5.85148 6.2236 5.92241 6.15287 6.00988 6.15287H7.0284C7.11588 6.15287 7.1868 6.2236 7.1868 6.31083L7.19724 11.6589C7.19724 11.7461 7.12632 11.8168 7.0389 11.8168L6.52306 11.8169V12.1916L7.18902 12.1923C7.39773 12.1923 7.56685 12.0237 7.56685 11.8156V6.14988C7.56685 5.94186 7.39773 5.77315 7.18902 5.77315H5.85271C5.6441 5.77315 5.47499 5.94186 5.47499 6.14988L5.47421 11.8142C5.47421 12.0223 5.64205 12.191 5.85065 12.191L6.52306 12.1916V11.8169Z" fill="black"/>
<path d="M11.3214 7.20519L10.2025 7.20364C9.85815 7.20364 9.57896 7.48206 9.57896 7.82539C9.57896 8.16878 9.85815 8.4472 10.2025 8.4472L11.7355 8.45136C12.1371 8.45136 12.4627 8.77608 12.4627 9.17657L12.4576 11.0798C12.4576 11.4804 12.132 11.805 11.7304 11.805L8.68717 11.8106C8.5997 11.8106 8.52878 11.7398 8.52878 11.6526V10.9155C8.52878 10.8282 8.5997 10.7575 8.68717 10.7575L10.7612 10.7508C11.1055 10.7508 11.3847 10.4724 11.3847 10.129C11.3847 9.78564 11.1055 9.50728 10.7612 9.50728L9.25961 9.50138C8.85801 9.50138 8.53239 9.17664 8.53239 8.77613V6.87476C8.53239 6.47422 8.85801 6.14955 9.25961 6.14955L12.0806 6.13637C12.168 6.13637 12.2389 6.20715 12.2389 6.29433L12.239 7.04823C12.239 7.13546 12.1681 7.20624 12.0806 7.20624L11.3214 7.20519L11.3085 7.57588L12.2363 7.57616C12.4449 7.57616 12.6141 7.40873 12.6141 7.20071L12.6155 6.14462C12.6155 5.93654 12.4464 5.76784 12.2377 5.76784L9.25961 5.76922C8.64735 5.76922 8.151 6.26414 8.151 6.87476V8.77613C8.151 9.38669 8.64735 9.8817 9.25961 9.8817L10.7612 9.87914C10.8997 9.87914 11.0119 9.99102 11.0119 10.129C11.0119 10.2671 10.8997 10.379 10.7612 10.379L8.52578 10.3785C8.31712 10.3785 8.14806 10.5472 8.14806 10.7553V11.8093C8.14806 12.0174 8.31712 12.186 8.52578 12.186L11.7304 12.1854C12.3426 12.1854 12.839 11.6904 12.839 11.0798L12.8441 9.17657C12.8441 8.56606 12.3477 8.07103 11.7355 8.07103L10.2025 8.0754C10.0641 8.0754 9.9519 7.96347 9.9519 7.82539C9.9519 7.68743 10.0641 7.57555 10.2025 7.57555L11.3085 7.57588L11.3214 7.20519Z" fill="black"/>
<path d="M16.9604 8.25075H17.441C17.5285 8.25075 17.5994 8.18008 17.5994 8.09279L17.5974 6.87476C17.5974 6.47422 17.2718 6.14955 16.8701 6.14955H14.466C14.0643 6.14955 13.7386 6.47422 13.7386 6.87476V11.0884C13.7386 11.4889 14.0643 11.8137 14.466 11.8137H16.8701C17.2718 11.8137 17.5974 11.4889 17.5974 11.0884L17.5994 9.93029C17.5994 9.84303 17.5285 9.77234 17.441 9.77234H16.534C16.4466 9.77234 16.3757 9.84303 16.3757 9.93029L16.3808 10.4825C16.3808 10.9186 16.1054 11.2722 15.668 11.2722C15.2307 11.2722 14.9553 10.9186 14.9553 10.4825V7.53988C14.9553 7.10378 15.2307 6.75015 15.668 6.75015C16.1054 6.75015 16.3808 7.10378 16.3808 7.53988L16.3757 8.09279C16.3757 8.18008 16.4466 8.25075 16.534 8.25075H16.9604L16.9475 8.63047H16.3769C16.1683 8.63047 15.9991 8.46177 15.9991 8.25374L16.0037 7.53988C16.0037 7.31142 15.8971 7.12621 15.668 7.12621C15.4389 7.12621 15.3324 7.31142 15.3324 7.53988V10.4825C15.3324 10.711 15.4389 10.8962 15.668 10.8962C15.8971 10.8962 16.0037 10.711 16.0037 10.4825L15.9991 9.76937C15.9991 9.56133 16.1683 9.3926 16.3769 9.3926H17.6016C17.8103 9.3926 17.9794 9.56133 17.9794 9.76937L17.9788 11.0884C17.9788 11.699 17.4824 12.194 16.8701 12.194H14.466C13.8537 12.194 13.3572 11.699 13.3572 11.0884V6.87476C13.3572 6.26414 13.8537 5.76922 14.466 5.76922H16.8701C17.4824 5.76922 17.9788 6.26414 17.9788 6.87476L17.9794 8.25374C17.9794 8.46177 17.8103 8.63047 17.6016 8.63047H16.9475L16.9604 8.25075Z" fill="black"/>
</svg>
