<svg width="18" height="18" viewBox="0 0 18 18" fill="none" xmlns="http://www.w3.org/2000/svg">
<path d="M10.2506 6.35656C10.2506 6.35656 9.01372 7.87955 9.07699 7.97666C9.16474 7.87955 8.63293 6.33991 8.63293 6.33991C8.63293 6.33991 8.52196 6.01618 8.17374 4.95508H1.54576L1.31536 5.9512H3.46439C4.58174 5.9512 5.26394 6.41308 5.07341 7.23146C4.86758 8.12255 3.89234 8.50298 2.85355 8.50298H2.46511L2.96479 6.32425H1.22824L0.490952 9.50739H2.95678C4.81187 9.50739 6.57174 8.51135 6.88908 7.23146C6.94461 6.9962 6.93678 6.4048 6.79422 6.05668C6.79422 6.04831 6.78603 6.03229 6.7782 6.00835C6.77037 5.99998 6.76218 5.94337 6.79422 5.93509C6.8097 5.92681 6.84147 5.95948 6.84147 5.96731C6.84147 5.96731 6.85758 6.00835 6.87306 6.04048L8.44267 10.5689L12.439 5.95939L14.1275 5.95111H14.5397C15.6578 5.95111 16.3478 6.41299 16.1569 7.23137C15.9508 8.12246 14.9684 8.50289 13.9294 8.50289H13.5329L14.0401 6.32425H12.3042L11.5664 9.50739H14.0322C15.8872 9.50739 17.6631 8.51135 17.9566 7.23146C18.2578 5.9512 16.9575 4.95508 15.0865 4.95508H11.4082C10.4331 6.12949 10.2506 6.35656 10.2506 6.35656Z" fill="black"/>
<path d="M8.4982 10.5851C3.80531 10.5851 0 11.1359 0 11.8165C0 12.4967 3.80531 13.0476 8.4982 13.0476C13.1997 13.0476 17.0054 12.4967 17.0054 11.8165C17.0055 11.1359 13.1998 10.5851 8.4982 10.5851ZM8.19706 12.254C7.11885 12.254 6.25485 12.0675 6.25485 11.8405C6.25485 11.6134 7.11876 11.4274 8.19706 11.4274C9.26698 11.4274 10.1319 11.6133 10.1319 11.8405C10.1319 12.0675 9.26698 12.254 8.19706 12.254Z" fill="black"/>
</svg>
