<svg width="18" height="18" viewBox="0 0 18 18" fill="none" xmlns="http://www.w3.org/2000/svg">
<path d="M0.0670599 11.1448C0.0300238 11.1448 0 11.1147 0 11.0777V5.27702C0 5.23998 0.0300238 5.20996 0.06706 5.20996H4.36448C4.40152 5.20996 4.43154 5.23998 4.43154 5.27702V6.34439C4.43154 6.38143 4.40152 6.41145 4.36448 6.41145H1.11767V7.55147H4.24713C4.28416 7.55147 4.31419 7.58149 4.31419 7.61853V8.72502C4.31419 8.76206 4.28416 8.79208 4.24713 8.79208H1.11767V9.94886H4.36448C4.40152 9.94886 4.43154 9.97889 4.43154 10.0159V11.0777C4.43154 11.1147 4.40152 11.1448 4.36448 11.1448H0.0670599Z" fill="black"/>
<path d="M5.26705 5.49175L7.1307 8.13824L5.2557 10.8646C5.1741 10.9833 5.25904 11.1448 5.40304 11.1448H6.38746L7.80969 9.14414L10.3216 12.7542H11.3543C11.4987 12.7542 11.5836 12.5919 11.5012 12.4733L8.48867 8.13824L10.3769 5.49268C10.4614 5.37431 10.3768 5.20996 10.2314 5.20996H9.19839L7.80969 7.1547L6.46011 5.20996H5.41326C5.26835 5.20996 5.18362 5.37327 5.26705 5.49175Z" fill="black"/>
<path d="M11.4672 5.20996C11.4302 5.20996 11.4002 5.23998 11.4002 5.27702V11.0833C11.4002 11.1203 11.4302 11.1504 11.4672 11.1504H12.462C12.499 11.1504 12.529 11.1203 12.529 11.0833V5.27702C12.529 5.23998 12.499 5.20996 12.462 5.20996H11.4672Z" fill="black"/>
<path d="M13.6579 6.40586C13.6208 6.40586 13.5908 6.37584 13.5908 6.3388V5.27702C13.5908 5.23998 13.6208 5.20996 13.6579 5.20996H17.9329C17.97 5.20996 18 5.23998 18 5.27702V6.3388C18 6.37584 17.97 6.40586 17.9329 6.40586H16.3514V11.0833C16.3514 11.1203 16.3214 11.1504 16.2844 11.1504H15.2897C15.2526 11.1504 15.2226 11.1203 15.2226 11.0833V6.40586H13.6579Z" fill="black"/>
<path d="M11.9143 11.4689C11.902 11.4689 11.892 11.4789 11.892 11.4912V12.7318C11.892 12.7442 11.902 12.7542 11.9143 12.7542H12.6743C12.6867 12.7542 12.6967 12.7442 12.6967 12.7318V12.5251C12.6967 12.5127 12.6867 12.5027 12.6743 12.5027H12.1714V11.4912C12.1714 11.4789 12.1614 11.4689 12.149 11.4689H11.9143Z" fill="black"/>
<path d="M12.9146 12.7542C12.9023 12.7542 12.8923 12.7442 12.8923 12.7318V11.4912C12.8923 11.4789 12.9023 11.4689 12.9146 11.4689H13.9652C13.9776 11.4689 13.9876 11.4789 13.9876 11.4912V11.7036C13.9876 11.7159 13.9776 11.726 13.9652 11.726H13.1717V11.983H13.9317C13.944 11.983 13.9541 11.993 13.9541 12.0054V12.2233C13.9541 12.2357 13.944 12.2457 13.9317 12.2457H13.1717V12.5027H13.9652C13.9776 12.5027 13.9876 12.5127 13.9876 12.5251V12.7318C13.9876 12.7442 13.9776 12.7542 13.9652 12.7542H12.9146Z" fill="black"/>
<path d="M15.1444 12.2792C15.1444 12.2792 15.1444 12.5027 14.9516 12.5027C14.7588 12.5027 14.7588 12.2792 14.7588 12.2792V12.2065H14.4905V12.4077C14.4905 12.4077 14.4794 12.7766 14.9432 12.7766C15.407 12.7766 15.407 12.4077 15.407 12.4077V11.4912C15.407 11.4789 15.397 11.4689 15.3847 11.4689H15.1667C15.1544 11.4689 15.1444 11.4789 15.1444 11.4912V12.2792Z" fill="black"/>
<path d="M15.6808 12.7542C15.6685 12.7542 15.6585 12.7442 15.6585 12.7318V11.4912C15.6585 11.4789 15.6685 11.4689 15.6808 11.4689H16.7314C16.7438 11.4689 16.7538 11.4789 16.7538 11.4912V11.7036C16.7538 11.7159 16.7438 11.726 16.7314 11.726H15.9323V11.983H16.6923C16.7047 11.983 16.7147 11.993 16.7147 12.0054V12.2233C16.7147 12.2357 16.7047 12.2457 16.6923 12.2457H15.9323V12.5027H16.7314C16.7438 12.5027 16.7538 12.5127 16.7538 12.5251V12.7318C16.7538 12.7442 16.7438 12.7542 16.7314 12.7542H15.6808Z" fill="black"/>
<path d="M16.9438 11.4912C16.9438 11.4789 16.9538 11.4689 16.9662 11.4689H17.1897C17.202 11.4689 17.212 11.4789 17.212 11.4912V12.2457C17.212 12.2457 17.2204 12.5027 17.4062 12.5027C17.5921 12.5027 17.5921 12.2457 17.5921 12.2457V11.4912C17.5921 11.4789 17.6021 11.4689 17.6144 11.4689H17.8547C17.867 11.4689 17.8771 11.4789 17.8771 11.4912V12.2457C17.8771 12.2457 17.8784 12.3169 17.8673 12.4077C17.8479 12.5674 17.7669 12.7877 17.4062 12.7877C17.0455 12.7877 16.968 12.5674 16.951 12.4077C16.9414 12.3169 16.9438 12.2457 16.9438 12.2457V11.4912Z" fill="black"/>
</svg>
