<svg width="18" height="18" viewBox="0 0 18 18" fill="none" xmlns="http://www.w3.org/2000/svg">
<path fill-rule="evenodd" clip-rule="evenodd" d="M2.53033 2.46967C2.23744 2.17678 1.76256 2.17678 1.46967 2.46967C1.17678 2.76256 1.17678 3.23744 1.46967 3.53033L3.33244 5.3931C1.29931 7.06528 0 9 0 9C0 9 4.02944 15 9 15C10.1152 15 11.1831 14.6979 12.1687 14.2294L14.4697 16.5303C14.7626 16.8232 15.2374 16.8232 15.5303 16.5303C15.8232 16.2374 15.8232 15.7626 15.5303 15.4697L2.53033 2.46967ZM10.6045 12.6652L9.82459 11.8853C9.5626 11.96 9.28597 12 9 12C7.34315 12 6 10.6569 6 9C6 8.71403 6.04001 8.4374 6.11475 8.17541L5.33482 7.39548C5.11949 7.88664 5 8.42936 5 9C5 11.2091 6.79086 13 9 13C9.57064 13 10.1134 12.8805 10.6045 12.6652Z" fill="black"/>
<path d="M7.95484 6.18708L11.8129 10.0452C11.9339 9.7197 12 9.36757 12 9C12 7.34315 10.6569 6 9 6C8.63243 6 8.2803 6.06611 7.95484 6.18708Z" fill="black"/>
<path d="M13 9C13 9.64885 12.8455 10.2616 12.5713 10.8035L14.5059 12.7381C16.6315 11.0377 18 9 18 9C18 9 13.9706 3 9 3C7.81015 3 6.67423 3.34381 5.6346 3.86684L7.19647 5.4287C7.73838 5.15449 8.35115 5 9 5C11.2091 5 13 6.79086 13 9Z" fill="black"/>
</svg>
