<svg width="18" height="18" viewBox="0 0 18 18" fill="none" xmlns="http://www.w3.org/2000/svg">
<path fill-rule="evenodd" clip-rule="evenodd" d="M9 4.46569L7.56412 2.98475C6.29048 1.67116 4.25458 1.67171 2.98157 2.98662C1.67281 4.33847 1.67281 6.55625 2.98157 7.90809L9 14.1246L15.0184 7.90809C16.3272 6.55625 16.3272 4.33847 15.0184 2.98662C13.7454 1.67171 11.7095 1.67116 10.4359 2.98475L9 4.46569ZM9 17L1.54465 9.29922C-0.514882 7.1719 -0.514882 3.72282 1.54465 1.59549C3.52459 -0.449628 6.68718 -0.528655 8.75852 1.35841C8.84078 1.43336 8.92132 1.5114 9 1.59255C9.07868 1.51141 9.15921 1.43336 9.24148 1.35842C11.3128 -0.528655 14.4754 -0.44963 16.4554 1.59549C18.5149 3.72282 18.5149 7.1719 16.4554 9.29922L9 17Z" fill="black"/>
</svg>
