<svg width="18" height="18" viewBox="0 0 18 18" fill="none" xmlns="http://www.w3.org/2000/svg">
<path d="M11.2501 11.6471V10.6471H10.2501H7.75004H6.75004V11.6471H7.75004L6.75004 11.6471V11.6473V11.6475V11.6478V11.6483V11.6488V11.6494V11.6501V11.6509V11.6518V11.6528V11.6539V11.655V11.6563V11.6576V11.6591V11.6606V11.6622V11.6639V11.6657V11.6676V11.6696V11.6717V11.6738V11.6761V11.6784V11.6808V11.6833V11.6859V11.6886V11.6913V11.6942V11.6971V11.7001V11.7032V11.7064V11.7096V11.713V11.7164V11.7199V11.7235V11.7272V11.7309V11.7347V11.7387V11.7426V11.7467V11.7509V11.7551V11.7594V11.7638V11.7683V11.7728V11.7774V11.7821V11.7869V11.7918V11.7967V11.8017V11.8068V11.8119V11.8171V11.8224V11.8278V11.8333V11.8388V11.8444V11.85V11.8558V11.8616V11.8675V11.8734V11.8794V11.8855V11.8917V11.8979V11.9042V11.9106V11.917V11.9236V11.9301V11.9368V11.9435V11.9503V11.9571V11.964V11.971V11.978V11.9851V11.9923V11.9995V12.0068V12.0142V12.0216V12.0291V12.0367V12.0443V12.052V12.0597V12.0675V12.0754V12.0833V12.0913V12.0993V12.1074V12.1156V12.1238V12.132V12.1404V12.1488V12.1572V12.1657V12.1743V12.1829V12.1916V12.2003V12.2091V12.218V12.2268V12.2358V12.2448V12.2539V12.263V12.2721V12.2814V12.2906V12.2999V12.3093V12.3187V12.3282V12.3377V12.3473V12.3569V12.3666V12.3763V12.3861V12.3959V12.4058V12.4157V12.4257V12.4357V12.4458V12.4559V12.466V12.4762V12.4864V12.4967V12.5071V12.5174V12.5279V12.5383V12.5488V12.5594V12.57V12.5806V12.5913V12.602V12.6127V12.6235V12.6344V12.6453V12.6562V12.6671V12.6781V12.6892V12.7002V12.7114V12.7225V12.7337V12.7449V12.7562V12.7675V12.7788V12.7902V12.8016V12.813V12.8245V12.836V12.8475V12.8591V12.8707V12.8823V12.894V12.9057V12.9175V12.9292V12.941V12.9528V12.9647V12.9766V12.9885V13.0005V13.0124V13.0244V13.0365V13.0485V13.0606V13.0727V13.0849V13.0971V13.1093V13.1215V13.1337V13.146V13.1583V13.1706V13.183V13.1953V13.2077V13.2201V13.2326V13.245V13.2575V13.27V13.2825V13.2951V13.3077V13.3202V13.3329V13.3455V13.3581V13.3708V13.3835V13.3962V13.4089V13.4216V13.4344V13.4472V13.4599V13.4727V13.4856V13.4984V13.5112V13.5241V13.537V13.5499V13.5628V13.5757V13.5886V13.6016V13.6145V13.6275V13.6405V13.6535V13.6665V13.6795V13.6925V13.7056V13.7186V13.7317V13.7447V13.7578V13.7709V13.7839V13.797V13.8101V13.8232V13.8363V13.8495V13.8626V13.8757V13.8889V13.902V13.9151V13.9283V13.9414V13.9546V13.9677V13.9809V13.9941V14.0072V14.0204V14.0336V14.0467V14.0599V14.0731V14.0862V14.0994V14.1126V14.1257V14.1389V14.152V14.1652V14.1784V14.1915V14.2047V14.2178V14.2309V14.2441V14.2572V14.2703V14.2835V14.2966V14.3097V14.3228V14.3359V14.349V14.362V14.3751V14.3882V14.4012V14.4143V14.4273V14.4404V14.4534V14.4664V14.4794V14.4924V14.5053V14.5183V14.5313V14.5442V14.5571V14.57V14.5829V14.5958V14.6087V14.6215V14.6344V14.6472V14.66V14.6728V14.6856V14.6984V14.7111V14.7238V14.7365V14.7492V14.7619V14.7746V14.7872V14.7998V14.8124V14.825V14.8376V14.8501V14.8626V14.8751V14.8876V14.9V14.9124V14.9248V14.9372V14.9496V14.9619V14.9742V14.9865V14.9988V15.011V15.0232V15.0354V15.0476V15.0597V15.0718V15.0839V15.0959V15.1079V15.1199V15.1319V15.1438V15.1557V15.1676V15.1794V15.1913V15.203V15.2148V15.2265V15.2382V15.2499V15.2615V15.2731V15.2846V15.2961V15.3076V15.3191V15.3305V15.3419V15.3533V15.3646V15.3758V15.3871V15.3983V15.4095V15.4206V15.4317V15.4427V15.4538V15.4647V15.4757V15.4866V15.4974V15.5082V15.519V15.5298V15.5405V15.5511V15.5617V15.5723V15.5828V15.5933V15.6037V15.6141V15.6245V15.6348V15.6451V15.6553V15.6655V15.6756V15.6857V15.6957V15.7057V15.7156V15.7255V15.7354V15.7452V15.7549V15.7646V15.7743V15.7839V15.7934V15.8029V15.8124V15.8218V15.8311V15.8404V15.8497V15.8588V15.868V15.8771V15.8861V15.8951V15.904V15.9129V15.9217V15.9304V15.9392V15.9478V15.9564V15.9649V15.9734V15.9818V15.9902V15.9985V16.0067V16.0149V16.0231V16.0311V16.0391V16.0471V16.055V16.0628V16.0706V16.0783V16.0859V16.0935V16.101V16.1085V16.1159V16.1232V16.1305V16.1377V16.1448V16.1519V16.1589V16.1659V16.1727V16.1796V16.1863V16.193V16.1996V16.2061V16.2126V16.219V16.2253V16.2316V16.2378V16.2439V16.25V16.256V16.2619V16.2677V16.2735V16.2792V16.2849V16.2904V16.2959V16.3013V16.3066V16.3119V16.3171V16.3222V16.3273V16.3322V16.3371V16.3419V16.3467V16.3513V16.3559V16.3604V16.3648V16.3692V16.3735V16.3776V16.3818V16.3858V16.3897V16.3936V16.3974V16.4011V16.4048V16.4083V16.4118C6.75004 16.4127 6.75014 16.4126 6.7495 16.414C6.74846 16.4163 6.74473 16.4233 6.73517 16.4323C6.71572 16.4506 6.6791 16.4706 6.62503 16.4706H2.25001C2.19594 16.4706 2.15932 16.4506 2.13987 16.4323C2.13031 16.4233 2.12658 16.4163 2.12553 16.414C2.12498 16.4128 2.12498 16.4127 2.125 16.4121L2.125 16.4118V6.91332C2.125 6.57871 2.29637 6.24103 2.62513 6.02002L8.90407 1.79891C8.95786 1.76275 9.04224 1.76275 9.09604 1.79891L15.8461 6.33673C15.8628 6.34798 15.8702 6.35853 15.873 6.36368C15.8745 6.36634 15.875 6.36792 15.8751 6.3686V16.4118L15.8751 16.4121C15.8751 16.4127 15.8751 16.4128 15.8746 16.414C15.8735 16.4163 15.8698 16.4233 15.8602 16.4323C15.8408 16.4506 15.8042 16.4706 15.7501 16.4706H11.3751C11.321 16.4706 11.2844 16.4506 11.2649 16.4323C11.2554 16.4233 11.2516 16.4163 11.2506 16.414C11.25 16.4126 11.2501 16.4127 11.2501 16.4118V11.6471Z" stroke="black" stroke-width="2"/>
</svg>
