<svg width="18" height="18" viewBox="0 0 18 18" fill="none" xmlns="http://www.w3.org/2000/svg">
<path fill-rule="evenodd" clip-rule="evenodd" d="M10.6 1.94215C10.6 1.18019 11.5738 0.734494 12.2805 1.173L16.5472 3.82036C16.8311 3.99651 17 4.28344 17 4.58952V16.0595C17 16.5789 16.5224 17 15.9333 17H11.6667C11.0776 17 10.6 16.5789 10.6 16.0595V1.94215Z" fill="black"/>
<path d="M1 2.01129C1 1.49186 1.47756 1.07078 2.06667 1.07078C2.65577 1.07078 3.13333 1.49186 3.13333 2.01129V16.0595C3.13333 16.5789 2.65577 17 2.06667 17C1.47756 17 1 16.5789 1 16.0595V2.01129Z" fill="black"/>
<path d="M5.8 2.01129C5.8 1.49186 6.27756 1.07078 6.86667 1.07078C7.45577 1.07078 7.93333 1.49186 7.93333 2.01129V16.0595C7.93333 16.5789 7.45577 17 6.86667 17C6.27756 17 5.8 16.5789 5.8 16.0595V2.01129Z" fill="black"/>
</svg>
