<svg width="18" height="18" viewBox="0 0 18 18" fill="none" xmlns="http://www.w3.org/2000/svg">
<path d="M2.70703 9.3C2.70703 10.087 3.34503 10.725 4.13203 10.725C4.91904 10.725 5.55703 10.087 5.55703 9.3C5.55703 8.51299 4.91904 7.875 4.13203 7.875C3.34503 7.875 2.70703 8.51299 2.70703 9.3ZM7.90703 9.3C7.90703 10.087 8.54502 10.725 9.33203 10.725C10.119 10.725 10.757 10.087 10.757 9.3C10.757 8.51299 10.119 7.875 9.33203 7.875C8.54502 7.875 7.90703 8.51299 7.90703 9.3ZM13.107 9.3C13.107 10.087 13.745 10.725 14.532 10.725C15.319 10.725 15.957 10.087 15.957 9.3C15.957 8.51299 15.319 7.875 14.532 7.875C13.745 7.875 13.107 8.51299 13.107 9.3Z" fill="black" stroke="black" stroke-width="0.25"/>
</svg>
