<svg width="18" height="18" viewBox="0 0 18 18" fill="none" xmlns="http://www.w3.org/2000/svg">
<path d="M9.13203 5.725C9.91904 5.725 10.557 5.08701 10.557 4.3C10.557 3.51299 9.91904 2.875 9.13203 2.875C8.34503 2.875 7.70703 3.51299 7.70703 4.3C7.70703 5.08701 8.34503 5.725 9.13203 5.725ZM9.13203 10.925C9.91904 10.925 10.557 10.287 10.557 9.5C10.557 8.71299 9.91904 8.075 9.13203 8.075C8.34503 8.075 7.70703 8.71299 7.70703 9.5C7.70703 10.287 8.34503 10.925 9.13203 10.925ZM9.13203 16.125C9.91904 16.125 10.557 15.487 10.557 14.7C10.557 13.913 9.91904 13.275 9.13203 13.275C8.34503 13.275 7.70703 13.913 7.70703 14.7C7.70703 15.487 8.34503 16.125 9.13203 16.125Z" fill="black" stroke="black" stroke-width="0.25"/>
</svg>
