<svg width="18" height="18" viewBox="0 0 18 18" fill="none" xmlns="http://www.w3.org/2000/svg">
<path fill-rule="evenodd" clip-rule="evenodd" d="M5.35301 2.17574C5.58752 2.41005 5.58752 2.78995 5.35301 3.02426L2.47485 5.9H9.89949C10.2311 5.9 10.5 6.16863 10.5 6.5C10.5 6.83137 10.2311 7.1 9.89949 7.1H2.47484L5.35301 9.97574C5.58752 10.2101 5.58752 10.5899 5.35301 10.8243C5.1185 11.0586 4.73828 11.0586 4.50376 10.8243L0.72865 7.05234C0.423783 6.74773 0.423784 6.25227 0.72865 5.94766L4.50376 2.17574C4.73828 1.94142 5.1185 1.94142 5.35301 2.17574ZM12.647 7.17574C12.4125 7.41005 12.4125 7.78995 12.647 8.02426L15.5252 10.9H8.10051C7.76886 10.9 7.5 11.1686 7.5 11.5C7.5 11.8314 7.76886 12.1 8.10051 12.1H15.5252L12.647 14.9757C12.4125 15.2101 12.4125 15.5899 12.647 15.8243C12.8815 16.0586 13.2617 16.0586 13.4962 15.8243L17.2714 12.0523C17.5762 11.7477 17.5762 11.2523 17.2714 10.9477L13.4962 7.17574C13.2617 6.94142 12.8815 6.94142 12.647 7.17574Z" fill="black"/>
</svg>
