<svg width="18" height="18" viewBox="0 0 18 18" fill="none" xmlns="http://www.w3.org/2000/svg">
<path opacity="0.42" d="M12.9404 16.175C12.9404 16.3671 12.7829 16.54 12.5889 16.54H5.86147C5.66553 16.54 5.508 16.3671 5.508 16.175V11.3148C5.508 11.1227 5.66553 10.969 5.86147 10.969H12.5889C12.7829 10.969 12.9404 11.1227 12.9404 11.3148V16.175ZM12.6484 9.50903H5.8C4.80875 9.50903 4 10.3159 4 11.3148V16.1942C4 17.1739 4.80875 18 5.8 18H12.6484C13.6416 18 14.4485 17.1739 14.4485 16.1942V11.3148C14.4485 10.3159 13.6416 9.50903 12.6484 9.50903Z" fill="black"/>
<path d="M12.9404 6.68517C12.9404 6.85805 12.7829 7.03095 12.5889 7.03095H5.86147C5.66553 7.03095 5.508 6.85805 5.508 6.68517V1.80575C5.508 1.61366 5.66553 1.45997 5.86147 1.45997H12.5889C12.7829 1.45997 12.9404 1.61366 12.9404 1.80575V6.68517ZM12.6484 0H5.8C4.80875 0 4 0.806831 4 1.80575V6.68517C4 7.68409 4.80875 8.49092 5.8 8.49092H12.6484C13.6416 8.49092 14.4485 7.68409 14.4485 6.68517V1.80575C14.4485 0.806831 13.6416 0 12.6484 0Z" fill="#221E1F"/>
</svg>
