<svg width="18" height="18" viewBox="0 0 18 18" fill="none" xmlns="http://www.w3.org/2000/svg">
<path d="M4.08254 7.45306L3.93832 7.77828C4.00122 7.74007 4.00834 7.72835 4.01694 7.71419C4.02213 7.70565 4.02786 7.69623 4.04668 7.67958L4.08254 7.45306Z" fill="black"/>
<path d="M1.43628 3.30422C0.390132 3.94736 -0.112803 4.92798 0.0212764 6.26142C0.176874 7.80788 2.19247 8.78247 3.90019 7.80075L3.93832 7.77828L4.08254 7.45306L4.38822 5.52205H2.35083L2.19496 6.51583H3.04633L2.94867 7.04932C2.46091 7.24314 1.6316 7.17022 1.27792 6.54023C1.05391 6.14107 0.846442 5.2501 1.79051 4.43123C2.55829 3.76451 3.88832 3.64361 4.65666 3.99506C4.65666 3.99506 4.75432 3.43745 4.82715 2.91603C3.35118 2.40694 2.20434 2.83132 1.43628 3.30422Z" fill="black"/>
<path d="M4.08254 7.45306L3.93832 7.77828C4.00122 7.74007 4.00834 7.72835 4.01694 7.71419C4.02213 7.70565 4.02786 7.69623 4.04668 7.67958L4.08254 7.45306Z" fill="black"/>
<path d="M1.43628 3.30422C0.390132 3.94736 -0.112803 4.92798 0.0212764 6.26142C0.176874 7.80788 2.19247 8.78247 3.90019 7.80075L3.93832 7.77828L4.08254 7.45306L4.38822 5.52205H2.35083L2.19496 6.51583H3.04633L2.94867 7.04932C2.46091 7.24314 1.6316 7.17022 1.27792 6.54023C1.05391 6.14107 0.846442 5.2501 1.79051 4.43123C2.55829 3.76451 3.88832 3.64361 4.65666 3.99506C4.65666 3.99506 4.75432 3.43745 4.82715 2.91603C3.35118 2.40694 2.20434 2.83132 1.43628 3.30422Z" fill="black"/>
<path fill-rule="evenodd" clip-rule="evenodd" d="M12.9262 8.13987H14.0237L13.792 2.83132H12.4746L11.2301 5.74027L10.6932 2.83132H9.60792L8.20534 7.12197L7.48583 2.83132H6.13208L4.08254 7.45306L4.04668 7.67958C4.02786 7.69623 4.02213 7.70565 4.01694 7.71419C4.00834 7.72835 4.00122 7.74007 3.93832 7.77828L3.77797 8.13987H4.92454L5.64432 6.55229H6.91283L7.1934 8.13987H9.05947L10.011 5.17032L10.6207 8.13987H11.3526L12.7795 4.85533L12.9262 8.13987ZM6.54673 4.49209L6.74757 5.52178H6.08325L6.54673 4.49209Z" fill="black"/>
<path d="M17.1707 8.13987L17.3539 7.00079H15.4384L15.5904 6.05527H17.2559L17.4391 4.91619H15.7557L15.9022 3.97039H17.8165L18 2.83132H14.9631L14.109 8.13987H17.1707Z" fill="black"/>
<path fill-rule="evenodd" clip-rule="evenodd" d="M4.35857 10.6664H5.0731C5.84778 10.6664 5.69053 11.6528 4.95226 11.6528H4.18945L4.35857 10.6664ZM4.01978 12.7351H4.93958C5.81136 12.7351 5.78736 13.7936 4.81874 13.7936H3.85039L4.01978 12.7351ZM3.4145 9.54762L2.56726 14.8162H5.03641C6.05331 14.8162 7.54004 13.3267 6.18656 12.1098C7.57839 10.6782 6.19815 9.55969 5.46017 9.54735C4.86729 9.53776 3.40263 9.54735 3.40263 9.54735L3.4145 9.54762Z" fill="black"/>
<path fill-rule="evenodd" clip-rule="evenodd" d="M13.8492 15.3135H13.6417L13.8153 14.5801H13.5162L13.5535 14.4225H14.3596L14.3218 14.5801H14.0227L13.8492 15.3135ZM15.222 15.3135H15.0286L15.2049 14.5689L14.8413 15.3135H14.6385L14.6338 14.5689L14.4548 15.3135H14.2614L14.4722 14.4225H14.7742L14.7878 15.1251L15.1332 14.4225H15.4328L15.222 15.3135Z" fill="black"/>
<path fill-rule="evenodd" clip-rule="evenodd" d="M6.99352 11.7158C7.33451 10.2481 8.59668 9.28472 9.81277 9.56407C11.03 9.84343 11.7395 11.2594 11.3991 12.7272C11.0581 14.1947 9.79566 15.158 8.5793 14.8787C7.36266 14.5993 6.65281 13.1831 6.99352 11.7158ZM8.65489 13.8158C9.23562 14.0738 9.94712 13.5674 10.2429 12.6847C10.5386 11.8016 10.3085 10.8761 9.72779 10.6182C9.14706 10.3599 8.43666 10.8663 8.14037 11.7496C7.84379 12.6329 8.07443 13.5576 8.65489 13.8158ZM13.8922 9.51802H15.1732L13.1967 12.6087L12.8599 14.8266H11.7616L12.1605 12.3176L10.8672 9.51802H12.1238L12.8066 11.2509L13.8922 9.51802Z" fill="black"/>
<path fill-rule="evenodd" clip-rule="evenodd" d="M4.35857 10.6664H5.0731C5.84778 10.6664 5.69053 11.6528 4.95226 11.6528H4.18945L4.35857 10.6664ZM4.01978 12.7351H4.93958C5.81136 12.7351 5.78736 13.7936 4.81874 13.7936H3.85039L4.01978 12.7351ZM3.4145 9.54762L2.56726 14.8162H5.03641C6.05331 14.8162 7.54004 13.3267 6.18656 12.1098C7.57839 10.6782 6.19815 9.55969 5.46017 9.54735C4.86729 9.53776 3.40263 9.54735 3.40263 9.54735L3.4145 9.54762Z" fill="black"/>
<path fill-rule="evenodd" clip-rule="evenodd" d="M13.8492 15.3135H13.6417L13.8153 14.5801H13.5162L13.5535 14.4225H14.3596L14.3218 14.5801H14.0227L13.8492 15.3135ZM15.222 15.3135H15.0286L15.2049 14.5689L14.8413 15.3135H14.6385L14.6338 14.5689L14.4548 15.3135H14.2614L14.4722 14.4225H14.7742L14.7878 15.1251L15.1332 14.4225H15.4328L15.222 15.3135Z" fill="black"/>
<path fill-rule="evenodd" clip-rule="evenodd" d="M6.99352 11.7158C7.33451 10.2481 8.59668 9.28472 9.81277 9.56407C11.03 9.84343 11.7395 11.2594 11.3991 12.7272C11.0581 14.1947 9.79566 15.158 8.5793 14.8787C7.36266 14.5993 6.65281 13.1831 6.99352 11.7158ZM8.65489 13.8158C9.23562 14.0738 9.94712 13.5674 10.2429 12.6847C10.5386 11.8016 10.3085 10.8761 9.72779 10.6182C9.14706 10.3599 8.43666 10.8663 8.14037 11.7496C7.84379 12.6329 8.07443 13.5576 8.65489 13.8158ZM13.8922 9.51802H15.1732L13.1967 12.6087L12.8599 14.8266H11.7616L12.1605 12.3176L10.8672 9.51802H12.1238L12.8066 11.2509L13.8922 9.51802Z" fill="black"/>
</svg>
