<svg width="18" height="18" viewBox="0 0 18 18" fill="none" xmlns="http://www.w3.org/2000/svg">
<path d="M4.248 7.34698L4.00868 7.8457H4.35251L4.248 7.34698Z" fill="black"/>
<path d="M5.37084 10.3831L5.36965 10.3805C5.34939 10.3354 5.32174 10.2964 5.28673 10.2635C5.26489 10.2429 5.24019 10.2247 5.21262 10.2089C5.12054 10.1561 4.99657 10.1297 4.84099 10.1297H4.11438V11.111H4.62792L4.65684 11.1108C4.67969 11.1106 4.70201 11.1102 4.7238 11.1095C4.96549 11.102 5.14074 11.0653 5.23716 10.9995C5.29096 10.9642 5.33296 10.9149 5.36223 10.8526C5.3945 10.7838 5.41128 10.6991 5.41128 10.5997C5.41128 10.5165 5.39777 10.4443 5.37084 10.3831Z" fill="black"/>
<path d="M16.205 8.864L16.2103 8.86396L16.2125 8.86392L16.2138 8.86389L16.2175 8.86378L16.2181 8.86376L16.2189 8.86373L16.2256 8.86338L16.2323 8.86288L16.2355 8.86257L16.2398 8.86209C16.2436 8.86162 16.2473 8.86106 16.2509 8.86041L16.253 8.86001C16.254 8.8598 16.255 8.85959 16.256 8.85937C16.259 8.85871 16.2619 8.85799 16.2647 8.85719L16.2692 8.85577C16.2753 8.8537 16.2807 8.85124 16.2853 8.84838C16.2858 8.84808 16.2862 8.84777 16.2867 8.84745C16.29 8.84524 16.2929 8.84281 16.2954 8.84017L16.2965 8.83887C16.3015 8.83294 16.3044 8.82596 16.305 8.81795L16.3051 8.8149C16.3051 8.81289 16.305 8.81045 16.3047 8.80855C16.3044 8.80677 16.304 8.80504 16.3035 8.80337L16.303 8.80194L16.3018 8.79919L16.3011 8.79769C16.3007 8.79713 16.3004 8.79658 16.3001 8.79603C16.299 8.79441 16.2979 8.79285 16.2965 8.79138L16.2951 8.78998C16.2941 8.78895 16.293 8.78797 16.2917 8.78703L16.2907 8.78625C16.2821 8.78007 16.2697 8.77587 16.253 8.77419C16.2488 8.77377 16.2444 8.77351 16.2398 8.77341L16.2355 8.77337H16.1529V8.864H16.205Z" fill="black"/>
<path fill-rule="evenodd" clip-rule="evenodd" d="M16.0554 8.73754L16.057 8.73632C16.0588 8.73424 16.0607 8.73221 16.0625 8.73023C16.066 8.7266 16.0695 8.72314 16.0732 8.71986L16.0781 8.71568C16.0878 8.70762 16.0982 8.70067 16.1093 8.69481C16.1229 8.68764 16.1375 8.68209 16.1529 8.67809C16.1694 8.67381 16.1868 8.6713 16.205 8.6705L16.2138 8.67025L16.2183 8.67022C16.2193 8.67022 16.2204 8.67023 16.2215 8.67024C16.2262 8.67029 16.2309 8.67045 16.2355 8.67073L16.2398 8.67101C16.2411 8.67111 16.2425 8.67122 16.2439 8.67135C16.247 8.67162 16.25 8.67194 16.253 8.67232L16.2548 8.67255C16.2693 8.67446 16.2832 8.67756 16.2965 8.6819C16.3073 8.68544 16.3176 8.68981 16.3274 8.69502L16.3322 8.69765C16.333 8.6981 16.3338 8.69855 16.3345 8.69901C16.3379 8.70099 16.3412 8.70308 16.3444 8.70528C16.345 8.70567 16.3456 8.70606 16.3461 8.70646C16.3501 8.70923 16.354 8.71216 16.3577 8.71526L16.359 8.71631L16.3622 8.71914C16.3682 8.72442 16.3741 8.73039 16.3794 8.73656L16.3808 8.7379L16.3834 8.74049C16.3927 8.74982 16.4012 8.76009 16.4088 8.77119L16.4102 8.77337L16.4106 8.7739L16.4136 8.77866L16.4166 8.7837C16.4221 8.79329 16.427 8.80342 16.431 8.81401L16.4312 8.8146C16.437 8.83012 16.4411 8.84665 16.4431 8.864C16.444 8.87212 16.4445 8.88041 16.4445 8.88887C16.4445 8.89161 16.4445 8.89434 16.4444 8.89705C16.4437 8.91223 16.4412 8.92685 16.4372 8.94097C16.4341 8.95202 16.43 8.96277 16.425 8.97325C16.4162 8.99187 16.4047 9.00964 16.3913 9.02676L16.3895 9.02907L16.3827 9.03731L16.3816 9.03863L16.3792 9.04142C16.3744 9.04595 16.3694 9.05023 16.3641 9.05426L16.3596 9.0576C16.3547 9.06111 16.3497 9.0644 16.3444 9.06748C16.3375 9.07155 16.3303 9.07525 16.3227 9.07856C16.3143 9.08225 16.3056 9.08547 16.2965 9.08819C16.2827 9.09233 16.2681 9.09533 16.253 9.09714L16.245 9.09798L16.2398 9.0984L16.2383 9.0985L16.2355 9.09867C16.2298 9.099 16.2239 9.09917 16.2181 9.09917L16.2138 9.09914L16.2072 9.09898L16.205 9.09889C16.2039 9.09885 16.2028 9.09879 16.2016 9.09873C16.1967 9.09846 16.1919 9.09808 16.1871 9.09757C16.1784 9.09666 16.1699 9.09537 16.1617 9.09369L16.1529 9.09174C16.1375 9.08804 16.1229 9.083 16.1093 9.07668C16.098 9.0714 16.0873 9.06523 16.0775 9.05821L16.0756 9.05685C16.0749 9.05636 16.0742 9.05586 16.0736 9.05536C16.0689 9.05185 16.0644 9.04815 16.0601 9.04425L16.057 9.04142L16.0533 9.03781L16.0518 9.0364C16.0494 9.03397 16.047 9.03153 16.0447 9.02907L16.0424 9.02655C16.038 9.02178 16.0339 9.01696 16.0301 9.01208C16.0027 8.97708 15.9889 8.93926 15.9874 8.89705L15.9872 8.88887C15.9872 8.88041 15.9876 8.87212 15.9884 8.864L15.9891 8.85844C15.9909 8.84402 15.9941 8.8302 15.9987 8.81707L15.9996 8.81443C16.005 8.7998 16.0122 8.78606 16.0212 8.77337C16.0274 8.76469 16.0345 8.75651 16.0424 8.74887C16.0449 8.74651 16.0475 8.7442 16.0501 8.74194L16.0518 8.74049L16.0554 8.73754ZM16.2138 8.89705H16.1529V9.02907H16.1093V8.74049H16.2398L16.3138 8.75685L16.3173 8.75808L16.3187 8.75866C16.3202 8.75928 16.3215 8.75996 16.3229 8.76069C16.3286 8.76384 16.3332 8.76796 16.3368 8.77278L16.3373 8.77337L16.3388 8.77565L16.3401 8.7776L16.3412 8.77971L16.3426 8.78251C16.3433 8.784 16.3439 8.78554 16.3444 8.7871C16.3473 8.79502 16.3486 8.80375 16.3488 8.81255L16.3488 8.8146C16.3488 8.81534 16.3488 8.81608 16.3488 8.81681C16.3487 8.82194 16.3484 8.8268 16.3477 8.83139C16.3476 8.83206 16.3476 8.83272 16.3474 8.83337C16.3467 8.83794 16.3457 8.84224 16.3444 8.84628C16.3423 8.85287 16.3395 8.85876 16.336 8.864C16.3285 8.87525 16.3177 8.88345 16.304 8.88887L16.2997 8.89046L16.2965 8.89148C16.2923 8.89273 16.2879 8.89377 16.2833 8.89459C16.2792 8.89534 16.2748 8.89591 16.2703 8.89631C16.2648 8.8968 16.259 8.89705 16.253 8.89705L16.3444 9.02907H16.2965L16.2138 8.89705Z" fill="black"/>
<path d="M14.1985 7.07492C14.324 7.12249 14.4111 7.22033 14.467 7.36164L14.4673 7.36246L14.4704 7.37029C14.481 7.39802 14.4904 7.42737 14.4988 7.45831C14.5509 7.65626 14.5381 7.86239 14.4639 8.0807C14.4022 8.25976 14.307 8.40136 14.1861 8.50316L14.184 8.50496L14.1799 8.50833C14.1579 8.52649 14.135 8.54335 14.1114 8.55889C13.9754 8.65272 13.8457 8.68222 13.7221 8.65189L13.7145 8.64993C13.6942 8.64455 13.6742 8.63757 13.6542 8.62899C13.5296 8.5817 13.4397 8.4846 13.3826 8.34465L13.3804 8.339L13.376 8.32771C13.3661 8.30173 13.3573 8.27435 13.3495 8.24561C13.293 8.04348 13.3146 7.83752 13.3887 7.62305C13.4393 7.47873 13.5127 7.35587 13.6043 7.257C13.6221 7.23784 13.6405 7.21957 13.6597 7.20223L13.6673 7.19538C13.6909 7.17442 13.7156 7.15484 13.7411 7.13668C13.873 7.04772 14.0078 7.01718 14.1375 7.053L14.1406 7.05387C14.16 7.05939 14.1793 7.0664 14.1985 7.07492Z" fill="black"/>
<path d="M11.7434 8.61843L11.7501 8.61786C11.7643 8.61658 11.7781 8.61487 11.7913 8.61274C11.8573 8.60212 11.9108 8.58119 11.9538 8.55201L11.9552 8.55112C11.9594 8.54818 11.9636 8.54516 11.9677 8.54206C12.0098 8.51025 12.0394 8.47489 12.0562 8.43494C12.0653 8.41305 12.0707 8.38979 12.0722 8.36497C12.0764 8.29487 12.0504 8.23303 11.9982 8.18346C11.9585 8.14867 11.9095 8.12426 11.8514 8.11146C11.8221 8.10503 11.7905 8.10153 11.7566 8.10113L11.7501 8.10109H11.28L11.193 8.62067H11.6827H11.6848C11.7045 8.62067 11.7233 8.61997 11.7413 8.61859L11.7434 8.61843Z" fill="black"/>
<path d="M11.9786 7.49937C11.9612 7.51351 11.9427 7.52563 11.9231 7.53574C11.9001 7.54759 11.8757 7.55667 11.8498 7.56297L11.8488 7.56323C11.8386 7.56567 11.8282 7.56768 11.8175 7.56927C11.798 7.57218 11.7777 7.57364 11.7566 7.57364H11.3648L11.4519 7.09545H11.8175C11.909 7.09545 11.9786 7.12016 12.0266 7.16956C12.0659 7.21496 12.0831 7.26854 12.0743 7.33446L12.0735 7.34006C12.0681 7.37509 12.0552 7.40652 12.0362 7.43507C12.0208 7.45828 12.0014 7.47958 11.9786 7.49937Z" fill="black"/>
<path fill-rule="evenodd" clip-rule="evenodd" d="M4.7238 12.0782C5.19296 12.0782 5.64169 11.9941 5.98455 11.7429C6.03341 11.7071 6.07864 11.6691 6.12036 11.6289L6.40368 12.0732L6.40057 12.0782H11.0206V11.5281L11.7448 12.0782H12.8441V12.0724C12.8962 12.0766 12.9465 12.0782 12.9939 12.0782H14.1211C14.1731 12.0782 14.2296 12.0763 14.2885 12.0709V12.0782H17.4452V10.5683H17.4189V9.17466H16.9757C17.0093 9.09102 17.0305 8.99566 17.0305 8.88887C17.0305 8.64246 16.9211 8.45611 16.8005 8.33091L16.7918 8.32196L16.7828 8.31342C16.7159 8.25002 16.6378 8.19656 16.5508 8.15748L18 5.99236H16.0391L15.8853 6.22574L15.7891 5.99236H14.0848C14.0356 5.99005 13.9869 5.99007 13.9387 5.99236H13.9132L13.9138 5.99374C13.6002 6.01377 13.3068 6.12991 13.0388 6.32421C12.9952 6.35491 12.9534 6.38702 12.9134 6.42044C12.8244 6.3271 12.7222 6.24701 12.6101 6.18246C12.4348 6.0776 12.2323 6.00888 12.0133 6.00888H10.7474L10.7502 5.99236H6.93072L6.85288 6.1656L6.81926 5.99236H5.42771L5.26522 6.46521L5.18148 5.99236H3.69369L3.64302 6.10082L3.54487 6.06714C2.78866 5.8076 2.04633 5.89557 1.35947 6.29673C1.00913 6.49964 0.730339 6.77353 0.555483 7.12336C0.381246 7.47195 0.328953 7.85836 0.369611 8.25744C0.369611 8.25744 0.425091 8.79489 0.80484 9.17464C1.07607 9.44587 1.552 9.60319 1.552 9.60319L0 12.0782H4.7238ZM1.25319 8.83302C1.20795 8.79472 1.16588 8.75298 1.1271 8.70727C1.00092 8.55889 0.926897 8.38998 0.90945 8.20422C0.844244 7.56947 1.08374 7.08294 1.63218 6.76565C2.00455 6.54798 2.38668 6.44635 2.77853 6.46445C2.97289 6.47343 3.16964 6.51187 3.36878 6.58021L3.28595 7.09946C3.2584 7.08806 3.23016 7.07767 3.20126 7.0683L3.19234 7.06545C3.06354 7.02484 2.92158 7.00454 2.76735 7.00705L2.75132 7.00739C2.68508 7.00913 2.61659 7.01506 2.54595 7.02535C2.2565 7.06174 2.01287 7.14917 1.82329 7.30325L1.81035 7.31393C1.72233 7.38704 1.65137 7.46367 1.59683 7.5438C1.51914 7.65797 1.47478 7.77925 1.46194 7.90762C1.45051 8.01045 1.46155 8.10596 1.49136 8.19791C1.49703 8.2154 1.50338 8.23276 1.51038 8.25002C1.52273 8.28048 1.53712 8.31062 1.5534 8.34058C1.57412 8.37496 1.59729 8.4063 1.62304 8.4347C1.67382 8.49069 1.73463 8.53526 1.80635 8.5693L1.81003 8.57104C1.85385 8.59151 1.90171 8.60809 1.95381 8.62098L2.22397 8.62466L2.41095 8.59194L2.45448 8.33207H2.01919L2.09761 7.8457H3.13791L2.98547 8.78973L4.03899 6.53481H4.72665L5.09674 8.62466L5.81489 6.53481H6.37196L6.64635 7.94868L7.28167 6.53481H7.96087L8.07401 9.11953H7.51677L7.44275 7.52006L6.71156 9.11953H6.33301L6.01949 7.67662L5.53203 9.11953H4.57879L4.43534 8.34859H3.79103L3.41671 9.11953H2.83338L2.91621 8.94645L2.89436 8.9588C2.87408 8.96937 2.85376 8.97954 2.83338 8.98928C2.78579 9.01205 2.73789 9.03255 2.6895 9.05068C2.62771 9.07384 2.56511 9.09314 2.50131 9.1084C2.44904 9.1209 2.39596 9.13069 2.34187 9.13766L2.32811 9.13936L2.3143 9.14095C2.28452 9.14424 2.25442 9.14667 2.22397 9.14824L2.21812 9.14856L2.21685 9.14863C2.12459 9.15345 2.03467 9.15012 1.94677 9.1383C1.90777 9.13305 1.86915 9.12613 1.83091 9.11751C1.75452 9.10029 1.6796 9.07629 1.60592 9.04526C1.47323 8.98815 1.35516 8.91934 1.25319 8.83302ZM8.80097 8.57125L8.8794 8.10975H9.73254L9.824 7.55311H8.96205L9.03607 7.09128H10.0198L10.1113 6.53481H8.55724L8.12195 9.1197H9.68478L9.78471 8.57125H8.80097ZM5.71616 9.98968C5.66395 9.94338 5.60605 9.90295 5.5424 9.86841C5.49878 9.84475 5.45246 9.82385 5.40342 9.80572C5.25925 9.75244 5.09153 9.72312 4.89961 9.71795C4.88032 9.71743 4.86077 9.71715 4.84099 9.71712L3.56595 9.71712V11.2265L2.60407 9.71712H2.12084L0.980438 11.5357H2.33849V11.1315H1.78564L2.33849 10.1916L3.13946 11.5357H4.7238C5.0437 11.5357 5.30238 11.4904 5.49982 11.4005L5.50838 11.3965C5.6346 11.3377 5.73534 11.2603 5.8106 11.1645L5.81803 11.1549C5.92424 11.0148 5.97734 10.8365 5.97734 10.6204C5.97734 10.5417 5.96972 10.4654 5.95261 10.3933C5.94732 10.3711 5.94113 10.3492 5.93398 10.3278L6.7043 11.5357H7.07439L8.18412 9.71712H7.59656L6.90467 10.905L6.17331 9.71712H5.5424L5.71616 9.98968ZM11.8013 10.8015L10.3387 9.71712H9.9646V11.2263L9.00255 9.71712H8.51474L7.37892 11.5357H8.73494V11.1271H8.18853L8.73494 10.1915L9.53354 11.5357H10.4781V10.4348L11.9275 11.5357H12.3016V9.71712H11.8013V10.8015ZM12.4717 10.1749C12.4717 10.125 12.4751 10.0794 12.4819 10.0382C12.4981 9.93993 12.5338 9.86688 12.5891 9.82043C12.6424 9.76991 12.7274 9.73872 12.8441 9.72511C12.8893 9.71984 12.9392 9.71721 12.9939 9.71712H14.1211C14.1836 9.71712 14.2393 9.7202 14.2885 9.72649C14.4003 9.74078 14.4789 9.77159 14.5303 9.82027C14.5401 9.82796 14.5494 9.83675 14.5582 9.84663C14.5966 9.89001 14.6239 9.95434 14.6376 10.0388C14.6442 10.0795 14.6476 10.1249 14.6476 10.1748V10.3891H14.0951V10.1419H13.0244V11.0941H14.0951V10.8137L14.6476 10.8222V11.0736C14.6476 11.1093 14.6458 11.1427 14.6422 11.1738C14.6409 11.1852 14.6394 11.1963 14.6376 11.2071C14.6274 11.2695 14.6095 11.3218 14.5851 11.3638C14.5695 11.3908 14.5511 11.4135 14.5303 11.4321C14.4795 11.4776 14.3979 11.5094 14.2885 11.5249C14.2384 11.5321 14.1825 11.5357 14.1211 11.5357H12.9939C12.9392 11.5357 12.8893 11.5328 12.8441 11.5271C12.7274 11.5125 12.6424 11.4797 12.5891 11.4321C12.5338 11.3858 12.4981 11.3127 12.4819 11.213C12.4751 11.1712 12.4717 11.1247 12.4717 11.0736V10.1749ZM16.0431 8.69271C16.0397 8.69557 16.0362 8.69852 16.0329 8.70156L16.0312 8.70308L16.0267 8.70727L16.0252 8.70869C16.0206 8.71317 16.0161 8.71771 16.0119 8.72233C16.0065 8.72826 16.0014 8.73431 15.9966 8.74049C15.9886 8.75104 15.9815 8.76198 15.9755 8.77337C15.9685 8.78643 15.9629 8.80008 15.9587 8.81443L15.9578 8.81736C15.9536 8.83214 15.9508 8.84765 15.9495 8.864C15.9488 8.87208 15.9484 8.88037 15.9484 8.88887L15.9486 8.89705C15.9489 8.90832 15.9499 8.91928 15.9516 8.92992C15.9575 8.96636 15.9716 8.99918 15.9937 9.02907L15.9967 9.03301C16.0017 9.03948 16.0071 9.04581 16.0128 9.05201L16.0194 9.05886C16.0218 9.06124 16.0242 9.06361 16.0267 9.06596L16.0304 9.06947L16.0322 9.07108C16.0376 9.07598 16.0431 9.08066 16.0488 9.08511L16.0506 9.08653C16.0689 9.10069 16.0885 9.11252 16.1093 9.12173C16.1172 9.12523 16.1253 9.12835 16.1336 9.13107C16.1397 9.1331 16.1459 9.13491 16.1522 9.1365L16.1529 9.13666C16.1622 9.13897 16.1716 9.14079 16.1813 9.14209C16.1853 9.14264 16.1893 9.14309 16.1934 9.14346L16.1972 9.14378L16.205 9.14426L16.2138 9.14453L16.2181 9.14457L16.2228 9.14453L16.2281 9.1444L16.2355 9.14404L16.2398 9.14374C16.2411 9.14363 16.2425 9.14351 16.2439 9.14339C16.2469 9.1431 16.25 9.14277 16.253 9.14239C16.2679 9.14049 16.2824 9.13737 16.2965 9.1331C16.3131 9.12806 16.3291 9.12141 16.3444 9.1133L16.3482 9.11129L16.3558 9.10693C16.3664 9.10065 16.3767 9.09365 16.3866 9.08597C16.3932 9.0808 16.3997 9.07533 16.4059 9.06957L16.4087 9.06705L16.4098 9.06596C16.4139 9.06174 16.4178 9.05747 16.4217 9.05314C16.4285 9.04532 16.435 9.0373 16.4409 9.02907C16.4621 8.99983 16.4771 8.96784 16.484 8.93241C16.4854 8.92499 16.4865 8.91743 16.4871 8.90971C16.4875 8.90554 16.4878 8.90132 16.4879 8.89705L16.4881 8.88887C16.4881 8.88037 16.4877 8.87208 16.4869 8.864C16.4852 8.84663 16.4818 8.8302 16.4768 8.8146L16.4765 8.81369C16.4719 8.79962 16.4661 8.78621 16.4592 8.77337C16.4576 8.77048 16.456 8.76761 16.4543 8.76478C16.4536 8.76362 16.4529 8.76246 16.4522 8.76131C16.4519 8.76077 16.4516 8.76024 16.4512 8.7597C16.4495 8.75701 16.4478 8.75433 16.446 8.75169C16.4435 8.7479 16.4409 8.74417 16.4381 8.74049C16.4318 8.73192 16.4249 8.72361 16.4175 8.71552L16.4112 8.70871L16.4098 8.70727L16.4081 8.7057C16.4022 8.70017 16.3961 8.69491 16.3899 8.68992L16.3865 8.68727L16.3851 8.6862C16.3722 8.67627 16.3586 8.66752 16.3444 8.66004L16.3361 8.65582C16.3233 8.64964 16.3101 8.64446 16.2965 8.64036C16.2858 8.63714 16.2748 8.63457 16.2636 8.6327C16.2601 8.63212 16.2565 8.6316 16.253 8.63115L16.2482 8.63059L16.2398 8.62981L16.2355 8.62952C16.2298 8.62917 16.2241 8.62899 16.2183 8.62899L16.2138 8.62903L16.205 8.6293C16.1871 8.63014 16.1697 8.63269 16.1529 8.63683C16.1379 8.64053 16.1233 8.6455 16.1093 8.65166C16.1083 8.6521 16.1073 8.65256 16.1063 8.65301C16.1019 8.655 16.0976 8.6571 16.0934 8.65932C16.0784 8.66709 16.0642 8.67625 16.0506 8.68671L16.0455 8.69074C16.0447 8.69139 16.0439 8.69205 16.0431 8.69271ZM15.0562 8.09723C14.9994 8.33075 14.9002 8.53286 14.7599 8.70232C14.6908 8.78573 14.6118 8.86123 14.5229 8.92867C14.515 8.93466 14.507 8.94059 14.4989 8.94645C14.4716 8.96595 14.4442 8.98422 14.4167 9.00125L14.4063 9.00759C14.1524 9.16183 13.8903 9.21072 13.6111 9.14824C13.5627 9.1382 13.5163 9.12539 13.4719 9.1098C13.4701 9.10917 13.4683 9.10854 13.4665 9.1079C13.4612 9.10599 13.4558 9.10404 13.4505 9.10205C13.3064 9.04778 13.1833 8.96344 13.0791 8.84901C13.0124 8.77563 12.9534 8.68989 12.9016 8.59177C12.8941 8.57718 12.8868 8.56249 12.8799 8.54772C12.8335 8.44912 12.7994 8.3466 12.7778 8.24074L12.7776 8.23985C12.7739 8.22125 12.7705 8.20255 12.7675 8.18375C12.7381 7.99987 12.746 7.80646 12.7926 7.60652C12.8049 7.56064 12.8186 7.51597 12.8337 7.47254C12.913 7.24497 13.0322 7.05144 13.1953 6.89567C13.2061 6.88531 13.2172 6.87511 13.2284 6.86509C13.2679 6.82985 13.3098 6.79668 13.3541 6.76565C13.3818 6.7455 13.4095 6.72666 13.4373 6.70912L13.4481 6.70239C13.6829 6.55731 13.9251 6.5049 14.1842 6.54753C14.2048 6.55092 14.2255 6.55492 14.2464 6.55952C14.2924 6.56936 14.3368 6.58185 14.3795 6.59698C14.3887 6.60023 14.3978 6.6036 14.4068 6.60709C14.4471 6.62267 14.4858 6.64066 14.523 6.66106C14.6196 6.71402 14.7059 6.78318 14.7816 6.86836C14.8362 6.92971 14.8852 6.99937 14.9288 7.07727C14.9351 7.08861 14.9413 7.10012 14.9474 7.11181C14.9533 7.1231 14.959 7.13444 14.9646 7.14581C15.0703 7.3628 15.1158 7.59451 15.0977 7.83948C15.0916 7.92142 15.0784 8.00485 15.058 8.08971L15.0562 8.09723ZM12.5053 8.74482C12.5205 8.72598 12.535 8.70662 12.5487 8.68674C12.6402 8.54237 12.6749 8.4025 12.6576 8.25379C12.6448 8.1354 12.5918 8.02146 12.5005 7.91201C12.476 7.8827 12.4488 7.85372 12.4189 7.82506C12.4088 7.81544 12.3985 7.80585 12.3878 7.79629C12.4442 7.74146 12.4928 7.68716 12.5339 7.63335C12.544 7.62004 12.5537 7.60677 12.5629 7.59352C12.5711 7.58179 12.5789 7.57009 12.5863 7.55841L12.5901 7.55245C12.728 7.3319 12.7355 7.11969 12.6141 6.91403C12.5949 6.88372 12.5735 6.8548 12.5502 6.82743C12.4904 6.75712 12.4177 6.69709 12.3355 6.65031C12.2266 6.58438 12.1178 6.55134 12.0133 6.55134H10.9686L10.5377 9.1197H11.7913C11.9263 9.1197 12.0657 9.07864 12.2091 8.99619C12.2328 8.9827 12.2558 8.96837 12.2782 8.95324L12.2796 8.95229C12.3294 8.91847 12.376 8.88065 12.4189 8.83931C12.4497 8.80958 12.4786 8.77803 12.5053 8.74482ZM15.9743 8.04349L16.9842 6.53481H16.3314L15.7741 7.37986L15.4259 6.53481H14.7816L15.4478 7.89944L15.2388 9.1197H15.8046L15.9743 8.04349ZM16.9027 11.5357V11.1108H15.3838V10.789H16.2584V10.3893H15.3838V10.1297H16.8764V9.71712H14.8309V11.5357H16.9027Z" fill="black"/>
</svg>
