<svg width="18" height="18" viewBox="0 0 18 18" fill="none" xmlns="http://www.w3.org/2000/svg">
<path opacity="0.57" fill-rule="evenodd" clip-rule="evenodd" d="M14.251 10.8563C14.251 10.8563 14.2683 11.3206 14.1956 11.434C14.097 11.6457 14.1114 11.8519 14.1114 11.8519C14.1114 11.8519 14.0447 12.4788 14.7704 12.5835C15.2697 12.5805 15.3306 12.1654 15.3392 11.9883C15.3684 11.8491 15.3568 11.2017 15.3568 11.2017L16.0042 11.7299C16.0042 11.7299 16.4745 12.1248 16.7502 12.3539C17.0377 12.5804 17.1098 12.6209 17.1098 12.6209C17.1098 12.6209 17.1711 12.6935 17.3915 12.6673C17.5688 12.6703 17.7313 12.5106 17.7313 12.5106C17.7313 12.5106 17.9372 12.3597 17.9893 12.0955C18.0534 11.7821 17.8097 11.6284 17.8097 11.6284C17.8097 11.6284 16.9099 10.9027 16.3003 10.4035C16.7094 10.18 16.9069 10.0261 16.9069 10.0261C16.9069 10.0261 17.4759 9.64877 17.5977 9.07112C17.7663 8.43545 17.2872 8.18578 17.2872 8.18578C17.2872 8.18578 16.9881 7.97094 16.7356 7.8577C16.0999 7.54713 15.5079 7.61102 15.5079 7.61102C15.5079 7.61102 14.6661 7.553 14.1174 8.22937C13.865 8.55726 14.0217 8.98693 14.0217 8.98693C14.0217 8.98693 14.0529 9.05592 14.1232 9.38179C14.2642 10.0372 14.251 10.8563 14.251 10.8563V10.8563ZM15.3539 9.56738L15.2986 8.80981C15.2986 8.80981 15.8298 8.79817 16.0504 8.83588C16.486 8.90265 16.4625 9.02455 16.4625 9.02455C16.4625 9.02455 16.4481 9.1783 16.1171 9.32935C15.7573 9.50349 15.3539 9.56738 15.3539 9.56738V9.56738Z" fill="black"/>
<path opacity="0.33" fill-rule="evenodd" clip-rule="evenodd" d="M10.5386 11.9212C10.641 11.7752 10.7649 11.0943 10.0396 10.9347C9.87682 10.1539 10.2861 9.50924 10.2861 9.50924C10.2861 9.50924 10.6837 8.62977 11.8274 8.41205C12.437 8.33085 12.7215 8.42667 12.7215 8.42667C12.7215 8.42667 13.6154 8.55178 14.1233 9.3818C14.2642 10.0372 14.2511 10.8563 14.2511 10.8563C14.2436 10.8746 14.016 11.4256 13.5023 11.8023C12.8491 12.3102 12.135 12.38 12.135 12.38C12.135 12.38 11.569 12.5078 11.0814 12.2871C11.0769 12.2832 11.0676 12.28 11.053 12.275C10.9918 12.2538 10.8361 12.2001 10.5386 11.9212ZM12.7329 11.0769C11.9116 11.5702 11.3948 11.0303 11.3948 11.0303C11.3948 11.0303 11.1656 10.8795 11.1162 10.4207C11.0815 9.88966 11.6097 9.61382 11.6097 9.61382C11.6097 9.61382 11.8885 9.44266 12.2368 9.46874C12.2839 9.47226 12.3267 9.47489 12.3662 9.47731C12.6181 9.49276 12.7334 9.49984 12.9769 9.68069C13.2437 9.9216 13.2265 10.0986 13.2265 10.0986C13.2265 10.0986 13.3222 10.6965 12.7329 11.0769Z" fill="black"/>
<path opacity="0.41" fill-rule="evenodd" clip-rule="evenodd" d="M10.0391 10.9346C9.79448 10.8808 9.40348 10.9809 9.40348 10.9809C9.40348 10.9809 8.85786 11.1811 8.77349 11.1783C8.74164 11.1319 8.67208 10.2408 8.69238 9.88375C8.70402 9.25385 8.65168 8.74008 8.65168 8.74008C8.65168 8.74008 8.62561 8.13347 8.30042 7.77355C7.9173 7.38745 7.65022 7.55293 7.49657 7.64578C7.12779 7.97665 7.29905 8.38006 7.29905 8.38006L7.49061 8.92308C7.49061 8.92308 7.58355 9.15533 7.5719 9.53546L7.6532 10.8156C7.6532 10.9869 7.79252 12.1392 7.79252 12.1392C7.79252 12.1392 7.80695 12.5138 8.16697 12.5804C8.53556 12.6413 8.89837 12.4585 9.05221 12.3861C9.20595 12.3134 9.40925 12.2495 9.40925 12.2495C9.40925 12.2495 9.57762 12.2119 9.7458 12.1972C10.1407 12.1594 10.2828 12.09 10.2828 12.09C10.2828 12.09 10.4358 12.0669 10.5384 11.9214C10.6408 11.7758 10.7652 11.0941 10.0391 10.9346Z" fill="black"/>
<path opacity="0.63" fill-rule="evenodd" clip-rule="evenodd" d="M3.93786 11.9389C3.93786 11.9389 3.881 11.594 3.57793 11.5032C3.24742 10.9749 3.45582 10.3076 3.45582 10.3076C3.45582 10.3076 3.61264 9.54124 4.15825 9.01583C4.50086 8.63849 4.95652 8.45569 4.95652 8.45569C4.95652 8.45569 5.45864 8.17408 6.09729 8.30771C6.84331 8.47589 7.22345 8.96936 7.22345 8.96936C7.22345 8.96936 7.4761 9.24519 7.57183 9.53537L7.65322 10.8156C7.45002 11.6515 6.70987 12.0606 6.70987 12.0606C6.70987 12.0606 6.38468 12.2813 5.93778 12.3714C5.42689 12.5047 4.98856 12.4061 4.98856 12.4061C4.98856 12.4061 4.44582 12.3627 3.93786 11.9389ZM5.47327 11.3814C6.12337 11.4425 6.4195 10.9257 6.4195 10.9257C6.4195 10.9257 6.6836 10.6559 6.46318 9.9534C6.29183 9.40192 5.95808 9.36979 5.95808 9.36979C5.95808 9.36979 5.46172 9.30889 4.98567 9.70951C4.51548 10.1391 4.61997 10.6326 4.61997 10.6326C4.61997 10.6326 4.70993 11.3031 5.47327 11.3814Z" fill="black"/>
<path opacity="0.76" fill-rule="evenodd" clip-rule="evenodd" d="M3.57787 11.5032C3.31858 11.4257 3.02062 11.4771 3.02062 11.4771C3.02062 11.4771 2.17877 11.5585 1.74053 11.4656C1.06128 11.3467 1.08437 10.6151 1.08437 10.6151C1.08437 10.6151 1.06128 10.1303 1.47056 9.47454C1.97557 8.66463 2.53283 8.51945 2.53283 8.51945C2.53283 8.51945 2.67224 8.4673 2.80289 8.53686C2.88409 9.00705 3.33985 9.00416 3.33985 9.00416C3.33985 9.00416 3.99601 9.04775 3.96387 8.25256C3.88844 7.59929 3.25845 7.50933 2.99435 7.44852C2.20205 7.30623 1.68828 7.73004 1.68828 7.73004C1.68828 7.73004 1.1571 8.01752 0.521435 9.01879C0.0887737 9.64002 0.0366273 10.1276 0.0366273 10.1276C0.0366273 10.1276 -0.0156154 10.2437 0.0046852 10.7605C-0.00676393 11.1639 0.144095 11.4569 0.144095 11.4569C0.144095 11.4569 0.373463 12.1508 1.09899 12.4353C1.54012 12.6181 2.18464 12.6152 2.18464 12.6152C2.18464 12.6152 2.80866 12.6065 3.2876 12.5804C3.54891 12.6007 3.6737 12.4643 3.6737 12.4643C3.6737 12.4643 3.96676 12.2728 3.9378 11.9389C3.9378 11.9388 3.88094 11.594 3.57787 11.5032V11.5032Z" fill="black"/>
<path fill-rule="evenodd" clip-rule="evenodd" d="M7.78283 5.77931H8.03201C8.30218 5.77931 8.24733 6.12548 7.98987 6.12548H7.72385L7.78283 5.77931ZM7.66468 6.50532H7.98545C8.28948 6.50532 8.28111 6.87679 7.94331 6.87679H7.60561L7.66468 6.50532ZM7.45359 5.38667L7.15813 7.23566H8.01922C8.37385 7.23566 8.89233 6.71294 8.42032 6.28586C8.90571 5.78345 8.42436 5.3909 8.167 5.38657C7.96024 5.38321 7.44946 5.38657 7.44946 5.38657L7.45359 5.38667Z" fill="black"/>
<path fill-rule="evenodd" clip-rule="evenodd" d="M11.0926 7.41018H11.0202L11.0808 7.15282H10.9765L10.9895 7.0975H11.2706L11.2574 7.15282H11.1531L11.0926 7.41018ZM11.5713 7.41018H11.5039L11.5654 7.14887L11.4386 7.41018H11.3678L11.3662 7.14887L11.3038 7.41018H11.2363L11.3098 7.0975H11.4152L11.4199 7.34409L11.5404 7.0975H11.6448L11.5713 7.41018Z" fill="black"/>
<path fill-rule="evenodd" clip-rule="evenodd" d="M8.70174 6.1476C8.82066 5.63249 9.26082 5.2944 9.68492 5.39244C10.1094 5.49048 10.3569 5.98741 10.2381 6.50253C10.1192 7.01755 9.67896 7.35563 9.25476 7.25759C8.83047 7.15955 8.58292 6.66253 8.70174 6.1476ZM9.28113 6.88458C9.48365 6.97512 9.73178 6.79742 9.83492 6.48762C9.93806 6.17772 9.85781 5.85291 9.65529 5.76238C9.45277 5.67174 9.20502 5.84945 9.10169 6.15944C8.99826 6.46943 9.0787 6.79395 9.28113 6.88458ZM2.01737 6.99828L2.00487 7.07777C1.9983 7.08362 1.9963 7.08693 1.9945 7.08992C1.99149 7.09489 1.98901 7.099 1.96708 7.11241L1.91116 7.23931H2.31101L2.56202 6.68215H3.0044L3.10225 7.23931H3.75302L4.08486 6.19715L4.29748 7.23931H4.55273L5.05033 6.08661L5.10152 7.23931H5.48425L5.40343 5.37628H4.94402L4.51001 6.39718L4.32279 5.37628H3.94429L3.45515 6.88208L3.20423 5.37628H2.73213L2.01737 6.99828ZM2.87673 5.95913L2.94677 6.3205H2.7151L2.87673 5.95913ZM6.64561 6.83956L6.58173 7.23931H5.51398L5.81185 5.37628H6.87094L6.80696 5.77604H6.13935L6.08826 6.10797H6.67534L6.61146 6.50772H6.03063L5.97762 6.83956H6.64561ZM11.1076 5.37628H11.5543L10.8651 6.46096L10.7476 7.23931H10.3646L10.5037 6.35879L10.0526 5.37628H10.4909L10.729 5.98443L11.1076 5.37628Z" fill="black"/>
<path d="M2.01737 6.99828L1.96708 7.11241C1.98901 7.099 1.99149 7.09489 1.9945 7.08992C1.9963 7.08693 1.9983 7.08362 2.00487 7.07777L2.01737 6.99828Z" fill="black"/>
<path d="M1.09452 5.54224C0.729682 5.76796 0.554289 6.1121 0.601048 6.58007C0.655311 7.1228 1.35823 7.46483 1.95378 7.1203L1.96708 7.11241L2.01737 6.99828L2.12397 6.32059H1.41345L1.3591 6.66936H1.656L1.62194 6.85659C1.45184 6.92461 1.16263 6.89901 1.03929 6.67792C0.961166 6.53784 0.888816 6.22515 1.21805 5.93777C1.48581 5.70378 1.94964 5.66135 2.21759 5.7847C2.21759 5.7847 2.25165 5.589 2.27705 5.40601C1.76232 5.22735 1.36237 5.37628 1.09452 5.54224Z" fill="black"/>
<path fill-rule="evenodd" clip-rule="evenodd" d="M7.78283 5.77931H8.03201C8.30218 5.77931 8.24733 6.12548 7.98987 6.12548H7.72385L7.78283 5.77931ZM7.66468 6.50532H7.98545C8.28948 6.50532 8.28111 6.87679 7.94331 6.87679H7.60561L7.66468 6.50532ZM7.45359 5.38667L7.15813 7.23566H8.01922C8.37385 7.23566 8.89233 6.71294 8.42032 6.28586C8.90571 5.78345 8.42436 5.3909 8.167 5.38657C7.96024 5.38321 7.44946 5.38657 7.44946 5.38657L7.45359 5.38667Z" fill="black"/>
<path fill-rule="evenodd" clip-rule="evenodd" d="M11.0926 7.41018H11.0202L11.0808 7.15282H10.9765L10.9895 7.0975H11.2706L11.2574 7.15282H11.1531L11.0926 7.41018ZM11.5713 7.41018H11.5039L11.5654 7.14887L11.4386 7.41018H11.3678L11.3662 7.14887L11.3038 7.41018H11.2363L11.3098 7.0975H11.4152L11.4199 7.34409L11.5404 7.0975H11.6448L11.5713 7.41018Z" fill="black"/>
<path fill-rule="evenodd" clip-rule="evenodd" d="M8.70174 6.1476C8.82066 5.63249 9.26082 5.2944 9.68492 5.39244C10.1094 5.49048 10.3569 5.98741 10.2381 6.50253C10.1192 7.01755 9.67896 7.35563 9.25476 7.25759C8.83047 7.15955 8.58292 6.66253 8.70174 6.1476ZM9.28113 6.88458C9.48365 6.97512 9.73178 6.79742 9.83492 6.48762C9.93806 6.17772 9.85781 5.85291 9.65529 5.76238C9.45277 5.67174 9.20502 5.84945 9.10169 6.15944C8.99826 6.46943 9.0787 6.79395 9.28113 6.88458ZM2.01737 6.99828L2.00487 7.07777C1.9983 7.08362 1.9963 7.08693 1.9945 7.08992C1.99149 7.09489 1.98901 7.099 1.96708 7.11241L1.91116 7.23931H2.31101L2.56202 6.68215H3.0044L3.10225 7.23931H3.75302L4.08486 6.19715L4.29748 7.23931H4.55273L5.05033 6.08661L5.10152 7.23931H5.48425L5.40343 5.37628H4.94402L4.51001 6.39718L4.32279 5.37628H3.94429L3.45515 6.88208L3.20423 5.37628H2.73213L2.01737 6.99828ZM2.87673 5.95913L2.94677 6.3205H2.7151L2.87673 5.95913ZM6.64561 6.83956L6.58173 7.23931H5.51398L5.81185 5.37628H6.87094L6.80696 5.77604H6.13935L6.08826 6.10797H6.67534L6.61146 6.50772H6.03063L5.97762 6.83956H6.64561ZM11.1076 5.37628H11.5543L10.8651 6.46096L10.7476 7.23931H10.3646L10.5037 6.35879L10.0526 5.37628H10.4909L10.729 5.98443L11.1076 5.37628Z" fill="black"/>
<path d="M2.01737 6.99828L1.96708 7.11241C1.98901 7.099 1.99149 7.09489 1.9945 7.08992C1.9963 7.08693 1.9983 7.08362 2.00487 7.07777L2.01737 6.99828Z" fill="black"/>
<path d="M1.09452 5.54224C0.729682 5.76796 0.554289 6.1121 0.601048 6.58007C0.655311 7.1228 1.35823 7.46483 1.95378 7.1203L1.96708 7.11241L2.01737 6.99828L2.12397 6.32059H1.41345L1.3591 6.66936H1.656L1.62194 6.85659C1.45184 6.92461 1.16263 6.89901 1.03929 6.67792C0.961166 6.53784 0.888816 6.22515 1.21805 5.93777C1.48581 5.70378 1.94964 5.66135 2.21759 5.7847C2.21759 5.7847 2.25165 5.589 2.27705 5.40601C1.76232 5.22735 1.36237 5.37628 1.09452 5.54224Z" fill="black"/>
</svg>
