<svg width="18" height="18" viewBox="0 0 18 18" fill="none" xmlns="http://www.w3.org/2000/svg">
<path opacity="0.7" d="M3.30906 5.88696V6.10887H14.6959C15.0904 6.10887 15.4455 6.26668 15.7019 6.52805C15.9584 6.78449 16.1162 7.13956 16.1211 7.53408C16.1211 7.9286 15.9633 8.28367 15.7019 8.54011C15.4455 8.79655 15.0904 8.95435 14.6959 8.95929H3.30906C2.91454 8.95929 2.55947 8.80148 2.30303 8.54011C2.04659 8.28367 1.88878 7.9286 1.88385 7.53408C1.88385 7.13956 2.04166 6.78449 2.30303 6.52805C2.55947 6.27161 2.91454 6.10887 3.30906 6.10887V5.88696V5.66504C2.27837 5.66504 1.44495 6.49846 1.44495 7.52915C1.44495 8.55983 2.27837 9.39326 3.30906 9.39326H14.6959C15.7266 9.39326 16.56 8.55983 16.56 7.52915C16.56 6.49846 15.7266 5.66504 14.6959 5.66504H3.30906V5.88696Z" fill="black"/>
<path opacity="0.7" d="M4.77372 8.39712V6.67603H4.25591V7.87931L3.49153 6.67603H2.93427V8.39712H3.45207V7.15438L4.25591 8.39712H4.77372Z" fill="black"/>
<path opacity="0.7" d="M5.61699 7.23315H5.09918V8.39699H5.61699V7.23315Z" fill="black"/>
<path opacity="0.7" d="M5.61699 6.67603H5.09918V6.98671H5.61699V6.67603Z" fill="black"/>
<path opacity="0.7" d="M7.42685 8.39713V7.5933C7.42685 7.42563 7.10137 7.19385 6.9337 7.19385H6.78082C6.66247 7.19385 6.53425 7.29741 6.42082 7.34672V7.22837H5.90302V8.3922H6.42082V7.58837C6.42082 7.50946 6.60329 7.4207 6.67726 7.4207C6.75617 7.4207 6.89918 7.50946 6.89918 7.58837V8.3922H7.42685V8.39713Z" fill="black"/>
<path opacity="0.7" d="M11.7567 8.43644V7.63261C11.7567 7.46493 11.4313 7.23315 11.2636 7.23315H11.1107C10.9924 7.23315 10.8641 7.33672 10.7507 7.38603V7.26767H10.2329V8.43151H10.7507V7.62767C10.7507 7.54877 10.9332 7.46 11.0072 7.46C11.0861 7.46 11.2291 7.54877 11.2291 7.62767V8.43151H11.7567V8.43644Z" fill="black"/>
<path opacity="0.7" d="M8.26521 8.39708V7.23324H8.53645V7.07543H8.26521V6.82886H7.73754V7.07543H7.46631V7.23324H7.73754V8.39708H8.26521Z" fill="black"/>
<path opacity="0.7" d="M9.26139 7.19385C8.84715 7.19385 8.49701 7.47987 8.49701 7.83001C8.49701 8.19001 8.84715 8.47604 9.26139 8.47604C9.62139 8.47604 9.92221 8.26892 10.0011 7.99768H9.46852V8.15056C9.46852 8.27878 9.37975 8.31823 9.26139 8.31823C9.14304 8.31823 9.06906 8.27878 9.06906 8.15056V7.82508H10.0258C10.0258 7.47494 9.69043 7.19385 9.26139 7.19385ZM9.26139 7.30727C9.37975 7.30727 9.46852 7.38618 9.46852 7.5144V7.63275H9.06906V7.5144C9.06906 7.38618 9.14797 7.30727 9.26139 7.30727Z" fill="black"/>
<path opacity="0.7" d="M14.3605 7.19385C13.9315 7.19385 13.5961 7.47987 13.5961 7.83001C13.5961 8.19001 13.9315 8.47604 14.3605 8.47604C14.7748 8.47604 15.1249 8.19001 15.1249 7.83001C15.1249 7.47494 14.7748 7.19385 14.3605 7.19385ZM14.3605 7.30727C14.4789 7.30727 14.5528 7.38618 14.5528 7.5144V8.15056C14.5528 8.27878 14.4739 8.31823 14.3605 8.31823C14.2323 8.31823 14.1534 8.27878 14.1534 8.15056V7.5144C14.1534 7.38618 14.2323 7.30727 14.3605 7.30727Z" fill="black"/>
<path opacity="0.7" d="M12.8713 6.67603V7.31219C12.8713 7.31219 12.7184 7.19383 12.5113 7.19383C12.1858 7.19383 11.9146 7.47986 11.9146 7.79055C11.9146 8.11602 12.1858 8.43657 12.5113 8.43657C12.7184 8.43657 12.8713 8.35767 12.8713 8.35767V8.39712H13.3891V6.67603H12.8713ZM12.6789 7.38616C12.7973 7.38616 12.8713 7.47493 12.8713 7.59329V8.07164C12.8713 8.19 12.7924 8.22452 12.6789 8.22452C12.5507 8.22452 12.4718 8.18507 12.4718 8.07164V7.59329C12.4718 7.47493 12.5507 7.38616 12.6789 7.38616Z" fill="black"/>
<path opacity="0.7" d="M15.4356 6.94711H15.4109C15.4109 7.00629 15.3863 7.06054 15.3419 7.10492C15.3025 7.14437 15.2433 7.17396 15.1841 7.17396C15.0559 7.17396 14.9572 7.06547 14.9572 6.94711C14.9572 6.81396 15.0509 6.7104 15.1841 6.7104C15.2433 6.7104 15.2975 6.73506 15.3419 6.77944C15.3814 6.82382 15.4109 6.883 15.4109 6.94711H15.4356H15.4553C15.4553 6.79423 15.332 6.66602 15.189 6.66602C15.1101 6.66602 15.046 6.6956 14.9967 6.74985C14.9474 6.79917 14.9227 6.86821 14.9227 6.94711C14.9227 7.08519 15.0362 7.21341 15.189 7.21341C15.332 7.21341 15.4553 7.09013 15.4553 6.94711H15.4356ZM15.2679 7.04081L15.2186 6.95204L15.2137 6.94218H15.1101V6.98163H15.1989C15.2236 6.98163 15.2433 6.97177 15.2581 6.95204C15.2729 6.93725 15.2778 6.91259 15.2778 6.89286C15.2778 6.87314 15.2729 6.85341 15.2581 6.83369C15.2433 6.81889 15.2236 6.8041 15.1989 6.8041H15.1101H15.0904V7.04574H15.1299V6.84848H15.1989C15.2137 6.84848 15.2186 6.85341 15.2285 6.86328C15.2334 6.87314 15.2383 6.883 15.2383 6.89286C15.2383 6.90273 15.2334 6.91752 15.2285 6.92245C15.2236 6.93232 15.2137 6.93232 15.1989 6.93725H15.1101V6.9767H15.189L15.2334 7.0556L15.2679 7.04081Z" fill="black"/>
<path d="M2.74193 10.9172V10.1676C2.74193 10.0246 2.59892 9.88159 2.4559 9.88159H1.37097V10.9172H1.70631V10.2169C1.70631 10.1676 1.74577 10.1134 1.79508 10.1134H2.31289C2.3622 10.1134 2.41645 10.1627 2.41645 10.2169V10.9172H2.74193Z" fill="black"/>
<path d="M11.7173 10.9172V10.1676C11.7173 10.0246 11.5743 9.88159 11.4312 9.88159H10.3463V10.9172H10.6817V10.2169C10.6817 10.1676 10.7211 10.1134 10.7704 10.1134H11.2882C11.3375 10.1134 11.3918 10.1627 11.3918 10.2169V10.9172H11.7173Z" fill="black"/>
<path d="M16.634 10.9172V10.1676C16.634 10.0246 16.4909 9.88159 16.3479 9.88159H15.263V10.9172H15.5983V10.2169C15.5983 10.1676 15.6378 10.1134 15.6871 10.1134H16.2049C16.2542 10.1134 16.3085 10.1627 16.3085 10.2169V10.9172H16.634Z" fill="black"/>
<path d="M13.6997 10.9172V10.1676C13.6997 10.0246 13.5567 9.88159 13.4137 9.88159H11.954V10.9172H12.2893V10.2169C12.2893 10.1676 12.3288 10.1134 12.3781 10.1134H12.5704C12.6099 10.1134 12.6592 10.1627 12.6592 10.2169V10.9172H12.9945V10.2169C12.9945 10.1676 13.034 10.1134 13.0833 10.1134H13.2756C13.3151 10.1134 13.3644 10.1627 13.3644 10.2169V10.9172H13.6997Z" fill="black"/>
<path d="M1.13918 10.9171H0.286028C0.143014 10.9171 0 10.8283 0 10.6853V9.87158H1.13918V10.1182H0.374794C0.335342 10.1182 0.286028 10.1576 0.286028 10.2069C0.286028 10.2562 0.335342 10.2957 0.374794 10.2957H1.08493V10.5028H0.374794C0.335342 10.5028 0.286028 10.5521 0.286028 10.5916C0.286028 10.6409 0.335342 10.6951 0.374794 10.6951H1.13918V10.9171Z" fill="black"/>
<path d="M5.34572 10.9171H4.49257C4.34956 10.9171 4.20654 10.8283 4.20654 10.6853V9.87158H5.34572V10.1182H4.58134C4.54188 10.1182 4.49257 10.1576 4.49257 10.2069C4.49257 10.2562 4.54188 10.2957 4.58134 10.2957H5.29147V10.5028H4.58134C4.54188 10.5028 4.49257 10.5521 4.49257 10.5916C4.49257 10.6409 4.54188 10.6951 4.58134 10.6951H5.34572V10.9171V10.9171Z" fill="black"/>
<path d="M15.0756 10.9171H14.2225C14.0795 10.9171 13.9365 10.8283 13.9365 10.6853V9.87158H15.0756V10.1182H14.3113C14.2718 10.1182 14.2225 10.1576 14.2225 10.2069C14.2225 10.2562 14.2718 10.2957 14.3113 10.2957H15.0214V10.5028H14.3113C14.2718 10.5028 14.2225 10.5521 14.2225 10.5916C14.2225 10.6409 14.2718 10.6951 14.3113 10.6951H15.0756V10.9171Z" fill="black"/>
<path d="M2.88495 9.88159V10.1134H3.22029C3.30906 10.1134 3.30906 10.1134 3.30906 10.2169V10.9172H3.63454V10.2169C3.63454 10.1134 3.63454 10.1134 3.7381 10.1134H4.06358V9.88159H2.88495Z" fill="black"/>
<path d="M6.9978 9.88159V10.1134H7.33315C7.42191 10.1134 7.42191 10.1134 7.42191 10.2169V10.9172H7.74739V10.2169C7.74739 10.1134 7.74739 10.1134 7.85095 10.1134H8.17643V9.88159H6.9978Z" fill="black"/>
<path d="M16.8214 9.88159V10.1134H17.1567C17.2455 10.1134 17.2455 10.1134 17.2455 10.2169V10.9172H17.5709V10.2169C17.5709 10.1134 17.5709 10.1134 17.6745 10.1134H18V9.88159H16.8214Z" fill="black"/>
<path d="M5.57751 9.88159V10.9172H5.91286V10.7347C5.91286 10.6854 5.95231 10.6312 6.00162 10.6312H6.43066C6.47998 10.6312 6.51943 10.6805 6.51943 10.7347V10.9172H6.80546V10.6312C6.80546 10.5917 6.76601 10.5424 6.76601 10.4882C6.76601 10.4487 6.85477 10.3599 6.85477 10.2564V10.1676C6.85477 10.0789 6.71176 9.88159 6.62299 9.88159H5.57751ZM6.00162 10.1134H6.43066C6.47998 10.1134 6.51943 10.1627 6.51943 10.2169V10.3057C6.51943 10.355 6.47998 10.3945 6.43066 10.3945H6.00162C5.95231 10.3945 5.91286 10.355 5.91286 10.3057V10.2169C5.91286 10.1676 5.95231 10.1134 6.00162 10.1134Z" fill="black"/>
<path d="M8.55124 9.88159C8.46247 9.88159 8.31946 10.0739 8.31946 10.1676V10.9172H8.6548V10.6312H9.26138V10.9172H9.59672V10.1676C9.59672 10.0789 9.4537 9.88159 9.35014 9.88159H8.55124ZM8.74357 10.1134H9.17261C9.21206 10.1134 9.26138 10.1627 9.26138 10.2169V10.3994H8.6548V10.2169C8.6548 10.1676 8.69425 10.1134 8.74357 10.1134Z" fill="black"/>
<path d="M10.1589 9.88159H9.83344V10.9172H10.1589V9.88159Z" fill="black"/>
<path d="M13.2756 12.3374V11.5878C13.2756 11.4448 13.1326 11.3018 12.9896 11.3018H11.5298V12.3374H11.8652V11.6371C11.8652 11.5878 11.9046 11.5335 11.954 11.5335H12.1463C12.1857 11.5335 12.2351 11.5829 12.2351 11.6371V12.3374H12.5704V11.6371C12.5704 11.5878 12.6098 11.5335 12.6592 11.5335H12.8515C12.8909 11.5335 12.9403 11.5829 12.9403 11.6371V12.3374H13.2756Z" fill="black"/>
<path d="M11.2981 12.3375H10.445C10.3019 12.3375 10.1589 12.2487 10.1589 12.1057V11.292H11.2981V11.5386H10.5337C10.4943 11.5386 10.445 11.578 10.445 11.6273C10.445 11.6767 10.4943 11.7161 10.5337 11.7161H11.2439V11.9232H10.5337C10.4943 11.9232 10.445 11.9725 10.445 12.012C10.445 12.0613 10.4943 12.1156 10.5337 12.1156H11.2981V12.3375Z" fill="black"/>
<path d="M8.83728 11.3018V11.5335H9.17262C9.26139 11.5335 9.26139 11.5335 9.26139 11.6371V12.3374H9.58687V11.6371C9.58687 11.5335 9.58687 11.5335 9.69043 11.5335H10.0159V11.3018H8.83728Z" fill="black"/>
<path d="M5.00551 11.3066C4.91674 11.3066 4.71948 11.4497 4.71948 11.5384V11.6814C4.71948 11.7702 4.91181 11.9132 5.00551 11.9132H5.57263C5.62195 11.9132 5.6762 11.9625 5.6762 12.002C5.6762 12.0513 5.62688 12.1055 5.57263 12.1055H4.71948V12.3373H5.6762C5.76496 12.3373 5.94743 12.1943 5.94743 12.1055V11.9625C5.94743 11.859 5.76496 11.716 5.6762 11.716H5.10907C5.05976 11.716 5.00551 11.6765 5.00551 11.6272C5.00551 11.5779 5.05483 11.5384 5.10907 11.5384H5.95236V11.3066H5.00551Z" fill="black"/>
<path d="M7.74739 11.3066C7.65863 11.3066 7.46136 11.4497 7.46136 11.5384V11.6814C7.46136 11.7702 7.65369 11.9132 7.74739 11.9132H8.31452C8.36383 11.9132 8.41808 11.9625 8.41808 12.002C8.41808 12.0513 8.36876 12.1055 8.31452 12.1055H7.46136V12.3373H8.41808C8.50684 12.3373 8.68931 12.1943 8.68931 12.1055V11.9625C8.68931 11.859 8.50684 11.716 8.41808 11.716H7.85095C7.80164 11.716 7.74739 11.6765 7.74739 11.6272C7.74739 11.5779 7.79671 11.5384 7.85095 11.5384H8.69424V11.3066H7.74739Z" fill="black"/>
<path d="M6.05591 11.3066V11.7702C6.05591 11.859 6.19892 12.002 6.28769 12.002H6.51947V12.3373H6.85481V12.002H7.08659C7.17536 12.002 7.31837 11.859 7.31837 11.7702V11.3066H6.99289V11.6814C6.99289 11.7209 6.94358 11.7702 6.88933 11.7702H6.47509C6.42577 11.7702 6.37152 11.7209 6.37152 11.6814V11.3066H6.05591Z" fill="black"/>
</svg>
