<svg width="18" height="18" viewBox="0 0 18 18" fill="none" xmlns="http://www.w3.org/2000/svg">
<path d="M9.83441 5.15334L8.31453 11.1326C8.31453 11.1326 7.15251 6.64442 6.96346 6.00777C6.77433 5.37013 6.38531 5.09075 5.83349 5.09075C5.28154 5.09075 4.89178 5.3701 4.70276 6.00777C4.5145 6.64437 3.35213 11.1326 3.35213 11.1326L1.83129 5.15334H0C0 5.15334 1.75886 11.5328 1.99791 12.2718C2.18389 12.8485 2.62444 13.3199 3.27749 13.3199C4.0242 13.3199 4.37336 12.7737 4.53509 12.2718C4.69505 11.7729 5.83352 7.5594 5.83352 7.5594C5.83352 7.5594 6.97198 11.773 7.1316 12.2718C7.29314 12.7737 7.64239 13.3199 8.38885 13.3199C9.04245 13.3199 9.48219 12.8485 9.66933 12.2718C9.90786 11.533 11.6655 5.15334 11.6655 5.15334H9.83441ZM16.1134 13.2583H17.8471V7.63116H16.1134V13.2583ZM15.9453 5.66366C15.9453 6.20602 16.4013 6.64626 16.9611 6.64626C17.5437 6.64626 18 6.21509 18 5.66366C18 5.11205 17.5437 4.67993 16.9611 4.67993C16.4013 4.67993 15.9453 5.12078 15.9453 5.66366ZM12.5906 13.2583H14.3237V7.63116H12.5906V13.2583ZM12.422 5.66366C12.422 6.20602 12.8771 6.64626 13.4373 6.64626C14.0195 6.64626 14.4767 6.21509 14.4767 5.66366C14.4767 5.11205 14.0195 4.67993 13.4373 4.67993C12.8771 4.67993 12.422 5.12078 12.422 5.66366Z" fill="black"/>
</svg>
