<svg width="18" height="18" viewBox="0 0 18 18" fill="none" xmlns="http://www.w3.org/2000/svg">
<path d="M5.56906 3.03975C4.37373 3.25343 3.412 4.13794 3.10882 5.30072C2.99947 5.72061 2.99202 5.96659 3.00444 9.22387C3.0119 12.2153 3.01438 12.2849 3.06408 12.5159C3.33993 13.7607 4.22462 14.6477 5.48208 14.9409C5.6461 14.9782 5.85484 14.9856 7.19928 14.9931C8.59093 15.003 8.73507 15.0005 8.77234 14.9632C8.80962 14.926 8.8121 14.4465 8.8121 9.0102C8.8121 4.98021 8.80465 3.08199 8.78725 3.04721C8.7624 3.00248 8.72015 3 7.26389 3.00248C6.08099 3.00497 5.72562 3.01242 5.56906 3.03975ZM7.81807 14.0365L6.80663 14.0241C5.87472 14.0141 5.77532 14.0092 5.58894 13.962C4.78874 13.7557 4.1948 13.1396 4.0283 12.337C3.97363 12.0861 3.97363 5.90447 4.02582 5.6585C4.17492 4.96033 4.65951 4.38143 5.31309 4.12054C5.64113 3.98886 5.79272 3.97395 6.85634 3.97147L7.81807 3.96899V14.0365Z" fill="black"/>
<path d="M5.78278 5.48706C5.62621 5.51688 5.38765 5.63614 5.26091 5.74794C4.99997 5.97404 4.87075 6.29455 4.89063 6.67221C4.90057 6.86849 4.91299 6.92067 4.99252 7.07968C5.10932 7.32068 5.28576 7.49709 5.52681 7.61635C5.69331 7.69834 5.73556 7.70828 5.95176 7.71573C6.14808 7.72318 6.21767 7.71573 6.34938 7.67101C6.88864 7.48963 7.21419 6.96539 7.12224 6.42872C7.01538 5.79018 6.40902 5.36283 5.78278 5.48706Z" fill="black"/>
<path d="M10.0223 3.01739C10.0124 3.02485 10.0049 5.71813 10.0049 9.00274C10.0049 14.4216 10.0074 14.9707 10.0447 14.9856C10.1118 15.0105 12.0402 15.0005 12.2788 14.9757C13.2878 14.8614 14.1774 14.2477 14.662 13.3358C14.7241 13.2191 14.8061 13.0228 14.8484 12.901C15.005 12.4339 15 12.5582 15 8.98783C15 6.13802 14.995 5.71316 14.9602 5.53179C14.7142 4.23732 13.7276 3.26088 12.4304 3.03727C12.2564 3.00745 11.9881 3 11.1232 3C10.5268 3 10.0298 3.00745 10.0223 3.01739ZM12.6764 8.4288C13.0641 8.53067 13.3822 8.82634 13.5114 9.20399C13.5934 9.43754 13.5909 9.78042 13.5089 9.99409C13.3573 10.3867 13.0591 10.6624 12.6764 10.7643C12.0551 10.9258 11.3941 10.5506 11.2127 9.93446C11.158 9.74563 11.1605 9.42761 11.2226 9.23381C11.409 8.62509 12.0551 8.26731 12.6764 8.4288Z" fill="black"/>
</svg>
