<svg width="18" height="18" viewBox="0 0 18 18" fill="none" xmlns="http://www.w3.org/2000/svg">
<path d="M4.51558 3.75608C4.26111 3.39529 3.84137 3.15999 3.3665 3.15999C2.5893 3.15999 1.95993 3.78967 1.95993 4.5664C1.95993 5.34296 2.5893 5.97265 3.3665 5.97265C3.93026 5.97265 4.41671 5.64038 4.64123 5.16122H3.39977V4.52172H5.38247C5.3831 4.53677 5.3836 4.5515 5.3836 4.5664C5.3836 4.77317 5.35271 4.97314 5.29471 5.16122C5.04104 5.98501 4.27382 6.58459 3.36654 6.58459C2.25215 6.58459 1.34866 5.68062 1.34866 4.5664C1.34866 3.45185 2.25215 2.54869 3.36654 2.54869C4.19238 2.54869 4.90192 3.04543 5.21423 3.75608H4.51558Z" fill="black"/>
<path fill-rule="evenodd" clip-rule="evenodd" d="M7.52409 2.58874L4.97461 6.42801H5.76385L6.30845 5.60802H7.52409V6.42959H8.18166V2.58859L7.52409 2.58874ZM6.74499 4.95033L7.52409 3.77747V4.95033H6.74499Z" fill="black"/>
<path d="M13.3308 2.58862L13.9882 2.58856V6.42956H13.3308V3.77742L11.5727 6.42497V6.42956H10.9151V3.77741L9.15549 6.42797H8.36545L10.9151 2.58871L11.5727 2.58859V5.23534L13.3308 2.58862Z" fill="black"/>
<path d="M16.5176 3.24635V2.58862H14.5202V6.43057L15.1776 6.42803H16.5176V5.77031H15.1776V4.87506H16.5176V4.21765H15.1776V3.24635H16.5176Z" fill="black"/>
<path fill-rule="evenodd" clip-rule="evenodd" d="M10.6245 8.40279L10.0971 9.59038L11.0065 10.4305L10.6059 10.8634L9.84124 10.1565C9.60435 10.623 9.29505 10.9247 8.67171 10.9247C8.34245 10.9247 8.04346 10.8066 7.82939 10.5923C7.61707 10.3799 7.49997 10.0857 7.49997 9.7623C7.49997 9.19235 7.81909 8.91602 8.18559 8.65647C7.98768 8.48329 7.78835 8.24941 7.78835 7.88751C7.78835 7.36795 8.23771 7.05755 8.67171 7.05755C8.92222 7.05755 9.16386 7.15579 9.33562 7.32707C9.48568 7.47792 9.56902 7.67693 9.56902 7.88751C9.56902 8.27999 9.36573 8.5153 9.13423 8.70132L9.63984 9.16827L9.97941 8.40279H10.6245ZM8.67171 7.6473C8.58472 7.6473 8.49551 7.68153 8.4399 7.7373C8.39823 7.77913 8.37794 7.82857 8.37794 7.88751C8.37794 8.04596 8.49393 8.15181 8.68359 8.3036C8.90051 8.14325 8.9799 8.05309 8.9799 7.88751C8.9799 7.83189 8.95978 7.78515 8.91842 7.74395C8.85869 7.68438 8.7644 7.6473 8.67171 7.6473ZM8.67171 10.3346C9.02727 10.3346 9.17179 10.2172 9.37524 9.76388L9.38696 9.73726L8.64684 9.05354C8.64542 9.05481 8.6432 9.05656 8.64113 9.05783C8.24897 9.32957 8.08972 9.45237 8.08972 9.7623C8.08972 9.9301 8.1436 10.073 8.24611 10.1759C8.35037 10.2793 8.4971 10.3346 8.67171 10.3346Z" fill="black"/>
<path fill-rule="evenodd" clip-rule="evenodd" d="M7.4265 11.3974L4.87719 15.2368H5.66643L6.21103 14.417H7.4265V15.2387H8.08439V11.3974H7.4265ZM6.6474 13.7596L7.4265 12.5869V13.7596H6.6474Z" fill="black"/>
<path d="M2.0471 15.2387L1.38922 15.2388V11.3974H2.0471V14.0493L3.80448 11.4025V11.3974H4.46205V14.0493L6.22212 11.3992H7.01168L4.46205 15.2386L3.80448 15.2387V12.5912L2.0471 15.2387Z" fill="black"/>
<path d="M16.1394 11.3974V12.9438H14.9521V11.3974H14.2947V15.2381H14.9521V13.6019H16.1394V15.2381H16.7971V11.3974H16.1394Z" fill="black"/>
<path d="M8.3414 11.3974H10.4878V12.0548H9.74369V15.2381H9.08595V12.0548H8.3414V11.3974Z" fill="black"/>
<path d="M13.3654 14.2029C13.1128 14.4835 12.7476 14.6596 12.3404 14.6596C11.5782 14.6596 10.9606 14.0421 10.9606 13.2806C10.9606 12.5187 11.5782 11.9012 12.3404 11.9012C12.7411 11.9012 13.1022 12.0814 13.3538 12.3582H14.1242C13.7875 11.7178 13.1149 11.2652 12.3404 11.2652C11.2274 11.2652 10.3252 12.1676 10.3252 13.2806C10.3252 14.3934 11.2274 15.2962 12.3404 15.2962C13.1204 15.2962 13.7967 14.8513 14.1317 14.2029H13.3654Z" fill="black"/>
<path fill-rule="evenodd" clip-rule="evenodd" d="M0 1.39502H18V16.605H0V1.39502ZM0.849976 2.74512C0.849976 2.46898 1.07383 2.24512 1.34998 2.24512H16.61C16.8861 2.24512 17.11 2.46897 17.11 2.74512V15.1451C17.11 15.4213 16.8861 15.6451 16.61 15.6451H1.34998C1.07383 15.6451 0.849976 15.4213 0.849976 15.1451V2.74512Z" fill="black"/>
</svg>
