<svg width="18" height="18" viewBox="0 0 18 18" fill="none" xmlns="http://www.w3.org/2000/svg">
<path d="M13.0764 10.515C13.5269 10.6927 14.4776 10.8369 15.2194 10.8369C16.0316 10.8369 16.3686 10.558 16.3686 10.2082C16.3686 9.89436 16.0559 9.70987 15.1588 9.38105C13.9597 8.93781 13.0804 8.58909 13.0804 7.80152C13.0804 6.98584 14.1384 6.5061 15.7522 6.5061C16.6174 6.5061 16.9152 6.56069 17.4643 6.66133L17.4666 6.66176L17.4704 7.43565C17.3246 7.40792 17.1832 7.3748 17.0399 7.34123C16.6522 7.25043 16.2503 7.15627 15.707 7.15627C14.9097 7.15627 14.5701 7.40937 14.5701 7.67031C14.5701 8.04374 15.0788 8.22495 15.9736 8.54372L16.0113 8.55716C17.2891 9.01463 18 9.36754 18 10.1387C18 10.9321 17.1099 11.5049 15.1019 11.5049C14.2771 11.5049 13.7087 11.4505 13.0764 11.3489V10.515Z" fill="black"/>
<path fill-rule="evenodd" clip-rule="evenodd" d="M11.3677 11.1443C10.8945 11.3583 10.0007 11.4941 9.21861 11.4941H6.23181V6.51683H9.21861C10.0007 6.51683 10.8945 6.65442 11.368 6.86792C12.5184 7.38725 12.8939 8.21844 12.8939 9.00601C12.8939 9.79413 12.5218 10.624 11.3677 11.1443ZM11.1943 9.00601C11.1943 7.83231 10.269 7.18999 8.80202 7.18999H7.84656V10.8073H8.80202C10.269 10.8073 11.1943 10.1801 11.1943 9.00601Z" fill="black"/>
<path opacity="0.72" d="M5.53146 7.67997C5.53146 8.54747 4.13806 8.77065 4.13806 8.77065C4.73348 8.77065 5.73912 9.23596 5.73912 10.029C5.73912 10.9746 4.2875 11.5111 2.61929 11.5111C1.21673 11.5111 0.419089 11.3702 0.0699787 11.3086C0.0442343 11.304 0.0209289 11.2999 0 11.2963V10.4653C0.634476 10.6414 1.41676 10.8235 2.27185 10.8235C3.25249 10.8235 4.03897 10.5153 4.03897 10.008C4.03897 9.43979 3.15869 9.20695 1.61073 9.20695H0.983374V8.51372H1.65873C3.12822 8.51372 3.81105 8.25113 3.81105 7.79129C3.81105 7.40991 3.12056 7.14002 2.21583 7.14002C1.37278 7.14002 0.754364 7.27323 0.107662 7.42961V6.65919C0.107662 6.65919 1.04432 6.48511 2.46911 6.48511C4.04773 6.48511 5.53146 6.832 5.53146 7.67997Z" fill="black"/>
</svg>
