<svg width="18" height="18" viewBox="0 0 18 18" fill="none" xmlns="http://www.w3.org/2000/svg">
<path d="M10.4691 11.3068C11.1582 11.5786 12.6124 11.7991 13.7469 11.7991C14.9893 11.7991 15.5048 11.3727 15.5048 10.8376C15.5048 10.3575 15.0264 10.0754 13.6543 9.57241C11.8202 8.89446 10.4752 8.36108 10.4752 7.15644C10.4752 5.90883 12.0935 5.17505 14.5619 5.17505C15.8871 5.17505 16.3421 5.25878 17.1842 5.41313L17.19 6.59683C16.3636 6.43969 15.6309 6.16951 14.4927 6.16951C13.2733 6.16951 12.7539 6.55664 12.7539 6.95576C12.7539 7.53492 13.5538 7.81179 14.9583 8.31223C16.9126 9.01196 18 9.55176 18 10.7313C18 11.9448 16.6385 12.821 13.5672 12.821C12.3056 12.821 11.4362 12.7378 10.4691 12.5823V11.3068Z" fill="black"/>
<path d="M3.93125 6.22109H2.46984V11.7539H3.93125C6.17501 11.7539 7.59037 10.7946 7.59037 8.99878C7.59037 7.20355 6.17501 6.22109 3.93125 6.22109ZM7.85552 12.2694C7.13179 12.5968 5.76472 12.8044 4.56846 12.8044H0V5.19145H4.56846C5.76472 5.19145 7.13179 5.4019 7.85608 5.72846C9.61558 6.5228 10.19 7.79414 10.19 8.99878C10.19 10.2043 9.62089 11.4736 7.85552 12.2694Z" fill="black"/>
</svg>
