<svg width="18" height="18" viewBox="0 0 18 18" fill="none" xmlns="http://www.w3.org/2000/svg">
<path d="M1.89339 8.62788H2.17422C2.39544 8.62788 2.55009 8.58876 2.63991 8.50959C2.72891 8.43042 2.77387 8.32902 2.77387 8.20623C2.77387 8.08619 2.73496 7.98388 2.65722 7.90112C2.5803 7.81745 2.43426 7.77566 2.22 7.77566H1.89339V8.62788Z" fill="black"/>
<path d="M10.3949 9.40278V8.67224H10.4949C10.5991 8.67224 10.6735 8.69836 10.7186 8.75069C10.7633 8.80303 10.7857 8.89981 10.7857 9.04156C10.7857 9.14869 10.7757 9.22632 10.7558 9.27394C10.7355 9.32146 10.7078 9.35516 10.6723 9.37421C10.6369 9.39346 10.5773 9.40278 10.4932 9.40278H10.3949Z" fill="black"/>
<path d="M12.5824 8.91098H12.4131L12.413 8.63916H12.5894C12.6626 8.63916 12.7125 8.65063 12.7391 8.67398C12.7657 8.69703 12.7791 8.73 12.7791 8.77332C12.7791 8.80261 12.7706 8.82843 12.7541 8.85086C12.7371 8.87329 12.7152 8.88721 12.6886 8.89285C12.636 8.90503 12.6006 8.91098 12.5824 8.91098Z" fill="black"/>
<path d="M13.8093 9.33171C13.7605 9.27251 13.7363 9.17562 13.7363 9.04053C13.7363 8.90442 13.7608 8.80661 13.8098 8.74782C13.8587 8.68862 13.9238 8.65934 14.0046 8.65934C14.0893 8.65934 14.1562 8.68832 14.2054 8.74618C14.2548 8.80446 14.2796 8.89633 14.2796 9.0224C14.2796 9.17193 14.2558 9.27558 14.2086 9.33355C14.1614 9.39121 14.0945 9.42009 14.0083 9.42009C13.9245 9.42009 13.858 9.3906 13.8093 9.33171Z" fill="black"/>
<path fill-rule="evenodd" clip-rule="evenodd" d="M0 6.22998H17.9073C17.9073 6.22998 18.9279 11.7697 14.1961 11.7697H0V6.22998ZM0.741499 6.99913H2.6477C3.06249 6.99913 3.37353 7.10053 3.58011 7.30423C3.78668 7.50702 3.89033 7.79707 3.89033 8.17151C3.89033 8.55762 3.77798 8.85914 3.55245 9.07616C3.32683 9.29318 2.98291 9.40185 2.5207 9.40185H1.89339V10.8197H0.741499V6.99913ZM6.96142 9.25857L7.96634 9.57166C7.89895 9.8617 7.79274 10.1036 7.64752 10.2985C7.50239 10.4932 7.32173 10.6401 7.10655 10.7388C6.89137 10.8385 6.6175 10.8873 6.28557 10.8873C5.88204 10.8873 5.55195 10.8269 5.29703 10.7068C5.04119 10.5857 4.82007 10.3732 4.63429 10.0689C4.44932 9.76461 4.35602 9.37594 4.35602 8.90185C4.35602 8.26942 4.51938 7.78273 4.84599 7.44393C5.1726 7.10411 5.63491 6.9342 6.23211 6.9342C6.69954 6.9342 7.06681 7.03119 7.33473 7.22599C7.60256 7.42079 7.80135 7.71964 7.9309 8.12255L6.9182 8.35473C6.88276 8.23818 6.84559 8.15276 6.80677 8.09859C6.74276 8.00877 6.6642 7.93932 6.57172 7.89047C6.47842 7.84152 6.37467 7.81755 6.25976 7.81755C6.00054 7.81755 5.80093 7.92519 5.66267 8.14047C5.5581 8.30055 5.50535 8.55147 5.50535 8.89386C5.50535 9.31817 5.56844 9.60822 5.69288 9.76564C5.81813 9.92305 5.99358 10.0014 6.2191 10.0014C6.43858 10.0014 6.6045 9.93831 6.71685 9.81111C6.8292 9.68463 6.91042 9.50058 6.96142 9.25857ZM9.79316 9.26974L9.44126 9.16016C9.42354 9.24485 9.39496 9.30928 9.35553 9.35352C9.3162 9.39797 9.25813 9.42009 9.18132 9.42009C9.10225 9.42009 9.0409 9.39264 8.99707 9.33754C8.95344 9.28244 8.93132 9.18095 8.93132 9.03234C8.93132 8.91251 8.94986 8.82464 8.98642 8.76861C9.03486 8.69323 9.10482 8.65554 9.19556 8.65554C9.23571 8.65554 9.27206 8.66404 9.30473 8.68115C9.3371 8.69825 9.36465 8.72252 9.38708 8.75397C9.4007 8.77302 9.4137 8.80292 9.4261 8.84369L9.78067 8.76237C9.7353 8.62134 9.66565 8.51667 9.57194 8.44846C9.47813 8.38024 9.34959 8.34624 9.18583 8.34624C8.97679 8.34624 8.81497 8.40575 8.70057 8.52476C8.58627 8.64336 8.52912 8.81378 8.52912 9.03521C8.52912 9.20122 8.5618 9.33724 8.62652 9.44375C8.69156 9.55027 8.76899 9.62472 8.8586 9.66712C8.94781 9.70912 9.06334 9.73032 9.20467 9.73032C9.32081 9.73032 9.41678 9.71311 9.49205 9.67829C9.56754 9.64367 9.63073 9.59226 9.68153 9.52405C9.73233 9.45584 9.76961 9.37124 9.79316 9.26974ZM10.59 8.36908H9.99339V9.70656H10.59C10.6614 9.70656 10.7413 9.69447 10.8293 9.6702C10.8937 9.65238 10.954 9.61694 11.0099 9.56368C11.0662 9.51073 11.11 9.44467 11.1416 9.36591C11.1733 9.28715 11.189 9.17624 11.189 9.03326C11.189 8.94201 11.1784 8.85567 11.1573 8.77415C11.1358 8.69252 11.1015 8.62124 11.0543 8.55958C11.0071 8.49823 10.9473 8.45122 10.875 8.41824C10.8024 8.38557 10.7073 8.36908 10.59 8.36908ZM11.8316 9.07546H11.307V9.36253H11.8316V9.07546ZM12.0098 8.36908V9.70666H12.413V9.16384H12.4483C12.4849 9.16384 12.518 9.17408 12.5467 9.19467C12.5682 9.21055 12.5923 9.24506 12.6196 9.2978L12.8341 9.70666H13.288L13.0938 9.3189C13.0844 9.29924 13.0656 9.27189 13.0375 9.23574C13.0094 9.19989 12.988 9.17644 12.9734 9.16569C12.9514 9.1491 12.9166 9.13271 12.8688 9.11612C12.9284 9.10239 12.9753 9.08467 13.0097 9.06347C13.0633 9.02988 13.1056 8.98625 13.1365 8.93238C13.167 8.87851 13.1825 8.8147 13.1825 8.74024C13.1825 8.65524 13.1625 8.58303 13.1222 8.52384C13.0819 8.46433 13.029 8.42387 12.9634 8.40206C12.8981 8.37994 12.803 8.36908 12.679 8.36908H12.0098ZM13.5117 8.52885C13.3939 8.65032 13.3346 8.82033 13.3346 9.03869C13.3346 9.19498 13.3645 9.32525 13.4241 9.4291C13.484 9.53316 13.5617 9.60905 13.6576 9.65739C13.7539 9.70543 13.8751 9.72929 14.0217 9.72929C14.1659 9.72929 14.286 9.70164 14.3828 9.64592C14.4793 9.59021 14.5531 9.51237 14.6042 9.41241C14.6553 9.31235 14.681 9.18402 14.681 9.02773C14.681 8.81255 14.6225 8.64499 14.5056 8.52568C14.3884 8.40616 14.2218 8.34635 14.0055 8.34635C13.7947 8.34635 13.63 8.40718 13.5117 8.52885ZM15.4211 8.36908H14.8929V9.70666H15.2218V8.68678L15.4754 9.70666H15.7721L16.0265 8.68678V9.70666H16.3544V8.36908H15.8279L15.625 9.18289L15.4211 8.36908Z" fill="black"/>
</svg>
