<svg width="18" height="18" viewBox="0 0 18 18" fill="none" xmlns="http://www.w3.org/2000/svg">
<path d="M0.0936784 6.19495H0.749428V8.81794H0.0936784V6.19495ZM0.936784 6.8507V6.19495H1.24218C1.46825 6.19495 1.66123 6.27489 1.82111 6.43476C1.98099 6.59464 2.06093 6.78762 2.06093 7.0137C2.06093 7.24102 1.98099 7.43462 1.82111 7.5945C1.66123 7.75438 1.46825 7.83432 1.24218 7.83432H0.936784V7.17857H1.24218C1.28714 7.17857 1.32524 7.16296 1.35646 7.13173C1.38894 7.09926 1.40518 7.05991 1.40518 7.0137C1.40518 6.96873 1.38894 6.93063 1.35646 6.89941C1.32524 6.86693 1.28714 6.8507 1.24218 6.8507H0.936784Z" fill="black"/>
<path d="M2.34196 6.19495H2.99958L2.99771 8.81794H2.34196V6.19495ZM4.12185 6.19495H4.77947L4.7776 8.81794H4.12185V6.19495ZM3.18507 7.17857H3.93637V7.83432H3.18507V7.17857Z" fill="black"/>
<path d="M5.05864 6.19495H5.71626L5.71438 8.81794H5.05864V6.19495Z" fill="black"/>
<path d="M5.99542 6.19495H6.65304L6.65117 8.81794H5.99542V6.19495ZM6.83853 8.16219H7.86899V8.81794H6.83853V8.16219Z" fill="black"/>
<path d="M8.15377 6.19495H8.81139L8.80952 8.81794H8.15377V6.19495Z" fill="black"/>
<path d="M9.09056 6.19495H9.74631V8.81794H9.09056V6.19495ZM9.93366 6.8507V6.19495H10.2391C10.4651 6.19495 10.6581 6.27489 10.818 6.43476C10.9779 6.59464 11.0578 6.78762 11.0578 7.0137C11.0578 7.24102 10.9779 7.43462 10.818 7.5945C10.6581 7.75438 10.4651 7.83432 10.2391 7.83432H9.93366V7.17857H10.2391C10.284 7.17857 10.3221 7.16296 10.3533 7.13173C10.3858 7.09926 10.4021 7.05991 10.4021 7.0137C10.4021 6.96873 10.3858 6.93063 10.3533 6.89941C10.3221 6.86693 10.284 6.8507 10.2391 6.8507H9.93366Z" fill="black"/>
<path d="M1.77989 11.1035L1.40518 11.8023L0 9.17933H0.749428L1.77989 11.1035ZM1.49886 10.2285L2.06093 9.17933H2.81035L1.87357 10.9274L1.49886 10.2285Z" fill="black"/>
<path d="M2.99771 9.17933H3.65533L3.65346 11.8023H2.99771V9.17933Z" fill="black"/>
<path d="M3.93449 9.17933H4.59212L4.59024 11.8023H3.93449V9.17933ZM4.7776 9.83508V9.17933H5.05864C5.42086 9.17933 5.73 9.30736 5.98605 9.56341C6.24211 9.81947 6.37013 10.1286 6.37013 10.4908C6.37013 10.8531 6.24211 11.1622 5.98605 11.4182C5.73 11.6743 5.42086 11.8023 5.05864 11.8023H4.7776V11.1466H5.05864C5.23975 11.1466 5.394 11.0829 5.52141 10.9555C5.65006 10.8268 5.71438 10.6719 5.71438 10.4908C5.71438 10.3097 5.65006 10.1555 5.52141 10.0281C5.394 9.89941 5.23975 9.83508 5.05864 9.83508H4.7776Z" fill="black"/>
<path d="M6.65117 9.17933H7.30879L7.30692 11.8023H6.65117V9.17933ZM7.49428 9.17933H8.52474V9.83508H7.49428V9.17933ZM7.49428 11.1466H8.52474V11.8023H7.49428V11.1466ZM7.49428 10.163H8.52474V10.8187H7.49428V10.163Z" fill="black"/>
<path d="M10.7711 10.5845H11.4306C11.4107 10.9068 11.2833 11.1847 11.0484 11.4182C10.7924 11.6743 10.4832 11.8023 10.121 11.8023C9.7588 11.8023 9.44966 11.6743 9.1936 11.4182C8.96003 11.1847 8.83325 10.9068 8.81327 10.5845H9.47276C9.4915 10.7257 9.55333 10.8487 9.65825 10.9536C9.78565 11.0823 9.93991 11.1466 10.121 11.1466C10.3021 11.1466 10.457 11.0823 10.5857 10.9536C10.6906 10.8487 10.7524 10.7257 10.7711 10.5845ZM9.47276 10.3972H8.81327C8.83325 10.0749 8.96003 9.79699 9.1936 9.56341C9.44966 9.30736 9.7588 9.17933 10.121 9.17933C10.4832 9.17933 10.7924 9.30736 11.0484 9.56341C11.2833 9.79699 11.4107 10.0749 11.4306 10.3972H10.7711C10.7524 10.256 10.6906 10.1324 10.5857 10.0262C10.457 9.89878 10.3021 9.83508 10.121 9.83508C9.93991 9.83508 9.78565 9.89878 9.65825 10.0262C9.55333 10.1324 9.4915 10.256 9.47276 10.3972Z" fill="black"/>
<path d="M11.7136 9.17933H12.3693V11.8023H11.7136V9.17933ZM12.5567 9.83508V9.17933H12.8621C13.0881 9.17933 13.2811 9.25927 13.441 9.41915C13.6009 9.57903 13.6808 9.77201 13.6808 9.99808C13.6808 10.2254 13.6009 10.419 13.441 10.5789C13.2811 10.7388 13.0881 10.8187 12.8621 10.8187H12.5567V10.163H12.8621C12.907 10.163 12.9451 10.1473 12.9763 10.1161C13.0088 10.0836 13.0251 10.0443 13.0251 9.99808C13.0251 9.95312 13.0088 9.91502 12.9763 9.88379C12.9451 9.85132 12.907 9.83508 12.8621 9.83508H12.5567Z" fill="black"/>
<path d="M14.4086 10.7531L13.8465 11.8023H13.0971L14.0339 10.0543L14.4086 10.7531ZM14.6821 10.9124L14.1275 9.87817L14.5023 9.17933L15.9074 11.8023H15.158L15.0325 11.5681H14.1594L14.5097 10.9124H14.6821Z" fill="black"/>
<path d="M16.814 11.141V11.7986C16.4918 11.7786 16.2139 11.6518 15.9803 11.4182C15.7242 11.1622 15.5962 10.8531 15.5962 10.4908C15.5962 10.1286 15.7242 9.81947 15.9803 9.56341C16.2139 9.32984 16.4918 9.20306 16.814 9.18308V9.8407C16.6729 9.85944 16.5499 9.92127 16.4449 10.0262C16.3163 10.1548 16.252 10.3097 16.252 10.4908C16.252 10.6719 16.3163 10.8262 16.4449 10.9536C16.5499 11.0598 16.6729 11.1222 16.814 11.141ZM17.4548 10.1255C17.4311 10.0905 17.4036 10.0574 17.3724 10.0262C17.2662 9.92127 17.1425 9.85944 17.0014 9.8407V9.18308C17.3236 9.20306 17.6016 9.32984 17.8351 9.56341C17.8976 9.62587 17.9525 9.69207 18 9.76201L17.4548 10.1255ZM18 11.2196C17.9525 11.2896 17.8976 11.3558 17.8351 11.4182C17.6016 11.6518 17.3236 11.7786 17.0014 11.7986V11.141C17.1425 11.1222 17.2662 11.0598 17.3724 10.9536C17.4036 10.9224 17.4311 10.8899 17.4548 10.8562L18 11.2196Z" fill="black"/>
<path d="M12.2263 7.03805C12.2275 7.03056 12.2282 7.02244 12.2282 7.0137C12.2282 6.96873 12.2119 6.93063 12.1794 6.89941C12.1482 6.86693 12.1101 6.8507 12.0652 6.8507C12.0189 6.8507 11.9796 6.86693 11.9471 6.89941C11.9159 6.93063 11.9003 6.96873 11.9003 7.0137C11.9003 7.05991 11.9159 7.09926 11.9471 7.13173C11.9796 7.16296 12.0189 7.17857 12.0652 7.17857C12.0939 7.17857 12.122 7.17982 12.1495 7.18232L11.8104 7.79685C11.6892 7.75813 11.5805 7.69068 11.4844 7.5945C11.3245 7.43462 11.2445 7.24102 11.2445 7.0137C11.2445 6.78762 11.3245 6.59464 11.4844 6.43476C11.6442 6.27489 11.8378 6.19495 12.0652 6.19495C12.2912 6.19495 12.4842 6.27489 12.6441 6.43476C12.804 6.59464 12.8839 6.78762 12.8839 7.0137V7.03805H12.2263ZM11.9022 7.97484C11.9009 7.98233 11.9003 7.98983 11.9003 7.99732C11.9003 8.04353 11.9159 8.08288 11.9471 8.11535C11.9796 8.14658 12.0189 8.16219 12.0652 8.16219C12.1101 8.16219 12.1482 8.14658 12.1794 8.11535C12.2119 8.08288 12.2282 8.04353 12.2282 7.99732C12.2282 7.95235 12.2119 7.91426 12.1794 7.88303C12.1482 7.85056 12.1101 7.83432 12.0652 7.83432C12.0364 7.83432 12.0077 7.83307 11.979 7.83057L12.3181 7.21604C12.4392 7.25476 12.5479 7.32221 12.6441 7.41839C12.804 7.57826 12.8839 7.77124 12.8839 7.99732C12.8839 8.22465 12.804 8.41825 12.6441 8.57813C12.4842 8.738 12.2912 8.81794 12.0652 8.81794C11.8378 8.81794 11.6442 8.738 11.4844 8.57813C11.3245 8.41825 11.2445 8.22465 11.2445 7.99732V7.97484H11.9022Z" fill="black"/>
</svg>
