<svg width="18" height="18" viewBox="0 0 18 18" fill="none" xmlns="http://www.w3.org/2000/svg">
<mask id="mask0_650_5714" style="mask-type:alpha" maskUnits="userSpaceOnUse" x="2" y="0" width="14" height="18">
<path d="M2.02502 0H15.9188V17.8942H2.02502V0Z" fill="#FEFEFE"/>
</mask>
<g mask="url(#mask0_650_5714)">
<path fill-rule="evenodd" clip-rule="evenodd" d="M14.1323 14.0175C13.6463 14.076 12.906 14.1727 12.726 14.2222C12.546 14.2717 12.366 14.3887 12.2895 14.6632C12.2378 14.8432 12.1433 15.5947 12.087 16.0875C12.927 15.5734 13.6296 14.863 14.1345 14.0175H14.1323ZM8.97752 16.9605C10.035 16.9605 11.025 16.686 11.889 16.2023C11.8361 15.6866 11.7633 15.1733 11.6708 14.6632C11.646 14.5565 11.592 14.4588 11.515 14.3809C11.4379 14.3031 11.3407 14.2481 11.2343 14.2222C10.962 14.1457 9.38702 13.9635 9.38702 13.9635V13.8532C9.38702 13.8532 10.962 13.671 11.2343 13.5945C11.4143 13.545 11.5943 13.428 11.6708 13.1535C11.745 12.8925 11.9115 11.4322 11.9295 11.277C10.8495 11.4795 10.107 11.9812 9.18002 12.4605C8.19452 12.9712 7.23152 13.338 5.98052 13.338C4.87577 13.338 3.89252 12.9735 3.17927 12.528C3.52914 13.7986 4.28534 14.9198 5.33236 15.7202C6.37937 16.5206 7.65963 16.9562 8.97752 16.9605ZM3.05102 3.843H3.69677V3.3345H3.92627C4.52702 3.3345 4.90727 3.0195 4.90727 2.475C4.90727 1.8765 4.50227 1.6605 3.83852 1.6605C3.58202 1.6605 3.27152 1.6785 3.05102 1.7055V3.843V3.843ZM5.16377 3.843H5.80727V3.00375H6.48002V3.843H7.12577V1.7055H6.48002V2.556H5.80727V1.7055H5.16377V3.843V3.843ZM7.60277 3.843H8.24852V1.7055H7.60277V3.843ZM8.72552 3.843H9.89102L9.98777 3.4155H9.36902V1.7055H8.72552V3.843ZM10.2195 3.843H10.863V1.7055H10.2195V3.843ZM11.349 3.843H11.9948V3.3345H12.2243C12.825 3.3345 13.2053 3.0195 13.2053 2.475C13.2053 1.8765 12.8003 1.6605 12.1365 1.6605C11.88 1.6605 11.5718 1.6785 11.349 1.7055V3.843ZM8.97527 4.788C8.46452 4.788 7.96952 4.851 7.49702 4.9725C7.52177 5.18625 7.59377 5.7825 7.62977 5.904C7.67252 6.057 7.77152 6.12225 7.87052 6.14925C8.02127 6.192 8.86952 6.28875 8.86952 6.28875V6.3495C8.86952 6.3495 8.02127 6.45075 7.87052 6.4935C7.77152 6.5205 7.67252 6.5835 7.62977 6.7365C7.59602 6.85575 7.52852 7.40025 7.50152 7.6365C8.00327 7.704 8.54102 7.767 8.54102 7.767V7.875C8.54102 7.875 6.96602 8.05725 6.69602 8.13375C6.51377 8.18325 6.33602 8.30025 6.25727 8.57475C6.18527 8.82675 6.02777 10.2082 6.00527 10.4152C7.11452 10.2127 8.06177 9.62775 8.77277 9.28125C9.78527 8.78625 10.7145 8.38125 11.979 8.38125C13.0793 8.38125 14.049 8.739 14.76 9.18225C14.4039 7.92133 13.6471 6.81058 12.6038 6.01783C11.5606 5.22507 10.2878 4.79339 8.97752 4.788H8.97527ZM14.409 3.2535C14.409 3.3885 14.31 3.45825 14.0715 3.45825C13.8183 3.45114 13.5689 3.39378 13.338 3.2895L13.41 3.78C13.6262 3.85188 13.8527 3.88835 14.0805 3.888C14.6205 3.888 15.0615 3.708 15.0615 3.1725C15.0615 2.457 14.0468 2.592 14.0468 2.25C14.0468 2.1375 14.1593 2.08125 14.346 2.08125C14.5485 2.08125 14.7713 2.12625 14.9198 2.18925L14.868 1.7235C14.674 1.67899 14.4753 1.65784 14.2763 1.6605C13.7543 1.6605 13.3988 1.86975 13.3988 2.30625C13.3988 3.0555 14.409 2.90475 14.409 3.25125V3.2535ZM12.0308 11.259C12.0443 11.3827 12.2153 12.8902 12.2895 13.1535C12.3143 13.2602 12.3683 13.3579 12.4453 13.4358C12.5224 13.5137 12.6196 13.5686 12.726 13.5945C12.9195 13.6485 13.7723 13.7565 14.247 13.815C14.6219 13.1306 14.8617 12.3805 14.9535 11.6055C14.3 11.3428 13.6035 11.2032 12.8993 11.1937C12.5843 11.1937 12.2963 11.2162 12.0308 11.259V11.259ZM5.19752 7.50825C5.37752 7.4565 5.55752 7.34175 5.63402 7.06725C5.68352 6.8895 5.77577 6.17175 5.83652 5.679C5.01529 6.18657 4.32658 6.88222 3.82727 7.7085C4.2872 7.6586 4.74504 7.59105 5.19977 7.506L5.19752 7.50825ZM2.99927 10.1115C3.65024 10.3679 4.34267 10.5029 5.04227 10.5097C5.33927 10.5097 5.62052 10.4827 5.88827 10.4377C5.86577 10.2195 5.70827 8.829 5.63627 8.577C5.61147 8.47029 5.55753 8.37256 5.48046 8.2947C5.40339 8.21684 5.30622 8.1619 5.19977 8.136C5.01077 8.082 4.18952 7.9785 3.71027 7.92C3.33606 8.59864 3.09475 9.34243 2.99927 10.1115V10.1115ZM7.28552 6.7365C7.27158 6.67779 7.24174 6.62406 7.19927 6.58119C7.15681 6.53833 7.10335 6.50799 7.04477 6.4935C6.92552 6.45975 6.36977 6.39 6.14477 6.36075C6.18527 6.678 6.22802 6.96375 6.25727 7.06725C6.28208 7.17396 6.33602 7.27169 6.41309 7.34955C6.49016 7.42741 6.58733 7.48235 6.69377 7.50825C6.79727 7.5375 7.08977 7.58025 7.41377 7.62525C7.3822 7.32749 7.33942 7.03103 7.28552 6.7365V6.7365ZM7.28552 5.904C7.31927 5.78475 7.38902 5.2245 7.41602 4.99275C6.93227 5.1255 6.47102 5.3145 6.04352 5.55525C6.06602 5.76 6.09977 6.0255 6.13352 6.2775C6.35402 6.25275 6.92102 6.183 7.04477 6.14925C7.14377 6.12225 7.24277 6.057 7.28552 5.904V5.904ZM2.99702 11.628C3.75977 12.1185 4.81952 12.3615 5.70827 12.3615C7.05377 12.3615 7.86377 11.9565 8.75027 11.5088C9.97202 10.8945 10.9845 10.2442 12.573 10.2532C13.4161 10.2522 14.2472 10.4535 14.9963 10.8405C14.9963 10.584 14.9783 10.332 14.9468 10.0845C14.1863 9.5985 13.1288 9.34875 12.2445 9.34875C10.899 9.34875 10.0913 9.76275 9.20252 10.2105C8.06177 10.782 6.97052 11.4705 5.38652 11.4705C4.42127 11.4705 2.95202 10.872 2.95202 10.8743C2.95202 11.1263 2.96777 11.385 2.99702 11.628V11.628ZM15.9188 0.38475V10.8698C15.9188 14.7398 12.8025 17.8942 8.97302 17.8942C5.07602 17.8942 2.02502 14.7397 2.02502 10.8675V0.38475C2.92952 0.27225 5.82977 0 8.97302 0C12.0443 0 14.985 0.25425 15.9188 0.38475ZM10.6155 15.102C10.5818 14.985 10.503 14.3167 10.503 14.3167H10.458C10.458 14.3167 10.3815 14.985 10.3455 15.1042C10.314 15.2212 10.2375 15.2707 10.1588 15.2932C10.0418 15.3247 9.38027 15.4057 9.38027 15.4057V15.4507C9.38027 15.4507 10.0418 15.5317 10.1588 15.5632C10.2375 15.5857 10.3163 15.6352 10.3478 15.7545C10.3815 15.8715 10.458 16.542 10.458 16.542H10.503C10.503 16.542 10.5818 15.8715 10.6155 15.7545C10.6493 15.6352 10.7258 15.5857 10.8045 15.5632C10.9215 15.5317 11.5808 15.4507 11.5808 15.4507V15.4057C11.5808 15.4057 10.9215 15.3247 10.8045 15.2932C10.7258 15.2707 10.647 15.2213 10.6155 15.102V15.102ZM12.6 2.484C12.6 2.214 12.4493 2.06325 12.1298 2.06325L12.024 2.0655V2.94975H12.1298C12.4673 2.94975 12.6 2.76075 12.6 2.484V2.484ZM3.83402 2.94975H3.72827V2.0655H3.83402C4.15127 2.0655 4.30202 2.21625 4.30202 2.484C4.30202 2.76075 4.16927 2.94975 3.83402 2.94975Z" fill="black"/>
</g>
</svg>
