<svg width="18" height="18" viewBox="0 0 18 18" fill="none" xmlns="http://www.w3.org/2000/svg">
<path d="M14.3475 11.405C14.5231 11.3977 14.7093 11.4248 14.7093 11.6402C14.7093 11.796 14.5944 11.8832 14.4447 11.8832C14.2693 11.8832 14.1803 11.7578 14.1871 11.5914H13.9618C13.9671 11.8788 14.1276 12.0717 14.4447 12.0717C14.7093 12.0717 14.9308 11.9112 14.9308 11.6515C14.9308 11.4735 14.8372 11.3376 14.6819 11.3066V11.3037C14.8121 11.2549 14.8751 11.1432 14.8751 11.0063C14.8751 10.7636 14.6562 10.6399 14.4438 10.6399C14.1661 10.6399 13.9991 10.8386 13.9886 11.1079H14.2104C14.2074 10.9652 14.2839 10.8254 14.4385 10.8254C14.5623 10.8254 14.6521 10.9051 14.6521 11.0215C14.6521 11.1902 14.4987 11.2419 14.3475 11.2381V11.405V11.405Z" fill="black"/>
<path d="M3.06567 12.0456H3.31339V11.5076H3.68717C4.08865 11.5094 4.16584 11.2488 4.16584 11.0752C4.16584 10.8998 4.08865 10.6401 3.68717 10.6401H3.06567V12.0456V12.0456ZM3.31339 10.8397H3.67753C3.80781 10.8397 3.91929 10.8887 3.91929 11.0734C3.91929 11.2505 3.78405 11.3068 3.6726 11.3068H3.31342V10.8397H3.31339Z" fill="black"/>
<path d="M4.5379 10.6401H4.31281V12.0456H4.5379V10.6401Z" fill="black"/>
<path d="M5.64239 11.2974C5.64239 11.0815 5.43144 11 5.23244 11C5.00717 11 4.78427 11.0776 4.76881 11.3393H4.99525C5.00212 11.2288 5.09212 11.1789 5.21815 11.1789C5.3108 11.1789 5.4297 11.2007 5.4297 11.3169C5.4297 11.4482 5.28513 11.4292 5.12319 11.4595C4.93643 11.4812 4.73175 11.5231 4.73175 11.7773C4.73175 11.9752 4.89806 12.0744 5.08071 12.0744C5.20049 12.0744 5.34389 12.0361 5.43392 11.9498C5.45115 12.0446 5.5175 12.0744 5.60622 12.0744C5.64416 12.0744 5.7165 12.0595 5.7476 12.0501V11.8937C5.72572 11.8972 5.70629 11.8972 5.69508 11.8972C5.65263 11.8972 5.64242 11.8757 5.64242 11.8196V11.2974H5.64239ZM5.41407 11.7044C5.41407 11.8459 5.26145 11.8973 5.16227 11.8973C5.08274 11.8973 4.95582 11.8684 4.95582 11.7671C4.95582 11.648 5.04249 11.6131 5.1395 11.599C5.23755 11.5816 5.34595 11.5816 5.41407 11.5372V11.7044Z" fill="black"/>
<path d="M6.12225 12.0446L6.09661 12.1234C6.06976 12.2077 6.04278 12.2652 5.93757 12.2652C5.90243 12.2652 5.86623 12.2574 5.83123 12.2489V12.4403C5.88183 12.4459 5.93555 12.4505 5.98718 12.4505C6.22264 12.4505 6.27504 12.2857 6.34841 12.1039L6.74495 11.0281H6.50833L6.25139 11.7885H6.24717L5.98091 11.0281H5.73712L6.12225 12.0446Z" fill="black"/>
<path d="M6.79218 11.5784C6.79728 11.9285 7.05741 12.0803 7.37956 12.0803C7.65951 12.0803 7.9383 11.9539 7.9383 11.6403C7.9383 11.4935 7.85047 11.3368 7.66462 11.2785C7.59225 11.2589 7.28151 11.179 7.25978 11.1725C7.15882 11.1434 7.0907 11.0899 7.0907 10.9908C7.0907 10.8481 7.23413 10.8067 7.34966 10.8067C7.51919 10.8067 7.64191 10.8735 7.65443 11.0573H7.89896C7.89896 10.762 7.65444 10.6062 7.36019 10.6062C7.10531 10.6062 6.84503 10.7375 6.84503 11.0199C6.84503 11.1659 6.91492 11.3132 7.15668 11.3768C7.34969 11.4294 7.47792 11.4559 7.57684 11.4935C7.63475 11.5166 7.69372 11.5598 7.69372 11.6648C7.69372 11.7737 7.61202 11.8799 7.39522 11.8799C7.19796 11.8799 7.03807 11.7952 7.03807 11.5785H6.79218V11.5784Z" fill="black"/>
<path d="M8.01959 11.0281H8.1881V10.7217H8.41425V11.0281H8.61659V11.1952H8.41425V11.7388C8.41425 11.8319 8.42329 11.8798 8.52162 11.8798C8.55357 11.8798 8.58552 11.8798 8.61662 11.8731V12.0446C8.56672 12.0501 8.52034 12.056 8.47205 12.056C8.23773 12.056 8.19237 11.967 8.18812 11.796V11.1952H8.01962V11.0281H8.01959Z" fill="black"/>
<path d="M9.65067 11.2974C9.65067 11.0815 9.44029 11 9.241 11C9.01807 11 8.794 11.0776 8.77854 11.3393H9.00467C9.01402 11.2288 9.10183 11.1789 9.22962 11.1789C9.31965 11.1789 9.43943 11.2007 9.43943 11.3169C9.43943 11.4482 9.29572 11.4292 9.13289 11.4595C8.9447 11.4812 8.74146 11.5231 8.74146 11.7773C8.74146 11.9752 8.90762 12.0744 9.08927 12.0744C9.20991 12.0744 9.35363 12.0361 9.44334 11.9498C9.461 12.0446 9.52607 12.0744 9.619 12.0744C9.65401 12.0744 9.72507 12.0595 9.75933 12.0501V11.8937C9.73556 11.8972 9.71571 11.8972 9.70347 11.8972C9.66234 11.8972 9.65064 11.8757 9.65064 11.8196V11.2974H9.65067ZM9.42568 11.7044C9.42568 11.8459 9.27207 11.8973 9.17286 11.8973C9.09467 11.8973 8.96641 11.8684 8.96641 11.7671C8.96641 11.648 9.05191 11.6131 9.14892 11.599C9.24814 11.5816 9.35668 11.5816 9.42568 11.5372V11.7044Z" fill="black"/>
<path d="M9.78097 11.0281H9.95005V10.7217H10.1762V11.0281H10.3785V11.1952H10.1762V11.7388C10.1762 11.8319 10.1838 11.8798 10.2838 11.8798C10.3146 11.8798 10.3466 11.8798 10.3785 11.8731V12.0446C10.3301 12.0501 10.2816 12.056 10.233 12.056C9.99786 12.056 9.95424 11.967 9.95002 11.796V11.1952H9.78094V11.0281H9.78097Z" fill="black"/>
<path d="M10.7965 11.0281H10.5715V12.0455H10.7965V11.0281Z" fill="black"/>
<path d="M11.4798 12.0744C11.807 12.0744 11.994 11.8503 11.994 11.5372C11.994 11.225 11.8069 11 11.4798 11C11.1519 11 10.9651 11.225 10.9651 11.5372C10.9651 11.8503 11.1519 12.0744 11.4798 12.0744ZM11.4798 11.8972C11.2774 11.8972 11.1898 11.7152 11.1898 11.5372C11.1898 11.3609 11.2774 11.1789 11.4798 11.1789C11.68 11.1789 11.769 11.3609 11.769 11.5372C11.769 11.7152 11.68 11.8972 11.4798 11.8972Z" fill="black"/>
<path d="M12.1635 12.0455H12.3876V11.4455C12.3876 11.2974 12.4836 11.1789 12.6347 11.1789C12.766 11.1789 12.8291 11.2465 12.8326 11.405V12.0455H13.0584V11.3469C13.0584 11.1193 12.9184 11 12.6966 11C12.5638 11 12.4463 11.0694 12.3797 11.183L12.3747 11.1789V11.028H12.1635V12.0455V12.0455Z" fill="black"/>
<path d="M10.7965 10.6401H10.5715V10.8528H10.7965V10.6401Z" fill="black"/>
<path d="M11.5148 5.55005H9.15884C8.43217 5.55005 8.07604 5.99908 8.07604 6.5821V8.3532C8.07604 8.71502 7.9052 8.97473 7.54457 8.97473H5.48385C5.46941 8.97473 5.45746 8.98668 5.45746 9.0004V9.35783C5.45746 9.37244 5.46941 9.38468 5.48385 9.38468H7.81637C8.54276 9.38468 8.89977 8.93767 8.89977 8.35437V6.5821C8.89977 6.21999 9.0693 5.95971 9.43198 5.95971H11.5149C11.5312 5.95971 11.5441 5.94805 11.5441 5.93344V5.57661C11.5441 5.5626 11.5312 5.55005 11.5148 5.55005Z" fill="black"/>
<path d="M4.57961 5.55005H0.0458641C0.029376 5.55005 0.017395 5.5626 0.017395 5.57661V5.93344C0.017395 5.94805 0.0293475 5.96028 0.0458641 5.96028H4.30693C4.66713 5.96028 4.83811 6.21999 4.83811 6.58207C4.83811 6.94272 4.66713 7.20183 4.30693 7.20183H0.935966C0.412482 7.20183 0.0174236 7.64156 0.0174236 8.22483V9.35695C0.0174236 9.37244 0.029376 9.38471 0.0458927 9.38471H0.814016C0.82905 9.38471 0.841601 9.37244 0.841601 9.35695V8.22483C0.841601 7.86506 1.04833 7.61121 1.34828 7.61121H4.57961C5.30483 7.61121 5.66038 7.16563 5.66038 6.58235C5.66038 5.99999 5.30483 5.55005 4.57961 5.55005Z" fill="black"/>
<path d="M17.6409 7.41951C17.6307 7.40813 17.6307 7.38859 17.6409 7.37749C17.8667 7.19044 17.9785 6.90858 17.9785 6.58235C17.9785 5.99996 17.6237 5.55005 16.8962 5.55005H12.3637C12.3482 5.55005 12.3369 5.5626 12.3369 5.57778V5.93344C12.3369 5.94805 12.3482 5.96028 12.3637 5.96028H16.624C16.9832 5.96028 17.1565 6.21999 17.1565 6.58207C17.1565 6.94272 16.9844 7.20183 16.624 7.20183H16.6188L12.3637 7.20271C12.3482 7.20271 12.3369 7.21381 12.3369 7.23012V7.58553C12.3369 7.59982 12.3482 7.61121 12.3637 7.61121H16.624C17.0938 7.61674 17.1557 8.07424 17.1557 8.30827L17.1565 8.35232C17.1565 8.715 16.9832 8.97587 16.624 8.97587H12.3637C12.3482 8.97587 12.3369 8.98694 12.3369 9.00151V9.3578C12.3369 9.37241 12.3482 9.38465 12.3637 9.38465H16.8963C17.6243 9.38465 17.9785 8.90144 17.9785 8.35232V8.30827C17.9785 7.95814 17.8667 7.62376 17.6409 7.41951Z" fill="black"/>
</svg>
