<svg width="18" height="18" viewBox="0 0 18 18" fill="none" xmlns="http://www.w3.org/2000/svg">
<g clip-path="url(#clip0_110_2400)">
<path d="M6.73087 2C7.51362 2.14591 8.28301 2.35436 9.04866 2.57163C9.48667 2.69884 9.92348 2.83046 10.3575 2.97063C11.0392 3.18776 11.718 3.43362 12.3355 3.80028C12.6121 3.96824 12.8777 4.15798 13.1047 4.38942C13.3507 4.6298 13.5521 4.91495 13.6999 5.22522C13.9691 5.7875 14.0613 6.41565 14.0886 7.03325C14.1014 7.43625 14.1006 7.84273 14.0254 8.24052C13.9629 8.5862 13.8517 8.92706 13.6667 9.22731C13.5035 9.49255 13.2764 9.72184 13.0009 9.86963C12.7366 10.0121 12.434 10.0799 12.1342 10.0739C11.6797 10.0787 11.2386 9.93377 10.8306 9.74389C10.8233 8.38723 10.8296 7.03031 10.8274 5.67379C10.8245 5.42832 10.8412 5.18032 10.7918 4.9382C10.757 4.7506 10.6804 4.56152 10.5332 4.43418C10.4355 4.34612 10.309 4.29642 10.1818 4.26956C10.0531 4.24511 9.91586 4.29976 9.83623 4.40305C9.70381 4.56847 9.66907 4.78814 9.66305 4.99405C9.66198 8.62602 9.66439 12.2581 9.66198 15.8898C8.68494 15.5802 7.70777 15.2703 6.731 14.9598C6.72993 10.6398 6.73033 6.31998 6.73087 2Z" fill="black"/>
<path d="M2.33927 11.1909C3.61308 10.7399 4.88556 10.2847 6.1599 9.83516C6.16191 10.3353 6.1599 10.8356 6.16071 11.3361C6.1599 11.404 6.16431 11.4722 6.15576 11.5396C5.14852 11.8967 4.14329 12.26 3.13699 12.6193C2.99749 12.6719 2.85438 12.7317 2.74681 12.8382C2.69671 12.8881 2.65595 12.9619 2.68334 13.0335C2.71782 13.1178 2.80387 13.1637 2.88324 13.1984C3.10398 13.2882 3.3453 13.3009 3.58048 13.3117C3.84264 13.3076 4.10588 13.2879 4.3627 13.2313C4.53627 13.1972 4.7033 13.1387 4.86872 13.0765C5.29872 12.9209 5.72871 12.7643 6.15937 12.6102C6.16258 13.0333 6.1599 13.4566 6.16071 13.88C6.15937 13.9646 6.16458 14.0497 6.15616 14.134C5.62729 14.229 5.09214 14.2936 4.55458 14.302C3.47211 14.3264 2.38711 14.1589 1.35889 13.8205C1.02163 13.7229 0.686507 13.5929 0.404967 13.3787C0.249966 13.2587 0.111267 13.1078 0.040715 12.9222C-0.0183456 12.7651 -0.0140697 12.5835 0.0595556 12.4318C0.130509 12.2806 0.254509 12.161 0.39107 12.0681C0.707085 11.8499 1.05557 11.6835 1.40873 11.5351C1.71299 11.4052 2.0286 11.3042 2.33927 11.1909Z" fill="black"/>
<path d="M12.5884 10.6212C12.8773 10.5878 13.1681 10.58 13.4584 10.5695C14.414 10.5731 15.3743 10.6921 16.2883 10.9787C16.4676 11.0332 16.6413 11.1038 16.82 11.1607C17.1384 11.2771 17.4572 11.4182 17.7121 11.6471C17.8654 11.7868 17.9974 11.9751 17.9993 12.1901C18.0084 12.365 17.9291 12.5328 17.8157 12.6619C17.5998 12.904 17.3144 13.0704 17.0277 13.2155C16.7227 13.371 16.3948 13.4714 16.0749 13.5898C14.1224 14.2909 12.1698 14.9917 10.2176 15.6936C10.2173 15.1467 10.2181 14.6 10.2173 14.0533C10.2203 14.0315 10.2082 13.9934 10.2391 13.9877C11.7247 13.4591 13.2099 12.929 14.6952 12.3991C14.8961 12.324 15.1124 12.2696 15.2829 12.1333C15.3527 12.0785 15.4209 11.9914 15.3867 11.8975C15.3511 11.8153 15.2658 11.7697 15.1874 11.7358C14.965 11.6477 14.7229 11.6306 14.4864 11.6241C14.1161 11.6266 13.7425 11.6723 13.3904 11.791C12.3323 12.1618 11.276 12.5371 10.2176 12.9067C10.2177 12.3194 10.2173 11.7326 10.2179 11.1454C10.9836 10.8767 11.7832 10.7138 12.5884 10.6212Z" fill="black"/>
</g>
<defs>
<clipPath id="clip0_110_2400">
<rect width="18" height="18" fill="white"/>
</clipPath>
</defs>
</svg>
