<svg width="18" height="18" viewBox="0 0 18 18" fill="none" xmlns="http://www.w3.org/2000/svg">
<g clip-path="url(#clip0_659_15286)">
<path d="M17.4274 10.8156H17.3736V10.4468H17.2502V10.3952H17.5513V10.4468H17.428L17.4274 10.8156ZM17.8006 10.718L17.9159 10.3952H18V10.8158H17.9439V10.4642L17.8163 10.8156H17.7821L17.6551 10.4642V10.8156H17.6018V10.3949H17.6859L17.8006 10.718ZM16.7101 7.18506H11.5505V8.58376C11.5505 8.58376 11.5348 9.12383 12.2027 9.12383H15.3565C15.4803 9.12282 15.6028 9.14775 15.7163 9.19702C15.8924 9.27554 16.0904 9.43537 16.0904 9.75785C16.0904 10.0472 15.9502 10.2116 15.8114 10.3035C15.6965 10.3778 15.5623 10.4168 15.4255 10.4157H11.5505V10.8083H15.8714C15.8714 10.8083 16.8528 10.7685 16.8528 9.75981C16.8528 9.24694 16.5533 8.99288 16.2839 8.86838C16.1097 8.78839 15.9203 8.74734 15.7287 8.74808H12.6029C12.5508 8.74877 12.4994 8.73653 12.4531 8.71247C12.3864 8.6763 12.3129 8.60451 12.3129 8.46318V7.57231H16.7101V7.18506ZM5.05641 10.4143V10.8069H7.24644C7.5082 10.8096 7.76215 10.7177 7.96149 10.5481C8.06431 10.4608 8.14632 10.3516 8.20154 10.2286C8.25675 10.1056 8.28376 9.97175 8.2806 9.83693V8.16819C8.27947 8.07693 8.29908 7.98661 8.33794 7.90403C8.3768 7.82146 8.4339 7.74878 8.50493 7.69148C8.60574 7.61256 8.73052 7.57051 8.85853 7.57231H10.7679V7.18506H8.49399C8.49399 7.18506 7.51255 7.20076 7.51255 8.23885V9.79711C7.51428 9.92473 7.47987 10.0502 7.41328 10.1591C7.36511 10.2396 7.2963 10.3058 7.21397 10.3508C7.13164 10.3959 7.03878 10.4181 6.94499 10.4151L5.05641 10.4143ZM0 7.18506V7.57231H3.90335C4.01192 7.57138 4.11936 7.59446 4.21797 7.63989C4.37276 7.71252 4.54662 7.86198 4.54662 8.1651C4.54662 8.45954 4.37276 8.60675 4.21797 8.67966C4.11774 8.72567 4.00859 8.74903 3.8983 8.74808H1.00332C0.831955 8.74648 0.662582 8.78489 0.50867 8.86025C0.267795 8.9811 0 9.26572 0 9.73514V10.8007H0.751227V9.7399C0.750728 9.6709 0.763188 9.60241 0.787961 9.53801C0.849932 9.37901 1.00668 9.12383 1.37318 9.12383H4.29228C4.39046 9.12437 4.48823 9.11125 4.58279 9.08486C4.85087 9.00859 5.29785 8.78818 5.29785 8.1651C5.29785 7.19684 4.33407 7.18506 4.33407 7.18506H0Z" fill="black"/>
</g>
<defs>
<clipPath id="clip0_659_15286">
<rect width="18" height="18" fill="white"/>
</clipPath>
</defs>
</svg>
