<svg width="18" height="18" viewBox="0 0 18 18" fill="none" xmlns="http://www.w3.org/2000/svg">
<g clip-path="url(#clip0_659_15110)">
<path fill-rule="evenodd" clip-rule="evenodd" d="M0 6.31494V6.52082H5.0706V7.66202H0V9.23364H0.20565V7.86789H5.2578V6.31494H0Z" fill="black"/>
<path fill-rule="evenodd" clip-rule="evenodd" d="M11.6381 6.31494V6.52082H16.7089V7.66202H11.6381V9.23364H16.9146V9.02799H11.8629V7.86789H16.9146V6.31494H11.6381Z" fill="black"/>
<path fill-rule="evenodd" clip-rule="evenodd" d="M7.95219 6.31494V9.02799H5.25781V9.23364H8.17674V6.52082H10.8522V6.31494H7.95219Z" fill="black"/>
<path fill-rule="evenodd" clip-rule="evenodd" d="M17.4573 8.93434H17.3637V8.89722H17.6258V8.93434H17.5136V9.23359H17.4573V8.93434Z" fill="black"/>
<path fill-rule="evenodd" clip-rule="evenodd" d="M17.7381 8.89722L17.8315 9.17757L17.9253 8.89722H18V9.23359H17.9624V8.95324L17.8691 9.23359H17.8128L17.7192 8.95324V9.23359H17.663V8.89722H17.7381Z" fill="black"/>
<path d="M3 10.4954V11.941H3.22581V10.6339H3.43454C3.43454 10.6339 3.58634 10.6339 3.63821 10.7016C3.68249 10.7594 3.69071 10.8638 3.69071 10.9346C3.69071 11.0055 3.68565 11.1269 3.65908 11.1696C3.62082 11.2351 3.55757 11.2481 3.50095 11.2481H3.36307V11.3765H3.56136C3.56136 11.3765 3.74036 11.3837 3.81721 11.3056C3.91209 11.2107 3.9355 11.0808 3.9355 10.9084C3.9355 10.7503 3.87857 10.5921 3.7625 10.5396C3.66604 10.4954 3.49242 10.4954 3.49242 10.4954H3" fill="black"/>
<path d="M4.11296 11.941H4.33719V10.4954H4.11169V11.941H4.11296Z" fill="black"/>
<path d="M5.53888 10.8328L5.9516 11.9147L5.71472 12.4953H5.90195L6.58443 10.8328H6.37539L6.0781 11.643L5.80137 10.8328H5.53888Z" fill="black"/>
<path d="M6.75498 11.9327V11.7961C6.75498 11.7961 6.99344 11.8053 7.04309 11.8053C7.15347 11.8053 7.20818 11.7819 7.24961 11.7376C7.27428 11.7107 7.29642 11.5928 7.29642 11.551C7.29665 11.4936 7.28834 11.4365 7.27175 11.3815C7.26135 11.36 7.2454 11.3417 7.22555 11.3285C7.2057 11.3153 7.18266 11.3076 7.15884 11.3062C7.11773 11.3028 7.05416 11.2942 6.97984 11.2911C6.94055 11.2896 6.90197 11.2801 6.8665 11.2631C6.83103 11.2461 6.79942 11.2221 6.77364 11.1924C6.74043 11.1535 6.69647 11.0947 6.69647 10.9144C6.69647 10.7341 6.74328 10.6326 6.79135 10.5858C6.83836 10.5438 6.89684 10.5168 6.95928 10.5083C7.01172 10.5015 7.06453 10.4979 7.11741 10.4976L7.43367 10.5067V10.6434C7.43367 10.6434 7.20312 10.6342 7.15378 10.6342C7.04341 10.6342 7.01052 10.6576 6.96909 10.7019C6.94166 10.7439 6.92664 10.7928 6.92576 10.8429C6.92448 10.8982 6.93173 10.9533 6.94727 11.0064C6.95762 11.028 6.97355 11.0463 6.99341 11.0596C7.01326 11.0729 7.03632 11.0806 7.06017 11.082C7.10097 11.0852 7.16485 11.0934 7.23886 11.0969C7.27816 11.0981 7.31677 11.1075 7.35226 11.1245C7.38775 11.1414 7.41934 11.1655 7.44506 11.1952C7.47826 11.2344 7.52254 11.3173 7.52254 11.4973C7.52254 11.6772 7.47542 11.8069 7.42766 11.8537C7.38062 11.8955 7.32214 11.9224 7.25973 11.9308C7.20678 11.9379 7.15344 11.9416 7.10002 11.9419L6.75403 11.9327" fill="black"/>
<path d="M7.98611 10.634H7.76062V11.6951C7.76062 11.6951 7.766 11.7922 7.77137 11.826C7.77675 11.8599 7.82672 11.9411 7.95607 11.9411L8.18978 11.9364V11.8004C8.18978 11.8004 8.12653 11.8048 8.08826 11.8048C8.05 11.8048 8.00256 11.8023 7.99339 11.7368C7.98791 11.6893 7.98506 11.6414 7.98485 11.5936V10.9686H8.23975V10.8326H7.98485V10.634" fill="black"/>
<path d="M10.1639 11.9413H10.3894V10.8328H10.1639V11.9413Z" fill="black"/>
<path d="M10.1639 10.6965H10.3894V10.4954H10.1639V10.6965Z" fill="black"/>
<path d="M11.1026 10.8232C11.256 10.8232 11.3752 10.8574 11.4391 10.9093C11.503 10.9611 11.583 11.0706 11.583 11.3871C11.583 11.7037 11.5036 11.8128 11.4391 11.8647C11.3746 11.9166 11.256 11.951 11.1026 11.951C10.9492 11.951 10.83 11.9166 10.7655 11.8647C10.7009 11.8128 10.6222 11.7034 10.6222 11.3871C10.6222 11.0709 10.7009 10.9611 10.7655 10.9093C10.83 10.8574 10.9486 10.8232 11.1026 10.8232ZM10.947 11.0358C10.9154 11.074 10.878 11.1544 10.878 11.3871C10.878 11.6199 10.9157 11.6999 10.947 11.7382C10.991 11.7789 11.0488 11.8014 11.1088 11.8014C11.1687 11.8014 11.2265 11.7789 11.2705 11.7382C11.3021 11.6999 11.3395 11.6196 11.3395 11.3871C11.3395 11.1547 11.3015 11.074 11.2705 11.0358C11.2265 10.9951 11.1687 10.9725 11.1088 10.9725C11.0488 10.9725 10.991 10.9951 10.947 11.0358" fill="black"/>
<path d="M12.0504 10.9887L12.2718 10.9795C12.3296 10.9795 12.3983 10.995 12.4299 11.0367C12.4656 11.0831 12.4835 11.1408 12.4802 11.1993V11.9403H12.706V11.1813C12.706 11.0374 12.6617 10.9539 12.5956 10.9014C12.5007 10.8264 12.3312 10.8337 12.3312 10.8337L11.8252 10.8429V11.9409H12.0491V10.9887" fill="black"/>
<path d="M9.71362 10.634H9.48907V11.6951C9.48907 11.6951 9.49413 11.7922 9.49983 11.826C9.50552 11.8599 9.55454 11.9411 9.68452 11.9411L9.91824 11.9364V11.8004C9.91824 11.8004 9.85499 11.8048 9.8164 11.8048C9.77782 11.8048 9.73101 11.8023 9.72153 11.7368C9.71626 11.6893 9.71351 11.6414 9.7133 11.5936V10.9686H9.96631V10.8326H9.7133V10.634" fill="black"/>
<path d="M5.1948 11.1989C5.1981 11.1405 5.18025 11.0828 5.14452 11.0364C5.11289 10.9946 5.04363 10.9791 4.98639 10.9791L4.68879 10.9883V10.8419L5.04711 10.8327C5.04711 10.8327 5.21662 10.8254 5.31118 10.9004C5.37728 10.9529 5.42124 11.0364 5.42124 11.1803V11.9292L4.98892 11.9387C4.98892 11.9387 4.79315 11.9387 4.69448 11.8995C4.59581 11.8602 4.54584 11.753 4.54584 11.6041C4.54584 11.4602 4.5898 11.3767 4.6559 11.3242C4.75077 11.2489 4.92029 11.2565 4.92029 11.2565H5.05818V11.383H4.98069C4.92282 11.383 4.86305 11.3938 4.82984 11.4358C4.79511 11.4772 4.77806 11.5306 4.7824 11.5845C4.7824 11.6841 4.80169 11.7284 4.8485 11.7622C4.88993 11.7938 4.96393 11.7989 5.04679 11.7989L5.19575 11.79V11.1989" fill="black"/>
<path d="M8.99981 11.1989C9.0032 11.1405 8.98546 11.0828 8.94984 11.0364C8.91663 10.9946 8.84863 10.9791 8.79171 10.9791L8.49411 10.9883V10.8419L8.85211 10.8327C8.85211 10.8327 9.02131 10.8254 9.11619 10.9004C9.18229 10.9529 9.22625 11.0364 9.22625 11.1803V11.9292L8.79392 11.9387C8.79392 11.9387 8.59784 11.9387 8.49948 11.8995C8.40113 11.8602 8.35052 11.753 8.35052 11.6041C8.35052 11.4602 8.39512 11.3767 8.46058 11.3242C8.55546 11.2489 8.72529 11.2565 8.72529 11.2565H8.86318V11.383H8.7857C8.72782 11.383 8.66773 11.3938 8.63516 11.4358C8.60019 11.4771 8.58302 11.5305 8.5874 11.5845C8.5874 11.6841 8.6067 11.7284 8.6535 11.7622C8.69462 11.7938 8.76925 11.7989 8.8518 11.7989L9.00044 11.79V11.1989" fill="black"/>
<path d="M13.1158 11.9503C13.1671 11.9502 13.2168 11.9322 13.2563 11.8995C13.2958 11.8668 13.3227 11.8214 13.3325 11.7711C13.3423 11.7207 13.3343 11.6686 13.3098 11.6235C13.2854 11.5784 13.2461 11.5432 13.1985 11.5239C13.151 11.5046 13.0983 11.5023 13.0493 11.5176C13.0004 11.5328 12.9582 11.5646 12.9301 11.6075C12.9019 11.6504 12.8896 11.7017 12.8951 11.7527C12.9006 11.8037 12.9236 11.8512 12.9602 11.8871C13.0018 11.9278 13.0577 11.9505 13.1158 11.9503V11.9503ZM12.9324 11.7289C12.9324 11.6865 12.9471 11.6454 12.974 11.6126C13.0009 11.5797 13.0384 11.5573 13.08 11.549C13.1216 11.5407 13.1648 11.5471 13.2023 11.5671C13.2397 11.5871 13.269 11.6194 13.2853 11.6586C13.3015 11.6978 13.3037 11.7414 13.2914 11.7821C13.2791 11.8227 13.2531 11.8578 13.2178 11.8814C13.1825 11.9049 13.1402 11.9156 13.0979 11.9114C13.0557 11.9073 13.0162 11.8886 12.9862 11.8586C12.9691 11.8416 12.9556 11.8214 12.9464 11.7991C12.9372 11.7769 12.9324 11.753 12.9324 11.7289" fill="black"/>
<path d="M13.224 11.8327C13.222 11.8316 13.2204 11.8301 13.2192 11.8282C13.218 11.8263 13.2172 11.8242 13.217 11.822C13.2157 11.8158 13.215 11.8096 13.2148 11.8033V11.7717C13.2149 11.7605 13.2117 11.7495 13.2056 11.7401C13.2018 11.7351 13.1969 11.731 13.1914 11.7281C13.1987 11.7234 13.2049 11.7172 13.2097 11.71C13.2164 11.6988 13.2197 11.6858 13.2192 11.6727C13.2202 11.6602 13.2172 11.6476 13.2108 11.6368C13.2043 11.626 13.1947 11.6174 13.1832 11.6123C13.1684 11.6063 13.1526 11.6035 13.1367 11.6041H13.0228V11.8495H13.0658V11.748H13.1326C13.1416 11.7475 13.1506 11.7487 13.1591 11.7515C13.1637 11.7541 13.1674 11.758 13.1698 11.7626C13.1723 11.7672 13.1734 11.7725 13.1731 11.7777L13.1749 11.8169C13.1745 11.8233 13.1745 11.8298 13.1749 11.8362C13.1758 11.8393 13.1769 11.8424 13.1781 11.8454L13.18 11.8485H13.2271V11.834H13.224V11.8327ZM13.1749 11.6746C13.1757 11.6797 13.1751 11.6849 13.1733 11.6898C13.1716 11.6946 13.1687 11.699 13.1648 11.7024C13.1553 11.7082 13.1443 11.7111 13.1332 11.7107H13.0658V11.6411H13.1383C13.1463 11.6408 13.1543 11.6423 13.1617 11.6455C13.1667 11.6483 13.1709 11.6526 13.1735 11.6578C13.1762 11.663 13.1772 11.6688 13.1765 11.6746" fill="black"/>
<path d="M14.7306 10.6822C14.7338 10.8489 14.7256 10.9352 14.6696 11.0203C14.6202 11.0934 14.5225 11.1607 14.3065 11.1607L14.0386 11.1525C13.9966 11.1525 13.8868 11.1655 13.835 11.2214C13.7904 11.2689 13.7875 11.3049 13.7825 11.4327V11.8062H14.6936V11.99H13.6984H13.6509C13.6328 11.9906 13.6148 11.9874 13.598 11.9806C13.5812 11.9739 13.566 11.9637 13.5534 11.9508C13.5408 11.9378 13.5309 11.9224 13.5246 11.9055C13.5182 11.8885 13.5155 11.8704 13.5165 11.8524V11.5734C13.5209 11.2471 13.5447 11.2003 13.6155 11.1149C13.6645 11.056 13.7793 10.9899 13.9197 10.9827C13.9702 10.9793 14.0207 10.9785 14.0712 10.9805C14.125 10.982 14.1775 10.9836 14.2009 10.9836C14.3249 10.9852 14.3701 10.9624 14.4042 10.9178C14.4428 10.8676 14.4634 10.8087 14.4634 10.712C14.4634 10.6218 14.445 10.5358 14.4106 10.4963C14.3685 10.4504 14.329 10.4197 14.212 10.4197C13.9178 10.4197 13.5737 10.4264 13.5737 10.4264V10.2537C13.5737 10.2537 13.9099 10.2388 14.2528 10.2338C14.4662 10.2306 14.5836 10.2869 14.6433 10.365C14.7031 10.4431 14.7287 10.5231 14.7313 10.6829" fill="black"/>
</g>
<defs>
<clipPath id="clip0_659_15110">
<rect width="18" height="18" fill="white"/>
</clipPath>
</defs>
</svg>
