<svg width="18" height="18" viewBox="0 0 18 18" fill="none" xmlns="http://www.w3.org/2000/svg">
<g clip-path="url(#clip0_659_15136)">
<path d="M7.23512 1.46497C7.84393 1.57002 8.44234 1.72009 9.03785 1.87651C9.37852 1.9681 9.71826 2.06286 10.0558 2.16377C10.5861 2.3201 11.114 2.49711 11.5943 2.76108C11.8094 2.88201 12.016 3.01861 12.1926 3.18523C12.3839 3.3583 12.5405 3.56359 12.6555 3.78697C12.8649 4.19178 12.9366 4.64402 12.9578 5.08867C12.9678 5.37881 12.9671 5.67145 12.9086 5.95784C12.86 6.20671 12.7735 6.45212 12.6297 6.66829C12.5027 6.85925 12.3261 7.02433 12.1118 7.13072C11.9063 7.23328 11.6709 7.28215 11.4377 7.27782C11.0842 7.28128 10.7411 7.1769 10.4238 7.0402C10.4181 6.06347 10.423 5.08655 10.4213 4.10992C10.419 3.9332 10.432 3.75465 10.3936 3.58033C10.3666 3.44526 10.307 3.30914 10.1925 3.21746C10.1165 3.15406 10.0181 3.11828 9.91915 3.09894C9.81907 3.08134 9.71234 3.12068 9.6504 3.19504C9.5474 3.31414 9.52038 3.4723 9.51571 3.62054C9.51488 6.23538 9.51675 8.85032 9.51488 11.465C8.75496 11.2421 7.99493 11.019 7.23522 10.7954C7.23439 7.68523 7.2347 4.57515 7.23512 1.46497Z" fill="black"/>
<path d="M3.81943 8.08196C4.81017 7.75728 5.79988 7.42953 6.79104 7.10591C6.7926 7.46599 6.79104 7.82616 6.79166 8.18653C6.79104 8.2354 6.79447 8.28447 6.78781 8.33305C6.00441 8.5901 5.22256 8.85167 4.43988 9.11035C4.33138 9.14825 4.22007 9.19126 4.13641 9.26793C4.09744 9.30391 4.06574 9.35701 4.08705 9.40857C4.11386 9.46928 4.18079 9.50227 4.24252 9.52729C4.41421 9.59193 4.6019 9.60107 4.78482 9.60887C4.98872 9.60588 5.19346 9.59174 5.39321 9.55095C5.52821 9.52642 5.65812 9.48428 5.78678 9.43955C6.12122 9.32748 6.45566 9.21473 6.79062 9.10381C6.79312 9.40838 6.79104 9.71315 6.79166 10.018C6.79062 10.0789 6.79467 10.1402 6.78813 10.2009C6.37678 10.2693 5.96055 10.3158 5.54245 10.3218C4.70053 10.3394 3.85664 10.2188 3.05691 9.9752C2.7946 9.90488 2.53395 9.81127 2.31497 9.65706C2.19442 9.57067 2.08654 9.46206 2.03167 9.32844C1.98573 9.21531 1.98906 9.08457 2.04632 8.97538C2.10151 8.86648 2.19795 8.78038 2.30417 8.71352C2.54995 8.55643 2.821 8.43666 3.09568 8.32978C3.33232 8.23627 3.5778 8.16354 3.81943 8.08196Z" fill="black"/>
<path d="M11.791 7.67185C12.0157 7.6478 12.2418 7.64213 12.4677 7.63463C13.2109 7.63722 13.9578 7.72284 14.6687 7.92919C14.8081 7.96844 14.9432 8.01924 15.0822 8.06022C15.3298 8.14401 15.5778 8.2456 15.7761 8.41039C15.8953 8.51102 15.998 8.64656 15.9994 8.80135C16.0065 8.92728 15.9449 9.04811 15.8567 9.14104C15.6887 9.31535 15.4667 9.43512 15.2438 9.5396C15.0065 9.65158 14.7515 9.72382 14.5027 9.80906C12.9841 10.3138 11.4654 10.8184 9.94701 11.3237C9.9468 10.93 9.94743 10.5363 9.9468 10.1428C9.94909 10.1271 9.93974 10.0997 9.96374 10.0955C11.1192 9.71497 12.2744 9.33334 13.4296 8.95181C13.5858 8.89774 13.7541 8.85859 13.8867 8.76047C13.941 8.72102 13.9941 8.6583 13.9675 8.59067C13.9397 8.53151 13.8734 8.4987 13.8124 8.47427C13.6395 8.41087 13.4511 8.39856 13.2672 8.39384C12.9792 8.39567 12.6886 8.42857 12.4148 8.514C11.5918 8.78096 10.7702 9.05118 9.94701 9.31728C9.94712 8.89447 9.9468 8.47196 9.94722 8.04925C10.5428 7.85579 11.1647 7.73852 11.791 7.67185Z" fill="black"/>
<path d="M0 13.465V15.6831H0.393222V13.6775H0.756704C0.756704 13.6775 1.02105 13.6775 1.11137 13.7814C1.18848 13.8702 1.2028 14.0303 1.2028 14.139C1.2028 14.2477 1.19398 14.434 1.14772 14.4995C1.08108 14.6 0.970938 14.6199 0.872357 14.6199H0.632239V14.8169H0.977547C0.977547 14.8169 1.28926 14.828 1.42309 14.7082C1.58831 14.5626 1.62906 14.3632 1.62906 14.0987C1.62906 13.8561 1.52993 13.6135 1.32781 13.5329C1.15984 13.465 0.857487 13.465 0.857487 13.465H0" fill="black"/>
<path d="M1.93806 15.6831H2.32852V13.465H1.93585V15.6831H1.93806Z" fill="black"/>
<path d="M4.4212 13.9825L5.13991 15.6426L4.72741 16.5335H5.05344L6.24192 13.9825H5.87789L5.3602 15.2258L4.87831 13.9825H4.4212Z" fill="black"/>
<path d="M6.5389 15.67V15.4603C6.5389 15.4603 6.95415 15.4744 7.04061 15.4744C7.23282 15.4744 7.32809 15.4385 7.40024 15.3706C7.4432 15.3293 7.48175 15.1483 7.48175 15.0843C7.48216 14.9962 7.46768 14.9085 7.43879 14.8242C7.42069 14.7912 7.39291 14.7631 7.35834 14.7428C7.32377 14.7225 7.28366 14.7107 7.24218 14.7087C7.17058 14.7034 7.05989 14.6902 6.93047 14.6854C6.86204 14.6832 6.79486 14.6686 6.73309 14.6425C6.67133 14.6165 6.61629 14.5796 6.57139 14.534C6.51356 14.4743 6.43701 14.3841 6.43701 14.1075C6.43701 13.8309 6.51852 13.6751 6.60223 13.6033C6.68409 13.5389 6.78592 13.4975 6.89467 13.4844C6.98599 13.474 7.07795 13.4684 7.17003 13.4679L7.72076 13.482V13.6916C7.72076 13.6916 7.31928 13.6775 7.23337 13.6775C7.04116 13.6775 6.98389 13.7134 6.91174 13.7814C6.86398 13.8458 6.83783 13.9208 6.83629 13.9978C6.83406 14.0826 6.84669 14.1672 6.87374 14.2487C6.89177 14.2817 6.91952 14.3099 6.95409 14.3303C6.98867 14.3507 7.02881 14.3625 7.07035 14.3646C7.1414 14.3695 7.25264 14.3821 7.38151 14.3875C7.44995 14.3894 7.51719 14.4038 7.57899 14.4298C7.64079 14.4557 7.69581 14.4927 7.74059 14.5384C7.79842 14.5985 7.87552 14.7257 7.87552 15.0018C7.87552 15.2779 7.79346 15.4768 7.7103 15.5487C7.62838 15.6129 7.52655 15.6541 7.41786 15.6671C7.32566 15.6779 7.23276 15.6836 7.13974 15.684L6.53725 15.67" fill="black"/>
<path d="M8.68271 13.6776H8.29004V15.3056C8.29004 15.3056 8.2994 15.4546 8.30876 15.5065C8.31813 15.5585 8.40514 15.6832 8.63039 15.6832L9.03738 15.6759V15.4672C9.03738 15.4672 8.92723 15.474 8.8606 15.474C8.79396 15.474 8.71135 15.4701 8.69538 15.3697C8.68585 15.2967 8.68088 15.2233 8.68051 15.1499V14.191H9.1244V13.9824H8.68051V13.6776" fill="black"/>
<path d="M12.4751 15.6834H12.8678V13.9825H12.4751V15.6834Z" fill="black"/>
<path d="M12.4751 13.7736H12.8678V13.465H12.4751V13.7736Z" fill="black"/>
<path d="M14.1098 13.9677C14.3769 13.9677 14.5845 14.0201 14.6957 14.0996C14.807 14.1792 14.9463 14.3471 14.9463 14.8329C14.9463 15.3186 14.8081 15.486 14.6957 15.5656C14.5834 15.6452 14.3769 15.6981 14.1098 15.6981C13.8426 15.6981 13.635 15.6452 13.5227 15.5656C13.4103 15.486 13.2732 15.3181 13.2732 14.8329C13.2732 14.3476 13.4103 14.1792 13.5227 14.0996C13.635 14.0201 13.8415 13.9677 14.1098 13.9677ZM13.8388 14.2937C13.7837 14.3525 13.7187 14.4757 13.7187 14.8329C13.7187 15.19 13.7843 15.3128 13.8388 15.3715C13.9155 15.4339 14.0161 15.4686 14.1205 15.4686C14.2249 15.4686 14.3255 15.4339 14.4022 15.3715C14.4573 15.3128 14.5223 15.1895 14.5223 14.8329C14.5223 14.4762 14.4562 14.3525 14.4022 14.2937C14.3255 14.2313 14.2249 14.1967 14.1205 14.1967C14.0161 14.1967 13.9155 14.2313 13.8388 14.2937" fill="black"/>
<path d="M15.7603 14.2216L16.1458 14.2075C16.2466 14.2075 16.3661 14.2313 16.4212 14.2953C16.4834 14.3665 16.5145 14.4551 16.5087 14.5448V15.6817H16.9019V14.5171C16.9019 14.2963 16.8248 14.1682 16.7097 14.0877C16.5445 13.9727 16.2493 13.9838 16.2493 13.9838L15.3682 13.9979V15.6827H15.7581V14.2216" fill="black"/>
<path d="M11.6909 13.6776H11.2999V15.3056C11.2999 15.3056 11.3087 15.4546 11.3187 15.5065C11.3286 15.5585 11.4139 15.6832 11.6403 15.6832L12.0473 15.6759V15.4672C12.0473 15.4672 11.9371 15.474 11.8699 15.474C11.8027 15.474 11.7212 15.4701 11.7047 15.3697C11.6955 15.2967 11.6908 15.2233 11.6904 15.1499V14.191H12.131V13.9824H11.6904V13.6776" fill="black"/>
<path d="M3.82205 14.544C3.8278 14.4543 3.79672 14.3658 3.73449 14.2946C3.67942 14.2306 3.55881 14.2068 3.45912 14.2068L2.94089 14.2209V13.9962L3.56486 13.9821C3.56486 13.9821 3.86005 13.9709 4.02472 14.086C4.13983 14.1665 4.21638 14.2946 4.21638 14.5154V15.6645L3.46353 15.679C3.46353 15.679 3.12263 15.679 2.9508 15.6189C2.77897 15.5587 2.69196 15.3942 2.69196 15.1656C2.69196 14.9448 2.76851 14.8167 2.88361 14.7362C3.04883 14.6207 3.34402 14.6323 3.34402 14.6323H3.58414V14.8264H3.44921C3.34843 14.8264 3.24434 14.8429 3.18651 14.9075C3.12603 14.971 3.09635 15.0529 3.1039 15.1356C3.1039 15.2884 3.1375 15.3563 3.219 15.4083C3.29115 15.4568 3.42002 15.4646 3.56431 15.4646L3.82371 15.451V14.544" fill="black"/>
<path d="M10.448 14.544C10.4539 14.4544 10.423 14.3659 10.361 14.2946C10.3031 14.2306 10.1847 14.2068 10.0856 14.2068L9.56735 14.2209V13.9962L10.1908 13.9821C10.1908 13.9821 10.4854 13.9709 10.6506 14.086C10.7657 14.1665 10.8423 14.2946 10.8423 14.5154V15.6645L10.0894 15.679C10.0894 15.679 9.74799 15.679 9.57672 15.6189C9.40544 15.5587 9.31732 15.3942 9.31732 15.1656C9.31732 14.9448 9.39498 14.8167 9.50898 14.7362C9.6742 14.6207 9.96994 14.6323 9.96994 14.6323H10.2101V14.8264H10.0751C9.97434 14.8264 9.8697 14.8429 9.81298 14.9075C9.75209 14.9708 9.72218 15.0528 9.72982 15.1356C9.72982 15.2884 9.76341 15.3563 9.84492 15.4083C9.91652 15.4568 10.0465 15.4646 10.1902 15.4646L10.4491 15.451V14.544" fill="black"/>
<path d="M17.6157 15.6971C17.705 15.6968 17.7914 15.6693 17.8602 15.6191C17.9291 15.569 17.976 15.4993 17.993 15.422C18.01 15.3448 17.996 15.2647 17.9535 15.1956C17.9109 15.1264 17.8424 15.0723 17.7597 15.0427C17.677 15.0131 17.5851 15.0097 17.4998 15.0331C17.4146 15.0565 17.3412 15.1052 17.2922 15.171C17.2432 15.2368 17.2216 15.3156 17.2312 15.3938C17.2408 15.4721 17.2809 15.5449 17.3447 15.6C17.4171 15.6625 17.5144 15.6973 17.6157 15.6971V15.6971ZM17.2962 15.3574C17.2962 15.2923 17.3218 15.2291 17.3687 15.1788C17.4155 15.1284 17.4808 15.094 17.5532 15.0812C17.6257 15.0685 17.701 15.0783 17.7661 15.109C17.8313 15.1397 17.8824 15.1893 17.9107 15.2495C17.939 15.3096 17.9428 15.3765 17.9214 15.4389C17.8999 15.5012 17.8547 15.555 17.7932 15.5912C17.7318 15.6274 17.658 15.6437 17.5845 15.6374C17.5109 15.631 17.4421 15.6024 17.3899 15.5563C17.3602 15.5302 17.3366 15.4992 17.3206 15.4651C17.3045 15.4309 17.2962 15.3943 17.2962 15.3574" fill="black"/>
<path d="M17.8039 15.5166C17.8006 15.5149 17.7978 15.5125 17.7957 15.5096C17.7936 15.5068 17.7922 15.5035 17.7918 15.5001C17.7896 15.4907 17.7883 15.4811 17.788 15.4715V15.423C17.7882 15.4057 17.7826 15.3889 17.772 15.3744C17.7653 15.3668 17.7568 15.3605 17.7472 15.356C17.7599 15.3488 17.7708 15.3394 17.7792 15.3283C17.7908 15.311 17.7965 15.2912 17.7957 15.2711C17.7973 15.2518 17.7922 15.2325 17.781 15.216C17.7697 15.1994 17.7529 15.1862 17.7329 15.1784C17.7072 15.1692 17.6796 15.1649 17.6519 15.1658H17.4537V15.5423H17.5286V15.3866H17.6448C17.6604 15.3859 17.6761 15.3877 17.691 15.3919C17.6989 15.3959 17.7054 15.4019 17.7097 15.409C17.714 15.4161 17.7159 15.4241 17.7153 15.4322L17.7186 15.4923C17.7178 15.5022 17.7178 15.5121 17.7186 15.5219C17.7201 15.5267 17.7219 15.5314 17.7241 15.536L17.7274 15.5409H17.8094V15.5185H17.8039V15.5166ZM17.7186 15.274C17.7198 15.2818 17.7189 15.2898 17.7158 15.2973C17.7127 15.3047 17.7076 15.3114 17.701 15.3167C17.6844 15.3255 17.6652 15.3299 17.6459 15.3293H17.5286V15.2225H17.6547C17.6687 15.2221 17.6826 15.2244 17.6954 15.2293C17.7043 15.2337 17.7115 15.2403 17.7161 15.2482C17.7207 15.2561 17.7225 15.2651 17.7213 15.274" fill="black"/>
</g>
<defs>
<clipPath id="clip0_659_15136">
<rect width="18" height="18" fill="white"/>
</clipPath>
</defs>
</svg>
