<svg width="18" height="18" viewBox="0 0 18 18" fill="none" xmlns="http://www.w3.org/2000/svg">
<g clip-path="url(#clip0_659_15280)">
<path d="M17.3576 10.7789H17.4124V10.4203H17.5422V10.3738H17.2277V10.4203H17.3576V10.7789Z" fill="black"/>
<path d="M17.6474 10.4497L17.7565 10.7788H17.8108L17.9199 10.4497V10.7788H17.9652V10.3737H17.8992L17.7856 10.7197L17.6681 10.3737H17.5926V10.7788H17.6474V10.4497ZM8.63681 9.80842V8.13345C8.63681 7.79175 8.79629 7.54706 9.13643 7.54706H11.2345C11.2473 7.54706 11.2597 7.53432 11.2597 7.52169V7.18843C11.2596 7.1855 11.2589 7.18262 11.2578 7.17993H8.69241C8.13636 7.25062 7.86473 7.63814 7.86473 8.13345V9.80836C7.86473 10.1501 7.70079 10.3948 7.36523 10.3948H5.14952C5.13695 10.3948 5.12432 10.4033 5.12432 10.4201V10.7534C5.12432 10.7672 5.13281 10.7779 5.14276 10.7813H7.65843C8.314 10.7641 8.63681 10.3455 8.63681 9.80842V9.80842ZM0.0170993 10.7813H0.753751C0.759312 10.7791 0.764066 10.7753 0.767366 10.7703C0.770666 10.7653 0.772351 10.7595 0.772191 10.7535V9.68605C0.772191 9.34435 0.965197 9.10803 1.24638 9.10803H4.28066C4.96473 9.10803 5.29632 8.68615 5.29632 8.13345C5.29632 7.63814 5.02497 7.25062 4.46864 7.17993H0.00346469C0.00217947 7.18273 3.91744e-07 7.1849 3.91744e-07 7.18843V7.52169C3.91744e-07 7.53856 0.00838206 7.54706 0.0251457 7.54706H4.02462C4.36459 7.54706 4.52407 7.79175 4.52407 8.13345C4.52407 8.47521 4.36459 8.7199 4.02462 8.7199H0.860312C0.369304 8.7199 3.91744e-07 9.13765 3.91744e-07 9.68605V10.7536C-5.54872e-05 10.7672 0.00586766 10.7779 0.0170993 10.7813Z" fill="black"/>
<path d="M11.2474 10.3949H15.2763C15.2887 10.3949 15.2971 10.4033 15.2971 10.4117V10.7535C15.2971 10.7704 15.3099 10.7788 15.3222 10.7788H16.0484C16.0613 10.7788 16.0735 10.7704 16.0735 10.7535V10.4202C16.0735 10.4075 16.0864 10.3949 16.0987 10.3949H16.8204C16.8373 10.3949 16.8456 10.3822 16.8456 10.3696V10.032C16.8456 10.0193 16.8373 10.0067 16.8204 10.0067H16.0987C16.0864 10.0067 16.0735 9.99399 16.0735 9.98148V7.54706C16.0735 7.34841 15.9997 7.2219 15.8756 7.17993H15.6655C15.6 7.19675 15.5288 7.22687 15.4525 7.27275L11.1131 9.95186C10.9452 10.0573 10.8864 10.1754 10.9284 10.264C10.962 10.34 11.0583 10.3949 11.2474 10.3949ZM11.8768 9.94761L15.2383 7.86769C15.2595 7.85081 15.3015 7.85506 15.3015 7.90144V9.98148C15.3015 9.99416 15.2887 10.0067 15.2763 10.0067H11.8976C11.8685 10.0067 11.8555 9.99841 11.8517 9.98986C11.8471 9.97293 11.8555 9.9603 11.8768 9.94761V9.94761Z" fill="black"/>
</g>
<defs>
<clipPath id="clip0_659_15280">
<rect width="18" height="18" fill="white"/>
</clipPath>
</defs>
</svg>
