<svg width="18" height="18" viewBox="0 0 18 18" fill="none" xmlns="http://www.w3.org/2000/svg">
<path fill-rule="evenodd" clip-rule="evenodd" d="M1.35 17C1.21366 17 1.08205 16.9802 0.957982 16.9433C0.801117 16.8967 0.656325 16.8229 0.529334 16.7275C0.434935 16.6565 0.350371 16.5736 0.277995 16.481C0.180631 16.3565 0.105324 16.2146 0.0577979 16.0608C0.0202101 15.9392 0 15.8101 0 15.6765V12.3162C0 12.04 0.223857 11.8162 0.5 11.8162H1.075C1.35114 11.8162 1.575 12.04 1.575 12.3162V14.9559C1.575 15.232 1.79886 15.4559 2.075 15.4559H5.29375C5.56989 15.4559 5.79375 15.6797 5.79375 15.9559V16.5C5.79375 16.7761 5.56989 17 5.29375 17H1.35ZM0 6.68382C0 6.95997 0.223858 7.18382 0.5 7.18382H1.075C1.35114 7.18382 1.575 6.95997 1.575 6.68382V4.04412C1.575 3.76797 1.79886 3.54412 2.075 3.54412H5.29375C5.56989 3.54412 5.79375 3.32026 5.79375 3.04412V2.5C5.79375 2.22386 5.56989 2 5.29375 2H1.35C1.21366 2 1.08205 2.01981 0.957983 2.05666C0.801117 2.10326 0.656325 2.17709 0.529334 2.27254C0.434935 2.3435 0.350371 2.42641 0.277995 2.51896C0.180632 2.64346 0.105324 2.78541 0.0577979 2.9392C0.0202101 3.06083 0 3.18987 0 3.32353V6.68382ZM12.2062 2.5C12.2062 2.22386 12.4301 2 12.7062 2H16.65C16.7863 2 16.918 2.01981 17.042 2.05666C17.1989 2.10326 17.3437 2.17709 17.4707 2.27254C17.5651 2.3435 17.6496 2.42641 17.722 2.51896C17.8194 2.64346 17.8947 2.78541 17.9422 2.9392C17.9798 3.06083 18 3.18987 18 3.32353V6.68382C18 6.95996 17.7761 7.18382 17.5 7.18382H16.925C16.6489 7.18382 16.425 6.95997 16.425 6.68382V4.04412C16.425 3.76798 16.2011 3.54412 15.925 3.54412H12.7062C12.4301 3.54412 12.2062 3.32026 12.2062 3.04412V2.5ZM17.5 11.8162C17.7761 11.8162 18 12.04 18 12.3162V15.6765C18 15.8101 17.9798 15.9392 17.9422 16.0608C17.8947 16.2146 17.8194 16.3565 17.722 16.481C17.6496 16.5736 17.5651 16.6565 17.4707 16.7275C17.3437 16.8229 17.1989 16.8967 17.042 16.9433C16.918 16.9802 16.7863 17 16.65 17H12.7062C12.4301 17 12.2062 16.7761 12.2062 16.5V15.9559C12.2062 15.6797 12.4301 15.4559 12.7063 15.4559H15.925C16.2011 15.4559 16.425 15.232 16.425 14.9559V12.3162C16.425 12.04 16.6489 11.8162 16.925 11.8162H17.5Z" fill="black"/>
<path d="M3.74989 5.94999C3.74989 5.83954 3.83944 5.74999 3.94989 5.74999H5.04989C5.16035 5.74999 5.24989 5.83954 5.24989 5.94999V13.05C5.24989 13.1605 5.16035 13.25 5.04989 13.25H3.94989C3.83944 13.25 3.74989 13.1604 3.74989 13.05V5.94999Z" fill="black"/>
<path d="M7.50011 5.94999C7.50011 5.83954 7.58965 5.74999 7.70011 5.74999H8.80011C8.91056 5.74999 9.00011 5.83954 9.00011 5.94999V13.05C9.00011 13.1605 8.91056 13.25 8.80011 13.25H7.70011C7.58965 13.25 7.50011 13.1604 7.50011 13.05V5.94999Z" fill="black"/>
<path d="M5.99989 5.94999C5.99989 5.83954 6.08944 5.74999 6.19989 5.74999H6.54989C6.66035 5.74999 6.74989 5.83954 6.74989 5.94999V13.05C6.74989 13.1605 6.66035 13.25 6.54989 13.25H6.19989C6.08944 13.25 5.99989 13.1604 5.99989 13.05V5.94999Z" fill="black"/>
<path d="M9.75004 5.94999C9.75004 5.83954 9.83959 5.74999 9.95004 5.74999H10.3C10.4105 5.74999 10.5 5.83954 10.5 5.94999V13.05C10.5 13.1605 10.4105 13.25 10.3 13.25H9.95004C9.83959 13.25 9.75004 13.1604 9.75004 13.05V5.94999Z" fill="black"/>
<path d="M11.25 5.94999C11.25 5.83954 11.3395 5.74999 11.45 5.74999H11.8C11.9105 5.74999 12 5.83954 12 5.94999V13.05C12 13.1605 11.9105 13.25 11.8 13.25H11.45C11.3395 13.25 11.25 13.1604 11.25 13.05V5.94999Z" fill="black"/>
<path d="M12.75 5.94999C12.75 5.83954 12.8395 5.74999 12.95 5.74999H14.05C14.1604 5.74999 14.25 5.83954 14.25 5.94999V13.05C14.25 13.1605 14.1604 13.25 14.05 13.25H12.95C12.8395 13.25 12.75 13.1604 12.75 13.05V5.94999Z" fill="black"/>
</svg>
