<svg width="18" height="18" viewBox="0 0 18 18" fill="none" xmlns="http://www.w3.org/2000/svg">
<path d="M5.18647 7.95707H3.33669V7.75507C3.40356 7.75318 3.48961 7.74654 3.59483 7.73516C3.70005 7.72378 3.77233 7.70766 3.81167 7.68679C3.87264 7.65076 3.91739 7.6095 3.94591 7.56303C3.97442 7.51656 3.98868 7.45824 3.98869 7.38806V4.45195H3.94443L2.51653 7.89164H2.36902L1.00897 4.38082H0.97062V6.7906C0.970619 7.02389 0.985861 7.20124 1.01635 7.32262C1.04683 7.44401 1.09354 7.53126 1.15648 7.58437C1.19975 7.6242 1.28924 7.66214 1.42495 7.69817C1.56066 7.73421 1.64917 7.75318 1.69047 7.75507V7.95707H0V7.75507C0.0885061 7.74749 0.181438 7.73326 0.278795 7.7124C0.376152 7.69153 0.451382 7.66024 0.504486 7.61851C0.573324 7.5654 0.620527 7.48384 0.646097 7.37384C0.671664 7.26383 0.684449 7.07985 0.684449 6.82189V4.75637C0.684449 4.63688 0.669698 4.5392 0.640196 4.46333C0.610693 4.38747 0.568407 4.32582 0.513337 4.2784C0.452365 4.22719 0.377627 4.18926 0.289121 4.1646C0.200614 4.13994 0.113091 4.12572 0.0265519 4.12192V3.91992H1.45445L2.65224 6.94708L3.67596 4.41496C3.71333 4.32203 3.74529 4.22482 3.77185 4.12334C3.79839 4.02187 3.81265 3.95407 3.81462 3.91992H5.18057V4.12192C5.1255 4.12382 5.05518 4.13236 4.96963 4.14753C4.88407 4.1627 4.82162 4.17693 4.78229 4.1902C4.71542 4.21297 4.67018 4.2509 4.64658 4.30401C4.62298 4.35712 4.61118 4.41497 4.61118 4.47756V7.38806C4.61118 7.45445 4.62298 7.5104 4.64658 7.55592C4.67018 7.60144 4.71542 7.64127 4.78229 7.67541C4.81769 7.69438 4.88063 7.71192 4.97111 7.72805C5.06158 7.74417 5.13336 7.75318 5.18647 7.75507V7.95707Z" fill="black"/>
<path d="M7.80484 7.90586C7.7124 7.93811 7.63127 7.96419 7.56145 7.9841C7.49163 8.00402 7.41246 8.01398 7.32396 8.01398C7.17055 8.01398 7.04811 7.97936 6.95666 7.91013C6.8652 7.8409 6.80669 7.7399 6.78112 7.60713H6.76342C6.63558 7.74369 6.49839 7.84801 6.35187 7.92009C6.20534 7.99216 6.02882 8.0282 5.8223 8.0282C5.60399 8.0282 5.42452 7.96371 5.28389 7.83474C5.14326 7.70576 5.07295 7.53695 5.07295 7.32831C5.07295 7.2202 5.08868 7.12347 5.12015 7.03812C5.15162 6.95277 5.19882 6.87595 5.26176 6.80767C5.31093 6.75077 5.37584 6.70003 5.45648 6.65546C5.53712 6.61088 5.61284 6.57532 5.68364 6.54877C5.77215 6.51652 5.95162 6.45678 6.22206 6.36953C6.49249 6.28228 6.67491 6.214 6.76932 6.16468V5.88302C6.76932 5.85836 6.76391 5.81095 6.75309 5.74077C6.74228 5.67059 6.71917 5.6042 6.68377 5.54161C6.64443 5.47144 6.58886 5.41027 6.51708 5.3581C6.44529 5.30595 6.34351 5.27987 6.21173 5.27986C6.12126 5.27987 6.03718 5.29457 5.95949 5.32396C5.8818 5.35337 5.82722 5.38419 5.79575 5.41643C5.79575 5.45436 5.8051 5.51032 5.82378 5.58429C5.84246 5.65826 5.8518 5.72654 5.85181 5.78913C5.8518 5.85552 5.82083 5.91621 5.75887 5.97122C5.69692 6.02622 5.61087 6.05373 5.50073 6.05372C5.40239 6.05373 5.33011 6.02006 5.28389 5.95272C5.23767 5.88539 5.21456 5.81 5.21456 5.72654C5.21456 5.63929 5.24652 5.55584 5.31044 5.47617C5.37436 5.39652 5.45746 5.32539 5.55973 5.26279C5.64824 5.20969 5.75543 5.16464 5.88131 5.12765C6.00718 5.09067 6.13011 5.07218 6.25008 5.07217C6.41529 5.07218 6.55936 5.08308 6.68229 5.10489C6.80521 5.12671 6.91683 5.17365 7.01714 5.24572C7.11744 5.3159 7.19366 5.41121 7.24578 5.53165C7.2979 5.6521 7.32396 5.80715 7.32396 5.99682C7.32396 6.26805 7.321 6.50846 7.31511 6.71805C7.3092 6.92763 7.30626 7.15666 7.30626 7.40513C7.30626 7.4791 7.31954 7.5379 7.34609 7.58153C7.37264 7.62515 7.41345 7.66214 7.46852 7.69248C7.49802 7.70955 7.54473 7.71904 7.60866 7.72093C7.67257 7.72283 7.73797 7.72378 7.80484 7.72378L7.80484 7.90586ZM6.77522 6.40367C6.60804 6.45109 6.46151 6.49756 6.33564 6.54308C6.20976 6.5886 6.09274 6.6455 5.98456 6.71378C5.88622 6.77827 5.80853 6.85461 5.7515 6.94281C5.69446 7.03101 5.66594 7.1358 5.66594 7.25719C5.66594 7.41462 5.70872 7.53031 5.79428 7.60429C5.87983 7.67826 5.9885 7.71524 6.12027 7.71524C6.25992 7.71524 6.38284 7.68253 6.48905 7.61709C6.59526 7.55165 6.68475 7.47436 6.75752 7.38522L6.77522 6.40367Z" fill="black"/>
<path d="M9.38769 6.58291C9.46833 6.65119 9.53029 6.7299 9.57356 6.81905C9.61682 6.90819 9.63846 7.01725 9.63846 7.14623C9.63846 7.40608 9.53766 7.61851 9.33607 7.78352C9.13447 7.94854 8.87337 8.03105 8.55278 8.03105C8.38364 8.03105 8.22777 8.00165 8.08518 7.94285C7.94258 7.88405 7.8408 7.82999 7.77983 7.78068L7.72082 7.96561H7.49956L7.47006 6.98975H7.67362C7.68935 7.06372 7.72279 7.15002 7.77393 7.24865C7.82506 7.34728 7.88702 7.43643 7.95979 7.51609C8.03649 7.59954 8.12844 7.66972 8.23563 7.72662C8.34283 7.78353 8.46329 7.81198 8.59704 7.81198C8.78585 7.81198 8.93139 7.77072 9.03367 7.68822C9.13594 7.60571 9.18708 7.48764 9.18708 7.334C9.18708 7.25434 9.17085 7.18559 9.1384 7.12774C9.10595 7.06989 9.05825 7.01915 8.99532 6.97553C8.93041 6.9319 8.85075 6.89255 8.75635 6.85746C8.66194 6.82237 8.55672 6.78775 8.44067 6.75361C8.34823 6.72706 8.24547 6.69055 8.13238 6.64408C8.01929 6.59761 7.92242 6.54308 7.84178 6.48048C7.75524 6.4141 7.68444 6.33254 7.62937 6.23581C7.5743 6.13908 7.54676 6.02527 7.54676 5.8944C7.54676 5.6649 7.63527 5.47049 7.81228 5.31116C7.98929 5.15184 8.22629 5.07218 8.52328 5.07217C8.63736 5.07218 8.75389 5.0864 8.87288 5.11485C8.99187 5.1433 9.08874 5.17745 9.16348 5.21727L9.23133 5.06933H9.44375L9.488 5.97122H9.28444C9.24313 5.77017 9.15413 5.60658 9.01744 5.48044C8.88075 5.35431 8.71406 5.29125 8.51738 5.29124C8.3561 5.29125 8.22924 5.33013 8.1368 5.40789C8.04436 5.48566 7.99814 5.57955 7.99814 5.68955C7.99814 5.77491 8.01339 5.84604 8.04387 5.90293C8.07436 5.95984 8.12008 6.0082 8.18106 6.04803C8.24006 6.08597 8.31431 6.12153 8.4038 6.15472C8.49329 6.18792 8.60392 6.22538 8.7357 6.2671C8.8655 6.30694 8.98794 6.35341 9.103 6.40651C9.21805 6.45962 9.31295 6.51842 9.38769 6.58291Z" fill="black"/>
<path d="M11.2449 7.83474C11.1171 7.88595 10.9961 7.9291 10.882 7.96419C10.768 7.99928 10.6283 8.01682 10.4631 8.01682C10.2192 8.01682 10.0476 7.95755 9.94829 7.839C9.84897 7.72046 9.79931 7.55307 9.79931 7.33685V5.43634H9.27417V5.16322H9.81111V4.28978H10.348V5.16322H11.183V5.43634H10.3539V7.00398C10.3539 7.12157 10.3584 7.21973 10.3672 7.29844C10.3761 7.37715 10.3972 7.44591 10.4307 7.50471C10.4621 7.55971 10.5093 7.60144 10.5723 7.62989C10.6352 7.65834 10.7198 7.67257 10.826 7.67257C10.8752 7.67257 10.9474 7.6683 11.0428 7.65976C11.1382 7.65123 11.2056 7.64032 11.2449 7.62705L11.2449 7.83474Z" fill="black"/>
<path d="M13.4945 7.29702C13.3726 7.52083 13.2093 7.69912 13.0048 7.83189C12.8002 7.96466 12.5652 8.03105 12.2997 8.03105C12.0656 8.03105 11.8606 7.99122 11.6846 7.91155C11.5085 7.83189 11.3635 7.72378 11.2494 7.58722C11.1353 7.45065 11.0503 7.29133 10.9942 7.10924C10.9381 6.92716 10.9101 6.73464 10.9101 6.53169C10.9101 6.34961 10.9401 6.17085 11.0001 5.9954C11.0601 5.81996 11.1481 5.66205 11.2641 5.5217C11.3763 5.38703 11.5154 5.27844 11.6816 5.19594C11.8478 5.11343 12.0342 5.07218 12.2407 5.07217C12.4531 5.07218 12.635 5.10442 12.7865 5.16891C12.9379 5.2334 13.0608 5.3216 13.1552 5.4335C13.2457 5.53972 13.3131 5.6649 13.3573 5.80905C13.4016 5.9532 13.4237 6.10968 13.4237 6.27848V6.46626H11.4972C11.4972 6.65024 11.5154 6.81715 11.5518 6.96699C11.5882 7.11683 11.6457 7.24865 11.7244 7.36245C11.8011 7.47246 11.9014 7.55924 12.0253 7.62278C12.1492 7.68632 12.2967 7.71809 12.4678 7.71809C12.6429 7.71809 12.7938 7.67873 12.9207 7.60002C13.0475 7.52131 13.17 7.37953 13.288 7.17468L13.4945 7.29702ZM12.8425 6.22727C12.8425 6.12106 12.8332 6.00726 12.8145 5.88586C12.7958 5.76448 12.7658 5.663 12.7245 5.58144C12.6793 5.4942 12.6173 5.42307 12.5386 5.36806C12.46 5.31306 12.3587 5.28556 12.2348 5.28555C12.0283 5.28556 11.8566 5.36854 11.72 5.5345C11.5833 5.70046 11.509 5.93139 11.4972 6.22727H12.8425Z" fill="black"/>
<path d="M15.4373 5.51316C15.4373 5.6099 15.4127 5.69572 15.3635 5.77064C15.3144 5.84556 15.2386 5.88302 15.1364 5.88302C15.0262 5.88302 14.9421 5.85552 14.8841 5.80051C14.8261 5.74551 14.7971 5.68482 14.7971 5.61843C14.7971 5.5767 14.8005 5.53877 14.8074 5.50463C14.8143 5.47049 14.8207 5.43635 14.8266 5.4022C14.7342 5.40221 14.626 5.43824 14.5021 5.51032C14.3782 5.58239 14.2729 5.68482 14.1864 5.81758V7.45065C14.1864 7.51704 14.1997 7.57109 14.2262 7.61282C14.2528 7.65455 14.2946 7.68584 14.3516 7.70671C14.4008 7.72568 14.4642 7.7399 14.5419 7.74938C14.6196 7.75887 14.6869 7.76551 14.744 7.7693V7.95707H13.2099V7.7693C13.2551 7.76551 13.3018 7.76171 13.35 7.75792C13.3982 7.75413 13.44 7.74654 13.4754 7.73516C13.5305 7.71809 13.5713 7.68822 13.5978 7.64554C13.6244 7.60286 13.6377 7.54738 13.6377 7.4791V5.74646C13.6377 5.68766 13.6234 5.62981 13.5949 5.57291C13.5664 5.51601 13.5265 5.47049 13.4754 5.43634C13.438 5.41359 13.3938 5.39699 13.3426 5.38655C13.2915 5.37612 13.2364 5.36901 13.1774 5.36522V5.18029L14.1451 5.11769L14.1864 5.15753V5.55299H14.2012C14.3231 5.39936 14.4588 5.28271 14.6083 5.20305C14.7578 5.12339 14.8945 5.08356 15.0184 5.08355C15.1423 5.08356 15.2431 5.12244 15.3208 5.2002C15.3984 5.27797 15.4373 5.38229 15.4373 5.51316Z" fill="black"/>
<path d="M2.61684 10.9626C2.70534 11.0574 2.77074 11.1613 2.81303 11.2741C2.85531 11.387 2.87645 11.5183 2.87646 11.6682C2.87645 12.0247 2.73976 12.3187 2.46638 12.5501C2.19299 12.7815 1.85372 12.8972 1.44856 12.8972C1.26171 12.8972 1.07486 12.8692 0.888016 12.8133C0.701168 12.7573 0.539889 12.6895 0.404179 12.6099L0.27732 12.8176H0.0413028L0 11.4349H0.238967C0.288138 11.6056 0.345666 11.7597 0.411554 11.8972C0.477441 12.0347 0.564476 12.1632 0.672651 12.2827C0.774923 12.3946 0.894405 12.4837 1.0311 12.5501C1.16779 12.6165 1.32661 12.6497 1.50756 12.6497C1.64327 12.6497 1.76177 12.6326 1.86306 12.5985C1.96435 12.5644 2.04646 12.516 2.1094 12.4534C2.17234 12.3908 2.21905 12.3173 2.24954 12.2329C2.28002 12.1485 2.29526 12.0513 2.29527 11.9413C2.29526 11.7801 2.24806 11.6297 2.15366 11.4903C2.05925 11.3509 1.91862 11.2452 1.73178 11.1731C1.60393 11.1238 1.4574 11.0693 1.29219 11.0095C1.12698 10.9498 0.984388 10.8934 0.864415 10.8402C0.628396 10.7378 0.44499 10.6036 0.314198 10.4377C0.183404 10.2717 0.118008 10.055 0.118008 9.78756C0.118008 9.63393 0.150461 9.49073 0.215366 9.35796C0.280271 9.22519 0.37271 9.10665 0.492686 9.00233C0.606759 8.9037 0.741486 8.82641 0.896864 8.77045C1.05224 8.7145 1.21451 8.68653 1.38365 8.68652C1.5764 8.68653 1.74898 8.71498 1.90141 8.77188C2.05384 8.82878 2.19299 8.89517 2.31887 8.97103L2.43983 8.77757H2.67584L2.69945 10.1176H2.46048C2.41721 9.96396 2.36853 9.81697 2.31444 9.67661C2.26035 9.53625 2.19004 9.40917 2.1035 9.29537C2.01893 9.18536 1.91567 9.09764 1.79373 9.0322C1.67179 8.96677 1.52231 8.93405 1.3453 8.93404C1.15845 8.93405 0.999138 8.9919 0.867363 9.10759C0.735586 9.2233 0.669699 9.3646 0.669701 9.53151C0.669699 9.70601 0.711984 9.85063 0.796557 9.96538C0.881129 10.0801 1.00406 10.1745 1.16534 10.2485C1.30891 10.3149 1.45003 10.3722 1.58869 10.4206C1.72735 10.469 1.86158 10.5206 1.9914 10.5756C2.1094 10.625 2.22298 10.6809 2.33215 10.7435C2.4413 10.8061 2.5362 10.8791 2.61684 10.9626Z" fill="black"/>
<path d="M2.47381 13.7308C2.47381 13.636 2.50086 13.5587 2.55494 13.499C2.60903 13.4392 2.6764 13.4093 2.75703 13.4093C2.81997 13.4093 2.87406 13.4207 2.9193 13.4435C2.96453 13.4662 3.00485 13.4956 3.04025 13.5317C3.06976 13.5601 3.10122 13.599 3.13466 13.6483C3.1681 13.6976 3.19465 13.7384 3.21432 13.7707C3.31266 13.7194 3.43017 13.5857 3.56687 13.3695C3.70356 13.1533 3.80239 12.9636 3.86336 12.8005C3.67652 12.351 3.50737 11.9489 3.35593 11.5942C3.20448 11.2395 3.04615 10.8725 2.88094 10.4931C2.84357 10.4059 2.78064 10.3381 2.69213 10.2897C2.60362 10.2414 2.51512 10.2105 2.42661 10.1973V10.0095H3.75421V10.2086C3.6952 10.2105 3.6244 10.2224 3.54179 10.2442C3.45918 10.266 3.41788 10.2911 3.41788 10.3196C3.41788 10.331 3.42231 10.3499 3.43116 10.3765C3.44001 10.4031 3.45034 10.4306 3.46214 10.459C3.53688 10.6468 3.65095 10.9175 3.80436 11.2713C3.95777 11.625 4.07676 11.9081 4.16134 12.1205C4.24984 11.9176 4.34179 11.7075 4.43718 11.4903C4.53257 11.2732 4.63927 11.0166 4.75728 10.7207C4.77104 10.6847 4.79071 10.6349 4.81628 10.5714C4.84185 10.5078 4.85464 10.4533 4.85464 10.4078C4.85464 10.3585 4.80989 10.3125 4.7204 10.2698C4.63091 10.2271 4.54585 10.2011 4.46521 10.1916V10.0095H5.54499V10.1859C5.48598 10.1954 5.40829 10.2281 5.31192 10.284C5.21554 10.34 5.14376 10.4192 5.09655 10.5216C4.8625 11.0451 4.65451 11.5221 4.47258 11.9527C4.29065 12.3832 4.15249 12.7 4.05808 12.9029C3.93417 13.1685 3.82354 13.3757 3.72618 13.5246C3.62882 13.6735 3.53392 13.7906 3.44149 13.8759C3.35101 13.9556 3.2689 14.0092 3.19514 14.0367C3.12139 14.0642 3.04517 14.0779 2.9665 14.0779C2.81309 14.0779 2.69262 14.0428 2.6051 13.9727C2.51758 13.9025 2.47381 13.8219 2.47381 13.7308Z" fill="black"/>
<path d="M6.96262 11.4405C7.04326 11.5088 7.10521 11.5875 7.14848 11.6767C7.19175 11.7658 7.21339 11.8749 7.21339 12.0039C7.21339 12.2637 7.11259 12.4762 6.91099 12.6412C6.70939 12.8062 6.4483 12.8887 6.12771 12.8887C5.95856 12.8887 5.80269 12.8593 5.6601 12.8005C5.51751 12.7417 5.41572 12.6876 5.35475 12.6383L5.29575 12.8233H5.07448L5.04498 11.8474H5.24855C5.26428 11.9214 5.29772 12.0077 5.34885 12.1063C5.39999 12.2049 5.46194 12.2941 5.53472 12.3737C5.61142 12.4572 5.70337 12.5274 5.81056 12.5843C5.91775 12.6412 6.03822 12.6696 6.17197 12.6696C6.36078 12.6696 6.50632 12.6284 6.60859 12.5459C6.71087 12.4634 6.762 12.3453 6.76201 12.1916C6.762 12.112 6.74578 12.0432 6.71333 11.9854C6.68087 11.9275 6.63318 11.8768 6.57024 11.8332C6.50534 11.7895 6.42568 11.7502 6.33127 11.7151C6.23686 11.68 6.13164 11.6454 6.0156 11.6113C5.92316 11.5847 5.8204 11.5482 5.7073 11.5017C5.59421 11.4553 5.49735 11.4007 5.41671 11.3381C5.33017 11.2717 5.25937 11.1902 5.2043 11.0935C5.14922 10.9967 5.12169 10.8829 5.12169 10.752C5.12169 10.5225 5.21019 10.3281 5.38721 10.1688C5.56422 10.0095 5.80122 9.92982 6.09821 9.92982C6.21228 9.92982 6.32881 9.94405 6.44781 9.97249C6.5668 10.0009 6.66366 10.0351 6.7384 10.0749L6.80626 9.92697H7.01867L7.06293 10.8289H6.85936C6.81806 10.6278 6.72906 10.4642 6.59237 10.3381C6.45568 10.212 6.28899 10.1489 6.09231 10.1489C5.93103 10.1489 5.80417 10.1878 5.71173 10.2655C5.61929 10.3433 5.57307 10.4372 5.57307 10.5472C5.57307 10.6326 5.58831 10.7037 5.6188 10.7606C5.64928 10.8175 5.69501 10.8658 5.75598 10.9057C5.81499 10.9436 5.88923 10.9792 5.97873 11.0124C6.06821 11.0456 6.17884 11.083 6.31062 11.1247C6.44043 11.1646 6.56286 11.211 6.67793 11.2642C6.79298 11.3173 6.88788 11.3761 6.96262 11.4405Z" fill="black"/>
<path d="M8.81984 12.6924C8.69199 12.7436 8.57104 12.7867 8.45696 12.8218C8.34289 12.8569 8.20325 12.8745 8.03803 12.8745C7.79415 12.8745 7.62254 12.8152 7.52322 12.6966C7.4239 12.5781 7.37424 12.4107 7.37424 12.1945V10.294H6.8491V10.0209H7.38603V9.14742H7.92297V10.0209H8.75789V10.294H7.92887V11.8616C7.92887 11.9792 7.9333 12.0774 7.94215 12.1561C7.95101 12.2348 7.97215 12.3036 8.00558 12.3624C8.03705 12.4174 8.08425 12.4591 8.14719 12.4875C8.21013 12.516 8.2947 12.5302 8.40091 12.5302C8.45008 12.5302 8.52236 12.5259 8.61775 12.5174C8.71314 12.5089 8.7805 12.498 8.81984 12.4847L8.81984 12.6924Z" fill="black"/>
<path d="M11.0694 12.1547C10.9475 12.3785 10.7842 12.5568 10.5797 12.6895C10.3752 12.8223 10.1401 12.8887 9.8746 12.8887C9.64055 12.8887 9.43551 12.8489 9.25948 12.7692C9.08345 12.6895 8.9384 12.5814 8.82432 12.4449C8.71025 12.3083 8.62518 12.149 8.56913 11.9669C8.51308 11.7848 8.48505 11.5923 8.48505 11.3893C8.48505 11.2073 8.51505 11.0285 8.57503 10.853C8.63502 10.6776 8.72303 10.5197 8.83908 10.3793C8.95118 10.2447 9.09034 10.1361 9.25653 10.0536C9.42273 9.97107 9.60908 9.92982 9.8156 9.92982C10.028 9.92982 10.2099 9.96207 10.3614 10.0266C10.5128 10.091 10.6358 10.1792 10.7302 10.2911C10.8206 10.3974 10.888 10.5225 10.9323 10.6667C10.9765 10.8108 10.9986 10.9673 10.9986 11.1361V11.3239H9.07214C9.07214 11.5079 9.09034 11.6748 9.12672 11.8246C9.16311 11.9745 9.22064 12.1063 9.29931 12.2201C9.37601 12.3301 9.47632 12.4169 9.60023 12.4804C9.72414 12.544 9.87165 12.5757 10.0428 12.5757C10.2178 12.5757 10.3688 12.5364 10.4956 12.4577C10.6225 12.3789 10.7449 12.2372 10.8629 12.0323L11.0694 12.1547ZM10.4174 11.0849C10.4174 10.9787 10.4081 10.8649 10.3894 10.7435C10.3707 10.6221 10.3407 10.5206 10.2994 10.4391C10.2542 10.3518 10.1922 10.2807 10.1136 10.2257C10.0349 10.1707 9.9336 10.1432 9.8097 10.1432C9.60318 10.1432 9.43158 10.2262 9.29489 10.3921C9.15819 10.5581 9.08394 10.789 9.07214 11.0849H10.4174Z" fill="black"/>
<path d="M15.7677 12.8147H14.3487V12.6269C14.3939 12.6232 14.4396 12.6194 14.4858 12.6156C14.5321 12.6118 14.5729 12.6042 14.6083 12.5928C14.6633 12.5757 14.7042 12.5459 14.7307 12.5032C14.7573 12.4605 14.7705 12.405 14.7705 12.3367V10.8886C14.7705 10.6913 14.7238 10.5391 14.6304 10.432C14.537 10.3248 14.4204 10.2712 14.2808 10.2712C14.1844 10.2712 14.0939 10.2855 14.0094 10.3139C13.9248 10.3424 13.8471 10.3822 13.7763 10.4334C13.7193 10.4751 13.6716 10.5202 13.6332 10.5685C13.5949 10.6169 13.5659 10.6572 13.5462 10.6895V12.3083C13.5462 12.3747 13.558 12.4292 13.5816 12.4719C13.6052 12.5146 13.6455 12.5473 13.7026 12.57C13.7478 12.5871 13.7886 12.5999 13.825 12.6085C13.8614 12.617 13.9091 12.6231 13.9681 12.6269V12.8147H12.5785V12.6269C12.6238 12.6231 12.6675 12.6194 12.7098 12.6156C12.7521 12.6118 12.7909 12.6042 12.8263 12.5928C12.8814 12.5757 12.9222 12.5459 12.9488 12.5032C12.9753 12.4605 12.9886 12.405 12.9886 12.3367V10.8886C12.9886 10.6913 12.9419 10.5391 12.8485 10.432C12.755 10.3248 12.6385 10.2712 12.4989 10.2712C12.4025 10.2712 12.312 10.2859 12.2275 10.3153C12.1429 10.3447 12.0652 10.385 11.9944 10.4362C11.9373 10.478 11.8892 10.5249 11.8498 10.5771C11.8105 10.6292 11.781 10.6686 11.7613 10.6951V12.3026C11.7613 12.3671 11.7751 12.4211 11.8026 12.4648C11.8302 12.5084 11.8715 12.5416 11.9265 12.5644C11.9678 12.5833 12.0101 12.5975 12.0534 12.607C12.0967 12.6165 12.1448 12.6231 12.1979 12.6269V12.8147H10.7848V12.6269C10.83 12.6231 10.8767 12.6194 10.9249 12.6156C10.9731 12.6118 11.0149 12.6042 11.0503 12.5928C11.1054 12.5757 11.1462 12.5459 11.1727 12.5032C11.1993 12.4605 11.2126 12.405 11.2126 12.3367V10.5927C11.2126 10.532 11.1983 10.4775 11.1698 10.4291C11.1413 10.3808 11.1015 10.3395 11.0503 10.3054C11.0129 10.2826 10.9667 10.2641 10.9117 10.2499C10.8566 10.2357 10.7995 10.2267 10.7405 10.2229V10.0379L11.7141 9.97534L11.7554 10.0152V10.4163H11.7761C11.8252 10.3689 11.8852 10.313 11.956 10.2485C12.0268 10.184 12.0927 10.1318 12.1537 10.092C12.2225 10.0465 12.3086 10.0085 12.4118 9.97818C12.5151 9.94784 12.6267 9.93266 12.7467 9.93266C12.9355 9.93266 13.0978 9.9815 13.2335 10.0792C13.3692 10.1769 13.4665 10.2949 13.5255 10.4334C13.5963 10.367 13.6588 10.3087 13.7129 10.2584C13.767 10.2082 13.8383 10.1546 13.9268 10.0977C14.0015 10.0484 14.0895 10.0085 14.1908 9.97818C14.2921 9.94784 14.4047 9.93266 14.5286 9.93266C14.7745 9.93266 14.9692 10.0104 15.1128 10.166C15.2563 10.3215 15.3281 10.5605 15.3281 10.8829V12.3083C15.3281 12.3747 15.3399 12.4292 15.3635 12.4719C15.3871 12.5146 15.4274 12.5473 15.4845 12.57C15.5297 12.5871 15.5745 12.5999 15.6187 12.6084C15.663 12.617 15.7126 12.6231 15.7677 12.6269V12.8147Z" fill="black"/>
<path d="M18 10.6908H17.6096V10.6371C17.6216 10.6371 17.6388 10.6357 17.6609 10.6345C17.6831 10.6328 17.698 10.6303 17.7055 10.6267C17.7176 10.6192 17.7258 10.613 17.7303 10.6082C17.7349 10.6033 17.7371 10.5958 17.7371 10.5855V10.12H17.7202L17.4449 10.668H17.4088L17.1414 10.1097H17.1244V10.4853C17.1244 10.5218 17.1269 10.5495 17.1318 10.5684C17.1367 10.5874 17.1451 10.6016 17.1572 10.6113C17.1669 10.6168 17.1835 10.6225 17.2068 10.6283C17.2301 10.6341 17.2504 10.6371 17.2677 10.6371V10.6907H16.9123V10.6391C16.9244 10.6372 16.9422 10.6345 16.9659 10.6315C16.9896 10.6284 17.0075 10.6231 17.0195 10.6155C17.0323 10.6065 17.0409 10.5942 17.0455 10.5783C17.05 10.5625 17.0522 10.5329 17.0522 10.4896V10.1314C17.0522 10.1149 17.0494 10.1012 17.0438 10.0901C17.0381 10.0791 17.03 10.0695 17.0195 10.0612C17.0082 10.053 16.9941 10.047 16.9772 10.0432C16.9603 10.0393 16.9409 10.0368 16.9191 10.0354V9.98275H17.2328L17.4708 10.4699L17.6694 10.0705C17.6777 10.0533 17.6839 10.0369 17.688 10.0214C17.6922 10.006 17.6954 9.99306 17.6976 9.98275H18V10.0354C17.9872 10.0354 17.9708 10.0378 17.9509 10.0405C17.931 10.0432 17.9169 10.046 17.9086 10.0487C17.8973 10.0507 17.8902 10.0555 17.8872 10.0632C17.8841 10.0707 17.8826 10.0783 17.8826 10.0859V10.5854C17.8826 10.595 17.8842 10.6028 17.8872 10.6086C17.8902 10.6144 17.8973 10.6198 17.9086 10.6246C17.9161 10.6266 17.9291 10.6293 17.9475 10.6323C17.966 10.6354 17.9834 10.637 18 10.637L18 10.6908ZM16.7814 10.1871H16.7273C16.7198 10.1644 16.7045 10.136 16.6816 10.1019C16.6586 10.0679 16.6363 10.0488 16.6145 10.0447C16.5979 10.0432 16.5817 10.0423 16.5659 10.0416C16.5501 10.0416 16.537 10.0401 16.5264 10.0401H16.4712V10.5809C16.4712 10.5906 16.4729 10.5987 16.4762 10.6052C16.4796 10.6117 16.4873 10.6174 16.4994 10.6222C16.5069 10.6244 16.5208 10.6272 16.5411 10.631C16.5614 10.6349 16.5802 10.6367 16.5975 10.6367V10.6904H16.1992V10.6367C16.2143 10.6367 16.2327 10.6353 16.2545 10.6331C16.2763 10.6307 16.2906 10.6285 16.2974 10.6265C16.3087 10.6231 16.3162 10.6175 16.32 10.61C16.3237 10.6024 16.3256 10.5948 16.3256 10.5873V10.0403H16.2703C16.259 10.0403 16.244 10.0403 16.2252 10.0418C16.2064 10.0432 16.1921 10.0437 16.1823 10.0444C16.159 10.0478 16.1363 10.0669 16.1141 10.1016C16.0919 10.1364 16.077 10.1648 16.0695 10.1868H16.0153V9.98244H16.7814V10.1871Z" fill="black"/>
</svg>
