<svg width="18" height="18" viewBox="0 0 18 18" fill="none" xmlns="http://www.w3.org/2000/svg">
<path d="M3.53452 11.7638C3.20471 12.2116 2.89107 12.2957 2.72293 12.3895C2.55646 12.4833 2.37691 12.5302 2.1878 12.5302C1.65757 12.5302 1.24369 12.3572 0.946164 12.0128C0.648688 11.6668 0.5 11.1819 0.5 10.5529C0.5 9.80923 0.687587 9.17871 1.06428 8.65808C1.44093 8.13912 1.94054 7.88049 2.56293 7.88049C3.03506 7.88049 3.4214 8.01306 3.72373 8.27977C4.02605 8.54496 4.17646 8.96208 4.17646 9.52949H3.26297C3.26297 9.25784 3.20319 9.06711 3.08351 8.95718C2.96392 8.84886 2.79255 8.79389 2.56778 8.79389C2.20078 8.79389 1.91786 8.97334 1.71577 9.33064C1.51525 9.6896 1.41344 10.097 1.41344 10.5544C1.41344 10.8665 1.47978 11.122 1.60907 11.3191C1.74002 11.5181 1.93564 11.6167 2.19598 11.6167C2.46754 11.6167 2.67776 11.5391 2.82973 11.3854C2.98004 11.2335 3.09159 11.0362 3.16278 10.7953H2.31234L2.44981 9.96757H4.10851L3.9679 10.7695C3.96785 10.7696 3.86267 11.3161 3.53452 11.7638V11.7638Z" fill="black"/>
<path d="M7.42597 16.5234C7.09783 16.9713 6.78252 17.0553 6.61605 17.1491C6.44791 17.2429 6.27002 17.2898 6.07925 17.2898C5.54902 17.2898 5.13514 17.1168 4.83766 16.7708C4.5418 16.4265 4.39307 15.9398 4.39307 15.3125C4.39307 14.5687 4.58065 13.9367 4.95725 13.4177C5.33394 12.8987 5.83356 12.6384 6.45438 12.6384C6.92803 12.6384 7.31447 12.7711 7.6168 13.0378C7.9175 13.3045 8.06943 13.72 8.06943 14.2875H7.15442C7.15442 14.0159 7.09455 13.8251 6.97491 13.7168C6.85689 13.6069 6.68395 13.5519 6.45918 13.5519C6.0938 13.5519 5.81093 13.7314 5.60884 14.0902C5.40675 14.4476 5.30651 14.8549 5.30651 15.3125C5.30651 15.6261 5.37118 15.8816 5.50213 16.0788C5.63309 16.276 5.82871 16.3747 6.089 16.3747C6.35904 16.3747 6.57078 16.2987 6.72113 16.1451C6.87154 15.9915 6.98309 15.7943 7.0558 15.5534H6.20379L6.34287 14.7257H8.00157L7.86092 15.5275C7.86087 15.5275 7.75578 16.0739 7.42597 16.5234V16.5234Z" fill="black"/>
<path d="M11.4209 7.99532L10.6788 12.4219H9.88014L10.5091 8.99116L9.1219 12.4219H8.46713L8.16485 8.99283L7.68787 12.4219H6.87952L7.61831 7.99532H8.75167L9.0055 11.1123L10.2795 7.98718L11.4209 7.99532Z" fill="black"/>
<path d="M12.2664 9.70905H13.5712L13.4353 10.5675H12.1306L11.9625 11.5101H13.4353L13.2898 12.4219H10.9682L11.7022 7.99048H13.9963L13.8557 8.90877H12.412L12.2664 9.70905Z" fill="black"/>
<path d="M5.31293 7.98718L3.52808 12.4219H4.39782L4.71636 11.5569H5.85453L5.9289 12.4219H6.77121L6.26679 7.98718H5.31293V7.98718ZM4.99282 10.8003L5.63951 9.03648L5.78986 10.8003H4.99282Z" fill="black"/>
<path d="M9.13164 14.4686H10.4347L10.3005 15.3254H8.99579L8.82604 16.268H10.3005L10.155 17.1814H7.83337L8.56736 12.7484H10.8615L10.7209 13.6666H9.2771L9.13164 14.4686Z" fill="black"/>
<path d="M12.0159 12.7468L10.231 17.1815H11.1024L11.4192 16.3166H12.559L12.6334 17.1815H13.4741L12.9697 12.7468H12.0159V12.7468ZM11.6973 15.5583L12.3424 13.7944L12.4944 15.5583H11.6973Z" fill="black"/>
<path d="M14.8224 14.6965L15.0164 13.6053H15.482C15.6534 13.6053 15.7811 13.636 15.8668 13.6975C15.9525 13.7604 15.9945 13.885 15.9945 14.0725C15.9945 14.2827 15.925 14.4379 15.7875 14.5414C15.6485 14.6448 15.4723 14.6965 15.2589 14.6965H14.8224V14.6965ZM14.297 12.7484L13.563 17.1814H14.4118L14.6964 15.4919H15.0893L15.7456 17.1814H16.7188L15.9913 15.3109C16.2452 15.1815 16.4634 14.9665 16.6153 14.7418C16.7738 14.5105 16.853 14.2406 16.853 13.9318C16.853 13.5131 16.7592 13.2124 16.5701 13.0264C16.3826 12.8405 16.1158 12.7484 15.7731 12.7484H14.297Z" fill="black"/>
<path opacity="0.7" d="M2.82638 2.73626C4.18442 1.17936 5.82053 0.345138 6.48177 0.868954C7.14139 1.39439 6.57554 3.08224 5.21588 4.63752C3.85784 6.19441 2.22173 7.02864 1.56211 6.50477C0.90087 5.97939 1.46839 4.29154 2.82638 2.73626Z" fill="black"/>
<path opacity="0.46" d="M8.22457 2.74108C9.61985 1.1955 11.2996 0.364458 11.9786 0.886657C12.656 1.40886 12.074 3.08539 10.6788 4.63097C9.28357 6.17816 7.60375 7.00915 6.92635 6.48696C6.249 5.96481 6.8294 4.28822 8.22457 2.74108Z" fill="black"/>
<path opacity="0.54" d="M13.4676 2.74108C14.8629 1.1955 16.5443 0.364458 17.2217 0.886657C17.8991 1.40886 17.317 3.08539 15.9234 4.63097C14.5282 6.17816 12.8468 7.00915 12.1694 6.48696C11.4921 5.96481 12.074 4.28822 13.4676 2.74108Z" fill="black"/>
</svg>
