<svg width="18" height="18" viewBox="0 0 18 18" fill="none" xmlns="http://www.w3.org/2000/svg">
<path d="M0 6.16511V6.68459H4.60069H5.06022C5.06022 6.40075 4.85496 6.16987 4.60069 6.16511H0ZM5.58733 6.16511V6.68459H8.91756V6.16511H5.58733ZM9.85824 6.16511C9.6015 6.16671 9.3933 6.39876 9.3933 6.68459H9.85824H10.3286H13.329V6.16511H9.86094H9.85824ZM14.2589 6.16511C14.0034 6.1683 13.7967 6.39975 13.7967 6.68459H14.2589H14.7292H17.0431H17.5243C17.5243 6.39777 17.3146 6.16511 17.0566 6.16511C17.0519 6.16511 17.0478 6.16495 17.0431 6.16511H14.2589ZM0 6.85775V8.39996H0.924463V6.85775H0ZM2.05707 6.85775V8.39996H2.98423V6.85775H2.05707ZM4.11683 6.85775V8.39996H5.05211V6.85775H4.11683ZM5.58733 6.85775V7.8453C5.59992 8.15375 5.88259 8.39996 6.22796 8.39996H8.91756V7.88048H6.72804C6.61338 7.88048 6.5226 7.78691 6.5226 7.67214V7.54227H8.75537V7.06608H6.72804C6.61338 7.06608 6.5226 6.97251 6.5226 6.85775H6.4361H5.58733ZM9.3933 6.85775V7.86154H9.39601C9.41629 8.14443 9.66298 8.37113 9.97447 8.39725V8.39996H12.7073V8.39725C13.0546 8.37474 13.329 8.08782 13.329 7.73437C13.329 7.36618 13.0319 7.06608 12.6641 7.06608C12.6605 7.06608 12.6568 7.06603 12.6533 7.06608H11.0557V7.54227H12.2099C12.3034 7.54227 12.3775 7.6192 12.3775 7.71273C12.3775 7.80626 12.3034 7.88048 12.2099 7.88048H10.4962C10.4027 7.88048 10.3286 7.80626 10.3286 7.71273V6.85775H9.3933ZM13.7967 6.85775V8.39996H14.7292V6.85775H13.7967ZM16.589 6.85775V7.31771H14.8941V7.92377H16.589V8.39996H17.5243V6.85775H16.589Z" fill="black"/>
<path d="M10.507 10.1214L10.1285 9.55322H11.1638L11.5423 10.1214H10.507Z" fill="black"/>
<path d="M12.8938 10.1214L13.2723 9.55322H14.3076L13.9291 10.1214H12.8938Z" fill="black"/>
<path d="M0 10.1214V9.60192H3.43024C3.68561 9.6053 3.89248 9.83668 3.89248 10.1214H3.43024H0Z" fill="black"/>
<path d="M4.93587 9.60463V9.60192H7.84983C8.10533 9.60511 8.31206 9.83657 8.31206 10.1214H8.13636H7.37678H7.15513H5.43865H4.93587H4.50608C4.50608 9.84854 4.69534 9.62575 4.93587 9.60463Z" fill="black"/>
<path d="M8.8662 10.1214V9.60192H9.79877V10.1214H8.8662Z" fill="black"/>
<path d="M14.6698 10.1214V9.60192H18V10.1214H14.6698Z" fill="black"/>
<path d="M0 11.8368V10.2946H0.932572V11.8368H0Z" fill="black"/>
<path d="M2.9572 11.1495V10.2946H3.89248V11.2605C3.89248 11.5623 3.63371 11.8091 3.3059 11.8341V11.8368H1.06232V11.3173H2.78961C2.88305 11.3173 2.9572 11.2431 2.9572 11.1495Z" fill="black"/>
<path d="M4.50608 11.8368V10.2946H5.43865V11.8368H4.50608Z" fill="black"/>
<path d="M7.37678 10.5868V10.2946H8.24989H8.31206V10.5732C8.31206 10.8524 8.13942 11.0911 7.89578 11.1901L8.53912 11.8368H7.42274L6.94969 11.3606H5.64679V10.7545H7.00375H7.20919C7.30056 10.7545 7.37401 10.6829 7.37678 10.5922V10.5868Z" fill="black"/>
<path d="M8.8662 11.8368V10.2946H9.79877V11.8368H8.8662Z" fill="black"/>
<path d="M11.6477 11.8368L10.6205 10.2946H11.6558L12.2181 11.1387L12.7803 10.2946H13.8156L12.7884 11.8368H12.683H11.7531H11.6477Z" fill="black"/>
<path d="M14.6698 11.2821V10.2946H15.6023C15.6023 10.4093 15.6958 10.5029 15.8105 10.5029H17.8351V10.9791H15.6023V11.109C15.6023 11.2237 15.6958 11.3173 15.8105 11.3173H18V11.8368H15.3104C14.965 11.8368 14.6824 11.5906 14.6698 11.2821Z" fill="black"/>
</svg>
