<svg width="18" height="18" viewBox="0 0 18 18" fill="none" xmlns="http://www.w3.org/2000/svg">
<path fill-rule="evenodd" clip-rule="evenodd" d="M17.5734 15.3163H17.4814V15.2844H17.7009V15.3163H17.6095V15.5643H17.5734V15.3163Z" fill="#231F20"/>
<path fill-rule="evenodd" clip-rule="evenodd" d="M17.8499 15.5643L17.7735 15.337V15.5643H17.7366V15.2844H17.7877L17.8683 15.5225L17.9489 15.2844H18V15.5643H17.9631V15.337L17.8867 15.5643H17.8499Z" fill="#231F20"/>
<path fill-rule="evenodd" clip-rule="evenodd" d="M0.0834344 12.9125C0.0834344 12.8152 0.0650333 12.6894 0.0220103 12.6365C0.303431 12.6365 0.91119 12.6384 1.17168 12.6384C1.77115 12.6384 2.67549 12.9711 2.67549 14.0927C2.67549 14.9251 2.03714 15.5454 1.17168 15.5454C0.981906 15.5454 0.257066 15.5432 0 15.5432C0.0526773 15.4458 0.0834344 15.3138 0.0834344 15.2097V12.9125ZM0.514405 15.2605C0.791136 15.2963 1.04649 15.3074 1.27767 15.2743C1.50136 15.2424 2.25253 15.0806 2.24784 14.0831C2.24344 13.1378 1.65966 12.9218 1.20984 12.8953C0.975051 12.8815 0.748471 12.8903 0.514405 12.9309V15.2605Z" fill="#231F20"/>
<path fill-rule="evenodd" clip-rule="evenodd" d="M2.92235 13.5297L3.35304 13.4625C3.35304 13.5506 3.35304 13.8092 3.35304 13.8417C3.46356 13.5688 3.80719 13.3493 4.29573 13.5394L4.18127 13.8393C3.73404 13.6272 3.35304 13.8133 3.35304 14.3098V15.3342C3.35304 15.3829 3.36353 15.4814 3.39283 15.5446H2.94535C2.99063 15.4888 3.01148 15.3829 3.01148 15.3342V13.8563C3.01148 13.7492 2.98973 13.5832 2.92235 13.5297Z" fill="#231F20"/>
<path fill-rule="evenodd" clip-rule="evenodd" d="M16.5391 13.7352C16.5391 13.7632 16.5391 14.9547 16.5391 15.0439C16.5391 15.4545 16.8223 15.5643 17.032 15.5643C17.1208 15.5687 17.2463 15.548 17.3341 15.5285L17.3883 15.275C17.2858 15.314 17.1669 15.3233 17.0957 15.3233C16.9642 15.3233 16.869 15.236 16.869 15.0994C16.869 14.9769 16.8659 13.7759 16.869 13.7374H16.8676C16.8851 13.7374 17.1579 13.7365 17.1854 13.7374C17.275 13.7406 17.3437 13.7461 17.4028 13.7698L17.4032 13.531C17.4032 13.531 16.8792 13.5304 16.869 13.5304L16.8713 12.9179L16.4743 13.0276C16.5291 13.0788 16.5468 13.2287 16.5468 13.3274C16.5468 13.3274 16.5466 13.5104 16.5466 13.5325C16.5286 13.5325 16.3273 13.5334 16.2938 13.5334V13.7352C16.3289 13.7352 16.5392 13.7352 16.5392 13.7352" fill="#231F20"/>
<path fill-rule="evenodd" clip-rule="evenodd" d="M14.8235 15.1189C14.994 15.2409 15.2618 15.349 15.4582 15.349C15.7307 15.349 15.9257 15.2165 15.9257 14.967C15.9257 14.5066 14.8757 14.5827 14.8757 13.9986C14.8757 13.6035 15.229 13.4549 15.5656 13.4549C15.6738 13.4549 15.9207 13.4784 16.0779 13.5391L16.0766 13.8089C15.9372 13.6897 15.7243 13.6608 15.5839 13.6608C15.3611 13.6608 15.194 13.7713 15.194 13.988C15.194 14.3063 16.2429 14.2879 16.2429 14.9411C16.2429 15.3634 15.8769 15.5604 15.4742 15.5604C15.2779 15.5604 15.0734 15.5255 14.9029 15.4768L14.8235 15.1189Z" fill="#231F20"/>
<path fill-rule="evenodd" clip-rule="evenodd" d="M8.48636 13.7393C8.48636 13.7155 8.48722 13.5015 8.48722 13.4741L8.05111 13.5415C8.10371 13.5966 8.14393 13.7684 8.14393 13.8911V15.32C8.14393 15.3687 8.1231 15.4869 8.07782 15.5426H8.55333C8.50805 15.4869 8.48722 15.3687 8.48722 15.32V14.2448C8.48722 13.8514 8.73058 13.7139 8.97269 13.7139C9.19187 13.7139 9.38994 13.8088 9.38994 14.2448V15.32C9.38994 15.3687 9.36902 15.4869 9.32392 15.5426H9.78491C9.73972 15.4869 9.71889 15.3687 9.71889 15.32V14.2448C9.71889 13.8088 9.98841 13.7139 10.2078 13.7139C10.427 13.7139 10.6563 13.8514 10.6563 14.2448V15.32C10.6563 15.3687 10.6354 15.4869 10.5902 15.5426H11.0341C10.9889 15.4869 10.968 15.3687 10.968 15.32V14.0408C10.968 13.8227 10.7456 13.4734 10.2261 13.4734C9.92392 13.4734 9.74946 13.6078 9.61688 13.7235C9.50422 13.592 9.32076 13.4686 9.02598 13.4686C8.73871 13.4686 8.56913 13.637 8.48632 13.7393" fill="#231F20"/>
<path fill-rule="evenodd" clip-rule="evenodd" d="M7.4581 14.4097C7.39594 14.4681 7.26561 14.5136 7.13104 14.5313C6.77763 14.5776 6.47149 14.6364 6.47149 14.9806C6.47149 15.1848 6.69393 15.3456 6.87027 15.3456C7.3374 15.3456 7.4581 15.0087 7.4581 14.7432V14.4097ZM6.35479 13.5672C6.53301 13.4956 6.82065 13.4629 7.00106 13.4629C7.46179 13.4629 7.76775 13.693 7.76775 14.2274V15.1138C7.76775 15.278 7.77017 15.4335 7.82873 15.5426H7.45838L7.4451 15.3094C7.30475 15.4905 7.13743 15.5715 6.85295 15.5715C6.29192 15.5715 6.16942 15.1882 6.16942 15.0038C6.16942 14.3464 6.79513 14.3386 7.06689 14.2999C7.21717 14.2785 7.41074 14.2361 7.43979 14.0952C7.48777 13.862 7.32108 13.6872 6.98039 13.6872C6.73046 13.6872 6.52571 13.7631 6.35479 13.8655V13.5672ZM14.3144 14.4097C14.2521 14.4681 14.1218 14.5136 13.9872 14.5313C13.6338 14.5776 13.3277 14.6364 13.3277 14.9806C13.3277 15.1848 13.5502 15.3456 13.7266 15.3456C14.1937 15.3456 14.3144 15.0087 14.3144 14.7432V14.4097ZM13.211 13.5672C13.3893 13.4956 13.6769 13.4629 13.8573 13.4629C14.318 13.4629 14.6239 13.693 14.6239 14.2274V15.1138C14.6239 15.278 14.5882 15.43 14.6849 15.5426H14.3146L14.3013 15.3094C14.161 15.4905 13.9936 15.5715 13.7092 15.5715C13.1482 15.5715 13.0256 15.1882 13.0256 15.0038C13.0256 14.3464 13.6514 14.3386 13.9231 14.2999C14.0735 14.2785 14.267 14.2361 14.296 14.0952C14.3441 13.862 14.1773 13.6872 13.8367 13.6872C13.5867 13.6872 13.382 13.7631 13.211 13.8655V13.5672Z" fill="#231F20"/>
<path fill-rule="evenodd" clip-rule="evenodd" d="M12.8168 13.8389C12.6778 13.7578 12.4585 13.6934 12.3056 13.6934C11.7687 13.6934 11.5225 14.0237 11.5225 14.4994C11.5225 14.9706 11.763 15.3313 12.2883 15.3313C12.4683 15.3313 12.7135 15.2506 12.9036 15.1336L12.8262 15.4803C12.6326 15.5378 12.4695 15.5652 12.2535 15.5652C11.5154 15.5652 11.1695 15.0419 11.1695 14.4972C11.1695 13.8951 11.6336 13.4718 12.2614 13.4718C12.536 13.4718 12.7365 13.5391 12.8174 13.5622L12.8169 13.8389" fill="#231F20"/>
<path fill-rule="evenodd" clip-rule="evenodd" d="M4.55469 14.5246C4.55496 14.4748 4.56152 14.4273 4.56714 14.3815H5.99515C5.99515 13.8905 5.74981 13.4694 5.16803 13.4694C4.56425 13.4694 4.20588 13.9415 4.20588 14.5436C4.20588 15.0883 4.60492 15.5749 5.28836 15.5749C5.50447 15.5749 5.68516 15.5216 5.88016 15.4534L5.94881 15.1051C5.78211 15.2425 5.51241 15.3238 5.26906 15.3238C4.83169 15.3238 4.55271 15.0071 4.55469 14.5246ZM4.61224 14.1636C4.6586 13.9248 4.87958 13.6814 5.14413 13.6814C5.54823 13.6814 5.6653 13.9969 5.6653 14.1637C5.6653 14.1637 4.61224 14.1643 4.61224 14.1636Z" fill="#231F20"/>
<path opacity="0.63" fill-rule="evenodd" clip-rule="evenodd" d="M10.2856 2.55438C10.6825 2.614 11.0877 2.75264 11.2991 2.81723C11.7249 2.94746 12.4163 3.35192 12.6604 3.54602C12.7758 3.63776 13.0186 3.87805 13.1127 3.999C13.2042 4.11681 13.3792 4.37208 13.4909 4.52937C13.6685 4.78887 13.8778 5.17548 14.0553 5.53131C14.2535 5.92873 14.2672 6.04391 14.327 6.37611L14.4581 6.96195C14.4704 7.06316 14.4806 7.43469 14.2625 7.48681C14.0444 7.53886 13.843 7.4382 13.748 7.29128C13.6165 7.08778 13.6346 6.79886 13.4859 6.46829C13.3698 6.20104 13.3192 5.81272 13.1339 5.53339L12.9887 5.28777C12.7316 4.89215 12.4637 4.578 12.3039 4.37316C12.1633 4.20113 11.9004 3.96718 11.6513 3.80058C11.4209 3.66095 11.0487 3.50164 10.78 3.41967C10.6944 3.3918 10.3282 3.2841 10.1005 3.25378C9.79149 3.21906 9.58827 3.17027 9.29476 3.14951C8.93232 3.12399 8.75843 3.09169 8.28832 3.14662C8.11026 3.19497 7.82802 3.21409 7.57412 3.31124C7.369 3.39494 7.0838 3.53007 6.80427 3.69422C6.50355 3.85921 6.04695 4.19645 5.74425 4.48446C5.43911 4.81053 5.2865 4.98542 5.07614 5.39872C4.98288 5.60329 4.80268 5.91961 4.73005 6.14294C4.68046 6.36963 4.58574 6.79247 4.60172 6.99786C4.60883 7.36577 4.57664 7.44162 4.60432 7.74236C4.60531 8.01312 4.69417 8.20083 4.73114 8.42227C4.76279 8.57534 4.90965 9.10472 5.00038 9.22766C5.41322 10.1171 5.96731 10.5023 6.5849 10.7802C6.75889 10.8687 7.3036 11.0145 7.4612 11.0563C7.72988 11.1048 8.08347 11.1372 8.42379 11.1437C8.78179 11.1508 9.27536 11.1023 9.57482 10.992C9.89881 10.8728 10.2737 10.7034 10.2694 10.7081C10.4198 10.6252 10.6493 10.49 10.7207 10.4305C10.8589 10.3419 10.9421 10.3076 11.024 10.2224C11.1421 10.1191 11.2135 10.0596 11.303 9.93156C11.3528 9.85931 11.4319 9.74891 11.509 9.65124C11.5918 9.51539 11.6395 9.37225 11.7205 9.19529C11.8173 8.93334 11.8023 8.94597 11.8207 8.6678C11.838 8.58707 11.8188 8.31619 11.8042 8.27019C11.7606 8.02026 11.7759 7.79962 11.7187 7.55689C11.6415 7.22849 11.5772 6.9826 11.4786 6.66755C11.3857 6.3128 11.1133 5.98419 10.9088 5.74941C10.782 5.60391 10.389 5.26027 9.84369 5.04559C9.69009 4.99389 9.4387 4.93536 9.27915 4.90624C8.93846 4.87061 8.883 4.89342 8.55684 4.91732C8.44462 4.93691 8.18385 4.9902 8.08807 5.02384C7.80791 5.12226 7.70481 5.18486 7.41834 5.3603C7.28495 5.43768 7.18445 5.49695 7.04817 5.62476C6.9393 5.72551 6.86164 5.89652 6.7735 5.99692C6.65274 6.16116 6.51835 6.38034 6.42823 6.61658C6.33046 6.85165 6.29899 7.18259 6.31376 7.39553C6.31376 7.55782 6.35796 7.85493 6.37556 7.91995C6.39306 7.98507 6.43688 8.18677 6.44644 8.22727C6.45601 8.26768 6.56091 8.48118 6.57534 8.51203C6.63452 8.63794 6.7478 8.81897 6.93867 9.0037C7.07946 9.15758 7.35159 9.30848 7.55536 9.36692C7.73801 9.46723 8.04621 9.48418 8.21669 9.48454C8.30058 9.47948 8.51488 9.46623 8.62683 9.43945C8.85349 9.38505 8.89544 9.38352 9.12924 9.28204C9.33895 9.18473 9.48128 9.14973 9.62731 9.04185C9.62731 9.04185 9.82792 8.88462 9.91911 8.76972C9.96719 8.70901 10.0496 8.41992 10.0349 8.2408C10.0281 7.99555 10.0638 7.85645 10.0136 7.65477C9.96358 7.45308 9.87815 7.21919 9.78562 7.07505C9.6918 6.92921 9.49013 6.78697 9.26065 6.67376C9.13222 6.61026 8.82779 6.55147 8.69871 6.53621C8.45328 6.50718 8.24809 6.61839 8.12351 6.74576C8.01545 6.86931 7.80186 7.12576 7.88702 7.39094C7.96396 7.63088 8.05685 7.88658 8.41684 7.86765C8.66382 7.91905 8.94948 7.84437 9.04454 7.8882C9.18588 7.9684 9.2401 8.14546 9.18867 8.26892C9.15286 8.50706 8.92484 8.53565 8.68148 8.55368C8.46367 8.59014 7.91064 8.4836 7.78897 8.39251C7.70753 8.34406 7.58259 8.22761 7.49466 8.14906C7.43141 8.09251 7.35981 7.96641 7.31101 7.87585C7.25102 7.76455 7.22064 7.68265 7.20521 7.61012C7.1869 7.52408 7.14919 7.35972 7.16344 7.19538C7.17309 7.08452 7.20276 7.03735 7.23234 6.87527C7.29116 6.69154 7.36422 6.55163 7.48184 6.39235C7.635 6.23686 7.82957 6.05176 8.01942 5.96579C8.18692 5.87731 8.48025 5.84484 8.7457 5.86036C8.96102 5.88091 9.21583 5.90707 9.38423 5.96362C9.67241 6.06656 9.75477 6.08711 9.99145 6.2363C10.1914 6.36004 10.3926 6.58763 10.5047 6.77633C10.7435 7.26484 10.8805 7.80838 10.7809 8.54017C10.7728 8.66383 10.7342 8.78459 10.6571 8.94821C10.586 9.0993 10.4611 9.28303 10.2739 9.42148C10.1985 9.49131 10.0795 9.57719 9.9827 9.6275C9.84524 9.71095 9.75288 9.75434 9.60937 9.82641C9.48345 9.88557 9.3366 9.95322 9.1452 10.0064C8.93784 10.0884 8.77853 10.0919 8.51777 10.1307C8.26088 10.1951 7.55825 10.1491 7.13963 9.96449C6.85398 9.84435 6.5334 9.63265 6.28968 9.37449C6.1543 9.23272 6.0219 8.97518 5.98292 8.9226C5.78916 8.54999 5.7512 8.19958 5.72017 8.12597C5.67786 8.02594 5.65694 7.80161 5.62861 7.64819C5.59668 7.47626 5.61653 6.75485 5.79016 6.29177C5.88813 6.10741 5.9454 5.94307 6.0116 5.85666C6.13075 5.68727 6.18822 5.58147 6.28959 5.46132C6.44222 5.27613 6.55342 5.12505 6.70215 5.01862C7.08119 4.71031 7.3977 4.54787 7.82594 4.34437C8.35803 4.12773 8.51777 4.17255 9.02136 4.18059C9.24793 4.18257 9.57753 4.25374 9.7396 4.28323C10.0406 4.32326 10.2131 4.39579 10.4166 4.45262C10.6343 4.51333 10.7602 4.61038 10.9387 4.71835C11.0858 4.81332 11.2587 4.94339 11.373 5.04901C11.6654 5.26332 11.8065 5.48873 11.9857 5.76555C12.0181 5.812 12.231 6.26544 12.2649 6.39179C12.2806 6.45504 12.3287 6.63661 12.3596 6.74268C12.3993 6.91099 12.4186 7.06009 12.4629 7.24997C12.5027 7.44559 12.5701 7.81505 12.5995 8.16033C12.6486 8.45647 12.5698 9.06115 12.5232 9.24669C12.4197 9.59277 12.2386 10.0151 11.8808 10.4219C11.7289 10.6019 11.5674 10.7416 11.3807 10.8931C11.2379 11.0121 11.1156 11.0815 10.895 11.2131C10.5955 11.3918 10.3677 11.5059 9.94788 11.67C9.77696 11.7249 9.56164 11.797 9.32958 11.8451C8.87993 11.8865 8.41792 11.9264 7.91353 11.8664C7.40915 11.8065 6.90394 11.6644 6.60547 11.5727C6.44076 11.5109 6.12174 11.3771 5.98797 11.305C5.90092 11.2607 5.60914 11.0613 5.55962 11.0132C5.35965 10.8896 4.91208 10.4686 4.62316 10.0764C4.55985 9.95521 4.33219 9.59153 4.28285 9.43213C4.1516 9.16263 4.06007 8.83664 4.00629 8.69747C3.94956 8.37249 3.85387 8.16303 3.81634 7.83671C3.82066 7.75993 3.80101 7.57918 3.78351 7.47915C3.80902 7.25581 3.77495 7.04538 3.81932 6.80231C3.85828 6.5971 3.90979 6.51141 3.92205 6.32596C3.93406 6.24658 4.03615 6.008 4.06339 5.90185C4.14576 5.72694 4.16622 5.5828 4.27382 5.38752C4.42878 5.08293 4.5907 4.7326 4.83964 4.42655C4.91071 4.33176 5.11232 4.10399 5.18097 4.02507C5.34332 3.8629 5.43857 3.8372 5.62284 3.67429C5.64196 3.66229 5.76365 3.52349 5.89102 3.47585C6.10207 3.31278 6.28455 3.25298 6.48533 3.1046C6.88797 2.90407 7.03464 2.83644 7.43439 2.67012C7.6653 2.58766 7.98742 2.54222 8.1034 2.49719C8.32404 2.4835 8.54799 2.41305 8.77999 2.42711C9.04057 2.42459 9.30314 2.44325 9.5649 2.46699C9.74276 2.47807 9.97305 2.48664 10.2856 2.55439" fill="black"/>
</svg>
