<svg width="18" height="18" viewBox="0 0 18 18" fill="none" xmlns="http://www.w3.org/2000/svg">
<path opacity="0.63" fill-rule="evenodd" clip-rule="evenodd" d="M10.9004 3.21143C11.4436 3.29304 11.9983 3.48281 12.2878 3.57122C12.8705 3.74949 13.8169 4.30313 14.151 4.56883C14.3091 4.69441 14.6414 5.02332 14.7702 5.18888C14.8955 5.35014 15.1351 5.69957 15.2879 5.91488C15.531 6.27009 15.8175 6.7993 16.0605 7.28638C16.3319 7.83039 16.3505 7.98805 16.4325 8.44279L16.6119 9.24471C16.6287 9.38325 16.6426 9.89182 16.3441 9.96316C16.0456 10.0344 15.7698 9.89663 15.6398 9.69551C15.4598 9.41695 15.4846 9.02147 15.281 8.56897C15.1222 8.20314 15.0528 7.67159 14.7993 7.28923L14.6004 6.95301C14.2486 6.41147 13.8819 5.98145 13.6631 5.70106C13.4706 5.46558 13.1108 5.14532 12.7698 4.91727C12.4545 4.72614 11.9449 4.50808 11.5771 4.39587C11.4599 4.35772 10.9586 4.2103 10.647 4.1688C10.224 4.12126 9.94583 4.05447 9.54406 4.02606C9.04794 3.99113 8.8099 3.94691 8.16639 4.02211C7.92267 4.0883 7.53632 4.11447 7.18876 4.24744C6.90799 4.36202 6.5176 4.54699 6.13495 4.77169C5.72332 4.99753 5.09831 5.45916 4.68396 5.85341C4.26626 6.29974 4.05736 6.53914 3.76942 7.10489C3.64175 7.38491 3.39508 7.8179 3.29568 8.12362C3.22778 8.43391 3.09813 9.01271 3.12 9.29387C3.12973 9.79748 3.08567 9.90131 3.12357 10.313C3.12492 10.6836 3.24655 10.9405 3.29716 11.2437C3.34049 11.4532 3.54152 12.1778 3.66571 12.3461C4.23082 13.5636 4.98929 14.0908 5.83467 14.4712C6.07284 14.5925 6.81847 14.792 7.03419 14.8493C7.40198 14.9156 7.886 14.9599 8.35183 14.9689C8.84188 14.9786 9.5175 14.9122 9.92742 14.7613C10.3709 14.5981 10.884 14.3662 10.8781 14.3726C11.0841 14.2591 11.3982 14.0741 11.496 13.9926C11.6851 13.8713 11.799 13.8244 11.9111 13.7077C12.0728 13.5663 12.1706 13.4849 12.2931 13.3097C12.3612 13.2108 12.4695 13.0596 12.5751 12.9259C12.6884 12.74 12.7536 12.544 12.8645 12.3018C12.9971 11.9432 12.9765 11.9605 13.0016 11.5798C13.0253 11.4693 12.999 11.0985 12.9791 11.0355C12.9194 10.6934 12.9404 10.3914 12.8621 10.0591C12.7563 9.60957 12.6684 9.27297 12.5333 8.84172C12.4063 8.35612 12.0333 7.90631 11.7534 7.58492C11.5799 7.38576 11.042 6.91537 10.2955 6.62151C10.0852 6.55074 9.7411 6.47062 9.52268 6.43076C9.05634 6.38199 8.98042 6.41322 8.53396 6.44593C8.38034 6.47273 8.0234 6.54568 7.89229 6.59174C7.50879 6.72645 7.36766 6.81214 6.97553 7.0523C6.79293 7.15821 6.65537 7.23935 6.46882 7.4143C6.31979 7.55221 6.21349 7.7863 6.09285 7.92373C5.92754 8.14855 5.74358 8.44858 5.62021 8.77196C5.48639 9.09373 5.4433 9.54673 5.46353 9.83822C5.46353 10.0604 5.52403 10.4671 5.54812 10.5561C5.57207 10.6452 5.63207 10.9213 5.64515 10.9767C5.65824 11.0321 5.80183 11.3243 5.82159 11.3665C5.9026 11.5389 6.05767 11.7867 6.31894 12.0396C6.51165 12.2502 6.88415 12.4567 7.16309 12.5367C7.41311 12.6741 7.83498 12.6973 8.06834 12.6978C8.18317 12.6908 8.47653 12.6727 8.62976 12.636C8.94002 12.5616 8.99746 12.5595 9.31749 12.4206C9.60455 12.2874 9.79938 12.2394 9.99927 12.0918C9.99927 12.0918 10.2739 11.8766 10.3987 11.7193C10.4645 11.6362 10.5773 11.2404 10.5572 10.9953C10.5479 10.6596 10.5967 10.4691 10.5281 10.1931C10.4596 9.91699 10.3426 9.59683 10.216 9.39953C10.0876 9.1999 9.81149 9.00519 9.49737 8.85022C9.32156 8.7633 8.90485 8.68282 8.72816 8.66193C8.3922 8.6222 8.11133 8.77442 7.9408 8.94877C7.79288 9.11791 7.50051 9.46894 7.61708 9.83193C7.72239 10.1604 7.84955 10.5104 8.34232 10.4845C8.6804 10.5548 9.07142 10.4526 9.20155 10.5126C9.39502 10.6224 9.46924 10.8647 9.39884 11.0338C9.34982 11.3597 9.03769 11.3989 8.70458 11.4235C8.40642 11.4735 7.64941 11.3276 7.48287 11.2029C7.37139 11.1366 7.20036 10.9772 7.07999 10.8697C6.99342 10.7923 6.8954 10.6197 6.82862 10.4957C6.7465 10.3433 6.7049 10.2312 6.68379 10.132C6.65872 10.0142 6.60711 9.7892 6.62661 9.56424C6.63982 9.41249 6.68044 9.34792 6.72093 9.12606C6.80143 8.87456 6.90144 8.68304 7.06245 8.46501C7.27211 8.25217 7.53843 7.9988 7.79831 7.88112C8.0276 7.76 8.42911 7.71556 8.79248 7.7368C9.08722 7.76493 9.43602 7.80074 9.66653 7.87815C10.061 8.01906 10.1737 8.04719 10.4977 8.25141C10.7715 8.42079 11.0468 8.73232 11.2002 8.99062C11.5272 9.65932 11.7146 10.4033 11.5783 11.4051C11.5672 11.5743 11.5145 11.7396 11.4089 11.9636C11.3115 12.1704 11.1406 12.4219 10.8843 12.6114C10.7811 12.707 10.6182 12.8246 10.4857 12.8934C10.2976 13.0077 10.1712 13.0671 9.97471 13.1657C9.80235 13.2467 9.60133 13.3393 9.33933 13.4122C9.05549 13.5244 8.83743 13.5291 8.48048 13.5823C8.12884 13.6704 7.16704 13.6075 6.59402 13.3547C6.203 13.1903 5.76419 12.9005 5.43057 12.5471C5.24525 12.353 5.06401 12.0005 5.01065 11.9285C4.74543 11.4185 4.69347 10.9388 4.65099 10.8381C4.59308 10.7011 4.56445 10.3941 4.52566 10.1841C4.48195 9.94872 4.50913 8.96123 4.74679 8.32733C4.8809 8.07497 4.95929 7.85002 5.04991 7.73174C5.21301 7.49987 5.29168 7.35504 5.43044 7.19058C5.63937 6.93709 5.79159 6.73027 5.99518 6.58459C6.51402 6.16256 6.94727 5.9402 7.53347 5.66164C8.26181 5.3651 8.48048 5.42645 9.16981 5.43745C9.47995 5.44016 9.93112 5.53758 10.153 5.57795C10.565 5.63275 10.8011 5.73203 11.0798 5.80982C11.3777 5.89292 11.55 6.02577 11.7944 6.17356C11.9958 6.30357 12.2324 6.48162 12.3889 6.62619C12.789 6.91954 12.9823 7.2281 13.2275 7.60702C13.2719 7.67061 13.5633 8.2913 13.6097 8.46425C13.6312 8.55083 13.697 8.79936 13.7394 8.94457C13.7937 9.17496 13.8201 9.37905 13.8808 9.63896C13.9352 9.90675 14.0275 10.4125 14.0677 10.8851C14.135 11.2905 14.0271 12.1182 13.9633 12.3722C13.8216 12.8459 13.5737 13.424 13.084 13.9808C12.876 14.2273 12.655 14.4185 12.3994 14.6258C12.2039 14.7888 12.0365 14.8838 11.7346 15.0639C11.3246 15.3085 11.0127 15.4647 10.4381 15.6893C10.2041 15.7645 9.90938 15.8631 9.59172 15.9289C8.97622 15.9857 8.3438 16.0403 7.65336 15.9582C6.96295 15.8762 6.2714 15.6816 5.86284 15.5561C5.63738 15.4715 5.20068 15.2884 5.01758 15.1897C4.89841 15.1291 4.49902 14.8561 4.43122 14.7903C4.15749 14.621 3.54484 14.0448 3.14936 13.508C3.06269 13.342 2.75107 12.8442 2.68352 12.626C2.50386 12.2571 2.37857 11.8109 2.30495 11.6204C2.22729 11.1755 2.09631 10.8888 2.04495 10.4421C2.05086 10.337 2.02396 10.0896 2 9.95267C2.03493 9.64696 1.98828 9.35892 2.04902 9.02618C2.10235 8.74528 2.17286 8.62798 2.18965 8.37414C2.20608 8.26547 2.34582 7.9389 2.38312 7.7936C2.49587 7.55417 2.52387 7.35687 2.67116 7.08956C2.88328 6.67262 3.10492 6.19307 3.44568 5.77414C3.54297 5.64438 3.81894 5.3326 3.91291 5.22457C4.13515 5.00259 4.26553 4.96741 4.51776 4.74441C4.54393 4.72798 4.71051 4.53798 4.88485 4.47277C5.17375 4.24956 5.42355 4.16769 5.69838 3.96458C6.24953 3.6901 6.4503 3.59752 6.9975 3.36985C7.31358 3.25697 7.75451 3.19477 7.91327 3.13314C8.21529 3.11439 8.52185 3.01796 8.83942 3.03721C9.19611 3.03376 9.55553 3.0593 9.91383 3.09179C10.1573 3.10696 10.4725 3.11869 10.9003 3.21143" fill="black"/>
</svg>
