<svg width="18" height="18" viewBox="0 0 18 18" fill="none" xmlns="http://www.w3.org/2000/svg">
<path d="M2.09975 3.17244L2.57143 1.28573L3.0431 3.17244C3.14972 3.5989 3.46682 3.94133 3.88385 4.08034L5.14285 4.50001L3.88385 4.91968C3.46682 5.05869 3.14972 5.40112 3.0431 5.82758L2.57143 7.71429L2.09975 5.82758C1.99313 5.40112 1.67603 5.05869 1.259 4.91968L0 4.50001L1.259 4.08034C1.67603 3.94133 1.99313 3.5989 2.09975 3.17244Z" fill="#4E1ED9"/>
<path d="M4.65956 12.7022L5.14285 10.2857L5.62614 12.7022C5.72358 13.1894 6.09303 13.5768 6.57506 13.6973L8.35714 14.1429L6.57506 14.5884C6.09303 14.7089 5.72358 15.0963 5.62614 15.5836L5.14285 18L4.65956 15.5836C4.56212 15.0963 4.19268 14.7089 3.71065 14.5884L1.92857 14.1429L3.71065 13.6973C4.19268 13.5768 4.56212 13.1894 4.65956 12.7022Z" fill="#4E1ED9"/>
<path d="M9.98 5.01708L10.6071 0L11.2343 5.01708C11.4365 6.63458 12.6336 7.95034 14.2249 8.30395L17.3571 9.00001L14.2249 9.69606C12.6336 10.0497 11.4365 11.3654 11.2343 12.9829L10.6071 18L9.98 12.9829C9.77781 11.3654 8.58064 10.0497 6.98938 9.69606L3.85714 9.00001L6.98938 8.30395C8.58064 7.95034 9.77781 6.63458 9.98 5.01708Z" fill="#4E1ED9"/>
</svg>
