<svg width="18" height="12" viewBox="0 0 18 12" fill="none" xmlns="http://www.w3.org/2000/svg">
<path d="M0.799364 7.41458V3.76422H0.864097C0.977871 3.76422 1.17403 3.70597 1.31331 3.63413C1.44474 3.56617 1.66248 3.36423 1.66248 3.30986C1.66248 3.25161 1.70563 3.24385 1.77429 3.28851C1.99595 3.43802 2.37454 3.37394 2.60994 3.14676L2.70213 3.05745V3.12929C2.70213 3.17395 2.71194 3.20113 2.72763 3.20113C2.7394 3.20113 2.88456 3.17201 3.04542 3.13706L3.33966 3.07492L3.34947 2.9157C3.35535 2.82833 3.3632 2.75454 3.36908 2.74872C3.42597 2.70212 3.66332 2.61863 3.73983 2.61863C3.8791 2.61863 3.88499 2.62833 3.86929 2.81279L3.85556 2.97395L3.90068 2.9623C3.92618 2.95648 4.0988 2.91959 4.28516 2.87881L4.62059 2.80503L4.70691 2.84386C4.93838 2.94483 5.213 3.21084 5.35816 3.47491C5.41113 3.57005 5.52686 3.85548 5.52686 3.89043C5.52686 3.89043 5.4739 3.90014 5.40916 3.90596C4.98938 3.95062 4.53624 4.25158 4.36558 4.60108C4.27339 4.78748 4.24396 4.91952 4.25573 5.09233C4.27143 5.28844 4.33224 5.43212 4.45974 5.56998C4.65198 5.77386 4.8501 5.85929 5.17965 5.87483C5.29539 5.88065 5.38955 5.89424 5.38955 5.90589C5.38955 5.95832 5.31501 6.12142 5.28166 6.14278C5.26008 6.15637 5.12081 6.19909 4.97369 6.23986L4.70298 6.3117V7.13692L4.56175 7.27284C4.242 7.57574 3.84379 7.84952 3.40439 8.06504C3.13173 8.19902 2.67075 8.366 2.49224 8.39513L2.40789 8.40872L2.40397 9.51742L2.39808 10.6261L1.62324 10.8455C1.19757 10.9659 0.836635 11.0649 0.824865 11.0649C0.805249 11.0649 0.799364 10.3213 0.799364 7.41458ZM2.67663 6.45539C3.05326 6.26899 3.44166 5.97191 3.6339 5.72532C3.82025 5.48455 3.93795 5.18941 3.93795 4.96029C3.93795 4.84185 3.8948 4.6671 3.83987 4.56031C3.74767 4.37973 3.5162 4.3176 3.16115 4.37391C2.96695 4.40497 2.65898 4.49429 2.48243 4.56807L2.40789 4.59914L2.40397 5.58163C2.40004 6.12142 2.40201 6.56606 2.40593 6.56995C2.41574 6.5816 2.48439 6.55247 2.67663 6.45539Z" fill="black"/>
<path d="M4.8246 7.81845L4.83049 6.39714L5.43859 6.22821C5.77403 6.13501 6.04865 6.06123 6.05061 6.06317C6.05454 6.06705 6.06042 8.55823 6.0565 8.80677C6.0565 8.81842 6.03688 8.83589 6.01334 8.84172C5.98784 8.84948 5.71322 8.94268 5.40132 9.04753C5.08942 9.15433 4.83049 9.23976 4.82656 9.23976C4.82264 9.23976 4.82264 8.60095 4.8246 7.81845Z" fill="black"/>
<path d="M12.1356 9.1718C11.8531 9.06889 11.6863 8.90191 11.5863 8.61648C11.5274 8.4495 11.5235 8.1097 11.5765 7.90971C11.7295 7.34468 12.1179 6.88062 12.6789 6.59519C12.8339 6.51558 13.1693 6.38549 13.2184 6.38549C13.2282 6.38549 13.236 6.50781 13.236 6.66509V6.94469L13.134 6.9777C12.8653 7.06508 12.5416 7.2806 12.4023 7.46895C12.2415 7.68447 12.1375 7.95437 12.1375 8.16213C12.1395 8.53493 12.4886 8.69026 12.7731 8.44173C12.8555 8.36989 12.9575 8.21844 12.9359 8.19902C12.93 8.19319 12.6495 8.26504 12.4651 8.3194C12.4337 8.32911 12.4318 8.30969 12.4357 8.04174L12.4416 7.75437L13.0006 7.60486C13.3086 7.52331 13.5793 7.45535 13.6048 7.45535C13.644 7.45341 13.648 7.46118 13.648 7.55632C13.646 7.79321 13.6087 8.09028 13.5616 8.23979C13.4165 8.69221 13.0732 9.05918 12.6887 9.16986C12.5593 9.20675 12.2376 9.20869 12.1356 9.1718Z" fill="black"/>
<path d="M6.52532 8.49221C6.44294 8.47668 6.33309 8.44755 6.28012 8.42814L6.184 8.39319L6.17812 7.15634C6.1742 6.16414 6.16831 5.91948 6.14869 5.91948C6.13496 5.91948 5.98 5.95832 5.80541 6.00686C5.63083 6.0554 5.47978 6.09424 5.46801 6.09424C5.45821 6.09424 5.46997 6.03987 5.49351 5.97579L5.53667 5.85541L5.68771 5.80298C5.90153 5.7292 6.04473 5.63988 6.21343 5.4729C6.3684 5.32145 6.48217 5.13893 6.52729 4.97194L6.54886 4.88651L6.86665 4.73506C7.19424 4.57778 7.83372 4.34866 7.86119 4.37779C7.86903 4.3875 8.02792 4.6205 8.21428 4.89816C8.5556 5.40688 8.56737 5.43212 8.46536 5.43406C8.39082 5.43406 7.87884 5.61464 7.66699 5.71561C7.37078 5.85735 7.155 6.00104 6.99219 6.16802C6.70187 6.46704 6.68029 6.74664 6.93138 6.96411C7.07654 7.09226 7.20404 7.13304 7.45905 7.13109C7.62579 7.13109 7.71014 7.12139 7.83176 7.08644C8.00242 7.03595 8.36728 6.87285 8.54775 6.76412C8.61052 6.72722 8.66545 6.69616 8.6733 6.69616C8.67918 6.69616 8.68507 6.9777 8.68507 7.32332V7.95048L8.60268 8.03009C8.38298 8.23591 8.075 8.37571 7.6356 8.46503C7.37274 8.5194 6.74503 8.53493 6.52532 8.49221Z" fill="black"/>
<path d="M13.6087 8.45338C13.6087 8.4262 13.6303 8.32911 13.6597 8.23591C13.697 8.10776 13.7147 7.98155 13.7303 7.73496C13.7441 7.55244 13.748 7.3874 13.7402 7.36992C13.7323 7.34856 13.7068 7.33691 13.6676 7.33691H13.6087V7.20294C13.6087 7.09032 13.6146 7.06508 13.644 7.05731C13.7853 7.01459 14.5778 6.81266 14.6013 6.81266C14.6248 6.81266 14.6288 6.84567 14.6248 7.001L14.619 7.1874L14.3541 7.25924L14.0893 7.32915L14.0834 7.41264C14.0795 7.45924 14.0854 7.50584 14.0932 7.51361C14.1031 7.52331 14.2168 7.50196 14.3561 7.46312C14.4895 7.42623 14.6072 7.39516 14.615 7.39516C14.6229 7.39516 14.6288 7.44953 14.6248 7.51555L14.619 7.63593L14.4718 7.67865C14.3914 7.70195 14.2737 7.73496 14.2129 7.75243L14.0991 7.78544V7.88058C14.0991 7.93495 14.1011 7.97767 14.105 7.97767C14.105 7.97767 14.2188 7.9466 14.3541 7.90971C14.4895 7.87282 14.6052 7.84175 14.615 7.84175C14.6229 7.84175 14.6288 7.92912 14.6288 8.03398C14.6288 8.20096 14.6248 8.22814 14.5954 8.23785C14.4287 8.28639 13.644 8.50192 13.6283 8.50192C13.6166 8.50192 13.6087 8.48056 13.6087 8.45338Z" fill="black"/>
<path d="M14.7249 7.97184C14.719 7.39322 14.7229 7.3505 14.8171 7.05537C14.8661 6.90586 14.9132 6.76606 14.923 6.74276C14.9348 6.71169 14.9838 6.69033 15.129 6.64956C15.2349 6.62043 15.3232 6.60101 15.3291 6.6049C15.3369 6.61461 15.5919 7.12915 15.7959 7.54467C15.8705 7.69807 15.9254 7.82622 15.9195 7.83204C15.9136 7.83787 15.8273 7.86505 15.7292 7.89417C15.5527 7.94272 15.5488 7.94466 15.5233 7.90777C15.5076 7.88835 15.4801 7.85146 15.4605 7.82816L15.4232 7.78544L15.2565 7.82427C14.9191 7.90388 14.9505 7.88641 14.9034 8.02427C14.8602 8.1563 14.8426 8.1796 14.772 8.19708C14.7268 8.20679 14.7268 8.20484 14.7249 7.97184ZM15.2173 7.45341C15.2761 7.44176 15.3251 7.43011 15.331 7.42623C15.3428 7.41458 15.1937 7.14274 15.1741 7.14274C15.1662 7.14274 15.1506 7.17964 15.1388 7.22624C15.127 7.27089 15.1094 7.33303 15.0996 7.3641C15.0603 7.4806 15.0623 7.48254 15.2173 7.45341Z" fill="black"/>
<path d="M9.39125 7.88058C9.23432 7.85923 8.97538 7.80874 8.8773 7.77962L8.80276 7.75826V7.11944C8.80276 6.57772 8.79884 6.48257 8.7753 6.48257C8.75961 6.48257 8.73999 6.49034 8.73411 6.50199C8.72037 6.52335 8.40848 6.71557 8.3869 6.71557C8.37905 6.71557 8.37121 6.59713 8.37121 6.45151C8.37121 6.24763 8.37709 6.18938 8.39671 6.19715C8.40848 6.20103 8.5301 6.26899 8.66349 6.34471C9.04993 6.56412 9.37359 6.66897 9.61095 6.65344C9.7463 6.64373 9.80319 6.60102 9.80319 6.50976C9.80319 6.42238 9.73649 6.37578 9.42656 6.2418C8.93615 6.03016 8.76157 5.93696 8.64583 5.8224C8.58699 5.76415 8.51833 5.67872 8.49283 5.636L8.44967 5.55445L8.58895 5.52144C8.70076 5.49426 8.72626 5.48067 8.71841 5.45542C8.71449 5.43601 8.63014 5.30203 8.5301 5.1564C8.43202 5.01078 8.35159 4.87098 8.35159 4.84574C8.35159 4.82049 8.36532 4.75253 8.38298 4.69428C8.56737 4.07683 9.27355 3.63024 10.1857 3.56034C10.4486 3.53898 10.8762 3.59529 11.1724 3.69043L11.294 3.72927V4.32536C11.294 4.65351 11.2881 4.92729 11.2822 4.93311C11.2764 4.94088 11.243 4.93699 11.2097 4.92729C10.9076 4.83991 10.2838 4.78748 10.07 4.83214C9.92677 4.86127 9.85223 4.92534 9.87184 5.00301C9.90127 5.12145 10.0857 5.26126 10.6859 5.62047C10.8762 5.73308 11.0449 5.84958 11.0998 5.90589C11.2803 6.08841 11.3882 6.36801 11.4058 6.69616C11.4353 7.28643 11.1489 7.70195 10.6133 7.84369C10.4819 7.87864 10.3936 7.88641 9.98954 7.89223C9.73061 7.89418 9.46187 7.89029 9.39125 7.88058Z" fill="black"/>
<path d="M15.8097 7.35827L15.59 6.91168V6.56218L15.7802 6.50199L15.9686 6.4418L16.1471 6.61655C16.2451 6.71363 16.3334 6.79324 16.3413 6.79324C16.3491 6.79324 16.355 6.69422 16.355 6.57189C16.355 6.43597 16.3628 6.34471 16.3766 6.33695C16.3981 6.32335 16.8199 6.21074 16.8474 6.21074C16.8572 6.21074 16.865 6.52529 16.865 6.9078V7.60681L16.7571 7.63593C16.5355 7.70195 16.561 7.71166 16.3589 7.48448C16.2589 7.36992 16.1686 7.27866 16.1569 7.27866C16.1471 7.27866 16.1392 7.38545 16.1392 7.52914C16.1392 7.77185 16.1372 7.77962 16.0961 7.79127C16.0706 7.79709 16.0451 7.80292 16.0392 7.80292C16.0333 7.80292 15.9293 7.60292 15.8097 7.35827Z" fill="black"/>
<path d="M17.2181 7.07479C17.2181 6.84567 17.2122 6.65732 17.2044 6.65732C17.1946 6.65732 17.1396 6.67092 17.0808 6.68645C17.0219 6.70198 16.9651 6.71557 16.9572 6.71557C16.9494 6.71557 16.9454 6.59519 16.9474 6.44956L16.9533 6.18161L17.0808 6.1486C17.3907 6.06511 17.9616 5.91948 17.9812 5.91948C17.9969 5.91948 18.0027 5.99133 17.9988 6.17385L17.9929 6.42821L17.8321 6.47869L17.6693 6.52723V7.40876L17.4672 7.44953C17.3554 7.47283 17.2534 7.49225 17.2416 7.49225C17.224 7.49225 17.2181 7.37769 17.2181 7.07479Z" fill="black"/>
<path d="M12.877 7.19129C12.93 7.15439 13.1654 7.05537 13.2419 7.03789C13.3831 7.00489 13.2007 7.1175 13.0026 7.18352C12.8692 7.23012 12.8182 7.23206 12.877 7.19129Z" fill="black"/>
<path d="M11.7746 7.03207C11.7315 7.00488 11.6608 6.95246 11.6157 6.91557L11.5353 6.85149L11.5235 6.68257C11.4902 6.22627 11.2979 5.85735 10.9998 5.67483C10.9193 5.62629 10.8821 5.59134 10.8742 5.55445C10.8527 5.45154 10.837 4.9933 10.8566 4.98165C10.8821 4.96612 11.1999 5.03602 11.3038 5.08262C11.3529 5.10398 11.3941 5.11563 11.398 5.10786C11.4019 5.1001 11.4078 4.75448 11.4098 4.33896C11.4117 3.48073 11.3901 3.57976 11.6079 3.40695C12.0296 3.06521 12.5259 2.96619 13.0026 3.13123C13.4479 3.28462 13.8637 3.71373 14.0619 4.21857C14.1972 4.56613 14.2227 4.70788 14.2247 5.1234C14.2266 5.53503 14.2109 5.65542 14.1168 5.94473C14.0089 6.27093 13.8304 6.57189 13.6107 6.7913C13.493 6.90974 13.3576 7.01654 13.3439 7.00488C13.3302 6.98935 13.3184 6.78742 13.3164 6.52529L13.3145 6.26899L13.2615 6.28064C13.1105 6.31365 12.8221 6.4185 12.6573 6.50199C12.418 6.62237 12.2474 6.74276 12.0473 6.93304C11.959 7.01654 11.8805 7.08449 11.8707 7.08449C11.8609 7.08449 11.8178 7.06119 11.7746 7.03207ZM12.7868 5.77192C12.8712 5.71561 12.9398 5.62241 13.0045 5.48261C13.0712 5.33504 13.0791 5.03214 13.0222 4.85544C12.8574 4.35255 12.3494 4.28653 12.1179 4.73506C11.9355 5.09039 12.0296 5.5894 12.3141 5.7758C12.4573 5.87094 12.6475 5.869 12.7868 5.77192Z" fill="black"/>
<path d="M14.0756 6.79907C14.0972 6.768 14.1442 6.70975 14.1815 6.66897C14.2404 6.60102 14.2521 6.59519 14.2914 6.61655C14.3149 6.6282 14.3345 6.64956 14.3345 6.66121C14.3345 6.71169 14.2364 6.80683 14.1619 6.82819C14.0462 6.86314 14.0324 6.85926 14.0756 6.79907Z" fill="black"/>
<path d="M14.7857 6.31753C14.619 6.28064 14.4463 6.1952 14.3267 6.09035L14.2325 6.00686L14.2874 5.77386C14.3384 5.56222 14.3424 5.50591 14.3443 5.17194C14.3443 4.76418 14.3286 4.64574 14.2266 4.33507C14.1187 4.00887 13.9775 3.75839 13.7657 3.51374L13.6421 3.372L13.6538 3.24579C13.6578 3.17783 13.6676 3.1157 13.6735 3.10987C13.6793 3.10405 13.9618 3.01473 14.2992 2.91182L14.9132 2.72348L14.923 3.6749C14.9348 4.73506 14.9309 4.70788 15.0701 4.8302C15.2035 4.94476 15.3644 4.89428 15.4448 4.71176C15.4801 4.63409 15.4821 4.54672 15.4919 3.60112L15.5017 2.57397L16.0804 2.42446C16.3981 2.34291 16.6669 2.28077 16.6747 2.28854C16.6826 2.29631 16.6885 2.89629 16.6845 3.62053L16.6767 4.93894L16.6257 5.12728C16.5727 5.32145 16.4746 5.53309 16.3766 5.67483C16.2922 5.79133 16.0882 5.98356 15.9548 6.06511C15.6076 6.28258 15.1094 6.38937 14.7857 6.31753Z" fill="black"/>
<path d="M4.93838 5.7292C4.69121 5.64765 4.54801 5.53697 4.44601 5.35251C4.38324 5.23601 4.37932 5.22048 4.37932 5.03408C4.37932 4.84379 4.38128 4.83409 4.4617 4.67293C4.6559 4.28459 5.10511 4.01664 5.56806 4.01275C5.84661 4.01081 6.07219 4.09625 6.23893 4.26129C6.4037 4.42827 6.47432 4.64963 6.43313 4.86515C6.36055 5.22825 6.06631 5.54086 5.65633 5.69037C5.44644 5.76803 5.10904 5.78551 4.93838 5.7292Z" fill="black"/>
<path d="M0.644396 3.66325C0.487467 3.64189 0.265804 3.55257 0.126529 3.45355L0.0206017 3.37782L0.0264866 3.27491C0.0519876 2.87493 0.0598341 2.79144 0.0696422 2.79726C0.0774886 2.80114 0.193224 2.85745 0.328576 2.92347C0.681667 3.09434 0.789556 3.11764 0.887637 3.04191C0.934715 3.00502 0.9406 2.99143 0.932754 2.90794C0.919022 2.77008 0.846443 2.67882 0.616933 2.50795C0.507083 2.42446 0.352115 2.29631 0.27365 2.22058C0.0362947 1.99535 -0.0441316 1.77205 0.0225634 1.51187C0.101028 1.20702 0.356038 1.00703 0.744439 0.94878C0.917061 0.923538 1.14657 0.952664 1.38393 1.03227L1.51535 1.07499L1.50751 1.34682C1.50358 1.49633 1.4977 1.62449 1.49378 1.63031C1.48985 1.63614 1.43689 1.62449 1.37412 1.60313C1.20934 1.54488 0.9406 1.54488 0.864097 1.60118C0.81898 1.63419 0.80721 1.65944 0.803287 1.73322C0.795441 1.85555 0.832711 1.90215 1.15834 2.17981C1.48201 2.45358 1.5487 2.52737 1.60167 2.66523C1.71152 2.95648 1.65855 3.23026 1.45258 3.42637C1.26427 3.60888 0.936677 3.70403 0.644396 3.66325Z" fill="black"/>
<path d="M1.85864 3.22637L1.75075 3.17006L1.73898 2.94871C1.72721 2.70018 1.68601 2.5662 1.58401 2.43999L1.5232 2.36621L1.53693 2.16233C1.54478 2.04972 1.55851 1.95263 1.57028 1.94486C1.5997 1.92739 2.02145 1.82448 2.03322 1.83225C2.03911 1.83613 2.03911 1.92351 2.03322 2.0303C2.02537 2.13515 2.01949 2.31378 2.01753 2.4264C2.01557 2.60892 2.01949 2.6361 2.05676 2.67494C2.08618 2.706 2.11561 2.71571 2.15876 2.71183C2.25881 2.70212 2.28431 2.62834 2.3 2.28078C2.30785 2.11767 2.31962 1.93321 2.32746 1.87108L2.33923 1.75846L2.55501 1.7138C2.67467 1.6905 2.77275 1.67303 2.77667 1.67691C2.78844 1.68856 2.7394 2.63028 2.72175 2.73319C2.66486 3.04968 2.43339 3.24773 2.09403 3.27297C1.98026 3.28074 1.95475 3.27686 1.85864 3.22637Z" fill="black"/>
<path d="M2.8061 2.92541C2.81394 2.83609 2.8316 2.5196 2.84925 2.22058C2.86691 1.92156 2.88456 1.6672 2.88652 1.65555C2.90418 1.60313 3.48089 1.4808 3.62213 1.50216C3.76337 1.52158 3.9046 1.5973 3.96934 1.6905C4.02034 1.76234 4.02622 1.78564 4.02622 1.92739C4.02622 2.05748 4.01838 2.10214 3.97718 2.17981C3.9046 2.32155 3.7261 2.46718 3.48286 2.58562L3.27296 2.68659L3.26119 2.99725L3.06503 3.03997C2.77275 3.10405 2.79237 3.11376 2.8061 2.92541ZM3.39851 2.20893C3.66529 2.08466 3.66921 1.8672 3.40243 1.91185C3.31023 1.92739 3.30043 1.93515 3.28866 1.98758C3.26708 2.08272 3.26904 2.24971 3.29062 2.24971C3.30239 2.24971 3.34947 2.23223 3.39851 2.20893Z" fill="black"/>
<path d="M3.96934 2.61474C3.97915 2.38951 3.98503 2.36815 4.05173 2.23223C4.11842 2.10214 4.12431 2.07301 4.12431 1.93127C4.12431 1.807 4.1145 1.75652 4.07919 1.69244C4.05565 1.64779 4.03603 1.57788 4.03603 1.53517V1.46138L4.52251 1.35847C4.78929 1.30022 5.02469 1.24974 5.04627 1.24586C5.08354 1.23809 5.0855 1.24586 5.07569 1.42838L5.06588 1.61866L4.78733 1.67691C4.63433 1.70992 4.50682 1.73904 4.50094 1.74487C4.49701 1.75069 4.48524 1.79535 4.47936 1.84778C4.4617 1.9604 4.45974 1.95845 4.75791 1.8905C4.87364 1.86331 4.98742 1.83807 5.01292 1.83225C5.05607 1.82254 5.05803 1.82448 5.05215 1.93127L5.04627 2.04389L4.92857 2.06913C4.86384 2.08272 4.72848 2.11185 4.6304 2.13515L4.44797 2.17592V2.27107C4.44797 2.33514 4.45582 2.36621 4.47347 2.36621C4.48524 2.36621 4.61079 2.33902 4.75006 2.30796C4.8913 2.27495 5.00703 2.24971 5.01096 2.24971C5.02469 2.24971 5.01488 2.59144 5.00115 2.61086C4.99134 2.62833 4.03211 2.85163 3.97326 2.85163C3.96541 2.85163 3.96345 2.74484 3.96934 2.61474Z" fill="black"/>
<path d="M5.10707 2.40116C5.11296 2.29048 5.12473 2.13903 5.1365 2.06136C5.14827 1.9837 5.15415 1.86525 5.15219 1.79924C5.14631 1.63031 5.17573 1.21673 5.19535 1.17984C5.213 1.14683 5.45232 1.06334 5.6426 1.02451C5.70144 1.01286 5.81522 1.00703 5.89761 1.01091C6.06631 1.02062 6.18008 1.06722 6.25854 1.16236C6.38997 1.3177 6.33505 1.63614 6.14673 1.79535L6.07023 1.85943L6.20362 2.007C6.2762 2.08661 6.34289 2.15262 6.3527 2.15262C6.40763 2.15262 6.35074 2.24 6.20754 2.38174L6.04473 2.5429L5.87603 2.37203C5.78383 2.27883 5.67594 2.16427 5.63475 2.11961C5.59552 2.07301 5.55432 2.04195 5.54452 2.04777C5.53471 2.0536 5.52686 2.15651 5.52686 2.27883C5.52686 2.42252 5.51901 2.50407 5.50528 2.51378C5.47782 2.52931 5.17769 2.59727 5.13061 2.59921C5.10315 2.59921 5.09923 2.57591 5.10707 2.40116ZM5.64652 1.74487C5.68379 1.74487 5.81914 1.60313 5.84072 1.54099C5.88388 1.41478 5.80345 1.36236 5.64848 1.41673C5.57982 1.44003 5.56609 1.47498 5.56609 1.64584C5.56609 1.74875 5.57002 1.76623 5.59748 1.75652C5.61513 1.75069 5.63671 1.74487 5.64652 1.74487Z" fill="black"/>
</svg>
