<svg width="18" height="18" viewBox="0 0 18 18" fill="none" xmlns="http://www.w3.org/2000/svg">
<path opacity="0.18" d="M6.66046 13.5525L6.66532 13.4553L6.6798 13.3593L6.70353 13.2648L6.73628 13.1717L6.77793 13.0804L6.82823 12.9907L6.88697 12.9029L6.95377 12.8171L7.02852 12.7328L7.11098 12.6522L7.2008 12.5727L7.29786 12.4955L7.40192 12.422L7.51274 12.3508L7.63008 12.282L7.7536 12.2167L7.88317 12.1538L8.01867 12.0945L8.15963 12.0387L8.30592 11.9853L8.45744 11.9367L8.61371 11.8904L8.7746 11.8489L8.93988 11.8109L9.10955 11.7777L9.28279 11.748L9.45958 11.7219L9.64111 11.7018L9.82502 11.6851L10.0113 11.6721L10.2011 11.665L10.3934 11.6626C12.4543 11.6626 14.1285 12.5086 14.1285 13.5525C14.1285 14.5953 12.4543 15.4421 10.3934 15.4421C8.33132 15.4421 6.66046 14.5958 6.66046 13.5525Z" fill="black"/>
<path opacity="0.42" d="M0.0947266 10.2221L0.0993522 10.1296L0.113117 10.0382L0.13566 9.94801L0.166866 9.86021L0.206496 9.77241L0.254431 9.68698L0.310198 9.60392L0.373796 9.52205L0.444868 9.44256L0.523295 9.36543L0.608843 9.2895L0.701155 9.21712L0.80023 9.14593L0.905592 9.0783L1.01724 9.01304L1.13483 8.95015L1.25811 8.89083L1.38696 8.83387L1.52116 8.78048L1.66034 8.73065L1.8045 8.68437L1.95317 8.64047L2.10635 8.60132L2.26356 8.56454L2.42493 8.5325L2.58986 8.50402L2.75846 8.48029L2.93027 8.46012L3.10516 8.4447L3.2829 8.43283L3.46325 8.42571L3.64598 8.42334C5.61073 8.42334 7.19996 9.22898 7.19996 10.2221C7.19996 11.2188 5.61026 12.0209 3.64598 12.0209C1.68454 12.0209 0.0947266 11.2188 0.0947266 10.2221Z" fill="black"/>
<path opacity="0.51" d="M8.19142 9.41057L8.35896 9.39989L8.52424 9.38091L8.68691 9.35481L8.84697 9.3204L9.00395 9.27887L9.1582 9.23022L9.30889 9.17327L9.45601 9.11038L9.59958 9.04038L9.73959 8.96444L9.87485 8.88139L10.0066 8.79358L10.1335 8.69866L10.2557 8.59781L10.3732 8.49221L10.4847 8.38186L10.5927 8.26559L10.6936 8.14337L10.7897 8.0176L10.8798 7.88709L10.9641 7.75301L11.0412 7.61419L11.1124 7.47062L11.1765 7.32468L11.2346 7.17399L11.2856 7.02093L11.3283 6.86431L11.3651 6.70413L11.3936 6.54158L11.4138 6.37665L11.4256 6.20935L11.4304 6.04087C11.4304 4.17922 9.91876 2.6676 8.05699 2.6676C6.20768 2.6676 4.70555 4.15312 4.68372 5.99934C4.72726 5.99697 4.77081 5.99697 4.81767 5.99697C6.67897 5.99697 8.19095 7.50503 8.19095 9.37023L8.19142 9.41057Z" fill="black"/>
<path opacity="0.72" d="M14.7538 12.7435L14.9176 12.7328L15.0777 12.715L15.2367 12.6889L15.3922 12.6557L15.5452 12.6142L15.6947 12.5667L15.8419 12.5121L15.9854 12.4504L16.1254 12.3828L16.2607 12.308L16.3936 12.2273L16.5206 12.1419L16.6439 12.0494L16.7626 11.9521L16.8777 11.8488L16.9869 11.7409L17.0901 11.627L17.1897 11.5095L17.2823 11.3861L17.3701 11.2591L17.452 11.1286L17.5267 10.9934L17.5967 10.8534L17.6596 10.711L17.7154 10.565L17.764 10.4155L17.8067 10.2625L17.8411 10.107L17.8696 9.94923L17.8886 9.78787L17.9005 9.62531L17.9052 9.46039C17.9052 7.64621 16.4375 6.17493 14.6221 6.17493C12.8234 6.17493 11.3616 7.62366 11.3402 9.42005C11.3829 9.41768 11.4268 9.41767 11.4707 9.41767C13.2814 9.41767 14.7538 10.889 14.7538 12.7031V12.7435Z" fill="black"/>
</svg>
