<svg width="18" height="18" viewBox="0 0 18 18" fill="none" xmlns="http://www.w3.org/2000/svg">
<path d="M7.21528 4.73473C7.20111 4.81927 7.20584 4.9085 7.22473 5.00243C7.24834 5.09636 7.27668 5.18089 7.30501 5.25603C7.3428 5.34527 7.39002 5.4345 7.44198 5.52373L7.99926 6.58512C8.03232 6.65087 8.06066 6.72132 8.07955 6.79646C8.09844 6.86221 8.11261 6.94205 8.12205 7.03128C8.1315 7.12051 8.12678 7.21914 8.10789 7.32715L7.99926 7.94708C7.9662 8.08797 7.90953 8.21478 7.83396 8.32279C7.80091 8.36976 7.76312 8.41672 7.7159 8.45899C7.66867 8.50595 7.61672 8.54353 7.5506 8.5811C7.4892 8.61867 7.41836 8.64685 7.33807 8.66563C7.25779 8.68912 7.16805 8.69851 7.06888 8.69851H6.67216C6.57299 8.69851 6.48798 8.68912 6.41713 8.66563C6.34629 8.64215 6.2849 8.61397 6.23295 8.5811C6.181 8.54822 6.14321 8.50595 6.11015 8.45899C6.0771 8.41203 6.0582 8.36976 6.03931 8.32279C6.00153 8.21478 5.99209 8.08797 6.00625 7.94708L6.20933 6.79646H6.84691L6.64383 7.94708C6.6391 7.97526 6.64383 8.00344 6.64855 8.02692C6.658 8.04571 6.66744 8.06449 6.68633 8.08328C6.70522 8.10206 6.73356 8.10676 6.77134 8.10676H7.16805C7.20584 8.10676 7.2389 8.09737 7.26251 8.08328C7.28612 8.06449 7.30501 8.0504 7.31918 8.02692C7.33335 8.00344 7.34752 7.97526 7.35224 7.94708L7.45142 7.37881C7.46559 7.29428 7.46087 7.20505 7.44198 7.11112C7.41836 7.01719 7.39002 6.93266 7.36169 6.85751C7.32391 6.76828 7.27668 6.67905 7.22473 6.58982L6.67689 5.52843C6.64383 5.46268 6.61549 5.39223 6.5966 5.31709C6.57771 5.25134 6.56354 5.1715 6.55409 5.08227C6.54465 4.99303 6.54937 4.89441 6.56826 4.78639L6.67689 4.16647C6.70995 4.02557 6.76662 3.89877 6.84218 3.79075C6.87524 3.74379 6.91303 3.69682 6.96025 3.65456C7.00748 3.60759 7.05943 3.57002 7.12555 3.53245C7.18695 3.49957 7.25779 3.4667 7.33807 3.44791C7.41836 3.42443 7.50809 3.41504 7.60727 3.41504H8.00398C8.10316 3.41504 8.18817 3.42443 8.25901 3.44791C8.32986 3.4714 8.39125 3.49957 8.4432 3.53245C8.49515 3.57002 8.53293 3.60759 8.56599 3.65456C8.59433 3.70152 8.61794 3.74379 8.63684 3.79075C8.67462 3.89877 8.68406 4.02557 8.66989 4.16647L8.46682 5.31709H7.82924L8.03232 4.16647C8.03704 4.13829 8.03232 4.11011 8.0276 4.08663C8.01815 4.06784 8.00871 4.04906 7.98982 4.03027C7.97093 4.01148 7.94259 4.00679 7.90481 4.00679H7.50809C7.47031 4.00679 7.43725 4.01618 7.41364 4.03027C7.39002 4.04906 7.37113 4.06314 7.35697 4.08663C7.3428 4.11011 7.32863 4.13829 7.32391 4.16647L7.21528 4.73473Z" fill="black"/>
<path d="M9.22718 3.41504H9.86476L9.06188 7.94708C9.05716 7.97526 9.06188 8.00344 9.06661 8.02692C9.07605 8.04571 9.0855 8.06449 9.10439 8.08328C9.12328 8.10206 9.15162 8.10676 9.1894 8.10676H9.58611C9.62389 8.10676 9.65695 8.09737 9.68057 8.08328C9.70418 8.06449 9.72307 8.0504 9.73724 8.02692C9.75141 8.00344 9.76558 7.97526 9.7703 7.94708L10.5732 3.41504H11.2107L10.4079 7.94708C10.3748 8.08797 10.3181 8.21478 10.2426 8.32279C10.2095 8.36976 10.1717 8.41672 10.1245 8.45899C10.0773 8.50595 10.0253 8.54353 9.95921 8.5811C9.89781 8.61867 9.82697 8.64685 9.74669 8.66563C9.6664 8.68912 9.57667 8.69851 9.47749 8.69851H9.08078C8.9816 8.69851 8.89659 8.68912 8.82575 8.66563C8.7549 8.64215 8.69351 8.61397 8.64156 8.5811C8.58961 8.54822 8.55183 8.50595 8.51877 8.45899C8.48571 8.41203 8.46682 8.36976 8.44792 8.32279C8.41014 8.21478 8.4007 8.08797 8.41487 7.94708L9.22718 3.41504Z" fill="black"/>
<path d="M11.6452 3.41504H12.8401C12.9393 3.41504 13.0243 3.42443 13.0951 3.44791C13.166 3.4714 13.2274 3.49957 13.2793 3.53245C13.3313 3.57002 13.369 3.60759 13.4021 3.65456C13.4304 3.70152 13.4541 3.74379 13.4729 3.79075C13.5107 3.89877 13.5202 4.02557 13.506 4.16647L13.2415 5.64584C13.2085 5.78673 13.1518 5.91353 13.0762 6.02155C13.0432 6.06851 13.0054 6.11548 12.9582 6.15775C12.9109 6.20471 12.859 6.24228 12.7929 6.27985C12.7315 6.31742 12.6606 6.3456 12.5803 6.36439C12.5001 6.38787 12.4103 6.39726 12.3111 6.39726H11.7539L11.8578 5.80082H12.4151C12.4528 5.80082 12.4859 5.79143 12.5095 5.77734C12.5331 5.75855 12.552 5.74446 12.5662 5.72098C12.5803 5.6975 12.5945 5.66932 12.5992 5.64114L12.8637 4.16177C12.8684 4.13359 12.8637 4.10541 12.859 4.08193C12.8495 4.06314 12.8401 4.04436 12.8212 4.02557C12.8023 4.00679 12.774 4.00209 12.7362 4.00209H12.1789L11.3477 8.69851H10.7101L11.6452 3.41504Z" fill="black"/>
<path d="M14.2758 5.80552H15.074L14.9701 6.40196H14.1719L13.8697 8.10676H14.6678L14.5639 8.7032H13.1282L14.0633 3.41974H15.499L15.3951 4.01618H14.597L14.2758 5.80552Z" fill="black"/>
<path d="M15.9241 3.41504H17.1189C17.2181 3.41504 17.3031 3.42443 17.374 3.44791C17.4448 3.4714 17.5062 3.49957 17.5581 3.53245C17.6101 3.57002 17.6479 3.60759 17.6809 3.65456C17.7093 3.70152 17.7329 3.74379 17.7518 3.79075C17.7896 3.89877 17.799 4.02557 17.7848 4.16647L17.5204 5.64584C17.5015 5.74446 17.4637 5.829 17.3976 5.90414C17.3315 5.97928 17.2559 6.04503 17.1709 6.10139C17.237 6.15775 17.2889 6.2235 17.3267 6.29864C17.3645 6.37378 17.374 6.45832 17.3598 6.55694L16.982 8.69851H16.3444L16.7222 6.55694C16.7269 6.52876 16.7222 6.50058 16.7175 6.4771C16.708 6.45832 16.6986 6.43953 16.6797 6.42075C16.6608 6.40196 16.6325 6.39726 16.5947 6.39726H16.0374L15.6313 8.69381H14.9937L15.9241 3.41504ZM16.1366 5.80552H16.6939C16.7317 5.80552 16.7647 5.79612 16.7883 5.78203C16.8119 5.76325 16.8308 5.74916 16.845 5.72568C16.8592 5.70219 16.8733 5.67402 16.8781 5.64584L17.1425 4.16647C17.1473 4.13829 17.1425 4.11011 17.1378 4.08663C17.1284 4.06784 17.1189 4.04906 17.1 4.03027C17.0811 4.01148 17.0528 4.00679 17.015 4.00679H16.453L16.1366 5.80552Z" fill="black"/>
<path d="M7.21528 4.73473C7.20111 4.81927 7.20584 4.9085 7.22473 5.00243C7.24834 5.09636 7.27668 5.18089 7.30501 5.25603C7.3428 5.34527 7.39002 5.4345 7.44198 5.52373L7.99926 6.58512C8.03232 6.65087 8.06066 6.72132 8.07955 6.79646C8.09844 6.86221 8.11261 6.94205 8.12205 7.03128C8.1315 7.12051 8.12678 7.21914 8.10789 7.32715L7.99926 7.94708C7.9662 8.08797 7.90953 8.21478 7.83396 8.32279C7.80091 8.36976 7.76312 8.41672 7.7159 8.45899C7.66867 8.50595 7.61672 8.54353 7.5506 8.5811C7.4892 8.61867 7.41836 8.64685 7.33807 8.66563C7.25779 8.68912 7.16805 8.69851 7.06888 8.69851H6.67216C6.57299 8.69851 6.48798 8.68912 6.41713 8.66563C6.34629 8.64215 6.2849 8.61397 6.23295 8.5811C6.181 8.54822 6.14321 8.50595 6.11015 8.45899C6.0771 8.41203 6.0582 8.36976 6.03931 8.32279C6.00153 8.21478 5.99209 8.08797 6.00625 7.94708L6.20933 6.79646H6.84691L6.64383 7.94708C6.6391 7.97526 6.64383 8.00344 6.64855 8.02692C6.658 8.04571 6.66744 8.06449 6.68633 8.08328C6.70522 8.10206 6.73356 8.10676 6.77134 8.10676H7.16805C7.20584 8.10676 7.2389 8.09737 7.26251 8.08328C7.28612 8.06449 7.30501 8.0504 7.31918 8.02692C7.33335 8.00344 7.34752 7.97526 7.35224 7.94708L7.45142 7.37881C7.46559 7.29428 7.46087 7.20505 7.44198 7.11112C7.41836 7.01719 7.39002 6.93266 7.36169 6.85751C7.32391 6.76828 7.27668 6.67905 7.22473 6.58982L6.67689 5.52843C6.64383 5.46268 6.61549 5.39223 6.5966 5.31709C6.57771 5.25134 6.56354 5.1715 6.55409 5.08227C6.54465 4.99303 6.54937 4.89441 6.56826 4.78639L6.67689 4.16647C6.70995 4.02557 6.76662 3.89877 6.84218 3.79075C6.87524 3.74379 6.91303 3.69682 6.96025 3.65456C7.00748 3.60759 7.05943 3.57002 7.12555 3.53245C7.18695 3.49957 7.25779 3.4667 7.33807 3.44791C7.41836 3.42443 7.50809 3.41504 7.60727 3.41504H8.00398C8.10316 3.41504 8.18817 3.42443 8.25901 3.44791C8.32986 3.4714 8.39125 3.49957 8.4432 3.53245C8.49515 3.57002 8.53293 3.60759 8.56599 3.65456C8.59433 3.70152 8.61794 3.74379 8.63684 3.79075C8.67462 3.89877 8.68406 4.02557 8.66989 4.16647L8.46682 5.31709H7.82924L8.03232 4.16647C8.03704 4.13829 8.03232 4.11011 8.0276 4.08663C8.01815 4.06784 8.00871 4.04906 7.98982 4.03027C7.97093 4.01148 7.94259 4.00679 7.90481 4.00679H7.50809C7.47031 4.00679 7.43725 4.01618 7.41364 4.03027C7.39002 4.04906 7.37113 4.06314 7.35697 4.08663C7.3428 4.11011 7.32863 4.13829 7.32391 4.16647L7.21528 4.73473Z" fill="black"/>
<path d="M9.22718 3.41504H9.86476L9.06188 7.94708C9.05716 7.97526 9.06188 8.00344 9.06661 8.02692C9.07605 8.04571 9.0855 8.06449 9.10439 8.08328C9.12328 8.10206 9.15162 8.10676 9.1894 8.10676H9.58611C9.62389 8.10676 9.65695 8.09737 9.68057 8.08328C9.70418 8.06449 9.72307 8.0504 9.73724 8.02692C9.75141 8.00344 9.76558 7.97526 9.7703 7.94708L10.5732 3.41504H11.2107L10.4079 7.94708C10.3748 8.08797 10.3181 8.21478 10.2426 8.32279C10.2095 8.36976 10.1717 8.41672 10.1245 8.45899C10.0773 8.50595 10.0253 8.54353 9.95921 8.5811C9.89781 8.61867 9.82697 8.64685 9.74669 8.66563C9.6664 8.68912 9.57667 8.69851 9.47749 8.69851H9.08078C8.9816 8.69851 8.89659 8.68912 8.82575 8.66563C8.7549 8.64215 8.69351 8.61397 8.64156 8.5811C8.58961 8.54822 8.55183 8.50595 8.51877 8.45899C8.48571 8.41203 8.46682 8.36976 8.44792 8.32279C8.41014 8.21478 8.4007 8.08797 8.41487 7.94708L9.22718 3.41504Z" fill="black"/>
<path d="M11.6452 3.41504H12.8401C12.9393 3.41504 13.0243 3.42443 13.0951 3.44791C13.166 3.4714 13.2274 3.49957 13.2793 3.53245C13.3313 3.57002 13.369 3.60759 13.4021 3.65456C13.4304 3.70152 13.4541 3.74379 13.4729 3.79075C13.5107 3.89877 13.5202 4.02557 13.506 4.16647L13.2415 5.64584C13.2085 5.78673 13.1518 5.91353 13.0762 6.02155C13.0432 6.06851 13.0054 6.11548 12.9582 6.15775C12.9109 6.20471 12.859 6.24228 12.7929 6.27985C12.7315 6.31742 12.6606 6.3456 12.5803 6.36439C12.5001 6.38787 12.4103 6.39726 12.3111 6.39726H11.7539L11.8578 5.80082H12.4151C12.4528 5.80082 12.4859 5.79143 12.5095 5.77734C12.5331 5.75855 12.552 5.74446 12.5662 5.72098C12.5803 5.6975 12.5945 5.66932 12.5992 5.64114L12.8637 4.16177C12.8684 4.13359 12.8637 4.10541 12.859 4.08193C12.8495 4.06314 12.8401 4.04436 12.8212 4.02557C12.8023 4.00679 12.774 4.00209 12.7362 4.00209H12.1789L11.3477 8.69851H10.7101L11.6452 3.41504Z" fill="black"/>
<path d="M14.2758 5.80552H15.074L14.9701 6.40196H14.1719L13.8697 8.10676H14.6678L14.5639 8.7032H13.1282L14.0633 3.41974H15.499L15.3951 4.01618H14.597L14.2758 5.80552Z" fill="black"/>
<path d="M15.9241 3.41504H17.1189C17.2181 3.41504 17.3031 3.42443 17.374 3.44791C17.4448 3.4714 17.5062 3.49957 17.5581 3.53245C17.6101 3.57002 17.6479 3.60759 17.6809 3.65456C17.7093 3.70152 17.7329 3.74379 17.7518 3.79075C17.7896 3.89877 17.799 4.02557 17.7848 4.16647L17.5204 5.64584C17.5015 5.74446 17.4637 5.829 17.3976 5.90414C17.3315 5.97928 17.2559 6.04503 17.1709 6.10139C17.237 6.15775 17.2889 6.2235 17.3267 6.29864C17.3645 6.37378 17.374 6.45832 17.3598 6.55694L16.982 8.69851H16.3444L16.7222 6.55694C16.7269 6.52876 16.7222 6.50058 16.7175 6.4771C16.708 6.45832 16.6986 6.43953 16.6797 6.42075C16.6608 6.40196 16.6325 6.39726 16.5947 6.39726H16.0374L15.6313 8.69381H14.9937L15.9241 3.41504ZM16.1366 5.80552H16.6939C16.7317 5.80552 16.7647 5.79612 16.7883 5.78203C16.8119 5.76325 16.8308 5.74916 16.845 5.72568C16.8592 5.70219 16.8733 5.67402 16.8781 5.64584L17.1425 4.16647C17.1473 4.13829 17.1425 4.11011 17.1378 4.08663C17.1284 4.06784 17.1189 4.04906 17.1 4.03027C17.0811 4.01148 17.0528 4.00679 17.015 4.00679H16.453L16.1366 5.80552Z" fill="black"/>
<path d="M0 14.5828L0.935108 9.29932H1.57268L0.637574 14.5828H0ZM1.19958 11.4127L1.57268 9.29932L1.91272 12.4694L1.53962 14.5828L1.19958 11.4127ZM1.54434 14.5828L2.47945 9.29932H3.11703L2.18192 14.5828H1.54434Z" fill="black"/>
<path d="M3.54208 9.29932H4.17965L3.24454 14.5828H2.60697L3.54208 9.29932Z" fill="black"/>
<path d="M3.66959 14.5828L4.6047 9.29932H5.24227L4.30716 14.5828H3.66959ZM4.86917 11.4127L5.24227 9.29932L5.58231 12.4694L5.20921 14.5828L4.86917 11.4127ZM5.20921 14.5828L6.14432 9.29932H6.7819L5.84679 14.5828H5.20921Z" fill="black"/>
<path d="M7.20694 9.29932H8.7749L8.671 9.89576H8.24595L7.41475 14.5828H6.69688L7.52809 9.89576H7.10304L7.20694 9.29932Z" fill="black"/>
<path d="M9.41248 11.6898H10.2106L10.1067 12.2862H9.30857L9.00632 13.991H9.80447L9.70057 14.5875H8.26485L9.19995 9.29932H10.6357L10.5318 9.89576H9.73362L9.41248 11.6898Z" fill="black"/>
<path d="M10.1256 14.5828L11.0607 9.29932H11.6983L10.7632 14.5828H10.1256ZM11.3252 11.4127L11.6983 9.29932L12.0383 12.4694L11.6652 14.5828L11.3252 11.4127ZM11.6652 14.5828L12.6003 9.29932H13.2379L12.3028 14.5828H11.6652Z" fill="black"/>
<path d="M13.663 9.29932H14.9145C15.0137 9.29932 15.0987 9.30871 15.1695 9.33219C15.2404 9.35567 15.3018 9.38385 15.3537 9.41673C15.4057 9.4543 15.4435 9.49187 15.4765 9.53883C15.5048 9.5858 15.5285 9.62807 15.5474 9.67503C15.5851 9.78305 15.5946 9.90985 15.5804 10.0507L14.9051 13.8314C14.872 13.9723 14.8153 14.0991 14.7398 14.2071C14.7067 14.254 14.6689 14.301 14.6217 14.3433C14.5745 14.3902 14.5225 14.4278 14.4564 14.4654C14.395 14.5029 14.3242 14.5311 14.2439 14.5499C14.1636 14.5734 14.0738 14.5828 13.9747 14.5828H12.7279L13.663 9.29932ZM13.4693 13.9863H14.0786C14.1164 13.9863 14.1494 13.9769 14.173 13.9629C14.1966 13.9441 14.2155 13.93 14.2297 13.9065C14.2439 13.883 14.258 13.8548 14.2628 13.8267L14.9334 10.0507C14.9381 10.0226 14.9334 9.99439 14.9287 9.9709C14.9192 9.95212 14.9098 9.93333 14.8909 9.91455C14.872 9.89576 14.8437 9.89106 14.8059 9.89106H14.1966L13.4693 13.9863Z" fill="black"/>
<path d="M16.0007 10.0507C16.0338 9.90985 16.0905 9.78305 16.166 9.67503C16.1991 9.62807 16.2369 9.5811 16.2841 9.53883C16.3313 9.49187 16.3833 9.4543 16.4494 9.41673C16.5108 9.38385 16.5816 9.35098 16.6619 9.33219C16.7422 9.30871 16.8319 9.29932 16.9311 9.29932H17.3278C17.427 9.29932 17.512 9.30871 17.5829 9.33219C17.6537 9.35567 17.7151 9.38385 17.7671 9.41673C17.819 9.4543 17.8568 9.49187 17.8898 9.53883C17.9182 9.5858 17.9418 9.62807 17.9607 9.67503C17.9985 9.78305 18.0079 9.90985 17.9937 10.0507L17.3231 13.8314C17.2901 13.9723 17.2334 14.0991 17.1578 14.2071C17.1248 14.254 17.087 14.301 17.0397 14.3433C16.9925 14.3902 16.9406 14.4278 16.8744 14.4654C16.8131 14.5029 16.7422 14.5311 16.6619 14.5499C16.5816 14.5734 16.4919 14.5828 16.3927 14.5828H15.996C15.8968 14.5828 15.8118 14.5734 15.741 14.5499C15.6701 14.5264 15.6087 14.4982 15.5568 14.4654C15.5048 14.4325 15.4671 14.3902 15.434 14.3433C15.4009 14.2963 15.3821 14.254 15.3632 14.2071C15.3254 14.0991 15.3159 13.9723 15.3301 13.8314L16.0007 10.0507ZM15.9677 13.8314C15.963 13.8595 15.9677 13.8877 15.9724 13.9112C15.9818 13.93 15.9913 13.9488 16.0102 13.9676C16.0291 13.9863 16.0574 13.991 16.0952 13.991H16.4919C16.5297 13.991 16.5627 13.9816 16.5864 13.9676C16.61 13.9488 16.6289 13.9347 16.643 13.9112C16.6572 13.8877 16.6714 13.8595 16.6761 13.8314L17.3467 10.0554C17.3514 10.0273 17.3467 9.99908 17.342 9.9756C17.3326 9.95681 17.3231 9.93803 17.3042 9.91924C17.2853 9.90046 17.257 9.89576 17.2192 9.89576H16.8225C16.7847 9.89576 16.7517 9.90515 16.728 9.91924C16.7044 9.93803 16.6855 9.95212 16.6714 9.9756C16.6572 9.99908 16.643 10.0273 16.6383 10.0554L15.9677 13.8314Z" fill="black"/>
<path d="M0 14.5828L0.935108 9.29932H1.57268L0.637574 14.5828H0ZM1.19958 11.4127L1.57268 9.29932L1.91272 12.4694L1.53962 14.5828L1.19958 11.4127ZM1.54434 14.5828L2.47945 9.29932H3.11703L2.18192 14.5828H1.54434Z" fill="black"/>
<path d="M3.54208 9.29932H4.17965L3.24454 14.5828H2.60697L3.54208 9.29932Z" fill="black"/>
<path d="M3.66959 14.5828L4.6047 9.29932H5.24227L4.30716 14.5828H3.66959ZM4.86917 11.4127L5.24227 9.29932L5.58231 12.4694L5.20921 14.5828L4.86917 11.4127ZM5.20921 14.5828L6.14432 9.29932H6.7819L5.84679 14.5828H5.20921Z" fill="black"/>
<path d="M7.20694 9.29932H8.7749L8.671 9.89576H8.24595L7.41475 14.5828H6.69688L7.52809 9.89576H7.10304L7.20694 9.29932Z" fill="black"/>
<path d="M9.41248 11.6898H10.2106L10.1067 12.2862H9.30857L9.00632 13.991H9.80447L9.70057 14.5875H8.26485L9.19995 9.29932H10.6357L10.5318 9.89576H9.73362L9.41248 11.6898Z" fill="black"/>
<path d="M10.1256 14.5828L11.0607 9.29932H11.6983L10.7632 14.5828H10.1256ZM11.3252 11.4127L11.6983 9.29932L12.0383 12.4694L11.6652 14.5828L11.3252 11.4127ZM11.6652 14.5828L12.6003 9.29932H13.2379L12.3028 14.5828H11.6652Z" fill="black"/>
<path d="M13.663 9.29932H14.9145C15.0137 9.29932 15.0987 9.30871 15.1695 9.33219C15.2404 9.35567 15.3018 9.38385 15.3537 9.41673C15.4057 9.4543 15.4435 9.49187 15.4765 9.53883C15.5048 9.5858 15.5285 9.62807 15.5474 9.67503C15.5851 9.78305 15.5946 9.90985 15.5804 10.0507L14.9051 13.8314C14.872 13.9723 14.8153 14.0991 14.7398 14.2071C14.7067 14.254 14.6689 14.301 14.6217 14.3433C14.5745 14.3902 14.5225 14.4278 14.4564 14.4654C14.395 14.5029 14.3242 14.5311 14.2439 14.5499C14.1636 14.5734 14.0738 14.5828 13.9747 14.5828H12.7279L13.663 9.29932ZM13.4693 13.9863H14.0786C14.1164 13.9863 14.1494 13.9769 14.173 13.9629C14.1966 13.9441 14.2155 13.93 14.2297 13.9065C14.2439 13.883 14.258 13.8548 14.2628 13.8267L14.9334 10.0507C14.9381 10.0226 14.9334 9.99439 14.9287 9.9709C14.9192 9.95212 14.9098 9.93333 14.8909 9.91455C14.872 9.89576 14.8437 9.89106 14.8059 9.89106H14.1966L13.4693 13.9863Z" fill="black"/>
<path d="M16.0007 10.0507C16.0338 9.90985 16.0905 9.78305 16.166 9.67503C16.1991 9.62807 16.2369 9.5811 16.2841 9.53883C16.3313 9.49187 16.3833 9.4543 16.4494 9.41673C16.5108 9.38385 16.5816 9.35098 16.6619 9.33219C16.7422 9.30871 16.8319 9.29932 16.9311 9.29932H17.3278C17.427 9.29932 17.512 9.30871 17.5829 9.33219C17.6537 9.35567 17.7151 9.38385 17.7671 9.41673C17.819 9.4543 17.8568 9.49187 17.8898 9.53883C17.9182 9.5858 17.9418 9.62807 17.9607 9.67503C17.9985 9.78305 18.0079 9.90985 17.9937 10.0507L17.3231 13.8314C17.2901 13.9723 17.2334 14.0991 17.1578 14.2071C17.1248 14.254 17.087 14.301 17.0397 14.3433C16.9925 14.3902 16.9406 14.4278 16.8744 14.4654C16.8131 14.5029 16.7422 14.5311 16.6619 14.5499C16.5816 14.5734 16.4919 14.5828 16.3927 14.5828H15.996C15.8968 14.5828 15.8118 14.5734 15.741 14.5499C15.6701 14.5264 15.6087 14.4982 15.5568 14.4654C15.5048 14.4325 15.4671 14.3902 15.434 14.3433C15.4009 14.2963 15.3821 14.254 15.3632 14.2071C15.3254 14.0991 15.3159 13.9723 15.3301 13.8314L16.0007 10.0507ZM15.9677 13.8314C15.963 13.8595 15.9677 13.8877 15.9724 13.9112C15.9818 13.93 15.9913 13.9488 16.0102 13.9676C16.0291 13.9863 16.0574 13.991 16.0952 13.991H16.4919C16.5297 13.991 16.5627 13.9816 16.5864 13.9676C16.61 13.9488 16.6289 13.9347 16.643 13.9112C16.6572 13.8877 16.6714 13.8595 16.6761 13.8314L17.3467 10.0554C17.3514 10.0273 17.3467 9.99908 17.342 9.9756C17.3326 9.95681 17.3231 9.93803 17.3042 9.91924C17.2853 9.90046 17.257 9.89576 17.2192 9.89576H16.8225C16.7847 9.89576 16.7517 9.90515 16.728 9.91924C16.7044 9.93803 16.6855 9.95212 16.6714 9.9756C16.6572 9.99908 16.643 10.0273 16.6383 10.0554L15.9677 13.8314Z" fill="black"/>
<path opacity="0.18" d="M1.8501 7.17951L1.85145 7.15252L1.85547 7.12585L1.86206 7.09958L1.87116 7.07374L1.88273 7.04837L1.8967 7.02345L1.91302 6.99906L1.93157 6.97523L1.95234 6.95183L1.97524 6.92942L2.00019 6.90733L2.02715 6.88591L2.05606 6.86548L2.08684 6.8457L2.11944 6.82659L2.15375 6.80846L2.18974 6.79099L2.22738 6.77451L2.26653 6.75902L2.30717 6.74419L2.34926 6.73068L2.39267 6.71782L2.43736 6.70629L2.48327 6.69574L2.5304 6.68651L2.57852 6.67827L2.62763 6.67102L2.67806 6.66542L2.72914 6.6608L2.78089 6.65718L2.83362 6.6552L2.88702 6.65454C3.45951 6.65454 3.92456 6.88954 3.92456 7.17951C3.92456 7.46918 3.45951 7.70441 2.88702 7.70441C2.31422 7.70441 1.8501 7.46932 1.8501 7.17951Z" fill="black"/>
<path opacity="0.42" d="M0.0263062 6.25454L0.027591 6.22883L0.0314146 6.20345L0.0376766 6.1784L0.0463449 6.15401L0.0573533 6.12962L0.0706684 6.10589L0.0861594 6.08282L0.103825 6.06008L0.123568 6.038L0.145353 6.01658L0.169116 5.99548L0.194759 5.97538L0.222279 5.9556L0.251546 5.93682L0.282561 5.91869L0.315223 5.90122L0.349467 5.88474L0.385261 5.86892L0.422537 5.85409L0.461198 5.84025L0.501243 5.82739L0.542541 5.8152L0.58509 5.80432L0.628761 5.7941L0.673585 5.78521L0.719398 5.77729L0.766232 5.7707L0.813956 5.7651L0.862538 5.76082L0.91191 5.75752L0.962007 5.75554L1.01276 5.75488C1.55853 5.75488 1.99998 5.97867 1.99998 6.25454C1.99998 6.53139 1.5584 6.75419 1.01276 6.75419C0.467921 6.75419 0.0263062 6.53139 0.0263062 6.25454Z" fill="black"/>
<path opacity="0.51" d="M2.27539 6.02905L2.32193 6.02609L2.36784 6.02081L2.41302 6.01356L2.45749 6.004L2.50109 5.99247L2.54394 5.97896L2.58579 5.96314L2.62666 5.94567L2.66654 5.92622L2.70544 5.90513L2.74301 5.88206L2.77959 5.85767L2.81486 5.8313L2.84881 5.80329L2.88144 5.77395L2.91242 5.7433L2.94241 5.711L2.97042 5.67705L2.99712 5.64212L3.02217 5.60586L3.04557 5.56862L3.06699 5.53006L3.08677 5.49018L3.10457 5.44964L3.12072 5.40778L3.13489 5.36526L3.14675 5.32176L3.15697 5.27726L3.16488 5.23211L3.17048 5.1863L3.17378 5.13983L3.1751 5.09302C3.1751 4.5759 2.7552 4.15601 2.23805 4.15601C1.72435 4.15601 1.30709 4.56865 1.30103 5.08149C1.31312 5.08083 1.32522 5.08083 1.33824 5.08083C1.85526 5.08083 2.27526 5.49974 2.27526 6.01785L2.27539 6.02905Z" fill="black"/>
<path opacity="0.72" d="M4.09825 6.95497L4.14373 6.952L4.18823 6.94706L4.23239 6.93981L4.27557 6.93058L4.31809 6.91904L4.35961 6.90586L4.40048 6.8907L4.44036 6.87356L4.47926 6.85477L4.51683 6.83401L4.55374 6.8116L4.58901 6.78787L4.62329 6.76216L4.65624 6.73513L4.68821 6.70646L4.71854 6.67647L4.74721 6.64483L4.7749 6.6122L4.8006 6.57792L4.82499 6.54265L4.84774 6.5064L4.8685 6.46883L4.88794 6.42994L4.90541 6.39038L4.9209 6.34985L4.93442 6.30832L4.94628 6.2658L4.95584 6.22262L4.96375 6.17879L4.96902 6.13397L4.97232 6.08881L4.97364 6.043C4.97364 5.53906 4.56594 5.13037 4.06167 5.13037C3.56201 5.13037 3.15596 5.5328 3.15002 6.03179C3.16189 6.03113 3.17408 6.03113 3.18628 6.03113C3.68923 6.03113 4.09825 6.43982 4.09825 6.94376V6.95497Z" fill="black"/>
</svg>
