<svg width="18" height="18" viewBox="0 0 18 18" fill="none" xmlns="http://www.w3.org/2000/svg">
<path fill-rule="evenodd" clip-rule="evenodd" d="M17.2 5.04952L17.2 5.04674C17.1817 3.72864 16.1026 2.62857 14.7625 2.62857H3.22079C1.8812 2.62857 0.799988 3.72869 0.799988 5.04952V13.3942C0.799988 14.7151 1.88118 15.815 3.22079 15.815H14.7792C16.1178 15.815 17.2 14.7329 17.2 13.3942L17.2 5.04952ZM11.1 10.672L10.0838 11.3892L7.61201 9.1584C6.69346 8.31401 5.29855 8.31604 4.36542 9.15772L2.36077 10.9604V5.04968C2.36077 4.59015 2.74038 4.20633 3.22079 4.20633H14.7792C15.2408 4.20633 15.6223 4.58793 15.6223 5.04948V11.9568L13.922 10.7099C13.0772 10.0856 11.9581 10.0876 11.1 10.672ZM6.56896 10.3122L8.77258 12.3141L6.018 14.2376H3.22079C2.74035 14.2376 2.36084 13.8539 2.36084 13.3944V13.0795L5.42424 10.3126L5.42531 10.3116C5.75268 10.0116 6.2416 10.0122 6.56896 10.3122ZM15.5038 13.8111C15.3539 14.0672 15.0779 14.2376 14.7623 14.2376H8.73253L11.9988 11.9439C12.3002 11.739 12.6956 11.7401 12.9955 11.9579L15.5038 13.8111ZM10.5058 9.53972C11.6437 9.53972 12.5565 8.60774 12.5565 7.48902C12.5565 6.36913 11.6257 5.43833 10.5058 5.43833C9.3859 5.43833 8.4551 6.36913 8.4551 7.48902C8.4551 8.60773 9.36776 9.53972 10.5058 9.53972ZM10.5058 6.98241C10.7823 6.98241 10.9956 7.19569 10.9956 7.47226C10.9956 7.74874 10.7824 7.9621 10.5058 7.9621C10.2293 7.9621 10.0159 7.74882 10.0159 7.47226C10.0159 7.19567 10.2292 6.98241 10.5058 6.98241Z" fill="black"/>
</svg>
