<svg width="18" height="18" viewBox="0 0 18 18" fill="none" xmlns="http://www.w3.org/2000/svg">
<path fill-rule="evenodd" clip-rule="evenodd" d="M9.30682 12.7199C8.95327 13.0934 8.38006 13.0934 8.02652 12.7199L2.26516 6.63282C1.91161 6.25929 1.91161 5.65368 2.26516 5.28015C2.6187 4.90662 3.19192 4.90662 3.54546 5.28015L8.66667 10.6908L13.7879 5.28015C14.1414 4.90662 14.7146 4.90662 15.0682 5.28015C15.4217 5.65368 15.4217 6.25929 15.0682 6.63282L9.30682 12.7199Z" fill="black"/>
<path fill-rule="evenodd" clip-rule="evenodd" d="M9.30682 12.7199C8.95327 13.0934 8.38006 13.0934 8.02652 12.7199L2.26516 6.63282C1.91161 6.25929 1.91161 5.65368 2.26516 5.28015C2.6187 4.90662 3.19192 4.90662 3.54546 5.28015L8.66667 10.6908L13.7879 5.28015C14.1414 4.90662 14.7146 4.90662 15.0682 5.28015C15.4217 5.65368 15.4217 6.25929 15.0682 6.63282L9.30682 12.7199Z" fill="black"/>
</svg>
