<svg width="18" height="18" viewBox="0 0 18 18" fill="none" xmlns="http://www.w3.org/2000/svg">
<path fill-rule="evenodd" clip-rule="evenodd" d="M12.7199 9.30682C13.0934 8.95327 13.0934 8.38006 12.7199 8.02652L6.63282 2.26516C6.25929 1.91161 5.65368 1.91161 5.28015 2.26516C4.90662 2.6187 4.90662 3.19192 5.28015 3.54546L10.6908 8.66667L5.28015 13.7879C4.90662 14.1414 4.90662 14.7146 5.28015 15.0682C5.65368 15.4217 6.25929 15.4217 6.63282 15.0682L12.7199 9.30682Z" fill="black"/>
<path fill-rule="evenodd" clip-rule="evenodd" d="M12.7199 9.30682C13.0934 8.95327 13.0934 8.38006 12.7199 8.02652L6.63282 2.26516C6.25929 1.91161 5.65368 1.91161 5.28015 2.26516C4.90662 2.6187 4.90662 3.19192 5.28015 3.54546L10.6908 8.66667L5.28015 13.7879C4.90662 14.1414 4.90662 14.7146 5.28015 15.0682C5.65368 15.4217 6.25929 15.4217 6.63282 15.0682L12.7199 9.30682Z" fill="black"/>
<path fill-rule="evenodd" clip-rule="evenodd" d="M12.7199 9.30682C13.0934 8.95327 13.0934 8.38006 12.7199 8.02652L6.63282 2.26516C6.25929 1.91161 5.65368 1.91161 5.28015 2.26516C4.90662 2.6187 4.90662 3.19192 5.28015 3.54546L10.6908 8.66667L5.28015 13.7879C4.90662 14.1414 4.90662 14.7146 5.28015 15.0682C5.65368 15.4217 6.25929 15.4217 6.63282 15.0682L12.7199 9.30682Z" fill="black"/>
<path fill-rule="evenodd" clip-rule="evenodd" d="M12.7199 9.30682C13.0934 8.95327 13.0934 8.38006 12.7199 8.02652L6.63282 2.26516C6.25929 1.91161 5.65368 1.91161 5.28015 2.26516C4.90662 2.6187 4.90662 3.19192 5.28015 3.54546L10.6908 8.66667L5.28015 13.7879C4.90662 14.1414 4.90662 14.7146 5.28015 15.0682C5.65368 15.4217 6.25929 15.4217 6.63282 15.0682L12.7199 9.30682Z" fill="black"/>
</svg>
