<svg width="18" height="18" viewBox="0 0 18 18" fill="none" xmlns="http://www.w3.org/2000/svg">
<path d="M18 3.6574C17.3377 3.93878 16.626 4.12828 15.879 4.2137C16.6418 3.77656 17.2275 3.08388 17.5028 2.25841C16.7895 2.66325 15.999 2.95755 15.1575 3.11618C14.4847 2.42925 13.524 2 12.462 2C10.0777 2 8.32575 4.129 8.86425 6.33911C5.796 6.19196 3.075 4.78507 1.25325 2.64674C0.28575 4.23523 0.7515 6.31327 2.3955 7.36556C1.791 7.3469 1.221 7.18827 0.72375 6.9234C0.68325 8.5607 1.9095 10.0925 3.6855 10.4334C3.16575 10.5684 2.5965 10.6 2.0175 10.4937C2.487 11.8978 3.8505 12.9192 5.4675 12.9479C3.915 14.1129 1.959 14.6333 0 14.4122C1.63425 15.415 3.576 16 5.661 16C12.5175 16 16.3912 10.4579 16.1572 5.48708C16.8787 4.98821 17.505 4.36587 18 3.6574Z" fill="#1E8EEE"/>
</svg>
