<svg width="18" height="18" viewBox="0 0 18 18" fill="none" xmlns="http://www.w3.org/2000/svg">
<path d="M17.1991 11.9714C16.8651 11.8021 16.7704 11.2449 17.0186 10.9177C17.1111 10.7981 17.2983 10.6966 17.4269 10.6966C17.551 10.6966 17.736 10.7891 17.8128 10.8906C17.9301 11.0441 17.9684 11.1659 17.9684 11.3735C17.9684 11.5246 17.9572 11.5901 17.9188 11.678C17.8218 11.8879 17.6638 12.0029 17.4427 12.021C17.339 12.03 17.2961 12.021 17.1991 11.9714Z" fill="black"/>
<path d="M0.313613 11.942C0.162447 11.8631 0.0609176 11.7096 0.0248183 11.4998C0.00676863 11.4028 0 10.5161 0 8.67053V5.98113H1.06042V8.47424C1.06042 10.938 1.06042 10.9674 1.10554 11.0125C1.14164 11.0486 1.18 11.0576 1.29732 11.0576C1.41464 11.0576 1.453 11.0486 1.4891 11.0125C1.53422 10.9674 1.53422 10.938 1.53422 8.47424V5.98113H2.59464L2.58336 11.5427L2.53372 11.651C2.4525 11.8247 2.39158 11.8947 2.26975 11.9511C2.15468 12.0052 2.15242 12.0052 1.29506 12.0052H0.433192L0.313613 11.942Z" fill="black"/>
<path d="M2.93305 5.98113H3.40459C3.83553 5.98113 3.8784 5.98565 3.88968 6.02175C3.89419 6.04205 3.98444 6.56098 4.08597 7.17241C4.21909 7.95757 4.28226 8.28247 4.30257 8.28247C4.32513 8.28247 4.3319 8.05008 4.3319 7.1318V5.98113H5.36975V12.0052H4.3319L4.32062 11.9556C4.31385 11.9262 4.21683 11.3802 4.10628 10.7417C3.87389 9.41283 3.88517 9.47149 3.85809 9.48954C3.84455 9.49856 3.83553 9.97011 3.83553 10.7553V12.0052H2.93305V5.98113Z" fill="black"/>
<path d="M5.70819 5.98113H6.72348V10.8545H7.71621V12.0052H5.70819V5.98113Z" fill="black"/>
<path d="M8.42693 11.9781C8.29833 11.933 8.20808 11.845 8.13588 11.6916L8.06594 11.5427V9.01575C8.06594 6.66252 8.0682 6.48202 8.10655 6.37598C8.15619 6.23159 8.25772 6.10749 8.3773 6.04206C8.4698 5.99243 8.4856 5.99243 9.35198 5.99243C10.2184 5.99243 10.2342 5.99243 10.3267 6.04206C10.4395 6.10298 10.5455 6.22707 10.5974 6.36245C10.6358 6.45946 10.638 6.63093 10.6448 8.90294C10.6493 10.6177 10.6425 11.3848 10.6267 11.4908C10.5884 11.7119 10.4914 11.8653 10.3357 11.9443L10.2116 12.0052L9.35424 12.003C8.81726 12.003 8.4698 11.9917 8.42693 11.9781ZM9.54376 11.0125C9.58888 10.9674 9.58888 10.938 9.58888 8.9977V7.02577L9.5415 6.9829C9.47382 6.92198 9.23014 6.92198 9.16246 6.9829L9.11508 7.02577V8.9977C9.11508 11.2765 9.09026 11.0576 9.35198 11.0576C9.4693 11.0576 9.50766 11.0486 9.54376 11.0125Z" fill="black"/>
<path d="M11.2788 11.942C11.1231 11.8608 11.0261 11.7074 10.9877 11.4908C10.9719 11.3848 10.9652 10.6176 10.9697 8.90293L10.9764 6.46622L11.0283 6.33762C11.0938 6.17968 11.2382 6.04205 11.3826 6.00595C11.5224 5.96985 13.007 5.97211 13.1492 6.00821C13.2236 6.02626 13.2845 6.06461 13.359 6.13907C13.5237 6.30377 13.5418 6.38274 13.5553 6.95807L13.5643 7.44767H12.4994V7.23559C12.4994 7.03253 12.4971 7.01899 12.4407 6.97612C12.3572 6.91069 12.1677 6.91069 12.0842 6.97612L12.0256 7.02125V8.99543C12.0256 11.2765 12.0008 11.0576 12.2625 11.0576C12.4746 11.0576 12.4994 11.0283 12.4994 10.7643V10.5612H13.5598V10.9606C13.5598 11.4366 13.535 11.6014 13.4402 11.7615C13.3838 11.8518 13.3387 11.8947 13.2462 11.942L13.1266 12.0052H11.3984L11.2788 11.942Z" fill="black"/>
<path d="M13.8756 5.98113H14.9135V7.24461C14.9135 8.49004 14.9135 8.50809 14.9586 8.50809C14.9857 8.50809 15.0083 8.49004 15.015 8.45845C15.0218 8.42912 15.1278 7.88312 15.2542 7.24461C15.3783 6.6061 15.4866 6.0601 15.4934 6.03303L15.5046 5.98113H16.538V6.07364C16.538 6.12553 16.4568 6.53842 16.3597 6.99417C16.098 8.20124 16.019 8.61639 16.019 8.80816C16.019 8.99543 16.0484 9.18044 16.3372 10.7553C16.4477 11.3644 16.538 11.8947 16.538 11.933V12.0052H15.4392L15.2384 10.7959C15.1278 10.1303 15.0331 9.57753 15.0263 9.56625C15.0195 9.55722 14.9902 9.55271 14.9631 9.56174L14.9135 9.57302V12.0052H13.8756V5.98113Z" fill="black"/>
<path d="M17.0795 10.3785C17.0795 10.2724 16.8809 6.35341 16.8651 6.15712L16.8516 5.98113H18L17.991 6.11199C17.9819 6.21804 17.7563 10.3852 17.7563 10.4326C17.7563 10.4417 17.6052 10.4484 17.4179 10.4484H17.0795V10.3785Z" fill="black"/>
</svg>
