<svg width="18" height="18" viewBox="0 0 18 18" fill="none" xmlns="http://www.w3.org/2000/svg">
<path fill-rule="evenodd" clip-rule="evenodd" d="M9 9C10.6569 9 12 7.65685 12 6C12 4.34315 10.6569 3 9 3C7.34315 3 6 4.34315 6 6C6 7.65685 7.34315 9 9 9ZM9 11C11.7614 11 14 8.76142 14 6C14 3.23858 11.7614 1 9 1C6.23858 1 4 3.23858 4 6C4 8.76142 6.23858 11 9 11Z" fill="black"/>
<path fill-rule="evenodd" clip-rule="evenodd" d="M9 12C6.94968 12 5.1876 13.2341 4.41604 15H13.584C12.8124 13.2341 11.0503 12 9 12ZM15.7101 15C14.8496 12.1085 12.171 10 9 10C5.82898 10 3.15043 12.1085 2.28988 15C2.10128 15.6337 2 16.305 2 17H16C16 16.305 15.8987 15.6337 15.7101 15Z" fill="black"/>
<path fill-rule="evenodd" clip-rule="evenodd" d="M9 11C11.7614 11 14 8.76142 14 6C14 3.23858 11.7614 1 9 1C6.23858 1 4 3.23858 4 6C4 8.76142 6.23858 11 9 11ZM9 9C10.6569 9 12 7.65685 12 6C12 4.34315 10.6569 3 9 3C7.34315 3 6 4.34315 6 6C6 7.65685 7.34315 9 9 9Z" fill="black"/>
<path fill-rule="evenodd" clip-rule="evenodd" d="M9 10C5.13401 10 2 13.134 2 17H16C16 13.134 12.866 10 9 10ZM9 12C6.94968 12 5.1876 13.2341 4.41604 15H13.584C12.8124 13.2341 11.0503 12 9 12Z" fill="black"/>
</svg>
