<svg width="18" height="18" viewBox="0 0 18 18" fill="none" xmlns="http://www.w3.org/2000/svg">
<path d="M3.98392 10.4316L2.72517 5.4289H1.03051L2.81677 12.5281H4.51143L4.34246 11.8566L5.79388 5.4289H4.87785C4.83205 5.4747 4.83205 5.61211 4.87785 5.65791C4.96945 5.93272 4.92365 6.25333 4.87785 6.52814L3.98392 10.4316Z" fill="black"/>
<path d="M8.771 10.6046C9.07513 10.6046 9.45406 10.43 9.68704 10.2098V12.4823H11.1985V5.4289H9.68704V9.96334H7.94658V5.4289H6.43513V10.1058L6.11451 10.6046H6.43513V12.4823H7.94658V10.6046H8.771Z" fill="black"/>
<path d="M14.771 8.406C12.4351 7.94799 13.2137 6.02432 14.542 6.02432H16.6946L16.9694 5.4289H14.1755C13.3511 5.4289 11.5649 6.25333 11.7939 7.85638C11.8855 8.90982 12.6183 9.32203 13.9465 9.68844C16.2366 10.2381 15.5038 11.8869 14.4962 11.8869H12.0229L12.2977 12.5281H14.6336C15.8702 12.5281 16.9694 11.6579 16.9694 10.4213C16.9236 9.13883 16.2366 8.68081 14.771 8.406Z" fill="black"/>
<path fill-rule="evenodd" clip-rule="evenodd" d="M18 4.48999H0V13.5129H18V4.48999ZM0.320611 13.1923V4.8106H17.6794V13.1923H0.320611Z" fill="black"/>
</svg>
