<svg width="18" height="18" viewBox="0 0 18 18" fill="none" xmlns="http://www.w3.org/2000/svg">
<g clip-path="url(#clip0_659_15067)">
<path fill-rule="evenodd" clip-rule="evenodd" d="M1.49042 10.7662L0 7.9376C0.337101 7.9376 0.674096 7.9376 1.0112 7.9376C1.12042 7.9376 1.20819 7.97889 1.25829 8.07049L2.37383 10.3702C2.56169 9.74422 2.74956 9.1183 2.93754 8.49229C3.06565 8.18968 3.31731 7.97422 3.66502 7.97422H4.85464V8.74448C4.62124 8.74607 4.38794 8.74299 4.15454 8.74448C4.03099 8.74448 3.88548 8.80243 3.85066 8.90783L3.0838 11.2294H2.15231C1.84472 11.2293 1.62777 11.027 1.49042 10.7662ZM6.14127 11.235C5.99639 11.2293 5.72414 11.1993 5.53532 11.0594C5.34649 10.9197 5.25001 10.6701 5.25267 10.4593V7.27285H6.30505L6.30961 7.64423C6.31226 7.85938 6.40885 8.00044 6.58781 8.07038C6.69522 8.11242 6.83978 8.12504 6.9905 8.12313L6.97893 8.76284H6.30961V10.1063C6.36459 10.5242 6.64608 10.4756 6.98466 10.4502V11.1148C6.6793 11.2104 6.45078 11.235 6.14127 11.235ZM7.1425 9.62746C7.13581 9.05696 7.27761 8.64885 7.5626 8.36758C7.8634 8.0707 8.33243 7.93389 8.97713 7.9237C9.7615 7.92784 10.5078 8.18788 10.6608 9.11576C10.6954 9.32517 10.7021 9.59201 10.6656 9.79368H8.40577C8.31046 9.79368 8.27533 9.80631 8.26334 9.91722C8.24635 10.0745 8.28913 10.2156 8.37276 10.3257C8.4875 10.4766 8.67887 10.5697 8.89848 10.5684C9.04707 10.5673 9.24099 10.5284 9.33365 10.4065C9.4659 10.2324 9.4728 10.1171 9.73667 10.1198L10.6198 10.129C10.5573 10.5094 10.3525 10.7853 10.0797 10.9622C9.75068 11.1759 9.32261 11.2503 8.92682 11.2524C8.29889 11.2559 7.82572 11.0909 7.50868 10.7293C7.27729 10.4657 7.14791 10.0922 7.1425 9.62746ZM11.4762 10.8377C11.1001 10.5134 10.9766 10.108 10.9766 9.62842C10.9766 9.16055 11.0547 8.73493 11.3987 8.3887C11.7495 8.03557 12.2545 7.9255 12.7981 7.92529C13.1924 7.92518 13.6555 8.02485 13.9704 8.26929C14.1842 8.43519 14.3295 8.69449 14.3956 9.05154H13.5419C13.3442 9.05154 13.2367 9.01535 13.1501 8.86357C13.0521 8.69173 12.8926 8.64439 12.7297 8.6464C12.4557 8.6498 12.2958 8.8382 12.2123 9.07033C12.1586 9.21914 12.1364 9.38599 12.1355 9.53342C12.1343 9.73169 12.1612 9.99004 12.2582 10.1926C12.3457 10.375 12.4903 10.512 12.7226 10.5193C13.0093 10.5282 13.0941 10.4148 13.1896 10.2533C13.2651 10.1258 13.3684 10.1187 13.5317 10.1202L14.3856 10.1289C14.3062 10.5371 14.1298 10.7997 13.8566 10.9717C13.5046 11.1933 13.1265 11.2562 12.7315 11.2523C12.2295 11.2474 11.8427 11.1541 11.4762 10.8377ZM17.5974 11.2106H16.956V9.15684C16.956 8.77791 16.6226 8.66349 16.3859 8.65893C15.972 8.65086 15.703 8.81602 15.703 9.22126V11.2108H14.6553V7.4017C14.6549 7.0733 14.8487 6.75 15.2111 6.75H15.703V8.21251C16.0101 7.97868 16.3842 7.89748 16.7818 7.92274C17.3988 7.96201 18 8.29519 18 9.05908V10.8717C18 11.1171 17.7985 11.2106 17.5974 11.2106ZM9.6301 9.22115H8.43645C8.31885 9.22115 8.27629 9.17456 8.28488 9.06608C8.31237 8.72113 8.63068 8.55534 8.95887 8.5651C9.34151 8.57657 9.59444 8.7743 9.6301 9.22115Z" fill="black"/>
</g>
<defs>
<clipPath id="clip0_659_15067">
<rect width="18" height="18" fill="white"/>
</clipPath>
</defs>
</svg>
