<svg width="18" height="18" viewBox="0 0 18 18" fill="none" xmlns="http://www.w3.org/2000/svg">
<g clip-path="url(#clip0_661_4267)">
<path d="M8.99987 0C8.18942 0 7.51921 0.220161 6.90887 0.590366C6.89887 0.590366 6.89871 0.600293 6.89871 0.610299C6.89871 0.620304 6.90883 0.620461 6.91884 0.620461C7.69927 0.450366 8.87985 1.12066 8.98991 1.1907H8.99987H9.01004C9.1201 1.12066 10.3007 0.450366 11.0811 0.620461C11.0911 0.620461 11.101 0.620304 11.101 0.610299C11.101 0.600293 11.1011 0.590366 11.0911 0.590366C10.4807 0.220161 9.81032 0 8.99987 0ZM11.6834 1.12777C11.485 1.1395 11.0235 1.29322 10.1005 2.20122L10.0905 2.21118C10.0905 2.21118 10.0905 2.22135 10.1005 2.22135C10.9109 3.18188 12.4719 5.47315 12.1717 6.42367V6.4436C12.1818 6.4436 12.1917 6.44364 12.1917 6.43364C12.702 5.76327 13.0123 4.91272 13.0123 4.00221C13.0123 2.8916 12.562 1.88104 11.8216 1.15064C11.8115 1.14063 11.8114 1.14067 11.8014 1.14067C11.7864 1.13567 11.7495 1.12386 11.6834 1.12777V1.12777ZM6.31225 1.13207C6.24472 1.12941 6.20587 1.14313 6.18836 1.15064C6.17835 1.15064 6.17843 1.1606 6.16842 1.1606C5.43802 1.89101 4.98769 2.90157 4.98769 4.01218C4.98769 4.92269 5.29798 5.77323 5.80826 6.4436C5.80826 6.45361 5.81819 6.45357 5.8282 6.45357C5.8382 6.45357 5.8382 6.44364 5.8282 6.43364C5.51802 5.48311 7.08882 3.19184 7.89926 2.23131L7.90943 2.22135C7.90943 2.21134 7.90927 2.21118 7.89926 2.21118C6.97625 1.29568 6.51487 1.14005 6.31225 1.13207V1.13207ZM8.99987 3.2219C8.99987 3.2219 8.98991 3.22186 8.98991 3.23187C7.78924 4.14237 5.72822 6.40358 6.35857 7.04394C7.05896 7.66428 7.98931 8.03452 8.99987 8.03452C10.0104 8.03452 10.931 7.66428 11.6414 7.04394C12.2617 6.40358 10.2107 4.14237 9.01004 3.23187C9.01004 3.22186 8.99987 3.2219 8.99987 3.2219ZM11.4213 9.17519C11.0711 9.17519 10.741 9.23515 10.4608 9.34521C10.1707 9.46528 9.92054 9.63529 9.71042 9.86542C9.4903 10.0955 9.33017 10.3759 9.22011 10.676C9.11005 10.9762 9.06006 11.3263 9.06006 11.6965C9.06006 12.0667 9.11005 12.4168 9.22011 12.717C9.33017 13.0172 9.4903 13.2873 9.71042 13.5174C9.93055 13.7476 10.1807 13.9178 10.4608 14.0378C10.741 14.1479 11.0711 14.2079 11.4213 14.2079C11.7815 14.2079 12.1017 14.1579 12.3818 14.0378C12.662 13.9278 12.9121 13.7476 13.1322 13.5174C13.3424 13.2873 13.5025 13.0172 13.6126 12.717C13.7226 12.4168 13.7726 12.0667 13.7726 11.6965C13.7726 11.3163 13.7126 10.9762 13.6126 10.676C13.5125 10.3759 13.3424 10.0955 13.1322 9.86542C12.9221 9.63529 12.662 9.45527 12.3818 9.34521C12.0917 9.23515 11.7715 9.17519 11.4213 9.17519V9.17519ZM0.225095 9.28522L1.89594 11.5965L0.0750122 14.1078H0.895388L2.31629 12.1567L3.72703 14.1078H4.54741L2.72648 11.5965L4.40749 9.28522H3.58692L2.31629 11.0362L1.04547 9.28522H0.225095ZM4.93766 9.28522V11.3364H4.30743L3.85718 11.9566H4.93766V14.1078H7.18891C7.7092 14.1078 8.10942 13.9778 8.38957 13.7377C8.66973 13.4975 8.80992 13.1574 8.80992 12.7371C8.80992 12.477 8.73977 12.2368 8.58969 12.0467C8.44961 11.8566 8.24954 11.6965 7.97939 11.5965C8.39962 11.3663 8.60981 11.0061 8.60981 10.5459C8.60981 10.1757 8.4797 9.86554 8.21956 9.63541C7.95941 9.40528 7.58909 9.28522 7.09882 9.28522H4.93766ZM13.5925 9.28522L15.2735 11.5965L13.4523 14.1078H14.2729L15.6837 12.1567L17.1044 14.1078H17.9249L16.0938 11.5965L17.7748 9.28522H16.9543L15.6837 11.0362L14.413 9.28522H13.5925ZM11.4213 9.83552C11.9016 9.83552 12.2918 10.0056 12.5819 10.3358C12.8721 10.666 13.0123 11.1262 13.0123 11.6965C13.0123 12.2668 12.8721 12.7171 12.5819 13.0473C12.2918 13.3774 11.9016 13.5475 11.4213 13.5475C10.9311 13.5475 10.5509 13.3774 10.2607 13.0473C9.97057 12.7171 9.82044 12.2668 9.82044 11.6965C9.82044 11.1262 9.97057 10.676 10.2607 10.3358C10.5509 10.0056 10.9411 9.83552 11.4213 9.83552V9.83552ZM5.66815 9.91545H7.04879C7.31894 9.91545 7.52918 9.97556 7.66925 10.0956C7.81934 10.2157 7.8893 10.3858 7.8893 10.5959C7.8893 10.846 7.8193 11.0361 7.67922 11.1562C7.53914 11.2862 7.32895 11.3463 7.04879 11.3463H5.66815V9.91545ZM5.66815 11.9566H7.15901C7.45918 11.9566 7.68919 12.0167 7.83927 12.1468C7.98935 12.2668 8.06948 12.4669 8.06948 12.717C8.06948 12.9571 7.98939 13.1474 7.8293 13.2775C7.66922 13.3975 7.43901 13.4674 7.14885 13.4674H5.66815V11.9566ZM2.12615 15.9889C1.91603 15.9889 1.74594 16.039 1.62587 16.129C1.5058 16.2191 1.44569 16.349 1.44569 16.5091C1.44569 16.6692 1.49572 16.7894 1.59578 16.8795C1.69583 16.9695 1.84591 17.0395 2.04602 17.0796L2.20627 17.1194C2.36636 17.1595 2.48627 17.1996 2.5463 17.2396C2.60634 17.2896 2.63639 17.3497 2.63639 17.4298C2.63639 17.5298 2.59641 17.6097 2.52637 17.6697C2.44632 17.7198 2.33619 17.7499 2.19611 17.7499C2.02601 17.7499 1.8961 17.7099 1.80605 17.6398C1.716 17.5698 1.6759 17.4596 1.6759 17.3195H1.39566C1.39566 17.5397 1.46582 17.7099 1.6159 17.83C1.75598 17.9501 1.95613 18 2.20627 18C2.4364 18 2.6265 17.95 2.75657 17.8499C2.88665 17.7499 2.95669 17.5999 2.95669 17.4298C2.95669 17.2797 2.90666 17.1595 2.8066 17.0694C2.70655 16.9794 2.54638 16.9093 2.32626 16.8693L2.15624 16.8294C1.99615 16.7994 1.88601 16.7493 1.82598 16.7092C1.76595 16.6692 1.73589 16.5992 1.73589 16.5091C1.73589 16.4191 1.76591 16.3591 1.83595 16.309C1.90599 16.259 1.99608 16.2391 2.12615 16.2391C2.28624 16.2391 2.4063 16.2691 2.47634 16.3292C2.54638 16.3892 2.58632 16.4792 2.59633 16.5992H2.8965C2.8965 16.4091 2.82646 16.259 2.69638 16.149C2.56631 16.0389 2.37629 15.9889 2.12615 15.9889V15.9889ZM12.4918 15.9889C12.2817 15.9889 12.1116 16.039 11.9916 16.129C11.8715 16.2191 11.8116 16.349 11.8116 16.5091C11.8116 16.6692 11.8616 16.7894 11.9617 16.8795C12.0617 16.9695 12.2118 17.0395 12.4119 17.0796L12.572 17.1194C12.7321 17.1595 12.8522 17.1996 12.9122 17.2396C12.9722 17.2896 13.0021 17.3497 13.0021 17.4298C13.0021 17.5298 12.9621 17.6097 12.8921 17.6697C12.812 17.7198 12.7021 17.7499 12.562 17.7499C12.3919 17.7499 12.2618 17.7099 12.1717 17.6398C12.0817 17.5698 12.0416 17.4596 12.0416 17.3195H11.7514C11.7514 17.5397 11.8216 17.7099 11.9716 17.83C12.1117 17.9501 12.3119 18 12.562 18C12.7921 18 12.9822 17.95 13.1123 17.8499C13.2424 17.7499 13.3124 17.5999 13.3124 17.4298C13.3324 17.2797 13.2823 17.1595 13.1823 17.0694C13.0822 16.9794 12.922 16.9093 12.7019 16.8693L12.5319 16.8294C12.3718 16.7994 12.2617 16.7493 12.2016 16.7092C12.1416 16.6692 12.1118 16.5992 12.1118 16.5091C12.1118 16.4191 12.1418 16.3591 12.2118 16.309C12.2818 16.259 12.3717 16.2391 12.5018 16.2391C12.6619 16.2391 12.782 16.2691 12.852 16.3292C12.922 16.3892 12.9622 16.4792 12.9722 16.5992H13.2624C13.2624 16.4091 13.1923 16.259 13.0623 16.149C12.9322 16.0389 12.742 15.9889 12.4918 15.9889V15.9889ZM3.74697 16.039V17.9699H5.11784V17.6998H4.03717V17.1095H4.99766V16.8593H4.03717V16.2991H5.11784V16.039H3.74697ZM5.95835 16.039V17.9699H6.24835V17.1796H6.80882C6.91888 17.1796 6.99877 17.2095 7.04879 17.2596C7.09882 17.3096 7.12892 17.3996 7.12892 17.5197L7.13888 17.7299C7.13888 17.84 7.15885 17.92 7.19888 17.9801H7.49904C7.46903 17.91 7.44905 17.83 7.43905 17.7299L7.41912 17.4298C7.41912 17.3197 7.38898 17.2395 7.34896 17.1695C7.30894 17.1094 7.2389 17.0595 7.14885 17.0395C7.2489 17.0095 7.32903 16.9493 7.37905 16.8693C7.43909 16.7893 7.46914 16.6892 7.46914 16.5691C7.46914 16.399 7.40903 16.2691 7.28897 16.1791C7.1689 16.089 7.00877 16.039 6.79866 16.039H5.95835ZM8.33955 16.039V17.9699H8.62975V16.039H8.33955ZM9.60021 16.039V17.9699H10.981V17.6998H9.89041V17.1095H10.8509V16.8593H9.89041V16.2991H10.981V16.039H9.60021ZM14.8531 16.039L15.5236 16.9594L14.7931 17.9699H15.1234L15.6837 17.1896L16.2539 17.9699H16.5841L15.8537 16.9594L16.5242 16.039H16.1939L15.6837 16.7393L15.1834 16.039H14.8531ZM6.26848 16.2891H6.78869C6.90876 16.2891 7.00889 16.319 7.06892 16.369C7.12896 16.419 7.16898 16.4992 7.16898 16.5992C7.16898 16.6993 7.13892 16.7894 7.07889 16.8394C7.01886 16.8994 6.92884 16.9295 6.81878 16.9295H6.26848V16.2891Z" fill="black"/>
</g>
<defs>
<clipPath id="clip0_661_4267">
<rect width="18" height="18" fill="white"/>
</clipPath>
</defs>
</svg>
