<svg width="18" height="18" viewBox="0 0 18 18" fill="none" xmlns="http://www.w3.org/2000/svg">
<path d="M5.86022 9.31907C5.41821 8.7656 5.15259 8.06369 5.15259 7.30029C5.15259 6.4457 5.48196 5.66957 6.02384 5.09278C6.02384 5.09278 6.5891 5.343 7.5411 5.9304C5.41609 8.12731 5.86022 9.31907 5.86022 9.31907V9.31907ZM8.3911 5.30483C8.3911 5.30271 8.38898 5.30271 8.3911 5.30483C9.68524 4.36966 10.4906 4.83831 10.4906 4.83831C9.92536 4.3527 9.19223 4.06006 8.38898 4.06006C7.58573 4.06006 6.8526 4.3527 6.28734 4.83831C6.28734 4.83831 7.09272 4.35694 8.38898 5.30271M6.05147 9.53113C6.6401 10.1482 7.46885 10.5342 8.38898 10.5342C9.31123 10.5342 10.1421 10.1482 10.7307 9.52689C10.7307 9.52689 10.3886 8.11459 8.37835 6.63019C6.57635 7.95979 6.05147 9.53113 6.05147 9.53113ZM10.922 9.31907C11.364 8.7656 11.6296 8.06369 11.6296 7.30029C11.6296 6.4457 11.2981 5.66957 10.7584 5.09278C10.7584 5.09278 10.1931 5.343 9.24111 5.9304C11.3661 8.12731 10.922 9.31907 10.922 9.31907V9.31907Z" fill="black"/>
<path d="M16.9922 14.3979H16.8258V14.2959H17.2781V14.3979H17.1117V14.8457H16.9904L16.9922 14.3979ZM17.4011 14.2959H17.5744L17.7026 14.6728L17.8256 14.2959H17.9954V14.844H17.8811V14.4567H17.8793L17.7442 14.8457H17.6523L17.5172 14.4601H17.5154V14.8457H17.4011V14.2959ZM15.7169 14.6676C15.5315 14.6676 15.3755 14.6071 15.2577 14.4878C14.9943 14.2267 14.9579 13.7408 14.9579 13.4745C14.9579 13.1166 15.0307 12.2832 15.7169 12.2832C16.403 12.2832 16.4793 13.1166 16.4793 13.4745C16.4775 13.8342 16.403 14.6676 15.7169 14.6676V14.6676ZM15.7169 12.0377C15.0636 12.0377 14.6894 12.5616 14.6894 13.4763C14.6894 14.3892 15.0636 14.9132 15.7169 14.9132C16.0877 14.9132 16.3649 14.7523 16.5399 14.4325C16.708 14.1282 16.7426 13.7443 16.7426 13.4745C16.7426 13.044 16.6422 12.0376 15.7169 12.0376M13.5111 14.6676C13.123 14.6676 12.818 14.3564 12.818 13.9587C12.818 13.5454 13.116 13.2342 13.5111 13.2342C13.6913 13.2342 13.8594 13.3034 13.9841 13.4296C14.121 13.5662 14.199 13.7598 14.199 13.9587C14.199 14.3564 13.8958 14.6676 13.5111 14.6676ZM13.5111 12.9887C13.3664 12.9886 13.2239 13.0235 13.0957 13.0903C12.9674 13.1572 12.8573 13.254 12.7747 13.3725C12.8076 12.8521 12.9757 12.2849 13.5423 12.2849C13.8594 12.2849 14.1002 12.4907 14.1522 12.8106L14.1609 12.8607H14.4243L14.4191 12.795C14.3671 12.3299 14.0309 12.0394 13.5406 12.0394C12.6811 12.0394 12.4992 12.8918 12.4992 13.6077C12.4992 14.4619 12.8492 14.9149 13.5094 14.9149C14.0534 14.9149 14.4624 14.5034 14.4624 13.9587C14.4641 13.3967 14.0638 12.9887 13.5111 12.9887M11.8511 13.376C12.0833 13.2688 12.2306 13.0388 12.2306 12.7656C12.2306 12.5737 12.1665 12.4111 12.0417 12.2849C11.8823 12.1258 11.6172 12.0342 11.3227 12.0342C10.8358 12.0342 10.4996 12.323 10.4476 12.7898L10.4407 12.8555H10.7041L10.7127 12.8054C10.7647 12.4855 11.0056 12.2797 11.3227 12.2797C11.6415 12.2797 11.9672 12.4457 11.9672 12.7656C11.9672 12.9022 11.9239 13.0129 11.839 13.0924C11.7039 13.2238 11.4509 13.2567 11.3209 13.2567C11.2741 13.2567 11.2048 13.2584 11.1355 13.2584C11.1338 13.3258 11.1338 13.4538 11.1355 13.5178H11.3209C11.567 13.5195 11.7593 13.5714 11.8789 13.6838C11.9776 13.7754 12.0279 13.9051 12.0279 14.0676C12.0279 14.4602 11.6727 14.6642 11.3227 14.6642C11.0939 14.6642 10.9068 14.595 10.7803 14.4636C10.6556 14.3339 10.5932 14.1489 10.6036 13.9258L10.6053 13.8636H10.3402L10.3385 13.9206C10.3246 14.2146 10.4043 14.4619 10.5689 14.633C10.7422 14.8129 11.0038 14.908 11.3244 14.908C11.9135 14.908 12.2947 14.5777 12.2947 14.0642C12.2913 13.7408 12.1232 13.4849 11.8511 13.376" fill="black"/>
<path d="M9.6852 14.8459L8.6265 13.409L9.59164 12.1035H9.22949L8.44455 13.1687L7.65964 12.1018H7.29924L8.26263 13.4073L7.20739 14.8442H7.56954L8.44455 13.6545L9.32306 14.8442H9.6852M2.48222 14.8459L1.42698 13.409L2.39038 12.1035H2.02998L1.24506 13.1687L0.460124 12.1035H0.09798L1.06312 13.409L0.00439453 14.8459H0.366539L1.24502 13.6563L2.12006 14.8459H2.48222Z" fill="black"/>
<path d="M3.74722 14.5589H2.93978V13.5612H3.74722C4.05564 13.5612 4.41953 13.6442 4.41953 14.0384C4.41953 14.4914 3.99848 14.5589 3.74722 14.5589V14.5589ZM2.9415 12.3888H3.74896C3.96729 12.3888 4.33289 12.4442 4.33289 12.8246C4.33289 13.1133 4.11976 13.2845 3.74894 13.2845H2.9415V12.3888ZM4.49057 13.5128C4.43341 13.4626 4.37274 13.4263 4.31037 13.3986C4.50963 13.2897 4.63958 13.0874 4.63958 12.8488C4.63958 12.6741 4.57546 12.1018 3.74722 12.1018H2.63308V13.2845H2.26226C2.21203 13.3468 2.10287 13.4972 2.06128 13.5594H2.63482V14.8442H3.74896C4.35542 14.8442 4.73142 14.5381 4.73142 14.0436C4.72968 13.8292 4.64652 13.6459 4.49057 13.5128ZM6.18 14.6159C5.59086 14.6159 5.17848 14.1456 5.17848 13.473C5.17848 12.8004 5.59086 12.33 6.18 12.33C6.76737 12.33 7.17631 12.8004 7.17631 13.473C7.17803 14.1456 6.76737 14.6159 6.17997 14.6159H6.18ZM6.18 12.0396C5.40545 12.0396 4.86657 12.6292 4.86657 13.473C4.86657 14.3168 5.40547 14.9064 6.17997 14.9064C6.94931 14.9064 7.4882 14.3168 7.4882 13.473C7.48994 12.6292 6.94931 12.0396 6.17997 12.0396" fill="black"/>
</svg>
