<svg width="18" height="18" viewBox="0 0 18 18" fill="none" xmlns="http://www.w3.org/2000/svg">
<path d="M1.97645 12.0596L2.02502 11.9982C2.55423 11.5104 3.13733 10.8871 3.7795 10.126C4.86501 8.84297 5.9596 7.33566 7.09017 5.59528L5.47529 4.03407L5.46696 4.02574C4.88744 3.4461 4.39679 2.95536 4.01281 2.52677C3.71863 2.21112 3.43387 1.88709 3.15817 1.55505L3.20845 1.57859C3.6897 1.9338 4.27072 2.28043 4.95151 2.61641C5.48076 2.88558 6.10885 3.16371 6.85337 3.45965L6.86704 3.46504L6.86708 3.46506C7.16894 3.58407 7.80091 3.83324 8.73753 4.19532C10.4961 3.52263 11.8329 2.95741 12.7571 2.47298C13.343 2.17565 13.8286 1.88241 14.2155 1.59608C12.3632 3.60433 11.0916 4.93718 10.4008 5.58597C11.316 6.91387 12.0604 7.95467 12.6437 8.70827C13.5207 9.83905 14.4966 10.937 15.5883 12.0074C15.1031 11.7103 14.6466 11.4231 14.219 11.1466C12.2182 9.82777 10.388 8.44609 8.73718 6.9836C7.11334 8.58975 5.30997 10.0161 3.30927 11.2634C2.89635 11.5225 2.45234 11.7871 1.97645 12.0596Z" fill="black"/>
<path d="M17.9541 13.5636H18V13.8128H17.9678V13.6052L17.8938 13.8128H17.8662L17.7925 13.6006V13.8128H17.7648V13.5636H17.8109L17.871 13.7435C17.8747 13.7547 17.8794 13.7655 17.885 13.7759C17.8861 13.7625 17.8909 13.7498 17.8987 13.7389L17.9541 13.5636Z" fill="black"/>
<path d="M17.7282 13.5961H17.6497V13.8128H17.6174V13.5961H17.5344V13.5636H17.7282V13.5961Z" fill="black"/>
<path d="M15.12 14.6881L16.509 13.5641H17.2838L15.5107 15.0022L17.2838 16.4402H16.509L15.12 15.3094L13.7377 16.4402H12.9559L14.7359 15.0022L12.9559 13.5641H13.7377L15.12 14.6881Z" fill="black"/>
<path fill-rule="evenodd" clip-rule="evenodd" d="M12.237 13.5641C12.558 13.8853 12.7255 14.3601 12.7255 15.0022C12.7255 15.6374 12.558 16.1191 12.237 16.4403H9.39601C9.06083 16.1191 8.8933 15.6444 8.8933 15.0022C8.8933 14.3601 9.06083 13.8853 9.39601 13.5641H12.237ZM12.1112 15.6725C12.2021 15.4418 12.2508 15.2187 12.2508 15.0022C12.2508 14.6602 12.1601 14.3391 11.9786 14.0388H9.64713C9.46563 14.3391 9.37482 14.6602 9.37482 15.0022C9.37482 15.2188 9.41673 15.442 9.51441 15.6725L9.64713 15.9725H11.9786L12.1112 15.6725Z" fill="black"/>
<path fill-rule="evenodd" clip-rule="evenodd" d="M8.1673 14.8837V15.1209L8.37662 15.2395C8.32773 15.77 8.16718 16.1677 7.89499 16.44H5.05396C4.78165 16.1748 4.61412 15.7769 4.57221 15.2395H4.11153V14.7647H4.57221C4.61412 14.2274 4.78165 13.8225 5.05396 13.5641H7.89511C8.1673 13.8295 8.32784 14.2343 8.37674 14.7717L8.1673 14.8837ZM7.89499 14.7647C7.85566 14.5086 7.76803 14.2622 7.63677 14.0387H5.31218C5.17958 14.2553 5.09587 14.4925 5.05396 14.7647H7.89499ZM7.63677 15.9725C7.76811 15.7466 7.85571 15.498 7.89499 15.2396H5.05396C5.09587 15.5119 5.17946 15.7562 5.31218 15.9725H7.63677Z" fill="black"/>
<path d="M2.54799 15.0022L4.32097 13.5641H3.53909L2.15694 14.6881L0.767798 13.5641H0L1.76611 15.0022L0 16.4402H0.767798L2.15694 15.3094L3.53909 16.4402H4.32097L2.54799 15.0022Z" fill="black"/>
<path d="M14.8831 1.59109H14.9289V1.84011H14.8967V1.63254L14.8227 1.84011H14.7953L14.7213 1.62788V1.84011H14.6936V1.59109H14.7397L14.7999 1.77096C14.8036 1.78206 14.8082 1.79281 14.8138 1.80309C14.815 1.78979 14.8198 1.77706 14.8275 1.76619L14.8831 1.59109Z" fill="black"/>
<path d="M14.657 1.62322H14.5786V1.84H14.5465V1.62322H14.4632V1.59109H14.657V1.62322Z" fill="black"/>
</svg>
