<svg width="18" height="18" viewBox="0 0 18 18" fill="none" xmlns="http://www.w3.org/2000/svg">
<path d="M6.4691 8.55406C6.0271 8.00059 5.76147 7.29868 5.76147 6.53527C5.76147 5.68068 6.09085 4.90456 6.63273 4.32776C6.63273 4.32776 7.19798 4.57799 8.14999 5.16539C6.02498 7.3623 6.4691 8.55406 6.4691 8.55406V8.55406ZM8.99999 4.53982C8.99999 4.5377 8.99787 4.5377 8.99999 4.53982C10.2941 3.60465 11.0995 4.07329 11.0995 4.07329C10.5342 3.58768 9.80112 3.29504 8.99787 3.29504C8.19461 3.29504 7.46148 3.58768 6.89623 4.07329C6.89623 4.07329 7.70161 3.59192 8.99787 4.5377M6.66035 8.76611C7.24898 9.3832 8.07774 9.76914 8.99787 9.76914C9.92012 9.76914 10.751 9.3832 11.3396 8.76187C11.3396 8.76187 10.9975 7.34957 8.98724 5.86517C7.18523 7.19477 6.66035 8.76611 6.66035 8.76611ZM11.5309 8.55406C11.9729 8.00059 12.2385 7.29868 12.2385 6.53527C12.2385 5.68068 11.907 4.90456 11.3673 4.32776C11.3673 4.32776 10.802 4.57799 9.85 5.16539C11.975 7.3623 11.5309 8.55406 11.5309 8.55406V8.55406Z" fill="black"/>
<path d="M13.6863 12.3848L15.3507 14.6416L15.6638 14.6419V11.8344H15.351V14.1404L13.6524 11.8327L13.374 11.8322V14.6398H13.6863V12.3848Z" fill="black"/>
<path d="M11.7501 11.7692C10.9606 11.7692 10.4088 12.373 10.4088 13.2373C10.4088 14.1031 10.9606 14.7068 11.7501 14.7068C12.5388 14.7068 13.0887 14.1031 13.0887 13.2373C13.0887 12.373 12.5388 11.7692 11.7501 11.7692M11.7501 14.4093C11.1488 14.4093 10.7272 13.9274 10.7272 13.2373C10.7272 12.5479 11.1488 12.0659 11.7501 12.0659C12.3506 12.0659 12.7695 12.5479 12.7695 13.2373C12.7696 13.9274 12.3506 14.4093 11.7501 14.4093" fill="black"/>
<path d="M17.9807 12.1072V11.8325H16.0151V14.6421H18V14.3673H16.33V13.3284H17.8756V13.0535H16.33V12.1072H17.9807Z" fill="black"/>
<path d="M7.82802 11.8342L8.63145 12.9256L9.43415 11.8342H9.80334L8.8183 13.1722L9.8981 14.6444H9.52891L8.63145 13.4259L7.73447 14.6444H7.36475L8.44408 13.1722L7.45856 11.8342H7.82802Z" fill="black"/>
<path d="M4.58778 13.2785C4.52916 13.2286 4.46551 13.1899 4.40371 13.1613C4.60763 13.0506 4.74141 12.8414 4.74141 12.5987C4.74141 12.4189 4.67512 11.8344 3.82795 11.8344H2.68689V13.0458H2.30671C2.25722 13.11 2.1454 13.2643 2.10266 13.3277H2.68689V14.6441L3.82795 14.6443C4.44606 14.6443 4.83021 14.3303 4.83021 13.824C4.83021 13.6027 4.74658 13.4146 4.58778 13.2785M3.00236 12.1275H3.82795C4.05159 12.1275 4.42568 12.1831 4.42568 12.5741C4.42568 12.8696 4.2076 13.0458 3.82795 13.0458H3.00236V12.1275V12.1275ZM3.82795 14.3512H3.00236V13.3281H3.82795C4.14104 13.3281 4.51553 13.4146 4.51553 13.8179C4.51553 14.2816 4.08494 14.3512 3.82795 14.3512" fill="black"/>
<path d="M6.31445 11.7694C5.52525 11.7694 4.97357 12.3732 4.97357 13.2376C4.97357 14.1033 5.52525 14.7067 6.31445 14.7067C7.10313 14.7067 7.65308 14.1033 7.65308 13.2376C7.65308 12.3732 7.10313 11.7694 6.31445 11.7694M6.31445 14.4095C5.71315 14.4095 5.29195 13.9276 5.29195 13.2376C5.29195 12.5482 5.71315 12.0664 6.31445 12.0664C6.91482 12.0664 7.3339 12.5482 7.3339 13.2376C7.3339 13.9276 6.91482 14.4095 6.31445 14.4095" fill="black"/>
<path d="M0.0950116 11.8344L1.08006 13.1722L0 14.6442H0.369988L1.26664 13.426L2.16383 14.6442H2.53342L1.45323 13.1722L2.43894 11.8344H2.06961L1.26611 12.926L0.46328 11.8344H0.0950116Z" fill="black"/>
</svg>
