<svg width="500" height="500" fill="none" xmlns="http://www.w3.org/2000/svg">
    <path d="M41.06 263.18s2.34 72.67 63 121.11 144.74 51.91 212.8 56.52c68.06 4.61 120.33-33.93 128.2-92.17C452.93 290.4 401 273.31 372.73 207c-28.27-66.31-25.73-88.08-85.4-128.85-59.67-40.77-153.1-15.74-202.06 54.12-48.96 69.86-44.21 130.91-44.21 130.91Z" fill="#7E57C2"/>
    <path opacity=".7" d="M41.06 263.18s2.34 72.67 63 121.11 144.74 51.91 212.8 56.52c68.06 4.61 120.33-33.93 128.2-92.17C452.93 290.4 401 273.31 372.73 207c-28.27-66.31-25.73-88.08-85.4-128.85-59.67-40.77-153.1-15.74-202.06 54.12-48.96 69.86-44.21 130.91-44.21 130.91Z" fill="#fff"/>
    <path d="M68.67 380.53h-9.18M440.51 380.53H83.19" stroke="#263238" stroke-width="1.113" stroke-miterlimit="10"/>
    <path d="M306.07 418.91c16.784 0 30.39-3.743 30.39-8.36 0-4.617-13.606-8.36-30.39-8.36s-30.39 3.743-30.39 8.36c0 4.617 13.606 8.36 30.39 8.36Z" fill="#263238"/>
    <path d="M149 429.54c-31.63 0-36.3-4.57-36.76-8.26a5.006 5.006 0 0 1 1.44-4.23c8.52-8.94 57.62-5.16 125.56.07 9.48.73 19.28 1.48 29.33 2.23 68.65 5.1 96.29 4.44 102-2.46 1.16-1.41 1.4-3.17.76-5.55-2.72-9.95-39.08-10-52.85-9.22a1.202 1.202 0 0 1-1.26-1.12 1.19 1.19 0 0 1 .299-.859 1.178 1.178 0 0 1 .821-.391c5.27-.31 51.57-2.64 55.28 11 .85 3.14.46 5.65-1.22 7.69-6.41 7.78-32.65 8.61-104 3.31-10.06-.75-19.86-1.5-29.34-2.23-64.76-5-115.92-8.93-123.66-.8a2.646 2.646 0 0 0-.8 2.29c.29 2.36 6 7.64 52 5.8 25.73-1 51.58-3.83 51.84-3.86a1.188 1.188 0 0 1 1.231 1.059 1.192 1.192 0 0 1-.971 1.301c-.26 0-26.19 2.84-52 3.87-6.64.24-12.52.36-17.7.36Z" fill="#fff" stroke="#263238" stroke-width="1.113" stroke-miterlimit="10"/>
    <path d="M294.77 417.89c19.777 0 35.81-16.033 35.81-35.81s-16.033-35.81-35.81-35.81-35.81 16.033-35.81 35.81 16.033 35.81 35.81 35.81Z" fill="#fff"/>
    <mask id="a" style="mask-type:luminance" maskUnits="userSpaceOnUse" x="258" y="346" width="73" height="72">
        <path d="M294.77 417.89c19.777 0 35.81-16.033 35.81-35.81s-16.033-35.81-35.81-35.81-35.81 16.033-35.81 35.81 16.033 35.81 35.81 35.81Z" fill="#fff"/>
    </mask>
    <g mask="url(#a)">
        <path d="M294.77 417.89a35.797 35.797 0 0 0 31.679-19.079 35.801 35.801 0 0 0-2.099-36.921c-.39 15.6-9 38.63-53.78 46.55a35.67 35.67 0 0 0 24.2 9.45Z" fill="#7E57C2"/>
        <path opacity=".3" d="M294.77 417.89a35.797 35.797 0 0 0 31.679-19.079 35.801 35.801 0 0 0-2.099-36.921c-.39 15.6-9 38.63-53.78 46.55a35.67 35.67 0 0 0 24.2 9.45Z" fill="#fff"/>
        <path d="M312.39 396.12a56.944 56.944 0 0 0-22.64-13.51m22.64 13.51h1.9a65.751 65.751 0 0 0 10.79-14.06C308.31 364.34 292 366.15 292 366.15s16.36-1.81 33.13 15.93c.92-1.65 1.69-3.2 2.32-4.63-6.98-9.78-19-16.45-25.45-17.45l-1.5-.36m11.89 36.48c-14.73-.21-25.93-2.49-34.3-5.54.54-22.62 8.61-37.69 12.83-44.07a36.062 36.062 0 0 1 4.05-.24c1.23 0 2.43.07 3.63.18m1.9 13.19a21.25 21.25 0 0 0-7-.1m7 .1 4.27-12a35.766 35.766 0 0 0-6.17-1.19m0 0c-2.77 4.47-9.9 18.75-9.9 47.08m31.78-4.7c-14.26-13.9-30-14.63-30-14.63" stroke="#263238" stroke-width="1.113" stroke-linecap="round" stroke-linejoin="round"/>
        <path d="M278.05 390.64c.54-22.62 8.61-37.69 12.83-44.07a35.837 35.837 0 0 0-9.61 2.46 71.371 71.371 0 0 0-12.35 37.6 65.253 65.253 0 0 0 9.13 4.01Z" stroke="#263238" stroke-width="1.113" stroke-linecap="round" stroke-linejoin="round"/>
        <path d="M281.27 349a35.886 35.886 0 0 0-22.12 30.72 46.125 46.125 0 0 0 9.77 6.88 71.371 71.371 0 0 1 12.35-37.6ZM327.4 377.45a44.281 44.281 0 0 0 2-5.3 36.009 36.009 0 0 0-7.63-13.78l-2.77 9.24 2.72-9.24a36.003 36.003 0 0 0-7.55-6.42l-3.05 11.41 3.07-11.36a35.43 35.43 0 0 0-9.46-4.25l-4.27 12c6.54.94 16.65 4.79 26.94 17.7Z" stroke="#263238" stroke-width="1.113" stroke-linecap="round" stroke-linejoin="round"/>
        <path d="M296.75 409.73a98.827 98.827 0 0 0 11.89-8.45c2.05-1.72 5.81-5.13 5.93-5.13-.12 0 7.06-8.1 9.44-12.33 0 .06 1.06-1.68 1-1.74-.06-.06.86-1.51.8-1.57a22.633 22.633 0 0 0 1.52-3.06 44.281 44.281 0 0 0 2-5.3 35.863 35.863 0 0 1 1.44 10.06v1.56C315.65 405 304 414.1 296.67 418.09h-1.8c-3.667 0-7.312-.559-10.81-1.66a124.15 124.15 0 0 0 12.69-6.7Zm0 0h.26" stroke="#263238" stroke-width="1.113" stroke-linecap="round" stroke-linejoin="round"/>
        <path d="M330.77 383.77C315.65 405 304 414.1 296.73 418a35.882 35.882 0 0 0 34.04-34.23ZM266.89 404.57a35.858 35.858 0 0 0 17.23 11.86 124.15 124.15 0 0 0 12.69-6.7c-8.54 1.58-21.9-2.34-29.92-5.16Z" stroke="#263238" stroke-width="1.113" stroke-linecap="round" stroke-linejoin="round"/>
        <path d="M296.81 409.73a98.827 98.827 0 0 0 11.89-8.45c-25.79 2.64-41.7-5.35-48.46-9.89a35.767 35.767 0 0 0 6.65 13.18c8.02 2.82 21.38 6.74 29.92 5.16Z" stroke="#263238" stroke-width="1.113" stroke-linecap="round" stroke-linejoin="round"/>
        <path d="M312.39 396.14h1.9a83.94 83.94 0 0 1-5.59 5.14c-25.79 2.64-41.7-5.35-48.46-9.87a36.096 36.096 0 0 1-1.19-9.18c0-.83.04-1.64.1-2.46 2.18 2.05 6.61 6.63 18.9 10.89 8.41 2.99 19.61 5.27 34.34 5.48Zm0 0c.14.13.28.26.41.4" stroke="#263238" stroke-width="1.113" stroke-linecap="round" stroke-linejoin="round"/>
    </g>
    <path d="M294.77 417.89c19.777 0 35.81-16.033 35.81-35.81s-16.033-35.81-35.81-35.81-35.81 16.033-35.81 35.81 16.033 35.81 35.81 35.81Z" stroke="#263238" stroke-width="1.113" stroke-linecap="round" stroke-linejoin="round"/>
    <path d="M231.15 342.28c-22.26 0-35.64-19.75-40.39-37.12l-.16-.61a6.535 6.535 0 0 1 2.272-7.062 6.534 6.534 0 0 1 9.318 1.385c.51.716.871 1.528 1.06 2.387l.12.45c3.61 13.22 13.44 28.33 29.21 27.46a21.162 21.162 0 0 0 15.48-7.55c8.65-9.92 12.52-31.49 11.66-42.37a5.24 5.24 0 0 1 1.153-3.925 5.222 5.222 0 0 1 5.699-1.641 5.224 5.224 0 0 1 3.568 4.736c1 12.11-.32 38.14-12.23 51.79a34.107 34.107 0 0 1-24.59 12c-.73.05-1.46.07-2.17.07Z" fill="#fff"/>
    <mask id="b" style="mask-type:luminance" maskUnits="userSpaceOnUse" x="190" y="273" width="81" height="70">
        <path d="M231.15 342.28c-22.26 0-35.64-19.75-40.39-37.12l-.16-.61a6.535 6.535 0 0 1 2.272-7.062 6.534 6.534 0 0 1 9.318 1.385c.51.716.871 1.528 1.06 2.387l.12.45c3.61 13.22 13.44 28.33 29.21 27.46a21.162 21.162 0 0 0 15.48-7.55c8.65-9.92 12.52-31.49 11.66-42.37a5.24 5.24 0 0 1 1.153-3.925 5.222 5.222 0 0 1 5.699-1.641 5.224 5.224 0 0 1 3.568 4.736c1 12.11-.32 38.14-12.23 51.79a34.107 34.107 0 0 1-24.59 12c-.73.05-1.46.07-2.17.07Z" fill="#fff"/>
    </mask>
    <g mask="url(#b)">
        <path d="M264.51 273.62a5.229 5.229 0 0 0-4.79 5.63c.42 5.31-.29 13.16-2.13 21a23.12 23.12 0 0 1 7.77 1 41.358 41.358 0 0 1-7.64 20.87c-9.71 13.49-24.27 17.8-35.6 16.18-5.07-.72-10.88-3.38-15.77-6.11a35.585 35.585 0 0 0 24.8 10.11c.71 0 1.44 0 2.17-.06a34.106 34.106 0 0 0 24.59-12c11.91-13.65 13.19-39.68 12.23-51.79a5.2 5.2 0 0 0-.545-1.975 5.209 5.209 0 0 0-3.05-2.617 5.216 5.216 0 0 0-2.035-.238Z" fill="#7E57C2"/>
        <path opacity=".5" d="M264.51 273.62a5.229 5.229 0 0 0-4.79 5.63c.42 5.31-.29 13.16-2.13 21a23.12 23.12 0 0 1 7.77 1 41.358 41.358 0 0 1-7.64 20.87c-9.71 13.49-24.27 17.8-35.6 16.18-5.07-.72-10.88-3.38-15.77-6.11a35.585 35.585 0 0 0 24.8 10.11c.71 0 1.44 0 2.17-.06a34.106 34.106 0 0 0 24.59-12c11.91-13.65 13.19-39.68 12.23-51.79a5.2 5.2 0 0 0-.545-1.975 5.209 5.209 0 0 0-3.05-2.617 5.216 5.216 0 0 0-2.035-.238Z" fill="#fff"/>
    </g>
    <path d="M231.15 342.28c-22.26 0-35.64-19.75-40.39-37.12l-.16-.61a6.535 6.535 0 0 1 2.272-7.062 6.534 6.534 0 0 1 9.318 1.385c.51.716.871 1.528 1.06 2.387l.12.45c3.61 13.22 13.44 28.33 29.21 27.46a21.162 21.162 0 0 0 15.48-7.55c8.65-9.92 12.52-31.49 11.66-42.37a5.24 5.24 0 0 1 1.153-3.925 5.222 5.222 0 0 1 5.699-1.641 5.224 5.224 0 0 1 3.568 4.736c1 12.11-.32 38.14-12.23 51.79a34.107 34.107 0 0 1-24.59 12c-.73.05-1.46.07-2.17.07Z" stroke="#263238" stroke-width="1.113" stroke-linecap="round" stroke-linejoin="round"/>
    <path d="M218.31 328.75c.53-2.45-5.33 1.38-10.24 4.95a38.326 38.326 0 0 0 5.84 4.07c1.75-2.85 3.89-6.66 4.4-9.02ZM231.15 342.28c.71 0 1.44 0 2.17-.06a37.929 37.929 0 0 0 6.31-.89c-2.76-3.6-6.56-8.36-7.65-8.72-1.25-.42-3.66 5.71-5 9.43 1.384.161 2.776.242 4.17.24ZM203.37 301.71l-.12-.45a6.536 6.536 0 0 0-8.033-4.921 6.524 6.524 0 0 0-2.345 1.149 6.542 6.542 0 0 0-2.272 7.062l.16.61a64.09 64.09 0 0 0 7.6 17.27l11.91-5.67a49.848 49.848 0 0 1-6.9-15.05ZM257.91 330.21a33.879 33.879 0 0 0 2.54-3.34c-3.78-1.29-9.44-3.07-11.54-2.88-2.49.23.89 8.23 2.63 12a36.796 36.796 0 0 0 6.37-5.78ZM258.12 308.84c-.4.8 4.49 4.36 7.79 6.65a75.208 75.208 0 0 0 2.52-9.52c-4 .8-9.92 2.09-10.31 2.87ZM270.05 294.05c.22-2.85.33-5.57.34-8.07-3.44 1.89-7.52 4.51-7.52 6.23 0 1.72 3.82 1.93 7.18 1.84Z" fill="#7E57C2" stroke="#263238" stroke-width="1.113" stroke-linecap="round" stroke-linejoin="round"/>
    <path d="M216.21 216.68s-9.71 28.12-4.48 50a42.77 42.77 0 0 0 24.39 29.11s-14.19 5-11 12.69c3.19 7.69 15.42 2.74 19.41.25s9-9.95 9.7-14.93c.445-2.544.613-5.129.5-7.71 0 0 16.17-1.74 27.12-10.7 0 0 9.71 7.71 16.68 6.22 6.97-1.49 16.92-13.94 15.92-25.13-1-11.19-7.45-11.18-11.39-9.48a16.004 16.004 0 0 0-5.48 3.48s5.72-7 0-16.67a21.757 21.757 0 0 0-15.93-10.45s-3-15.93-11.94-21.9c-8.94-5.97-40.81-12.15-53.5 15.22Z" fill="#fff"/>
    <mask id="c" style="mask-type:luminance" maskUnits="userSpaceOnUse" x="210" y="196" width="105" height="117">
        <path d="M216.21 216.68s-9.71 28.12-4.48 50a42.77 42.77 0 0 0 24.39 29.11s-14.19 5-11 12.69c3.19 7.69 15.42 2.74 19.41.25s9-9.95 9.7-14.93c.445-2.544.613-5.129.5-7.71 0 0 16.17-1.74 27.12-10.7 0 0 9.71 7.71 16.68 6.22 6.97-1.49 16.92-13.94 15.92-25.13-1-11.19-7.45-11.18-11.39-9.48a16.004 16.004 0 0 0-5.48 3.48s5.72-7 0-16.67a21.757 21.757 0 0 0-15.93-10.45s-3-15.93-11.94-21.9c-8.94-5.97-40.81-12.15-53.5 15.22Z" fill="#fff"/>
    </mask>
    <g mask="url(#c)">
        <path d="M290.14 226.35a56.394 56.394 0 0 1-43.86 27.22c-19.8 1.74-30.9-2.16-36-4.87a126.99 126.99 0 0 1 6-32c12.69-27.37 44.54-21.15 53.5-15.18 8.96 5.97 11.94 21.9 11.94 21.9a21.374 21.374 0 0 1 8.42 2.93ZM303.06 247a16.004 16.004 0 0 0-5.48 3.48 13.057 13.057 0 0 0 2.33-5.64c-13.45 6.7-12.4 21-14.07 21-2.06 0-3.08-7.19-3.08-7.19s-2.57 10.27-18 17.47c-15.43 7.2-32.88 1.54-32.88 1.54s3.6 8.22-5.65 7.19a15.266 15.266 0 0 1-7.23-2.64 42.825 42.825 0 0 0 17.1 13.54s-14.19 5-11 12.69c3.19 7.69 15.43 2.74 19.41.25 3.98-2.49 9-9.95 9.7-14.93a35.69 35.69 0 0 0 .5-7.71s16.17-1.74 27.12-10.7c0 0 9.71 7.71 16.68 6.22 6.97-1.49 16.92-13.94 15.92-25.13-1-11.19-7.43-11.14-11.37-9.44Z" fill="#7E57C2"/>
        <path opacity=".5" d="M290.14 226.35a56.394 56.394 0 0 1-43.86 27.22c-19.8 1.74-30.9-2.16-36-4.87a126.99 126.99 0 0 1 6-32c12.69-27.37 44.54-21.15 53.5-15.18 8.96 5.97 11.94 21.9 11.94 21.9a21.374 21.374 0 0 1 8.42 2.93ZM303.06 247a16.004 16.004 0 0 0-5.48 3.48 13.057 13.057 0 0 0 2.33-5.64c-13.45 6.7-12.4 21-14.07 21-2.06 0-3.08-7.19-3.08-7.19s-2.57 10.27-18 17.47c-15.43 7.2-32.88 1.54-32.88 1.54s3.6 8.22-5.65 7.19a15.266 15.266 0 0 1-7.23-2.64 42.825 42.825 0 0 0 17.1 13.54s-14.19 5-11 12.69c3.19 7.69 15.43 2.74 19.41.25 3.98-2.49 9-9.95 9.7-14.93a35.69 35.69 0 0 0 .5-7.71s16.17-1.74 27.12-10.7c0 0 9.71 7.71 16.68 6.22 6.97-1.49 16.92-13.94 15.92-25.13-1-11.19-7.43-11.14-11.37-9.44Z" fill="#fff"/>
        <path d="M254.78 286.11a35.119 35.119 0 0 1-28.15-12.91" stroke="#263238" stroke-width="1.113" stroke-linecap="round" stroke-linejoin="round"/>
    </g>
    <path d="M216.21 216.68s-9.71 28.12-4.48 50a42.77 42.77 0 0 0 24.39 29.11s-14.19 5-11 12.69c3.19 7.69 15.42 2.74 19.41.25s9-9.95 9.7-14.93c.445-2.544.613-5.129.5-7.71 0 0 16.17-1.74 27.12-10.7 0 0 9.71 7.71 16.68 6.22 6.97-1.49 16.92-13.94 15.92-25.13-1-11.19-7.45-11.18-11.39-9.48a16.004 16.004 0 0 0-5.48 3.48s5.72-7 0-16.67a21.757 21.757 0 0 0-15.93-10.45s-3-15.93-11.94-21.9c-8.94-5.97-40.81-12.15-53.5 15.22Z" stroke="#263238" stroke-width="1.113" stroke-linecap="round" stroke-linejoin="round"/>
    <path d="M297.58 250.52s-5.22 3.49-7.71 14.19" stroke="#263238" stroke-width="1.113" stroke-linecap="round" stroke-linejoin="round"/>
    <path d="M307.17 255.1c-.61 1.82-2.28 2.91-3.72 2.42-1.44-.49-2.1-2.36-1.49-4.18.61-1.82 2.28-2.91 3.72-2.42 1.44.49 2.11 2.36 1.49 4.18ZM312.32 258.34c-.61 1.82-2.28 2.91-3.72 2.42-1.44-.49-2.11-2.36-1.49-4.18.62-1.82 2.28-2.91 3.72-2.42 1.44.49 2.11 2.36 1.49 4.18Z" fill="#fff" stroke="#263238" stroke-width="1.113" stroke-linecap="round" stroke-linejoin="round"/>
    <path d="M313.42 263.19a2.057 2.057 0 0 1-1.964.996 2.06 2.06 0 1 1 .874-3.996 2.323 2.323 0 0 1 1.09 3ZM306.85 269.85c-1.8 3.25-5.4 4.69-8.05 3.22-2.65-1.47-3.33-5.28-1.53-8.53 1.8-3.25 5.4-4.69 8.05-3.22 2.65 1.47 3.33 5.28 1.53 8.53Z" fill="#fff" stroke="#263238" stroke-width="1.113" stroke-linecap="round" stroke-linejoin="round"/>
    <path d="M236.12 295.81a15.003 15.003 0 0 0 10.7.75M225.17 308.5s1-4.23 7.21-7.21M231.39 312.24s2.49-6 6.72-8.71" stroke="#263238" stroke-width="1.113" stroke-linecap="round" stroke-linejoin="round"/>
    <path d="M133.26 243.4a8.577 8.577 0 0 1-3.22-7.09V212.6H68.88a10.37 10.37 0 0 1-8-3.32 11.2 11.2 0 0 1-3.06-7.84 11.92 11.92 0 0 1 2-6.65l58.58-92.06c4.4-6.793 10.247-10.19 17.54-10.19a15.68 15.68 0 0 1 10.73 3.76c2.86 2.5 4.29 6.217 4.29 11.15v89.49h15.56a7.34 7.34 0 0 1 5.79 2.3 8.52 8.52 0 0 1 0 11.06 7.336 7.336 0 0 1-5.79 2.3h-15.67v23.71a8.687 8.687 0 0 1-3.11 7.09 11 11 0 0 1-7.19 2.57 11.367 11.367 0 0 1-7.29-2.57ZM130 196.94v-82.4l-51.29 82.4H130ZM218.13 243.88a42.423 42.423 0 0 1-15.51-11.59 59.989 59.989 0 0 1-9.76-17.65 102.355 102.355 0 0 1-5.31-21.35 176.811 176.811 0 0 1-1.5-23.93c0-52.713 18-79.07 54-79.07s53.957 26.357 53.87 79.07c.036 7.963-.449 15.92-1.45 23.82a100.226 100.226 0 0 1-5.26 21.35 59.989 59.989 0 0 1-9.76 17.65 42.863 42.863 0 0 1-15.51 11.64 51.649 51.649 0 0 1-21.89 4.4 52.24 52.24 0 0 1-21.92-4.34Zm32.56-15.13a25.3 25.3 0 0 0 8.05-5.47 31.751 31.751 0 0 0 5.68-8.42 59.821 59.821 0 0 0 3.81-10.2 83.38 83.38 0 0 0 2.2-11.64c.54-4.333.9-8.303 1.08-11.91.18-3.607.267-7.523.26-11.75 0-4.433-.087-8.527-.26-12.28-.173-3.753-.55-7.78-1.13-12.08a91.554 91.554 0 0 0-2.25-11.64 56.517 56.517 0 0 0-3.81-10.08 31.364 31.364 0 0 0-5.69-8.27 24.484 24.484 0 0 0-8-5.31 29.498 29.498 0 0 0-21.25 0 24.197 24.197 0 0 0-7.94 5.26 32.006 32.006 0 0 0-5.68 8.21A51.009 51.009 0 0 0 212 133.2a95.416 95.416 0 0 0-2.2 11.7c-.58 4.36-.957 8.42-1.13 12.18-.173 3.76-.263 7.853-.27 12.28 0 4.22.09 8.153.27 11.8.18 3.647.537 7.647 1.07 12a84.74 84.74 0 0 0 2.2 11.64 59.732 59.732 0 0 0 3.77 10.2 31.504 31.504 0 0 0 5.63 8.37 24.88 24.88 0 0 0 8 5.42 28.313 28.313 0 0 0 21.35 0v-.04ZM386.58 243.4a8.577 8.577 0 0 1-3.22-7.09V212.6H322.2a10.37 10.37 0 0 1-8-3.32 11.201 11.201 0 0 1-3.06-7.84 11.92 11.92 0 0 1 2-6.65l58.58-92.06c4.36-6.793 10.19-10.19 17.49-10.19A15.68 15.68 0 0 1 400 96.3c2.86 2.5 4.29 6.217 4.29 11.15v89.49h15.56a7.34 7.34 0 0 1 5.79 2.3 8.52 8.52 0 0 1 0 11.06 7.336 7.336 0 0 1-5.79 2.3h-15.68v23.71a8.687 8.687 0 0 1-3.11 7.09 11 11 0 0 1-7.19 2.57 11.367 11.367 0 0 1-7.29-2.57Zm-3.22-46.46v-82.4l-51.29 82.4h51.29Z" fill="#263238"/>
    <path d="M196.05 202.5s-10.45 14.68-11.94 29.61c-1.49 14.93.25 24.88 4.73 28.62 4.48 3.74 8.95 2.24 11.44-1.25s-1.49-15.68-1.49-15.68 4.23-11.69 10.7-19.9c6.47-8.21 7.71-9.46 7.71-9.46s-11.2-12.69-21.15-11.94Z" fill="#fff"/>
    <mask id="d" style="mask-type:luminance" maskUnits="userSpaceOnUse" x="183" y="202" width="35" height="61">
        <path d="M196.05 202.5s-10.45 14.68-11.94 29.61c-1.49 14.93.25 24.88 4.73 28.62 4.48 3.74 8.95 2.24 11.44-1.25s-1.49-15.68-1.49-15.68 4.23-11.69 10.7-19.9c6.47-8.21 7.71-9.46 7.71-9.46s-11.2-12.69-21.15-11.94Z" fill="#fff"/>
    </mask>
    <g mask="url(#d)">
        <path d="M196.05 202.5a80.743 80.743 0 0 0-6.05 10.58c5 2 12.75 6.1 17.67 13.36.6-.87 1.22-1.73 1.86-2.54 6.47-8.21 7.71-9.46 7.71-9.46S206 201.75 196.05 202.5Z" fill="#7E57C2"/>
        <path opacity=".5" d="M196.05 202.5a80.743 80.743 0 0 0-6.05 10.58c5 2 12.75 6.1 17.67 13.36.6-.87 1.22-1.73 1.86-2.54 6.47-8.21 7.71-9.46 7.71-9.46S206 201.75 196.05 202.5Z" fill="#fff"/>
    </g>
    <path d="M196.05 202.5s-10.45 14.68-11.94 29.61c-1.49 14.93.25 24.88 4.73 28.62 4.48 3.74 8.95 2.24 11.44-1.25s-1.49-15.68-1.49-15.68 4.23-11.69 10.7-19.9c6.47-8.21 7.71-9.46 7.71-9.46s-11.2-12.69-21.15-11.94Z" stroke="#263238" stroke-width="1.113" stroke-linecap="round" stroke-linejoin="round"/>
    <path d="M188.84 260.73a27.62 27.62 0 0 1-1.75-10.21M195.55 262.22s-2.48-4.23-2.73-11.45" stroke="#263238" stroke-width="1.113" stroke-linecap="round" stroke-linejoin="round"/>
    <path d="M199.29 229.12c0-2.62-5-7.74-11.95-10a59.065 59.065 0 0 0-2.31 7.47c2.7.462 5.322 1.3 7.79 2.49 3.73 2.03 6.47 3.03 6.47.04ZM195.44 203.39A83.968 83.968 0 0 0 191 211a23.928 23.928 0 0 1 6 2.5c7.71 4.47 9.2 5 6.72-1.5-1.5-4.08-5.08-6.85-8.28-8.61Z" fill="#7E57C2" stroke="#263238" stroke-width="1.113" stroke-linecap="round" stroke-linejoin="round"/>
    <path d="M277.9 195.25s11.84 13.58 14.79 28.3c2.95 14.72 2.2 24.79-1.9 28.94-4.1 4.15-8.69 3.11-11.51-.12-2.82-3.23 0-15.74 0-15.74s-5.36-11.23-12.6-18.77c-7.24-7.54-8.61-8.65-8.61-8.65s9.85-13.73 19.83-13.96Z" fill="#fff"/>
    <mask id="e" style="mask-type:luminance" maskUnits="userSpaceOnUse" x="258" y="195" width="37" height="61">
        <path d="M277.9 195.25s11.84 13.58 14.79 28.3c2.95 14.72 2.2 24.79-1.9 28.94-4.1 4.15-8.69 3.11-11.51-.12-2.82-3.23 0-15.74 0-15.74s-5.36-11.23-12.6-18.77c-7.24-7.54-8.61-8.65-8.61-8.65s9.85-13.73 19.83-13.96Z" fill="#fff"/>
    </mask>
    <g mask="url(#e)">
        <path d="M277.9 195.25c-10 .23-19.88 14-19.88 14s1.36 1.12 8.61 8.65a53.023 53.023 0 0 1 3.82 4.5 42.147 42.147 0 0 1 15.67-15.3 81.517 81.517 0 0 0-8.22-11.85Z" fill="#7E57C2"/>
        <path opacity=".5" d="M277.9 195.25c-10 .23-19.88 14-19.88 14s1.36 1.12 8.61 8.65a53.023 53.023 0 0 1 3.82 4.5 42.147 42.147 0 0 1 15.67-15.3 81.517 81.517 0 0 0-8.22-11.85Z" fill="#fff"/>
    </g>
    <path d="M277.9 195.25s11.84 13.58 14.79 28.3c2.95 14.72 2.2 24.79-1.9 28.94-4.1 4.15-8.69 3.11-11.51-.12-2.82-3.23 0-15.74 0-15.74s-5.36-11.23-12.6-18.77c-7.24-7.54-8.61-8.65-8.61-8.65s9.85-13.73 19.83-13.96Z" stroke="#263238" stroke-width="1.113" stroke-linecap="round" stroke-linejoin="round"/>
    <path d="M290.79 252.49a27.539 27.539 0 0 0 .74-10.32M284.25 254.63s2.07-4.45 1.61-11.66" stroke="#263238" stroke-width="1.113" stroke-linecap="round" stroke-linejoin="round"/>
    <path d="M277.29 222.06c-.25-2.61 4.22-8.19 10.92-11.08a58.587 58.587 0 0 1 3 7.2 29.933 29.933 0 0 0-7.5 3.25c-3.5 2.35-6.12 3.57-6.42.63ZM278.59 196.08a81.409 81.409 0 0 1 5.14 7.09 24.093 24.093 0 0 0-5.75 3.07c-7.23 5.22-8.67 5.86-6.83-.82 1.15-4.17 4.43-7.28 7.44-9.34Z" fill="#7E57C2" stroke="#263238" stroke-width="1.113" stroke-linecap="round" stroke-linejoin="round"/>
    <path d="M195.07 189.8s-3.08 10.39-1.92 14.62c1.16 4.23 6.54.39 11.93 5s10.38 12.93 30.79 14.47c20.41 1.54 32.73-9.47 37-15.63 4.27-6.16 3.85-13.47 11.16-13.85 7.31-.38 1.16-14.63-1.15-16.94 0 0 14.24-21.17 14.24-26.56 0-5.39-13.47-4.24-30 .77 0 0-12.32-6.55-34.65-2.7-22.33 3.85-28.87 10.4-28.87 10.4s-27.72 3.46-29.64 6.92c-1.92 3.46 3.79 18.11 21.11 23.5Z" fill="#fff"/>
    <mask id="f" style="mask-type:luminance" maskUnits="userSpaceOnUse" x="173" y="147" width="125" height="78">
        <path d="M195.07 189.8s-3.08 10.39-1.92 14.62c1.16 4.23 6.54.39 11.93 5s10.38 12.93 30.79 14.47c20.41 1.54 32.73-9.47 37-15.63 4.27-6.16 3.85-13.47 11.16-13.85 7.31-.38 1.16-14.63-1.15-16.94 0 0 14.24-21.17 14.24-26.56 0-5.39-13.47-4.24-30 .77 0 0-12.32-6.55-34.65-2.7-22.33 3.85-28.87 10.4-28.87 10.4s-27.72 3.46-29.64 6.92c-1.92 3.46 3.79 18.11 21.11 23.5Z" fill="#fff"/>
    </mask>
    <g mask="url(#f)">
        <path d="M284 194.42c7.32-.39 1.16-14.63-1.15-16.94 0 0 2.71-4 5.76-9-8.27-4.32-16.39-6.72-18.55-4.29-4.65 5.22-2.12 15.22 0 25s-6.35 13.95-12.27 22.41-14.37-.85-14.37-.85c-3 12.27-15.65 4.23-15.65 4.23-9.72-3-26.21-12.68-22.83-19.45 3.38-6.77 4.23-13.11-1.69-18.6-5.92-5.49-29.53-10.06-29.53-10.06-1.24 4.17 4.75 17.83 21.36 23 0 0-3.08 10.39-1.92 14.62 1.16 4.23 6.54.39 11.93 5s10.38 12.93 30.79 14.47c20.41 1.54 32.73-9.47 37-15.63 4.27-6.16 3.8-13.53 11.12-13.91Z" fill="#7E57C2"/>
        <path opacity=".5" d="M284 194.42c7.32-.39 1.16-14.63-1.15-16.94 0 0 2.71-4 5.76-9-8.27-4.32-16.39-6.72-18.55-4.29-4.65 5.22-2.12 15.22 0 25s-6.35 13.95-12.27 22.41-14.37-.85-14.37-.85c-3 12.27-15.65 4.23-15.65 4.23-9.72-3-26.21-12.68-22.83-19.45 3.38-6.77 4.23-13.11-1.69-18.6-5.92-5.49-29.53-10.06-29.53-10.06-1.24 4.17 4.75 17.83 21.36 23 0 0-3.08 10.39-1.92 14.62 1.16 4.23 6.54.39 11.93 5s10.38 12.93 30.79 14.47c20.41 1.54 32.73-9.47 37-15.63 4.27-6.16 3.8-13.53 11.12-13.91Z" fill="#fff"/>
        <path d="M253.89 196.74c.29 2.44-5.13 5.07-12.08 5.88-6.95.81-12.83-.51-13.12-3-.29-2.49 5.13-5.06 12.09-5.87 6.96-.81 12.83.56 13.11 2.99Z" fill="#7E57C2"/>
        <path opacity=".5" d="M253.89 196.74c.29 2.44-5.13 5.07-12.08 5.88-6.95.81-12.83-.51-13.12-3-.29-2.49 5.13-5.06 12.09-5.87 6.96-.81 12.83.56 13.11 2.99Z" fill="#fff"/>
    </g>
    <path d="M195.07 189.8s-3.08 10.39-1.92 14.62c1.16 4.23 6.54.39 11.93 5s10.38 12.93 30.79 14.47c20.41 1.54 32.73-9.47 37-15.63 4.27-6.16 3.85-13.47 11.16-13.85 7.31-.38 1.16-14.63-1.15-16.94 0 0 14.24-21.17 14.24-26.56 0-5.39-13.47-4.24-30 .77 0 0-12.32-6.55-34.65-2.7-22.33 3.85-28.87 10.4-28.87 10.4s-27.72 3.46-29.64 6.92c-1.92 3.46 3.79 18.11 21.11 23.5Z" stroke="#263238" stroke-width="1.113" stroke-miterlimit="10"/>
    <path d="M274.69 159c-10 6.72-6.47 13.44-2 17.17 2.73 2.28 7.13 2 10.14 1.36 0 0 14.24-21.17 14.24-26.56.01-.05-12.43 1.26-22.38 8.03ZM173.71 166.8c-1.24 4.17 4.75 17.83 21.36 23 0 0 12.68-1.24 8.45-11.44-3.95-9.52-23.92-11.89-29.81-11.56ZM232.41 149c-1.31.23-2.57.47-3.78.71 2 10.1 5.29 26.92 8.23 26.92 2.94 0 5.19-18.44 6.15-28.77-3.554.15-7.095.53-10.6 1.14ZM220.94 173.63c3.06-1.8 2.6-15.33 2.11-22.67a82.128 82.128 0 0 0-9.31 2.91c1.11 6.87 3.93 21.68 7.2 19.76ZM250.55 167.41c3.13 1.1 4.89-10.15 5.88-18.81a62.356 62.356 0 0 0-9.56-.81c-.1 7.11.29 18.43 3.68 19.62Z" fill="#7E57C2" stroke="#263238" stroke-width="1.113" stroke-miterlimit="10"/>
    <path d="M246.36 206.35a11.777 11.777 0 0 0-8.67 1.07.852.852 0 0 0-.424.645.866.866 0 0 0 .264.725l5.31 5a.858.858 0 0 0 1.37-.27l2.72-6a.853.853 0 0 0-.017-.715.872.872 0 0 0-.553-.455Z" fill="#7E57C2" stroke="#263238" stroke-width="1.113" stroke-linecap="round" stroke-linejoin="round"/>
    <path d="M233.74 198c.73 1.93.44 3.83-.65 4.24-1.09.41-2.57-.81-3.31-2.73-.74-1.92-.44-3.83.65-4.24 1.09-.41 2.57.81 3.31 2.73ZM248.22 196.63c-.38 2 .24 3.85 1.39 4.06 1.15.21 2.39-1.25 2.77-3.28.38-2.03-.24-3.84-1.39-4.06-1.15-.22-2.39 1.26-2.77 3.28Z" fill="#263238"/>
    <path d="M244.21 213.51s-7.1 9.64-13.57-.06" stroke="#263238" stroke-width="1.113" stroke-linecap="round" stroke-linejoin="round"/>
    <path d="M242.84 213.78s4.72 4.89 9.7 2.15c4.98-2.74 2-7 2-7" stroke="#263238" stroke-width="1.113" stroke-linecap="round" stroke-linejoin="round"/>
    <path d="M221.19 190.3s1.74-6.22 9.95-4.73M246.07 184.58s6.22-3.73 11.94 2.24" stroke="#263238" stroke-width="3.34" stroke-linecap="round" stroke-linejoin="round"/>
    <path d="m216.46 206.98 5.97 1.49M221.68 210.71l-5.22.99M222.68 213.45l-3.73 1.99M260.5 204.24l5.23-1.25M261.5 206.73h3.48M262.24 209.22l4.73 1.24" stroke="#263238" stroke-width="1.113" stroke-miterlimit="10" stroke-linecap="round"/>
</svg>
