<svg width="409" height="454" fill="none" xmlns="http://www.w3.org/2000/svg">
    <g clip-path="url(#a)">
        <path d="M407.737 227.57c-4.427 37.507-21.558 81.146-55.766 101.172-51.691 30.277-47.363 76.855-148.256 97.106a207.717 207.717 0 0 1-44.739 4.255 172.397 172.397 0 0 1-21.954-1.803c-64.124-9.368-107.295-53.945-123.11-107.745-20.827-70.778 20.774-117.104 48.346-145.019 27.572-27.914 47.787-114.877 146.795-135.56a200.925 200.925 0 0 1 45.983-4.373c35.236.902 73.664 12.433 100.262 36.588a127.668 127.668 0 0 1 5.824 5.626c36.958 37.941 52.665 98.603 46.615 149.753Z" fill="#7E57C2"/>
        <path opacity=".7" d="M407.737 227.57c-4.427 37.507-21.558 81.146-55.766 101.172-51.691 30.277-47.363 76.855-148.256 97.106a207.717 207.717 0 0 1-44.739 4.255 172.397 172.397 0 0 1-21.954-1.803c-64.124-9.368-107.295-53.945-123.11-107.745-20.827-70.778 20.774-117.104 48.346-145.019 27.572-27.914 47.787-114.877 146.795-135.56a200.925 200.925 0 0 1 45.983-4.373c35.236.902 73.664 12.433 100.262 36.588a127.668 127.668 0 0 1 5.824 5.626c36.958 37.941 52.665 98.603 46.615 149.753Z" fill="#fff"/>
        <path d="M95.116 34.272 91.94 45.038l7.065 8.73-11.224.302-6.115 9.424-3.756-10.586-10.855-2.896 8.91-6.852-.592-11.213 9.256 6.35 10.486-4.025Z" fill="#fff"/>
        <path d="M81.667 64.053H81.6a.57.57 0 0 1-.458-.369l-3.656-10.307-10.575-2.828a.57.57 0 0 1-.402-.436.58.58 0 0 1 .212-.548l8.675-6.707-.581-10.922a.593.593 0 0 1 .279-.525.57.57 0 0 1 .593 0l9.021 6.182 10.206-3.924a.559.559 0 0 1 .582.112.548.548 0 0 1 .156.57l-3.096 10.486 6.886 8.496a.56.56 0 0 1-.414.916l-10.933.302-5.958 9.245a.536.536 0 0 1-.47.257ZM68.252 49.767l9.76 2.604a.537.537 0 0 1 .38.358l3.354 9.513 5.567-8.507a.57.57 0 0 1 .458-.257l10.061-.268-6.36-7.826a.571.571 0 0 1-.101-.514l2.862-9.68-9.436 3.621a.536.536 0 0 1-.514-.067l-8.328-5.701.536 10.06a.558.558 0 0 1-.223.47l-8.016 6.194Z" fill="#263238"/>
        <path d="m318.818 70.593-6.83 3.376-1.096 7.535-5.321-5.456-7.512 1.297 3.555-6.752-3.555-6.741 7.512 1.286 5.321-5.456 1.096 7.546 6.83 3.365Z" fill="#fff"/>
        <path d="M310.892 82.063a.54.54 0 0 1-.402-.168l-5.109-5.243-7.221 1.24a.56.56 0 0 1-.593-.815l3.41-6.484-3.41-6.484a.552.552 0 0 1 0-.581.557.557 0 0 1 .548-.224l7.221 1.241 5.154-5.22a.558.558 0 0 1 .95.301l1.051 7.255 6.573 3.242a.545.545 0 0 1 .229.788.558.558 0 0 1-.229.207l-6.573 3.242-1.051 7.255a.553.553 0 0 1-.38.448.44.44 0 0 1-.168 0Zm-5.321-6.574c.15.005.293.065.403.168l4.527 4.65.928-6.416a.575.575 0 0 1 .313-.425l5.813-2.873-5.813-2.862a.6.6 0 0 1-.313-.425l-.928-6.416-4.527 4.639a.55.55 0 0 1-.492.167l-6.395-1.117 3.019 5.734a.548.548 0 0 1 0 .526l-3.019 5.735 6.395-1.118.089.033Z" fill="#263238"/>
        <path d="m400.403 332.61-5.142 5.366 1.509 7.278-6.696-3.231-6.45 3.689.995-7.367-5.489-4.997 7.311-1.33 3.052-6.764 3.521 6.54 7.389.816ZM279.927 324.706l-4.324 4.399 1.269 5.965-5.63-2.648-5.423 3.023.836-6.038-4.615-4.096 6.147-1.09 2.566-5.544 2.961 5.36 6.213.669Z" fill="#fff"/>
        <path d="M383.624 346.271a.525.525 0 0 1-.313-.101.563.563 0 0 1-.246-.536l.961-7.077-5.276-4.795a.556.556 0 0 1-.157-.571.544.544 0 0 1 .436-.391l7.021-1.274 2.94-6.506a.524.524 0 0 1 .48-.325.566.566 0 0 1 .515.291l3.353 6.283 7.099.782a.57.57 0 0 1 .469.369.555.555 0 0 1-.123.57l-4.941 5.165 1.454 6.987a.55.55 0 0 1-.202.548.578.578 0 0 1-.592.067l-6.428-3.097-6.171 3.544a.673.673 0 0 1-.279.067Zm-3.287-12.576 4.662 4.236a.57.57 0 0 1 .179.492l-.85 6.238 5.467-3.119a.581.581 0 0 1 .525 0l5.668 2.739-1.275-6.171a.564.564 0 0 1 .146-.503l4.348-4.55-6.26-.682a.575.575 0 0 1-.425-.29l-2.985-5.59-2.593 5.746a.553.553 0 0 1-.403.324l-6.204 1.13ZM266.082 335.445a.423.423 0 0 1-.25-.078.442.442 0 0 1-.196-.417l.768-5.499-4.219-3.728a.422.422 0 0 1-.125-.443.418.418 0 0 1 .128-.202.442.442 0 0 1 .221-.102l5.613-.99 2.351-5.057a.416.416 0 0 1 .384-.252.459.459 0 0 1 .412.226l2.681 4.883 5.676.608a.46.46 0 0 1 .376.287.427.427 0 0 1-.099.443l-3.951 4.014 1.162 5.43a.423.423 0 0 1-.16.426.475.475 0 0 1-.474.052l-5.14-2.407-4.934 2.754a.54.54 0 0 1-.224.052Zm-2.627-9.774 3.727 3.293a.435.435 0 0 1 .143.382l-.679 4.848 4.371-2.424a.476.476 0 0 1 .42 0l4.532 2.129-1.019-4.796a.426.426 0 0 1 .116-.391l3.477-3.536-5.006-.53a.458.458 0 0 1-.339-.226l-2.387-4.344-2.074 4.466a.43.43 0 0 1-.322.252l-4.96.877Z" fill="#263238"/>
        <path d="m196.453 409.965-7.132 7.065 1.766 9.882-8.921-4.606-8.842 4.74 1.621-9.905-7.244-6.953 9.927-1.52 4.371-9.033 4.505 8.966 9.949 1.364Z" fill="#fff"/>
        <path d="M173.324 427.605a.478.478 0 0 1-.324-.112.531.531 0 0 1-.235-.536l1.576-9.614-7.031-6.708a.564.564 0 0 1-.139-.571.57.57 0 0 1 .44-.39l9.637-1.465 4.248-8.775a.542.542 0 0 1 .492-.313.571.571 0 0 1 .514.302l4.371 8.708 9.658 1.331a.554.554 0 0 1 .463.683.556.556 0 0 1-.15.267l-6.919 6.852 1.71 9.592a.548.548 0 0 1-.212.548.576.576 0 0 1-.593 0l-8.652-4.472-8.597 4.606a.514.514 0 0 1-.257.067Zm-4.416-17.037 6.417 6.171a.562.562 0 0 1 .146.225.562.562 0 0 1 .022.267l-1.443 8.764 7.826-4.203a.558.558 0 0 1 .514 0l7.915 4.091-1.577-8.764a.607.607 0 0 1 .168-.503l6.327-6.26-8.82-1.219a.52.52 0 0 1-.425-.302l-4.002-7.948-3.879 8.016a.561.561 0 0 1-.425.301l-8.764 1.364Z" fill="#263238"/>
        <path d="m32.022 296.207-.884 5.388 3.946 3.779-5.399.827-2.37 4.919-2.46-4.874-5.41-.738 3.88-3.845-.973-5.378 4.863 2.504 4.807-2.582Z" fill="#fff"/>
        <path d="M27.282 311.679a.545.545 0 0 1-.503-.302l-2.326-4.617-5.12-.704a.564.564 0 0 1-.458-.38.548.548 0 0 1 .145-.57l3.667-3.634-.917-5.086a.557.557 0 0 1 .805-.592l4.595 2.358 4.583-2.437a.552.552 0 0 1 .581 0 .56.56 0 0 1 .235.548l-.816 5.131 3.734 3.577a.572.572 0 0 1-.302.962l-5.109.782-2.236 4.651a.57.57 0 0 1-.503.313h-.055Zm-6.708-6.573 4.293.581a.6.6 0 0 1 .425.313l1.99 3.857 1.878-3.891a.569.569 0 0 1 .424-.313l4.27-.659-3.118-2.996a.57.57 0 0 1-.168-.492l.704-4.27-3.823 2.045a.527.527 0 0 1-.514 0l-3.846-1.978.76 4.259a.536.536 0 0 1-.156.492l-3.119 3.052Z" fill="#263238"/>
        <path d="m113.028 452.612-3.968-2.291-4.125 1.967.95-4.471-3.141-3.332 4.549-.469 2.192-4.025 1.855 4.181 4.505.85-3.409 3.052.592 4.538Z" fill="#fff"/>
        <path d="M113.028 453.182a.606.606 0 0 1-.279-.078l-3.712-2.146-3.868 1.833a.548.548 0 0 1-.764-.314.56.56 0 0 1-.018-.301l.894-4.192-2.951-3.13a.564.564 0 0 1-.112-.581.534.534 0 0 1 .459-.358l4.259-.447 2.057-3.767a.612.612 0 0 1 .514-.291.555.555 0 0 1 .481.335l1.743 3.913 4.215.794a.546.546 0 0 1 .268.961l-3.186 2.862.548 4.248a.565.565 0 0 1-.13.443.56.56 0 0 1-.418.194v.022Zm-3.968-3.42a.583.583 0 0 1 .279.078l2.94 1.721-.447-3.409a.577.577 0 0 1 .179-.492l2.571-2.303-3.354-.626a.578.578 0 0 1-.413-.324l-1.398-3.153-1.609 3.03a.595.595 0 0 1-.436.291l-3.432.357 2.37 2.493a.562.562 0 0 1 .145.503l-.715 3.354 3.107-1.487a.594.594 0 0 1 .213-.033Z" fill="#263238"/>
        <path d="m14.817 148.991-5.098-1.733-4.326 3.22.078-5.388-4.404-3.108 5.142-1.599 1.599-5.142 3.119 4.393 5.377-.067-3.22 4.315 1.733 5.109Z" fill="#fff"/>
        <path d="M5.393 150.992a.636.636 0 0 1-.246 0 .585.585 0 0 1-.313-.514l.09-5.075-4.159-2.94a.574.574 0 0 1-.097-.826.558.558 0 0 1 .253-.169l4.863-1.51 1.52-4.862a.527.527 0 0 1 .448-.38.529.529 0 0 1 .536.223l2.94 4.159 5.098-.067a.564.564 0 0 1 .5.309.556.556 0 0 1-.053.585l-3.04 4.08 1.632 4.83a.536.536 0 0 1-.134.57.561.561 0 0 1-.57.134l-4.83-1.632-4.08 3.04a.5.5 0 0 1-.358.045Zm-3.074-8.854 3.465 2.449a.563.563 0 0 1 .246.469v4.248l3.354-2.538a.533.533 0 0 1 .514-.078l4.025 1.364-1.364-4.036a.567.567 0 0 1 .078-.514l2.549-3.409-4.26.056a.533.533 0 0 1-.458-.235l-2.459-3.455-1.263 4.07a.569.569 0 0 1-.37.369l-4.057 1.24Z" fill="#263238"/>
        <path d="m387.011 225.538-4.539-.593-3.063 3.41-.838-4.505-4.181-1.856 4.024-2.191.47-4.55 3.331 3.142 4.472-.951-1.968 4.137 2.292 3.957Z" fill="#fff"/>
        <path d="M379.409 228.914h-.145a.568.568 0 0 1-.402-.436l-.783-4.214-3.913-1.733a.56.56 0 0 1-.335-.492.548.548 0 0 1 .291-.514l3.767-2.046.436-4.259a.57.57 0 0 1 .369-.47.543.543 0 0 1 .57.112l3.119 2.951 4.192-.894a.535.535 0 0 1 .548.201.549.549 0 0 1 .067.582l-1.834 3.868 2.147 3.711a.591.591 0 0 1 0 .592.568.568 0 0 1-.537.246l-4.248-.559-2.85 3.164a.582.582 0 0 1-.459.19Zm-3.756-6.976 3.153 1.409a.521.521 0 0 1 .313.402l.637 3.354 2.347-2.526a.54.54 0 0 1 .492-.179l3.41.447-1.722-2.985a.582.582 0 0 1 0-.525l1.476-3.108-3.354.715a.54.54 0 0 1-.503-.134l-2.504-2.37-.358 3.421a.531.531 0 0 1-.279.436l-3.108 1.643Z" fill="#263238"/>
        <path d="m238.509 13.234 2.012-4.528-2.594-4.226 4.941.515 3.209-3.779 1.039 4.852 4.584 1.9-4.293 2.482-.38 4.941-3.689-3.309-4.829 1.152Z" fill="#fff"/>
        <path d="M247.027 15.95a.558.558 0 0 1-.38-.145l-3.466-3.12-4.538 1.119a.58.58 0 0 1-.559-.18.568.568 0 0 1-.079-.593l1.89-4.258-2.449-4.002a.573.573 0 0 1 0-.592.585.585 0 0 1 .537-.258l4.639.481 3.019-3.544a.556.556 0 0 1 .828-.025c.073.075.122.17.144.271l.984 4.561 4.304 1.778a.557.557 0 0 1 .281.783.579.579 0 0 1-.214.223l-4.036 2.336-.357 4.65a.562.562 0 0 1-.358.47.434.434 0 0 1-.19.045Zm-3.689-4.472a.56.56 0 0 1 .369.135l2.85 2.56.291-3.813a.59.59 0 0 1 .279-.435l3.354-1.923-3.532-1.465a.552.552 0 0 1-.336-.391l-.794-3.745-2.481 2.907a.579.579 0 0 1-.492.2l-3.801-.402 2.001 3.265a.526.526 0 0 1 0 .514l-1.554 3.499 3.723-.894.123-.012Z" fill="#263238"/>
        <path d="M83.024 355.648c4.39 21.668 25.516 35.675 47.184 31.285 21.669-4.391 35.676-25.516 31.285-47.185-4.39-21.668-25.515-35.675-47.184-31.285-21.669 4.391-35.675 25.516-31.285 47.185Z" fill="#fff"/>
        <mask id="b" style="mask-type:luminance" maskUnits="userSpaceOnUse" x="82" y="307" width="81" height="81">
            <path d="M83.024 355.648c4.39 21.668 25.516 35.675 47.184 31.285 21.669-4.391 35.676-25.516 31.285-47.185-4.39-21.668-25.515-35.675-47.184-31.285-21.669 4.391-35.675 25.516-31.285 47.185Z" fill="#fff"/>
        </mask>
        <g mask="url(#b)">
            <path d="M83.024 355.648a40.018 40.018 0 0 0 27.936 30.472 40.012 40.012 0 0 0 21.453.315 40.011 40.011 0 0 0 18.533-10.81c-17.178 3.036-44.322-1.285-62.94-48.59a39.877 39.877 0 0 0-4.982 28.613Z" fill="#7E57C2"/>
            <path opacity=".44" d="M83.024 355.648a40.018 40.018 0 0 0 27.936 30.472 40.012 40.012 0 0 0 21.453.315 40.011 40.011 0 0 0 18.533-10.81c-17.178 3.036-44.322-1.285-62.94-48.59a39.877 39.877 0 0 0-4.982 28.613Z" fill="#fff"/>
            <path d="M110.787 370.12a63.649 63.649 0 0 0 9.777-27.804m-9.777 27.804.422 2.082a73.494 73.494 0 0 0 17.8 8.7c15.692-22.307 10.088-39.775 10.088-39.775s5.615 17.523-10.099 39.835a62.432 62.432 0 0 0 5.588 1.514c9.166-9.819 13.806-24.469 13.469-31.758l.062-1.723m-37.33 21.125c-3.039-16.185-3.028-28.963-1.544-38.81 24.903-4.43 43.206 1.066 51.133 4.274a40.412 40.412 0 0 1 1.162 4.384 44.26 44.26 0 0 1 .608 4.017m-14.029 5.01a23.738 23.738 0 0 0-1.445-7.692m1.445 7.692 14.095 2.014a39.995 39.995 0 0 0-.066-7.024m0 0c-5.512-2.043-22.741-6.685-53.78-.396m12.205 33.776c12.063-18.709 9.369-36.116 9.369-36.116" stroke="#263238" stroke-width="1.113" stroke-linecap="round" stroke-linejoin="round"/>
            <path d="M109.168 331.279c24.903-4.43 43.206 1.067 51.133 4.274a40.06 40.06 0 0 0-4.829-9.983 79.79 79.79 0 0 0-43.937-5.184 72.9 72.9 0 0 0-2.367 10.893Z" stroke="#263238" stroke-width="1.113" stroke-linecap="round" stroke-linejoin="round"/>
            <path d="M155.505 325.563a40.112 40.112 0 0 0-38.568-17.415 51.5 51.5 0 0 0-5.369 12.231 79.79 79.79 0 0 1 43.937 5.184ZM134.575 382.421c2.06.471 4.148.81 6.251 1.014a40.239 40.239 0 0 0 13.404-11.418l-10.739-.984 10.728.929a40.282 40.282 0 0 0 5.358-9.697l-13.178-.809 13.127.842a39.623 39.623 0 0 0 2.557-11.309l-14.096-2.014c.422 7.374-1.552 19.306-13.412 33.446Z" stroke="#263238" stroke-width="1.113" stroke-linecap="round" stroke-linejoin="round"/>
            <path d="M92.404 356.006a110.411 110.411 0 0 0 11.898 11.151c2.339 1.864 6.91 5.227 6.937 5.358-.027-.131 10.442 5.937 15.604 7.606-.065.013 2.076.788 2.129.709.052-.079 1.845.607 1.898.528 1.203.421 2.437.751 3.69.986 2.059.472 4.147.811 6.25 1.015a40.088 40.088 0 0 1-10.702 3.811l-1.709.346c-26.617-11.853-39.174-22.597-45.172-29.742l-.4-1.972a40.25 40.25 0 0 1-.58-12.213 138.859 138.859 0 0 0 10.157 12.417Zm0 0 .058.284" stroke="#263238" stroke-width="1.113" stroke-linecap="round" stroke-linejoin="round"/>
            <path d="M128.399 387.516c-26.617-11.853-39.174-22.597-45.06-29.697a40.107 40.107 0 0 0 45.06 29.697ZM91.429 322.144a40.09 40.09 0 0 0-9.17 21.511 138.703 138.703 0 0 0 10.158 12.416c-3.627-9.006-2.298-24.514-.988-33.927Z" stroke="#263238" stroke-width="1.113" stroke-linecap="round" stroke-linejoin="round"/>
            <path d="M92.417 356.071a110.393 110.393 0 0 0 11.898 11.151c-8.618-27.67-3.396-46.875.078-55.29a39.993 39.993 0 0 0-12.964 10.212c-1.31 9.413-2.639 24.921.988 33.927Z" stroke="#263238" stroke-width="1.113" stroke-linecap="round" stroke-linejoin="round"/>
            <path d="m110.766 370.124.421 2.082a93.852 93.852 0 0 1-6.872-4.983c-8.618-27.671-3.396-46.876.056-55.286a40.338 40.338 0 0 1 9.794-3.342c.909-.184 1.805-.32 2.717-.436-1.762 2.843-5.797 8.714-7.736 23.125-1.409 9.878-1.42 22.655 1.62 38.84Zm0 0c-.112.183-.223.365-.348.538" stroke="#263238" stroke-width="1.113" stroke-linecap="round" stroke-linejoin="round"/>
        </g>
        <path d="M83.024 355.648c4.39 21.668 25.516 35.675 47.184 31.285 21.669-4.391 35.676-25.516 31.285-47.185-4.39-21.668-25.515-35.675-47.184-31.285-21.669 4.391-35.675 25.516-31.285 47.185Z" stroke="#263238" stroke-width="1.113" stroke-linecap="round" stroke-linejoin="round"/>
        <path d="M233.055 186.633c.293 1.906-.599 4.02-2.659 6.245-2.054 2.218-5.205 4.473-9.241 6.627-8.068 4.306-19.568 8.155-32.585 10.51-13.018 2.356-25.048 2.763-33.969 1.531-4.463-.617-8.119-1.64-10.727-3.015-2.615-1.379-4.093-3.064-4.386-4.97-.294-1.906.598-4.019 2.658-6.244 2.054-2.218 5.205-4.473 9.241-6.627 8.068-4.306 19.568-8.156 32.585-10.511 13.018-2.355 25.048-2.763 33.969-1.53 4.463.616 8.119 1.64 10.727 3.015 2.615 1.379 4.093 3.063 4.387 4.969Z" fill="#BFABE0" stroke="#263238"/>
        <path d="M332.26 135.902c-11.401-28.185-41.331-34.166-64.061-30.541l-.795.136a7.899 7.899 0 0 0-3.16 1.144 8.594 8.594 0 0 0-2.496 2.392 9.396 9.396 0 0 0-1.433 3.26 9.791 9.791 0 0 0-.141 3.607 9.507 9.507 0 0 0 1.173 3.38 8.778 8.778 0 0 0 2.299 2.613 8.041 8.041 0 0 0 3.06 1.429 7.71 7.71 0 0 0 3.333.018l.587-.098c17.296-2.766 39.987 1.295 47.047 21.746a31.44 31.44 0 0 1 1.888 11.998 31.223 31.223 0 0 1-2.782 11.792c-7.161 16.457-30.384 33.327-43.538 38.276a6.555 6.555 0 0 0-2.34 1.379 7.173 7.173 0 0 0-1.656 2.26 7.698 7.698 0 0 0-.708 2.782 7.808 7.808 0 0 0 .352 2.86 7.38 7.38 0 0 0 1.357 2.484 6.74 6.74 0 0 0 2.145 1.71 6.203 6.203 0 0 0 5.217.179c14.663-5.454 44.403-21.571 54.253-44.226 2.633-5.851 4.119-12.23 4.365-18.735a50.695 50.695 0 0 0-2.937-19.059 46.14 46.14 0 0 0-1.029-2.786Z" fill="#fff"/>
        <mask id="c" style="mask-type:luminance" maskUnits="userSpaceOnUse" x="260" y="104" width="77" height="118">
            <path d="M332.26 135.902c-11.401-28.185-41.331-34.166-64.061-30.541l-.795.136a7.899 7.899 0 0 0-3.16 1.144 8.594 8.594 0 0 0-2.496 2.392 9.396 9.396 0 0 0-1.433 3.26 9.791 9.791 0 0 0-.141 3.607 9.507 9.507 0 0 0 1.173 3.38 8.778 8.778 0 0 0 2.299 2.613 8.041 8.041 0 0 0 3.06 1.429 7.71 7.71 0 0 0 3.333.018l.587-.098c17.296-2.766 39.987 1.295 47.047 21.746a31.44 31.44 0 0 1 1.888 11.998 31.223 31.223 0 0 1-2.782 11.792c-7.161 16.457-30.384 33.327-43.538 38.276a6.555 6.555 0 0 0-2.34 1.379 7.173 7.173 0 0 0-1.656 2.26 7.698 7.698 0 0 0-.708 2.782 7.808 7.808 0 0 0 .352 2.86 7.38 7.38 0 0 0 1.357 2.484 6.74 6.74 0 0 0 2.145 1.71 6.203 6.203 0 0 0 5.217.179c14.663-5.454 44.403-21.571 54.253-44.226 2.633-5.851 4.119-12.23 4.365-18.735a50.695 50.695 0 0 0-2.937-19.059 46.14 46.14 0 0 0-1.029-2.786Z" fill="#fff"/>
        </mask>
        <g mask="url(#c)">
            <path d="M269.116 216.243a7.782 7.782 0 0 1 .307-5.519c.774-1.723 1.429.627 3.1 0 6.42-2.415-5.242 8.457 2.977 1.776 1.216 3.389 26.337-10.514 26.337-10.514s15.567-12.279 20.474-21.255c10.79-19.781 8.369-40.608.673-54.054-3.437-6.02-9.521-11.9-15.216-16.577 10.959 4.81 19.754 14.063 24.515 25.79.364.899.738 1.824 1.042 2.781a50.717 50.717 0 0 1 2.936 19.059c-.246 6.505-1.732 12.884-4.365 18.735-9.85 22.655-39.611 38.722-54.253 44.227a6.196 6.196 0 0 1-5.12-.298 6.723 6.723 0 0 1-2.087-1.706 7.349 7.349 0 0 1-1.32-2.445Z" fill="#7E57C2"/>
            <path opacity=".5" d="M269.116 216.243a7.782 7.782 0 0 1 .307-5.519c.774-1.723 2.147-3.043 3.818-3.67 6.42-2.415-6.404 10.35 1.815 3.67 1.216 3.389 26.781-8.738 26.781-8.738s15.567-12.279 20.474-21.255c10.79-19.781 8.369-40.608.673-54.054-3.437-6.02-9.521-11.9-15.216-16.577 10.959 4.81 19.754 14.063 24.515 25.79.364.899.738 1.824 1.042 2.781a50.717 50.717 0 0 1 2.936 19.059c-.246 6.505-1.732 12.884-4.365 18.735-9.85 22.655-39.611 38.722-54.253 44.227a6.196 6.196 0 0 1-5.12-.298 6.723 6.723 0 0 1-2.087-1.706 7.349 7.349 0 0 1-1.32-2.445Z" fill="#fff"/>
        </g>
        <path d="M332.26 135.902c-11.401-28.185-41.331-34.166-64.061-30.541l-.795.136a7.899 7.899 0 0 0-3.16 1.144 8.594 8.594 0 0 0-2.496 2.392 9.396 9.396 0 0 0-1.433 3.26 9.791 9.791 0 0 0-.141 3.607 9.507 9.507 0 0 0 1.173 3.38 8.778 8.778 0 0 0 2.299 2.613 8.041 8.041 0 0 0 3.06 1.429 7.71 7.71 0 0 0 3.333.018l.587-.098c17.296-2.766 39.987 1.295 47.047 21.746a31.44 31.44 0 0 1 1.888 11.998 31.223 31.223 0 0 1-2.782 11.792c-7.161 16.457-30.384 33.327-43.538 38.276a6.555 6.555 0 0 0-2.34 1.379 7.173 7.173 0 0 0-1.656 2.26 7.698 7.698 0 0 0-.708 2.782 7.808 7.808 0 0 0 .352 2.86 7.38 7.38 0 0 0 1.357 2.484 6.74 6.74 0 0 0 2.145 1.71 6.203 6.203 0 0 0 5.217.179c14.663-5.454 44.403-21.571 54.253-44.226 2.633-5.851 4.119-12.23 4.365-18.735a50.695 50.695 0 0 0-2.937-19.059 46.14 46.14 0 0 0-1.029-2.786Z" stroke="#263238" stroke-width="1.113" stroke-linecap="round" stroke-linejoin="round"/>
        <path d="M309.874 127.153c-2.591 2.03-1.117-7.515.54-15.713a48.433 48.433 0 0 1 7.746 5.136c-2.434 3.797-5.79 8.621-8.286 10.577ZM332.26 135.901c.363.899.737 1.824 1.041 2.781a55.9 55.9 0 0 1 2.192 8.484c-5.62-1.497-13.129-3.667-14.108-4.847-1.131-1.35 4.798-7.803 8.459-11.564a51.141 51.141 0 0 1 2.416 5.146ZM270.626 123.242l-.587.098a7.71 7.71 0 0 1-3.333-.018 8.027 8.027 0 0 1-3.06-1.429 8.778 8.778 0 0 1-2.299-2.613 9.507 9.507 0 0 1-1.173-3.38 9.791 9.791 0 0 1 .141-3.607 9.396 9.396 0 0 1 1.433-3.26 8.594 8.594 0 0 1 2.496-2.392 7.899 7.899 0 0 1 3.16-1.144l.795-.136a75.523 75.523 0 0 1 24.072.039l-.525 18.227a58.73 58.73 0 0 0-21.12-.385ZM331.861 176.482a47.75 47.75 0 0 1-2.602 5.07c-3.443-4.07-8.422-10.249-9.276-13.013-1.006-3.281 10.073-3.441 15.37-3.33a53.806 53.806 0 0 1-3.492 11.273ZM306.998 188.608c.73-.951 7.394 3.265 11.76 6.173a97.812 97.812 0 0 1-9.834 8.473c-1.114-5.508-2.638-13.72-1.926-14.646ZM295.825 211.92a137.311 137.311 0 0 1-9.255 4.909c.446-5.404 1.418-12.024 3.428-12.978 2.01-.955 4.212 3.765 5.827 8.069Z" fill="#7E57C2" stroke="#263238" stroke-width="1.113" stroke-linecap="round" stroke-linejoin="round"/>
        <path d="M226.193 162.259s3.479 13.694 2.169 19.269c-1.31 5.575-7.386.514-13.472 6.589-6.087 6.076-11.722 17.042-34.77 19.071-23.048 2.03-36.96-12.481-41.782-20.599-4.822-8.119-4.348-17.753-12.602-18.254-8.255-.501-1.31-19.282 1.298-22.327 0 0-16.08-27.901-16.08-35.005 0-7.103 15.211-5.588 33.877 1.015 0 0 13.912-8.632 39.129-3.558 25.216 5.074 32.601 13.707 32.601 13.707s31.303 4.56 33.471 9.12c2.168 4.56-4.28 23.868-23.839 30.972Z" fill="#fff"/>
        <mask id="d" style="mask-type:luminance" maskUnits="userSpaceOnUse" x="111" y="106" width="140" height="102">
            <path d="M226.377 162.067s3.481 13.647 2.17 19.203c-1.311 5.555-7.392.512-13.484 6.567s-11.732 16.983-34.8 19.005c-23.069 2.023-36.993-12.438-41.82-20.529-4.826-8.091-4.351-17.692-12.613-18.191-8.262-.499-1.311-19.216 1.3-22.25 0 0-16.095-27.805-16.095-34.885 0-7.079 15.224-5.569 33.907 1.012 0 0 13.925-8.603 39.163-3.547 25.239 5.057 32.631 13.66 32.631 13.66s31.33 4.545 33.5 9.089c2.17 4.545-4.283 23.787-23.859 30.866Z" fill="#fff"/>
        </mask>
        <g mask="url(#d)">
            <path d="M125.864 168.136c-8.274-.513-1.311-19.216 1.3-22.25 0 0-3.063-5.254-6.511-11.821 9.348-5.674 18.525-8.826 20.967-5.635 5.255 6.856 2.396 19.991 0 32.836-2.397 12.846 7.177 18.323 13.868 29.434 6.691 11.112 16.241-1.116 16.241-1.116 3.391 16.116 17.689 5.556 17.689 5.556 10.986-3.94 29.624-16.655 25.803-25.547-3.82-8.892-4.781-17.219 1.91-24.43 6.691-7.21 33.377-13.213 33.377-13.213 1.401 5.477-5.369 23.419-24.142 30.209 0 0 3.481 13.647 2.17 19.203-1.311 5.556-7.392.512-13.484 6.567s-11.732 16.983-34.801 19.006c-23.068 2.022-36.993-12.439-41.819-20.53-4.826-8.09-4.295-17.77-12.568-18.269Z" fill="#7E57C2"/>
            <path opacity=".5" d="M125.864 168.136c-8.274-.513-1.311-19.216 1.3-22.25 0 0-3.063-5.254-6.511-11.821 9.348-5.674 18.525-8.826 20.967-5.635 5.255 6.856 2.396 19.991 0 32.836-2.397 12.846 7.177 18.323 13.868 29.434 6.691 11.112 16.241-1.116 16.241-1.116 3.391 16.116 17.689 5.556 17.689 5.556 10.986-3.94 29.624-16.655 25.803-25.547-3.82-8.892-4.781-17.219 1.91-24.43 6.691-7.21 33.377-13.213 33.377-13.213 1.401 5.477-5.369 23.419-24.142 30.209 0 0 3.481 13.647 2.17 19.203-1.311 5.556-7.392.512-13.484 6.567s-11.732 16.983-34.801 19.006c-23.068 2.022-36.993-12.439-41.819-20.53-4.826-8.09-4.295-17.77-12.568-18.269Z" fill="#fff"/>
            <path d="M159.896 171.182c-.328 3.205 5.798 6.659 13.653 7.723s14.501-.67 14.829-3.94c.328-3.27-5.798-6.646-13.665-7.71-7.866-1.064-14.501.736-14.817 3.927Z" fill="#7E57C2"/>
            <path opacity=".5" d="M159.896 171.182c-.328 3.205 5.798 6.659 13.653 7.723s14.501-.67 14.829-3.94c.328-3.27-5.798-6.646-13.665-7.71-7.866-1.064-14.501.736-14.817 3.927Z" fill="#fff"/>
        </g>
        <path d="M226.193 162.259s3.479 13.694 2.169 19.269c-1.31 5.575-7.386.514-13.472 6.589-6.087 6.076-11.722 17.042-34.77 19.071-23.048 2.03-36.96-12.481-41.782-20.599-4.822-8.119-4.348-17.753-12.602-18.254-8.255-.501-1.31-19.282 1.298-22.327 0 0-16.08-27.901-16.08-35.005 0-7.103 15.211-5.588 33.877 1.015 0 0 13.912-8.632 39.129-3.558 25.216 5.074 32.601 13.707 32.601 13.707s31.303 4.56 33.471 9.12c2.168 4.56-4.28 23.868-23.839 30.972Z" stroke="#263238" stroke-miterlimit="10"/>
        <path d="M136.359 121.037c11.352 8.96 7.345 17.919 2.271 22.892-3.1 3.04-8.094 2.667-11.511 1.814 0 0-16.165-28.225-16.165-35.412-.012-.066 14.11 1.68 25.405 10.706ZM251.109 132.378c1.454 5.254-5.571 22.465-25.053 28.979 0 0-14.872-1.563-9.91-14.414 4.632-11.995 28.055-14.981 34.963-14.565ZM183.507 108.795c1.412.296 2.77.605 4.074.913-2.156 12.997-5.701 34.64-8.87 34.64-3.168 0-5.593-23.728-6.628-37.02 3.831.193 7.647.683 11.424 1.467ZM196.855 141.785c-3.544-2.444-3.012-20.817-2.444-30.785a85.255 85.255 0 0 1 10.782 3.952c-1.286 9.329-4.552 29.441-8.338 26.833ZM163.46 133.243c-3.659 1.453-5.717-13.407-6.874-24.845a64.702 64.702 0 0 1 11.177-1.07c.117 9.391-.339 24.343-4.303 25.915Z" fill="#7E57C2" stroke="#263238" stroke-miterlimit="10"/>
        <path d="M168.513 183.849c3.357-.953 6.923-.478 9.964 1.328.134.083.247.199.332.338a1.157 1.157 0 0 1 .103.952 1.084 1.084 0 0 1-.251.411l-6.102 6.207a.967.967 0 0 1-.404.247.909.909 0 0 1-.463.021.945.945 0 0 1-.421-.209 1.06 1.06 0 0 1-.287-.394l-3.126-7.449a1.13 1.13 0 0 1-.079-.446c.003-.153.037-.304.099-.442.062-.138.151-.259.261-.357a.96.96 0 0 1 .374-.207Z" fill="#7E57C2" stroke="#263238" stroke-linecap="round" stroke-linejoin="round"/>
        <path d="M182.851 172.91c-.791 2.437-.477 4.838.704 5.355 1.181.518 2.784-1.023 3.585-3.448.802-2.425.477-4.838-.704-5.356-1.18-.518-2.783 1.023-3.585 3.449ZM165.947 171.387c.373 2.44-.236 4.697-1.365 4.953-1.13.256-2.348-1.525-2.721-4.001-.373-2.477.236-4.685 1.365-4.953 1.13-.268 2.348 1.537 2.721 4.001Z" fill="#263238"/>
        <path d="M171.068 192.87s7.547 11.346 14.996.331" stroke="#263238" stroke-linecap="round" stroke-linejoin="round"/>
        <path d="M171.948 193.482s-5.865 6.019-11.66 2.292c-5.795-3.726-2.034-9.021-2.034-9.021M197.052 162.357s-2.108-7.527-12.054-5.724M168.639 155.711s-7.176-4.402-13.775 2.644" stroke="#263238" stroke-linecap="round" stroke-linejoin="round"/>
        <path d="m202.218 185.37-6.888 1M196.191 189.372l6.027 1M195.33 193.373l3.444 2.001M152.281 180.367l-5.166-1.001M151.42 184.369h-3.444M150.559 187.371l-5.166 2.001" stroke="#263238" stroke-miterlimit="10" stroke-linecap="round"/>
        <path d="M201.537 293.898s23.677 25 39.95 22.365c4.681-.726 9.127-2.727 12.944-5.825 3.817-3.098 6.886-7.196 8.934-11.931 0 0-2.069 10.847 2.956 12.821 5.026 1.974 10.654-7.235 8.878-22.365-1.775-15.131-11.541-16.743-11.541-16.743s14.498 3.948-21.893 14.143c-36.392 10.196-40.228 7.535-40.228 7.535Z" fill="#fff" stroke="#000" stroke-width=".4"/>
        <path d="M238.936 316.458c-15.851 0-36.374-21.261-37.284-22.219a.446.446 0 0 1-.114-.271.46.46 0 0 1 .073-.288.393.393 0 0 1 .226-.166.36.36 0 0 1 .27.035c.22.112 4.876 2.166 39.518-7.446 21.04-5.842 24.184-9.371 24.176-10.958 0-1.122-1.819-1.864-2.524-2.054a.398.398 0 0 1-.254-.187.481.481 0 0 1-.06-.331.44.44 0 0 1 .171-.279.369.369 0 0 1 .3-.066c.102 0 9.971 1.83 11.759 16.8 1.356 11.484-1.568 18.62-4.539 21.243a4.702 4.702 0 0 1-2.242 1.268 4.42 4.42 0 0 1-2.517-.146c-3.716-1.45-3.802-7.179-3.512-10.553-2.208 4.127-5.232 7.655-8.847 10.321-3.615 2.666-7.729 4.402-12.037 5.081-.848.138-1.705.21-2.563.216Zm-35.771-21.856c4.594 4.521 24.302 23.029 38.201 20.803 4.558-.718 8.886-2.653 12.608-5.636 3.722-2.982 6.725-6.921 8.746-11.474a.416.416 0 0 1 .197-.226.358.358 0 0 1 .283-.021.405.405 0 0 1 .222.196.473.473 0 0 1 .043.31c0 .103-1.921 10.276 2.673 12.079a3.688 3.688 0 0 0 2.123.117 3.923 3.923 0 0 0 1.883-1.083c3.01-2.683 5.488-10.052 4.257-20.475-1.074-9.051-5.088-13.055-7.973-14.781.102.244.155.509.157.777 0 3.305-8.09 7.17-24.772 11.795-26.371 7.274-35.575 7.86-38.648 7.619Z" fill="#263238" stroke="#263238" stroke-width=".2"/>
        <path d="M263.211 272.22s11.876 3.04-11.918 10.695c3.767 6.528 7.759 17.356 1.207 28.585 4.824-3.127 7.935-8.206 10.381-13.558 0 0-2.106 11.629 3.119 13.558 5.225 1.929 11.032-8.098 9.186-22.884s-11.975-16.396-11.975-16.396Z" fill="#7E57C2"/>
        <path d="M252.013 312.054a.376.376 0 0 1-.199-.062.429.429 0 0 1-.144-.163.466.466 0 0 1 .009-.438c6.186-11.141 3.273-21.086-.344-27.664a.444.444 0 0 1 0-.375.397.397 0 0 1 .097-.166.353.353 0 0 1 .157-.096c12.316-4.161 14.105-6.761 14.073-7.939-.031-1.178-1.852-1.867-2.56-2.05a.406.406 0 0 1-.258-.19.484.484 0 0 1-.06-.334.45.45 0 0 1 .173-.283.378.378 0 0 1 .304-.066c.104 0 10.114 1.85 11.927 16.987 1.375 11.612-1.591 18.827-4.604 21.48a4.764 4.764 0 0 1-2.274 1.281 4.489 4.489 0 0 1-2.552-.147c-3.753-1.457-3.856-7.198-3.57-10.618-2.422 4.486-5.882 8.013-9.913 10.773a.392.392 0 0 1-.262.07Zm10.835-13.774a.266.266 0 0 1 .119 0 .418.418 0 0 1 .222.197c.05.093.067.203.048.309 0 .104-1.948 10.39 2.712 12.214.695.25 1.439.29 2.154.117a3.984 3.984 0 0 0 1.909-1.103c3.053-2.705 5.565-10.155 4.317-20.694-1.089-9.161-5.16-13.201-8.094-14.954.101.232.158.484.167.741.063 2.531-4.564 5.357-14.153 8.638 3.435 6.482 6.061 15.877.917 26.494 3.952-3.057 7.22-6.916 9.316-11.698a.425.425 0 0 1 .146-.192.361.361 0 0 1 .22-.069Z" fill="#263238" stroke="#263238" stroke-width=".4"/>
        <path d="M261.918 301.933a.397.397 0 0 1-.23-.073.459.459 0 0 1-.132-.128.572.572 0 0 1-.041-.563c1.651-3.936 2.49-8.266 2.45-12.654a.552.552 0 0 1 .031-.194.494.494 0 0 1 .095-.164.417.417 0 0 1 .144-.108.38.38 0 0 1 .169-.034.429.429 0 0 1 .311.158.563.563 0 0 1 .128.362c.047 4.56-.828 9.059-2.556 13.143a.492.492 0 0 1-.156.181.405.405 0 0 1-.213.074Z" fill="#263238" stroke="#263238" stroke-width=".4"/>
        <path d="M145.307 219.418s-14.761-5.312-22.446 7.268c-7.685 12.58 1.227 32.056 7.413 33.048 6.186.992 8.913-15.2 8.913-15.2s12.611 11.898 21.523 8.259" fill="#fff"/>
        <path d="M130.942 259.766a3.438 3.438 0 0 1-.574 0c-2.668-.425-5.805-4.09-7.987-9.334-2.749-6.617-4.042-16.334.469-23.74 7.631-12.461 22.352-7.364 22.497-7.312a.406.406 0 0 1 .234.222.46.46 0 0 1 .017.334.44.44 0 0 1-.077.147.399.399 0 0 1-.277.146.374.374 0 0 1-.155-.024c-.138-.043-14.277-4.932-21.56 6.947-4.366 7.111-3.072 16.498-.405 22.906 2.038 4.906 4.996 8.458 7.365 8.84 5.594.868 8.27-14.406 8.294-14.562a.455.455 0 0 1 .093-.203.418.418 0 0 1 .174-.127.368.368 0 0 1 .396.078c.129.122 12.288 11.462 20.719 8.023.1-.037.21-.031.306.015a.434.434 0 0 1 .239.406.449.449 0 0 1-.127.305.407.407 0 0 1-.135.091c-7.946 3.23-18.504-5.488-21.018-7.702-.615 3.074-3.242 14.544-8.488 14.544Z" fill="#263238" stroke="#263238" stroke-width=".4"/>
        <path d="M139.058 218.318c-4.984-.168-11.737 1.178-16.172 8.359-7.75 12.566 1.237 32.065 7.475 33.057 6.238.992 8.987-15.204 8.987-15.204a46.381 46.381 0 0 0 4.428 3.542c4.418-15.444-1.197-25.388-4.718-29.754Z" fill="#7E57C2"/>
        <path d="M130.897 259.766c-.19.016-.381.016-.572 0-2.657-.425-5.781-4.087-7.954-9.329-2.738-6.613-4.026-16.324.467-23.726 4.412-7.229 11.143-8.566 16.022-8.392a.4.4 0 0 1 .297.147c3.591 4.504 8.97 14.337 4.622 29.55a.465.465 0 0 1-.096.169.425.425 0 0 1-.154.109.371.371 0 0 1-.186.027.371.371 0 0 1-.176-.071 46.686 46.686 0 0 1-3.8-3.011c-.628 3.055-3.245 14.527-8.47 14.527Zm7.19-40.649c-4.598 0-10.604 1.476-14.597 8.019-4.348 7.107-3.06 16.489-.403 22.893 2.029 4.903 4.976 8.453 7.335 8.835 5.571.867 8.236-14.398 8.26-14.554a.44.44 0 0 1 .091-.204.396.396 0 0 1 .175-.126.361.361 0 0 1 .395.079 42.713 42.713 0 0 0 3.792 3.089c3.905-14.336-1.063-23.639-4.501-28.022l-.547-.009Z" fill="#263238" stroke="#263238" stroke-width=".4"/>
        <path d="M139 207.283s1.408 40.804 30.805 70.905c24.862 25.459 62.056 31.899 94.437.652 0 0 16.635 11.84 34.154 6.581 17.519-5.259 9.65-31.18 9.65-31.18s22.277 13.033 19.54-2.427c-3.691-20.799-27.957-33.801-32.73-32.815-4.774.987-5.346 6.572-5.346 6.572s-10.988-16.738-23.16-23.018c-12.173-6.281-24.886-7.409-32.357-16.553h-2.496c-6.068 7.424-14.263 12.021-22.327 16.553-12.769 6.906-32.251 9.128-41.464 8.141-9.213-.986-27.43-8.141-27.43-8.141l-1.276 4.73Z" fill="#fff"/>
        <path d="M190.054 279.823c-22.964-8.295-34.234-51.841-36.998-72.578l-14.034-5.53c1.275 26.267 11.478 66.785 46.567 88.476 30.876 19.087 60.911 6.309 76.549-10.368-14.459 3.456-49.119 8.295-72.084 0Z" fill="#7E57C2"/>
        <path opacity=".5" d="M190.054 279.823c-22.964-8.295-34.234-51.841-36.998-72.578l-14.034-5.53c1.275 26.267 11.478 66.785 46.567 88.476 30.876 19.087 60.911 6.309 76.549-10.368-14.459 3.456-49.119 8.295-72.084 0Z" fill="#fff"/>
        <path d="M217.35 299.868c-1.022 0-2.036 0-3.058-.078-15.9-.875-31.689-8.509-44.468-21.557-23.586-24.069-29.177-55.638-30.446-66.677-.307-2.674-.356-5.365-.356-8.056l.072-1.959a.467.467 0 0 1 .06-.175.415.415 0 0 1 .122-.131.388.388 0 0 1 .167-.038l.364 1.009s-.057 3.853.007 5.34c.063 1.487 2.139 41.058 30.549 70.048 21.081 21.522 58.221 34.596 93.484.648a.355.355 0 0 1 .233-.089c.085 0 .167.031.234.089.167.122 16.637 11.587 33.694 6.48a13.288 13.288 0 0 0 5.21-2.705 14.917 14.917 0 0 0 3.758-4.816c4.521-9.225.609-22.962.524-23.258l-.001-.004a.459.459 0 0 1-.009-.257.422.422 0 0 1 .128-.215.376.376 0 0 1 .216-.098.37.37 0 0 1 .228.054l.013.008c.489.29 13.279 7.883 17.574 4.426 1.276-1.032 1.656-3.044 1.133-5.973-3.589-20.219-27.284-33.232-32.149-32.252-4.333.865-4.962 5.828-4.998 6.114l-.001.007a.456.456 0 0 1-.095.233.397.397 0 0 1-.198.135.354.354 0 0 1-.234-.008.388.388 0 0 1-.186-.159c-.111-.157-11.028-16.615-22.911-22.737a106.67 106.67 0 0 0-12.581-5.168c-7.582-2.738-14.744-5.326-19.664-11.247l-1.473-1.48-.293-.532c-.067-.123-.06-.291.073-.337.139-.048.278.045.39.141l1.66 1.421c.126.087.239.193.338.31 4.729 5.662 11.745 8.203 19.139 10.88l.107.039a105.535 105.535 0 0 1 12.676 5.247c10.584 5.413 20.36 18.864 22.698 22.222.427-1.749 1.743-5.169 5.45-5.938 4.968-1.032 29.4 12.243 33.076 32.951.579 3.289.095 5.597-1.45 6.848-4.127 3.323-14.545-2.16-17.595-3.892.855 3.42 3.169 14.71-.848 22.939-.983 1.984-2.333 3.717-3.963 5.087a14.02 14.02 0 0 1-5.496 2.862c-16.241 4.862-31.896-4.967-34.067-6.41-14.26 13.572-30.382 20.708-46.837 20.708Z" fill="#263238"/>
        <path d="M139.443 201.197a.388.388 0 0 0-.167.038.415.415 0 0 0-.122.131.467.467 0 0 0-.06.175l-.072 1.959c0 2.691.049 5.382.356 8.056 1.269 11.039 6.86 42.608 30.446 66.677 12.779 13.048 28.568 20.682 44.468 21.557 1.022.078 2.036.078 3.058.078 16.455 0 32.577-7.136 46.837-20.708 2.171 1.443 17.826 11.272 34.067 6.41a14.02 14.02 0 0 0 5.496-2.862c1.63-1.37 2.98-3.103 3.963-5.087 4.017-8.229 1.703-19.519.848-22.939 3.05 1.732 13.468 7.215 17.595 3.892 1.545-1.251 2.029-3.559 1.45-6.848-3.676-20.708-28.108-33.983-33.076-32.951-3.707.769-5.023 4.189-5.45 5.938-2.338-3.358-12.114-16.809-22.698-22.222a105.535 105.535 0 0 0-12.676-5.247m-114.263 3.953c.057 0 .114.013.166.038m-.166-.038.364 1.009s-.057 3.853.007 5.34c.063 1.487 2.139 41.058 30.549 70.048 21.081 21.522 58.221 34.596 93.484.648a.355.355 0 0 1 .233-.089c.085 0 .167.031.234.089.167.122 16.637 11.587 33.694 6.48a13.288 13.288 0 0 0 5.21-2.705 14.917 14.917 0 0 0 3.758-4.816c4.521-9.225.609-22.962.524-23.258l-.001-.004a.459.459 0 0 1-.009-.257.422.422 0 0 1 .128-.215.376.376 0 0 1 .216-.098.37.37 0 0 1 .228.054m-54.356-56.179-.107-.039m.107.039-.107-.039m54.463 56.218.013.008m-.013-.008.013.008m-18.441-27.678a.456.456 0 0 1-.095.233.397.397 0 0 1-.198.135.354.354 0 0 1-.234-.008.388.388 0 0 1-.186-.159c-.111-.157-11.028-16.615-22.911-22.737a106.67 106.67 0 0 0-12.581-5.168c-7.582-2.738-14.744-5.326-19.664-11.247l-1.473-1.48-.293-.532c-.067-.123-.06-.291.073-.337.139-.048.278.045.39.141l1.66 1.421c.126.087.239.193.338.31 4.729 5.662 11.745 8.203 19.139 10.88m36.035 28.548.001-.007m-.001.007.001-.007m18.44 27.685c.489.29 13.279 7.883 17.574 4.426 1.276-1.032 1.656-3.044 1.133-5.973-3.589-20.219-27.284-33.232-32.149-32.252-4.333.865-4.962 5.828-4.998 6.114" stroke="#263238" stroke-width=".4"/>
        <path d="M152.446 226.669c7.047 1.704 23.355 4.681 41.522 1.448a2.467 2.467 0 0 1 1.807.407c.539.368.939.935 1.127 1.598 2.727 9.44 7.546 17.996 14.029 24.909.343.359.591.812.717 1.313.126.5.127 1.029.001 1.529a2.936 2.936 0 0 1-.716 1.314 2.578 2.578 0 0 1-1.23.728c-8.696 2.253-28.011 5.521-48.804-2.358a2.703 2.703 0 0 1-1.318-1.113c-1.858-2.986-8.291-14.009-10.32-26.499a3.147 3.147 0 0 1 .108-1.388c.139-.447.376-.849.69-1.172a2.597 2.597 0 0 1 1.112-.683 2.43 2.43 0 0 1 1.275-.033Z" fill="#7E57C2"/>
        <path d="M188.613 262.542a78.478 78.478 0 0 1-27.589-4.911 3.094 3.094 0 0 1-1.508-1.25c-1.89-3.015-8.233-13.786-10.244-25.987a3.501 3.501 0 0 1 .108-1.573c.155-.507.424-.964.782-1.331a2.95 2.95 0 0 1 1.272-.775 2.793 2.793 0 0 1 1.46-.035c6.232 1.482 22.691 4.593 40.841 1.405a2.806 2.806 0 0 1 2.058.45 3.206 3.206 0 0 1 1.277 1.799c2.684 9.136 7.405 17.421 13.747 24.126.39.404.672.914.817 1.477.144.563.145 1.158.003 1.721a3.307 3.307 0 0 1-.811 1.482 2.95 2.95 0 0 1-1.397.826 84.828 84.828 0 0 1-20.816 2.576Zm-36.373-35.095a2.143 2.143 0 0 0-1.54.664 2.352 2.352 0 0 0-.572.966 2.492 2.492 0 0 0-.074 1.145c1.987 12.063 8.25 22.678 10.125 25.66.266.428.656.749 1.109.913 20.105 7.531 38.678 4.67 47.957 2.301.386-.1.74-.309 1.025-.607.285-.298.491-.674.595-1.087a2.571 2.571 0 0 0-.001-1.263 2.44 2.44 0 0 0-.598-1.085c-6.438-6.801-11.23-15.207-13.954-24.479a2.375 2.375 0 0 0-.939-1.322 2.086 2.086 0 0 0-1.51-.341 104.375 104.375 0 0 1-41.144-1.413 2.274 2.274 0 0 0-.479-.052Z" fill="#263238" stroke="#263238" stroke-width=".4"/>
        <path d="M165.073 252.402c2.736-.937 3.88-5.546 2.556-10.296-1.324-4.749-4.615-7.84-7.35-6.903-2.736.937-3.88 5.546-2.556 10.296 1.324 4.749 4.615 7.84 7.35 6.903Z" fill="#fff"/>
        <path d="M163.633 252.866c-1.177-.042-2.31-.546-3.225-1.437-1.458-1.462-2.531-3.401-3.09-5.583a14.09 14.09 0 0 1-.06-6.705 6.33 6.33 0 0 1 1.138-2.475c.541-.701 1.216-1.234 1.966-1.551 2.921-1.089 6.306 1.958 7.546 6.789 1.24 4.831-.129 9.644-3.043 10.724a3.41 3.41 0 0 1-1.232.238Zm-2.062-17.056a2.939 2.939 0 0 0-1.004.174 4.227 4.227 0 0 0-1.655 1.335 5.404 5.404 0 0 0-.954 2.105 13.01 13.01 0 0 0 .067 6.144c.513 1.997 1.493 3.775 2.824 5.12a3.965 3.965 0 0 0 1.773 1.092 3.482 3.482 0 0 0 1.992-.022c2.518-.915 3.659-5.233 2.541-9.58-.943-3.779-3.301-6.368-5.584-6.368Z" fill="#263238" stroke="#263238" stroke-width=".4"/>
        <path d="M181.761 243.189c1.12 4.825.035 9.316-2.551 10.368-2.587 1.052-5.259-1.377-6.379-6.221-1.12-4.845-.028-9.307 2.551-10.368 2.58-1.062 5.26 1.366 6.379 6.221Z" fill="#fff"/>
        <path d="M178.182 254.248c-1.046-.039-2.054-.547-2.864-1.444-1.29-1.461-2.241-3.395-2.737-5.57a15.823 15.823 0 0 1-.06-6.688c.182-.931.531-1.787 1.015-2.494.484-.706 1.089-1.24 1.762-1.555 2.587-1.088 5.593 1.956 6.694 6.782 1.101 4.826-.108 9.634-2.702 10.713a2.912 2.912 0 0 1-1.108.256Zm-1.81-17.038a2.394 2.394 0 0 0-.892.182c-.563.277-1.068.734-1.471 1.333a5.714 5.714 0 0 0-.846 2.104 14.593 14.593 0 0 0 .062 6.137c.455 1.995 1.325 3.77 2.505 5.115.456.538 1.002.916 1.591 1.102a2.77 2.77 0 0 0 1.787-.032c2.229-.914 3.242-5.229 2.256-9.57-.892-3.775-2.986-6.371-4.992-6.371Z" fill="#263238" stroke="#263238" stroke-width=".4"/>
        <path d="M194.899 253.878c2.824-.967 4.12-5.313 2.895-9.709-1.225-4.395-4.508-7.173-7.332-6.206-2.824.967-4.12 5.314-2.895 9.709 1.226 4.395 4.508 7.174 7.332 6.206Z" fill="#fff"/>
        <path d="M193.722 254.248a5.923 5.923 0 0 1-3.576-1.324 10.863 10.863 0 0 1-3.507-11.32 5.057 5.057 0 0 1 3.45-3.72 5.081 5.081 0 0 1 4.951 1.131 10.267 10.267 0 0 1 3.431 5.145c.658 2.002.685 4.157.077 6.174a5.446 5.446 0 0 1-3.457 3.712 4.742 4.742 0 0 1-1.369.202Zm-2.257-15.714a3.89 3.89 0 0 0-1.124.169 4.622 4.622 0 0 0-2.899 3.171 10.03 10.03 0 0 0 3.211 10.383 4.234 4.234 0 0 0 4.196 1.009 4.217 4.217 0 0 0 2.896-3.193 9.427 9.427 0 0 0-.076-5.668 9.43 9.43 0 0 0-3.136-4.715 5.114 5.114 0 0 0-3.051-1.156h-.017ZM257.255 274.985a.372.372 0 0 1-.231-.093 19.478 19.478 0 0 1-3.055-3.174.609.609 0 0 1 .012-.748.402.402 0 0 1 .144-.105.346.346 0 0 1 .326.032c.05.033.094.078.129.132a18.837 18.837 0 0 0 2.915 3.021c.089.077.15.194.17.327a.61.61 0 0 1-.063.382.482.482 0 0 1-.151.165.37.37 0 0 1-.196.061ZM264.782 279.305a.627.627 0 0 1-.188-.025s-2.447-1.176-5.139-2.751a.457.457 0 0 1-.13-.106.334.334 0 0 1-.068-.134.266.266 0 0 1 .005-.14.301.301 0 0 1 .076-.123.478.478 0 0 1 .305-.129.61.61 0 0 1 .352.078c2.666 1.549 5.04 2.695 5.057 2.712a.448.448 0 0 1 .227.188c.045.08.051.168.017.246a.354.354 0 0 1-.199.183.58.58 0 0 1-.319.029l.004-.028Z" fill="#263238" stroke="#263238" stroke-width=".4"/>
        <path d="M223.831 215.67s-23.938-6.375-32.62 7.05c-8.682 13.426-.234 30.58 9.05 33.602 9.283 3.021 10.999-12.119 10.999-12.119s10.478 6.042 20.042 3.354c9.564-2.689 10.775-21.816 5.091-28.524" fill="#fff"/>
        <path d="M202.776 256.998a7.442 7.442 0 0 1-2.354-.406c-4.8-1.563-9.216-6.888-11.247-13.565a24.563 24.563 0 0 1-.985-10.562c.444-3.558 1.658-6.939 3.534-9.846 8.542-13.247 31.374-7.356 32.316-7.065.051.013.1.038.143.073a.449.449 0 0 1 .163.294.488.488 0 0 1-.069.338.425.425 0 0 1-.114.121.373.373 0 0 1-.304.057c-.227-.062-23.264-6.04-31.508 6.756-1.799 2.794-2.962 6.043-3.385 9.461a23.582 23.582 0 0 0 .954 10.144c1.953 6.411 6.157 11.48 10.714 12.999.887.34 1.829.454 2.759.335a5.887 5.887 0 0 0 2.622-1.024c4.094-2.949 5.24-11.065 5.255-11.145a.458.458 0 0 1 .066-.192.385.385 0 0 1 .138-.134.335.335 0 0 1 .361 0c.102.053 10.197 5.819 19.342 3.258 3.373-.953 5.938-4.203 7.217-9.175 1.717-6.65.674-14.439-2.432-18.112a.483.483 0 0 1 .016-.627.367.367 0 0 1 .281-.121.377.377 0 0 1 .276.138c3.278 3.886 4.408 12.046 2.619 18.969-1.364 5.299-4.133 8.752-7.788 9.785-8.252 2.322-17.256-1.961-19.413-3.073-.346 1.987-1.734 8.451-5.491 11.171-1.102.783-2.384 1.182-3.686 1.148Z" fill="#263238" stroke="#263238" stroke-width=".4"/>
        <path d="M217.474 246.681c6.042-20.399-3.499-29.091-10.027-32.524-6.163.606-12.521 2.765-16.198 8.402-8.772 13.489-.608 31.025 8.771 34.06 9.379 3.036 11.485-12.476 11.485-12.476a34.765 34.765 0 0 0 5.969 2.538Z" fill="#7E57C2"/>
        <path d="M202.377 257.012a7.511 7.511 0 0 1-2.369-.407c-4.832-1.566-9.278-6.9-11.323-13.589a24.482 24.482 0 0 1-.991-10.581c.447-3.564 1.669-6.951 3.557-9.864 3.159-4.839 8.536-7.67 16.069-8.413a.424.424 0 0 1 .206.044c6.317 3.326 15.998 11.961 9.973 32.371a.44.44 0 0 1-.188.255.362.362 0 0 1-.294.037 34.877 34.877 0 0 1-5.401-2.247c-.355 1.999-1.753 8.466-5.527 11.191-1.104.803-2.396 1.222-3.712 1.203Zm4.888-41.961c-7.241.735-12.421 3.442-15.398 8.042-1.811 2.799-2.981 6.054-3.408 9.478a23.525 23.525 0 0 0 .96 10.162c1.967 6.423 6.199 11.501 10.787 13.023.892.34 1.841.455 2.777.336a5.946 5.946 0 0 0 2.64-1.026c4.122-2.955 5.275-11.085 5.29-11.165a.472.472 0 0 1 .066-.192.393.393 0 0 1 .14-.135.338.338 0 0 1 .363 0 33.76 33.76 0 0 0 5.369 2.318c5.583-19.366-3.529-27.62-9.562-30.841h-.024Z" fill="#263238" stroke="#263238" stroke-width=".4"/>
        <path d="M294.58 218.8c-5.001.915-5.699 6.593-5.699 6.593s14.515 11.656 18.999 29.085c0 0 22.855 14.079 20.277-1.693-3.479-21.219-28.576-34.891-33.577-33.985Z" fill="#7E57C2"/>
        <path d="M322.86 260.246c-5.97-.106-14.695-5.431-15.153-5.711a.46.46 0 0 1-.191-.258c-4.309-16.73-18.337-28.127-18.481-28.235a.445.445 0 0 1-.13-.185.484.484 0 0 1-.026-.23c.002-.061.804-5.875 5.914-6.819 5.11-.944 29.966 12.802 33.372 33.617.536 3.306-.001 5.61-1.61 6.835a5.868 5.868 0 0 1-3.695.986Zm-14.604-6.394c1.456.902 13.552 7.927 17.816 4.698 1.327-1.011 1.754-3.019 1.269-5.964-3.326-20.323-27.422-33.792-32.433-32.9-4 .736-5.007 4.768-5.205 5.825 1.789 1.46 14.399 12.534 18.553 28.35v-.009Z" fill="#263238" stroke="#263238" stroke-width=".4"/>
        <path d="M272.511 207.245C262.5 248.5 222.039 276.95 174 271.5c-3.32-.375-7.518-.71-10.738-1.39a98.339 98.339 0 0 0 6.653 7.789c.734.105 1.468.211 2.202.299 50.509 6.329 91.634-19.965 107.244-64.579a66.142 66.142 0 0 0-6.85-6.374Z" fill="#7E57C2"/>
        <path d="M187.07 279c-4.898-.007-10.555-.171-15.422-.783-.737-.087-1.238-.2-1.975-.304-.082-.013-.386-.052-.447-.113a97.989 97.989 0 0 1-6.631-7.72.471.471 0 0 1-.045-.502.414.414 0 0 1 .176-.178.355.355 0 0 1 .237-.032c3.206.668 7.239 1.044 10.476 1.409 46.717 5.262 89.21-22.711 98.561-64.08a.444.444 0 0 1 .09-.188.383.383 0 0 1 .161-.116.35.35 0 0 1 .36.052 67.154 67.154 0 0 1 6.843 6.331.505.505 0 0 1 .095.477c-7.59 21.776-22.136 40.599-40.651 51.74-15.183 9.248-32.882 13.998-51.828 14.007Zm-17.397-1.93c.69.104 1.372.2 2.061.287 48.646 6.078 91.197-19.66 106.984-64.147a67.107 67.107 0 0 0-6.099-5.688c-4.703 19.912-17.299 38.02-35.234 49.699-18.263 11.897-41.003 17.02-64.024 14.424-2.893-.33-6.573-.636-9.442-1.2 1.835 2.318 3.771 4.585 5.754 6.625Z" fill="#263238"/>
        <path d="M174.347 211.391c-13.102.081-26.012-3.568-37.544-10.611-16.738-10.337-28.108-26.863-32.033-46.543-3.925-19.681.063-40.132 11.245-57.611 11.183-17.479 28.172-29.845 47.875-34.887 19.704-5.042 39.766-2.13 56.451 8.197 16.684 10.327 28.108 26.862 32.033 46.543 3.925 19.68-.063 40.132-11.245 57.611-11.183 17.479-28.145 29.875-47.858 34.887a76.389 76.389 0 0 1-18.924 2.414Zm8.477-151.052a75.889 75.889 0 0 0-18.737 2.384c-19.488 4.991-36.307 17.246-47.346 34.491-11.039 17.246-14.973 37.413-11.102 56.81 3.871 19.396 15.089 35.678 31.585 45.873 16.496 10.196 36.361 13.087 55.85 8.116 19.489-4.971 36.317-17.246 47.356-34.491 11.039-17.246 14.964-37.403 11.102-56.81-3.862-19.406-15.09-35.678-31.595-45.873-11.398-6.966-24.16-10.577-37.113-10.5Z" fill="#263238" stroke="#263238" stroke-width=".4"/>
    </g>
    <defs>
        <clipPath id="a">
            <path fill="#fff" d="M0 0h409v454H0z"/>
        </clipPath>
    </defs>
</svg>
