<svg width="18" height="18" viewBox="0 0 18 18" fill="none" xmlns="http://www.w3.org/2000/svg">
<path d="M13.6007 14.3291C12.7305 13.5879 11.949 12.7016 11.4494 11.6622C11.1432 11.0095 10.9015 10.3327 10.7807 9.62368C10.6115 8.60041 10.547 7.56102 10.4906 6.52163C10.4584 5.80453 10.4423 5.08743 10.4423 4.36227V1.77588L11.5461 1.77588V3.05699C11.5783 4.32198 11.6509 5.58698 11.8442 6.83586C11.9973 7.81885 12.2149 8.80184 12.6258 9.70426C12.9803 10.4939 13.4396 11.2432 14.0197 11.8797C14.5837 12.5082 15.2525 13.0319 15.9937 13.4267C16.6222 13.7571 17.299 14.0069 18 14.1116V16.279C17.4199 16.1984 16.8478 16.0534 16.2919 15.86C15.325 15.5216 14.3823 15.0221 13.6007 14.3291Z" fill="black"/>
<path d="M10.0162 12.8168C10.0177 13.9736 10.0192 15.1326 10.0072 16.2871C9.56162 16.2817 9.1125 16.2835 8.66219 16.2853C8.43659 16.2862 8.21067 16.2871 7.98478 16.2871L7.98478 1.78393L10.0152 1.78393L10.0152 11.6622C10.0152 12.0464 10.0157 12.4319 10.0162 12.8168Z" fill="black"/>
<path d="M3.57744 12.2826C2.80394 13.0239 1.86929 13.5798 0.854074 13.9102C0.572069 13.9988 0.282005 14.0713 1.89481e-07 14.1116L0 16.279C0.580126 16.2065 1.14414 16.0534 1.70009 15.8681C2.36079 15.6425 2.99731 15.3444 3.57744 14.9657C4.00447 14.6917 4.39123 14.3614 4.76186 14.023C5.37422 13.4509 5.92211 12.8063 6.33303 12.0812C6.65533 11.5091 6.9051 10.9048 7.07431 10.2763C7.24351 9.64785 7.31602 8.99521 7.38048 8.35063C7.50134 6.95672 7.54968 5.55475 7.54163 4.15278L7.54163 1.77588L6.44584 1.77588C6.45389 3.25036 6.40555 4.72485 6.22829 6.19128C6.08326 7.32735 5.88183 8.47149 5.43062 9.53505C5.00358 10.5583 4.38317 11.5171 3.57744 12.2826Z" fill="black"/>
<path d="M13.6007 14.3291C12.7305 13.5879 11.949 12.7016 11.4494 11.6622C11.1432 11.0095 10.9015 10.3327 10.7807 9.62368C10.6115 8.60041 10.547 7.56102 10.4906 6.52163C10.4584 5.80453 10.4423 5.08743 10.4423 4.36227V1.77588L11.5461 1.77588V3.05699C11.5783 4.32198 11.6509 5.58698 11.8442 6.83586C11.9973 7.81885 12.2149 8.80184 12.6258 9.70426C12.9803 10.4939 13.4396 11.2432 14.0197 11.8797C14.5837 12.5082 15.2525 13.0319 15.9937 13.4267C16.6222 13.7571 17.299 14.0069 18 14.1116V16.279C17.4199 16.1984 16.8478 16.0534 16.2919 15.86C15.325 15.5216 14.3823 15.0221 13.6007 14.3291Z" fill="black"/>
<path d="M10.0162 12.8168C10.0177 13.9736 10.0192 15.1326 10.0072 16.2871C9.56162 16.2817 9.1125 16.2835 8.66219 16.2853C8.43659 16.2862 8.21067 16.2871 7.98478 16.2871L7.98478 1.78393L10.0152 1.78393L10.0152 11.6622C10.0152 12.0464 10.0157 12.4319 10.0162 12.8168Z" fill="black"/>
<path d="M3.57744 12.2826C2.80394 13.0239 1.86929 13.5798 0.854074 13.9102C0.572069 13.9988 0.282005 14.0713 1.89481e-07 14.1116L0 16.279C0.580126 16.2065 1.14414 16.0534 1.70009 15.8681C2.36079 15.6425 2.99731 15.3444 3.57744 14.9657C4.00447 14.6917 4.39123 14.3614 4.76186 14.023C5.37422 13.4509 5.92211 12.8063 6.33303 12.0812C6.65533 11.5091 6.9051 10.9048 7.07431 10.2763C7.24351 9.64785 7.31602 8.99521 7.38048 8.35063C7.50134 6.95672 7.54968 5.55475 7.54163 4.15278L7.54163 1.77588L6.44584 1.77588C6.45389 3.25036 6.40555 4.72485 6.22829 6.19128C6.08326 7.32735 5.88183 8.47149 5.43062 9.53505C5.00358 10.5583 4.38317 11.5171 3.57744 12.2826Z" fill="black"/>
<path d="M13.6007 14.3291C12.7305 13.5879 11.949 12.7016 11.4494 11.6622C11.1432 11.0095 10.9015 10.3327 10.7807 9.62368C10.6115 8.60041 10.547 7.56102 10.4906 6.52163C10.4584 5.80453 10.4423 5.08743 10.4423 4.36227V1.77588L11.5461 1.77588V3.05699C11.5783 4.32198 11.6509 5.58698 11.8442 6.83586C11.9973 7.81885 12.2149 8.80184 12.6258 9.70426C12.9803 10.4939 13.4396 11.2432 14.0197 11.8797C14.5837 12.5082 15.2525 13.0319 15.9937 13.4267C16.6222 13.7571 17.299 14.0069 18 14.1116V16.279C17.4199 16.1984 16.8478 16.0534 16.2919 15.86C15.325 15.5216 14.3823 15.0221 13.6007 14.3291Z" fill="black"/>
<path d="M10.0162 12.8168C10.0177 13.9736 10.0192 15.1326 10.0072 16.2871C9.56162 16.2817 9.1125 16.2835 8.66219 16.2853C8.43659 16.2862 8.21067 16.2871 7.98478 16.2871L7.98478 1.78393L10.0152 1.78393L10.0152 11.6622C10.0152 12.0464 10.0157 12.4319 10.0162 12.8168Z" fill="black"/>
<path d="M3.57744 12.2826C2.80394 13.0239 1.86929 13.5798 0.854074 13.9102C0.572069 13.9988 0.282005 14.0713 1.89481e-07 14.1116L0 16.279C0.580126 16.2065 1.14414 16.0534 1.70009 15.8681C2.36079 15.6425 2.99731 15.3444 3.57744 14.9657C4.00447 14.6917 4.39123 14.3614 4.76186 14.023C5.37422 13.4509 5.92211 12.8063 6.33303 12.0812C6.65533 11.5091 6.9051 10.9048 7.07431 10.2763C7.24351 9.64785 7.31602 8.99521 7.38048 8.35063C7.50134 6.95672 7.54968 5.55475 7.54163 4.15278L7.54163 1.77588L6.44584 1.77588C6.45389 3.25036 6.40555 4.72485 6.22829 6.19128C6.08326 7.32735 5.88183 8.47149 5.43062 9.53505C5.00358 10.5583 4.38317 11.5171 3.57744 12.2826Z" fill="black"/>
<path d="M13.6007 14.3291C12.7305 13.5879 11.949 12.7016 11.4494 11.6622C11.1432 11.0095 10.9015 10.3327 10.7807 9.62368C10.6115 8.60041 10.547 7.56102 10.4906 6.52163C10.4584 5.80453 10.4423 5.08743 10.4423 4.36227V1.77588L11.5461 1.77588V3.05699C11.5783 4.32198 11.6509 5.58698 11.8442 6.83586C11.9973 7.81885 12.2149 8.80184 12.6258 9.70426C12.9803 10.4939 13.4396 11.2432 14.0197 11.8797C14.5837 12.5082 15.2525 13.0319 15.9937 13.4267C16.6222 13.7571 17.299 14.0069 18 14.1116V16.279C17.4199 16.1984 16.8478 16.0534 16.2919 15.86C15.325 15.5216 14.3823 15.0221 13.6007 14.3291Z" fill="black"/>
<path d="M10.0162 12.8168C10.0177 13.9736 10.0192 15.1326 10.0072 16.2871C9.56162 16.2817 9.1125 16.2835 8.66219 16.2853C8.43659 16.2862 8.21067 16.2871 7.98478 16.2871L7.98478 1.78393L10.0152 1.78393L10.0152 11.6622C10.0152 12.0464 10.0157 12.4319 10.0162 12.8168Z" fill="black"/>
<path d="M3.57744 12.2826C2.80394 13.0239 1.86929 13.5798 0.854074 13.9102C0.572069 13.9988 0.282005 14.0713 1.89481e-07 14.1116L0 16.279C0.580126 16.2065 1.14414 16.0534 1.70009 15.8681C2.36079 15.6425 2.99731 15.3444 3.57744 14.9657C4.00447 14.6917 4.39123 14.3614 4.76186 14.023C5.37422 13.4509 5.92211 12.8063 6.33303 12.0812C6.65533 11.5091 6.9051 10.9048 7.07431 10.2763C7.24351 9.64785 7.31602 8.99521 7.38048 8.35063C7.50134 6.95672 7.54968 5.55475 7.54163 4.15278L7.54163 1.77588L6.44584 1.77588C6.45389 3.25036 6.40555 4.72485 6.22829 6.19128C6.08326 7.32735 5.88183 8.47149 5.43062 9.53505C5.00358 10.5583 4.38317 11.5171 3.57744 12.2826Z" fill="black"/>
</svg>
