<svg width="18" height="18" viewBox="0 0 18 18" fill="none" xmlns="http://www.w3.org/2000/svg">
<path d="M14.6066 14.6066C14.9971 14.2161 14.9971 13.5829 14.6066 13.1924L4.70711 3.29289C4.31658 2.90237 3.68342 2.90237 3.29289 3.29289C2.90237 3.68342 2.90237 4.31658 3.29289 4.70711L13.1924 14.6066C13.5829 14.9971 14.2161 14.9971 14.6066 14.6066Z" fill="black"/>
<path d="M14.6066 3.29289C14.2161 2.90237 13.5829 2.90237 13.1924 3.29289L3.29289 13.1924C2.90237 13.5829 2.90237 14.2161 3.29289 14.6066C3.68342 14.9971 4.31658 14.9971 4.70711 14.6066L14.6066 4.70711C14.9971 4.31658 14.9971 3.68342 14.6066 3.29289Z" fill="black"/>
</svg>
