<svg width="18" height="18" viewBox="0 0 18 18" fill="none" xmlns="http://www.w3.org/2000/svg">
<path fill-rule="evenodd" clip-rule="evenodd" d="M13.4532 8.47004C13.3415 9.50431 12.4046 10.2748 11.3526 10.1612C10.3004 10.0476 9.54971 9.09484 9.6614 8.06058C9.7732 7.02522 10.7267 6.2576 11.762 6.3694C12.7974 6.4812 13.565 7.43467 13.4532 8.47004ZM12.0118 8.29871C12.0395 8.04302 11.8635 7.82454 11.6079 7.79694C11.3522 7.76932 11.1337 7.9452 11.1061 8.2009C11.0785 8.45659 11.2545 8.67508 11.5101 8.70268C11.7658 8.73029 11.9842 8.55432 12.0118 8.29871Z" fill="black"/>
<path fill-rule="evenodd" clip-rule="evenodd" d="M15.1906 3.03445L15.1904 3.03189C15.0562 1.81344 13.9595 0.891169 12.7191 1.01038L2.0357 2.03705C0.795734 2.15621 -0.107212 3.2707 0.0102802 4.49329L0.752571 12.2174C0.83997 13.1269 1.47027 13.87 2.29781 14.1419C2.64699 14.73 3.25788 15.1564 3.99095 15.2356L14.6769 16.3895C15.9145 16.5231 17.023 15.6307 17.1567 14.3931L17.9898 6.67824L17.99 6.67568C18.1047 5.45524 17.2169 4.33047 15.9779 4.19668L15.2952 4.12296L15.1906 3.03445ZM5.14989 4.5031C4.70575 4.45514 4.31646 4.77209 4.27059 5.19694L3.6805 10.6615L5.71381 9.19504C6.66054 8.51004 7.95036 8.64743 8.71528 9.51978L10.7778 11.829L11.7889 11.2674C12.6406 10.8128 13.6754 10.9226 14.3942 11.5841L15.8416 12.9067L16.5312 6.52071C16.5773 6.09399 16.2626 5.7031 15.8359 5.65702L5.14989 4.5031ZM2.35497 9.41805L2.82763 5.04097C2.90762 4.30023 3.34732 3.67429 3.95733 3.32629L2.17605 3.49747C1.73136 3.54021 1.41412 3.92925 1.455 4.35461L1.98078 9.82573L2.35497 9.41805ZM6.05278 3.12492L12.8749 2.46932C13.3021 2.42826 13.6892 2.74753 13.7303 3.17476L13.806 3.96214L6.05278 3.12492ZM6.73451 14.0565L9.4732 12.5532L7.63577 10.4824C7.36307 10.1723 6.91111 10.123 6.5785 10.3677L6.57741 10.3685L3.46901 12.6207L3.43757 12.9118C3.39456 13.3101 3.66659 13.68 4.06675 13.7643C4.09343 13.7699 4.12068 13.7742 4.14844 13.7772L6.73451 14.0565ZM14.8188 14.9294C15.1105 14.9609 15.3828 14.831 15.5469 14.6092L13.4129 12.6455C13.1574 12.4142 12.792 12.3736 12.4929 12.533L9.24415 14.3275L14.8188 14.9294Z" fill="black"/>
</svg>
