<svg width="18" height="18" viewBox="0 0 18 18" fill="none" xmlns="http://www.w3.org/2000/svg">
<path fill-rule="evenodd" clip-rule="evenodd" d="M5.07315 3.28566L6.33356 1.01592L8.95619 0L11.6676 1.06326V4.38387L12.5291 3.40504L15.1529 2.39061L17.8994 3.45249V14.2136L15.158 15.3769L12.0994 14.1926L11.8515 13.8425V16.7774L8.95552 18L6.14185 16.8122L4.91706 14.4166L2.75543 15.3802L0 14.2137L0.00597485 3.45228L2.75826 2.39066L5.07315 3.28566ZM10.7227 6.01304L10.2708 5.83807L10.2696 5.8376L8.96691 5.33976L7.20075 6.01323L8.96116 6.68451L10.1522 6.22932L10.7227 6.01304ZM10.4824 5.27966L10.4836 5.28012L10.7788 5.39292L11.0726 5.05756V1.70274L9.1625 2.44266L7.6183 5.20562L8.95559 4.68848L10.4824 5.27966ZM5.06046 4.03444L3.17795 4.76227L6.0608 10.2289L6.06521 6.08267L5.06046 4.03444ZM9.25299 17.2263L11.2566 16.3805V9.44998L15.2492 14.6895L17.3045 13.8174V4.09271L15.4504 4.80957V12.1366L11.4487 6.37711L9.25299 7.21661V17.2263ZM15.1529 4.28436L16.774 3.6576L15.1529 3.03083L13.5318 3.6576L15.1529 4.28436ZM14.2755 14.3948L12.4805 13.6998L11.8515 12.8115V11.2138L14.2755 14.3948ZM3.04985 10.7866L4.64412 13.8846L3.04985 14.5953V10.7866ZM2.75812 4.28436L4.37924 3.6576L2.75801 3.03079L1.13335 3.65745L1.27867 3.71347C1.73675 3.89006 2.29763 4.1064 2.75812 4.28436ZM7.36313 1.25748L8.95618 1.8822L10.5479 1.26561L8.95487 0.640892L7.36313 1.25748Z" fill="black"/>
</svg>
