<svg width="18" height="18" viewBox="0 0 18 18" fill="none" xmlns="http://www.w3.org/2000/svg">
<path d="M4.46729 1.13244C2.89311 1.4139 1.62656 2.57899 1.22729 4.11062C1.08329 4.66371 1.07347 4.98771 1.08984 9.27826C1.09965 13.2186 1.10293 13.3103 1.16838 13.6146C1.53165 15.2543 2.69674 16.4226 4.35274 16.8088C4.56874 16.8579 4.84365 16.8677 6.6142 16.8775C8.44693 16.8906 8.63674 16.8874 8.68583 16.8383C8.73493 16.7892 8.7382 16.1575 8.7382 8.99681C8.7382 3.68844 8.72838 1.18808 8.70547 1.14226C8.67274 1.08335 8.61711 1.08008 6.69929 1.08335C5.14147 1.08662 4.67347 1.09644 4.46729 1.13244ZM7.42911 15.6175L6.09711 15.6012C4.86984 15.5881 4.73893 15.5815 4.49347 15.5194C3.43965 15.2477 2.65747 14.4361 2.4382 13.379C2.3662 13.0484 2.3662 4.9059 2.43493 4.5819C2.63129 3.66226 3.26947 2.89971 4.1302 2.55608C4.5622 2.38262 4.76184 2.36299 6.16256 2.35971L7.42911 2.35644V15.6175Z" fill="black"/>
<path d="M4.74874 4.35608C4.54256 4.39535 4.22838 4.55244 4.06147 4.69971C3.71783 4.99753 3.54765 5.41972 3.57383 5.91717C3.58693 6.17572 3.60329 6.24444 3.70802 6.4539C3.86183 6.77135 4.0942 7.00371 4.41165 7.16081C4.63093 7.26881 4.68656 7.2819 4.97129 7.29172C5.22984 7.30153 5.32147 7.29171 5.49493 7.23281C6.20511 6.9939 6.63383 6.30335 6.51274 5.59644C6.37202 4.75535 5.57347 4.19244 4.74874 4.35608Z" fill="black"/>
<path d="M10.332 1.10299C10.3189 1.11281 10.3091 4.66044 10.3091 8.98699C10.3091 16.1248 10.3124 16.8481 10.3615 16.8677C10.4498 16.9004 12.9895 16.8874 13.3037 16.8546C14.6324 16.7041 15.804 15.8957 16.4422 14.6946C16.524 14.5408 16.632 14.2823 16.6877 14.1219C16.8938 13.5066 16.8873 13.6703 16.8873 8.96735C16.8873 5.21353 16.8807 4.6539 16.8349 4.41499C16.5109 2.7099 15.2117 1.42371 13.5033 1.12917C13.2742 1.0899 12.9207 1.08008 11.7818 1.08008C10.9964 1.08008 10.3418 1.0899 10.332 1.10299ZM13.8273 8.23099C14.3378 8.36517 14.7567 8.75462 14.9269 9.25208C15.0349 9.55971 15.0317 10.0114 14.9237 10.2928C14.724 10.8099 14.3313 11.1732 13.8273 11.3074C13.0091 11.5201 12.1386 11.0259 11.8997 10.2143C11.8277 9.96553 11.8309 9.54662 11.9127 9.29135C12.1582 8.48953 13.0091 8.01826 13.8273 8.23099Z" fill="black"/>
</svg>
