<svg width="18" height="18" viewBox="0 0 18 18" fill="none" xmlns="http://www.w3.org/2000/svg">
<path d="M16.162 14.1188C16.162 14.9023 15.8975 15.5586 15.3685 16.0876C14.8394 16.6166 14.1832 16.8811 13.3997 16.8811C12.4957 16.8811 11.7089 16.5463 11.0392 15.8766L3.23453 8.082C2.47784 7.31191 2.09949 6.40454 2.09949 5.3599C2.09949 4.29517 2.46779 3.39115 3.2044 2.64784C3.94101 1.90454 4.84168 1.53289 5.90641 1.53289C6.96444 1.53289 7.87851 1.91124 8.64859 2.66793L14.7256 8.75499C14.7926 8.82195 14.8261 8.89561 14.8261 8.97597C14.8261 9.08311 14.7239 9.2388 14.5197 9.44304C14.3154 9.64729 14.1598 9.74941 14.0526 9.74941C13.9656 9.74941 13.8886 9.71592 13.8216 9.64896L7.73453 3.55186C7.20551 3.03624 6.59949 2.77842 5.91645 2.77842C5.20663 2.77842 4.6073 3.02954 4.11846 3.53177C3.62962 4.034 3.3852 4.64003 3.3852 5.34985C3.3852 6.05298 3.63967 6.659 4.14859 7.16793L11.9432 14.9726C12.3651 15.3945 12.8506 15.6054 13.3997 15.6054C13.8283 15.6054 14.1832 15.4648 14.4644 15.1836C14.7457 14.9023 14.8863 14.5474 14.8863 14.1188C14.8863 13.5697 14.6754 13.0842 14.2535 12.6624L8.41757 6.82642C8.24346 6.6657 8.04257 6.58534 7.81489 6.58534C7.62069 6.58534 7.45998 6.64896 7.33275 6.77619C7.20551 6.90342 7.1419 7.06414 7.1419 7.25833C7.1419 7.47262 7.2256 7.67017 7.39301 7.85097L11.5113 11.9693C11.5783 12.0362 11.6118 12.1099 11.6118 12.1903C11.6118 12.2974 11.508 12.4548 11.3004 12.6624C11.0928 12.8699 10.9354 12.9737 10.8283 12.9737C10.7479 12.9737 10.6743 12.9403 10.6073 12.8733L6.489 8.75499C6.06712 8.3465 5.85618 7.84762 5.85618 7.25833C5.85618 6.70923 6.04703 6.24383 6.42873 5.86213C6.81043 5.48043 7.27583 5.28958 7.82493 5.28958C8.41422 5.28958 8.9131 5.50052 9.32159 5.9224L15.1575 11.7583C15.8272 12.4146 16.162 13.2014 16.162 14.1188Z" fill="black"/>
</svg>
