<svg width="18" height="18" viewBox="0 0 18 18" fill="none" xmlns="http://www.w3.org/2000/svg">
<path fill-rule="evenodd" clip-rule="evenodd" d="M7.63966 1H10.3604C11.2805 1 12.1498 1.4223 12.7186 2.14565L14.0332 3.8174H15C16.6569 3.8174 18 5.16054 18 6.8174V14C18 15.6569 16.6569 17 15 17H3C1.34315 17 0 15.6569 0 14V6.8174C0 5.16054 1.34315 3.8174 3 3.8174H3.96686L5.2814 2.14565C5.85018 1.4223 6.71947 1 7.63966 1ZM10.3604 3C10.6671 3 10.9569 3.14077 11.1464 3.38188L12.7613 5.43552C12.9509 5.67663 13.2406 5.8174 13.5474 5.8174H15C15.5523 5.8174 16 6.26511 16 6.8174V14C16 14.5523 15.5523 15 15 15H3C2.44772 15 2 14.5523 2 14V6.8174C2 6.26511 2.44772 5.8174 3 5.8174H4.45266C4.75939 5.8174 5.04915 5.67663 5.23875 5.43552L6.85357 3.38188C7.04317 3.14077 7.33293 3 7.63966 3H10.3604Z" fill="black"/>
<path fill-rule="evenodd" clip-rule="evenodd" d="M9 12C10.1046 12 11 11.1046 11 10C11 8.89543 10.1046 8 9 8C7.89543 8 7 8.89543 7 10C7 11.1046 7.89543 12 9 12ZM9 14C11.2091 14 13 12.2091 13 10C13 7.79086 11.2091 6 9 6C6.79086 6 5 7.79086 5 10C5 12.2091 6.79086 14 9 14Z" fill="black"/>
</svg>
