<svg width="18" height="18" viewBox="0 0 18 18" fill="none" xmlns="http://www.w3.org/2000/svg">
<g clip-path="url(#clip0_211_2326)">
<g opacity="0.54">
<path d="M6.73064 13.094L5.7031 12.7744C5.53309 12.8358 5.36316 12.8974 5.19325 12.959L4.86872 13.0766C4.7033 13.1387 4.53627 13.1972 4.3627 13.2313C4.10588 13.288 3.84264 13.3076 3.58048 13.3118C3.3453 13.3009 3.10398 13.2882 2.88324 13.1984C2.80387 13.1637 2.71782 13.1179 2.68334 13.0336C2.65595 12.9619 2.69671 12.8882 2.74681 12.8382C2.85438 12.7317 2.99749 12.672 3.13699 12.6193C3.45738 12.5049 3.77798 12.39 4.09836 12.2751L1.54262 11.48C1.49778 11.4978 1.45313 11.5162 1.40873 11.5351C1.05557 11.6836 0.707085 11.8499 0.39107 12.0681C0.254509 12.161 0.130509 12.2806 0.0595556 12.4319C-0.0140697 12.5835 -0.0183456 12.7651 0.040715 12.9223C0.111267 13.1079 0.249966 13.2587 0.404967 13.3787C0.686507 13.5929 1.02163 13.7229 1.35889 13.8206C2.38711 14.1589 3.47211 14.3265 4.55458 14.302C5.09214 14.2936 5.62729 14.2291 6.15616 14.1341L6.7308 13.9604C6.73074 13.6716 6.73069 13.3828 6.73064 13.094Z" fill="black"/>
<path d="M9.662 15.8863C10.5601 15.5636 11.4588 15.2425 12.3575 14.9215L12.4726 14.8804L9.93808 14.0919L9.66281 14.19C9.66264 14.7554 9.66238 15.3209 9.662 15.8863Z" fill="black"/>
</g>
<g opacity="0.82">
<path d="M6.73037 10.489L5.4378 10.0869L4.88691 10.2836C4.03819 10.5867 3.18889 10.89 2.33928 11.1908C2.24632 11.2247 2.15291 11.2575 2.0595 11.2903C1.84397 11.366 1.62838 11.4417 1.41815 11.531C1.45945 11.5135 1.50096 11.4965 1.54263 11.4799L4.09837 12.275L4.30128 12.2022C4.71841 12.0526 5.13016 11.9054 5.54129 11.7585C5.93684 11.6172 6.33181 11.4761 6.73043 11.3331C6.7304 11.0518 6.73039 10.7704 6.73037 10.489Z" fill="black"/>
<path d="M6.73054 12.404L6.15938 12.6101C6.00722 12.6646 5.85513 12.7193 5.70311 12.7742L6.73063 13.0939C6.7306 12.8639 6.73057 12.634 6.73054 12.404Z" fill="black"/>
<path d="M9.66304 13.0742L10.2176 12.9066C10.8055 12.7014 11.3927 12.4943 11.9799 12.2872L12.2285 12.1996L9.66309 11.4015C9.66312 11.959 9.66311 12.5166 9.66304 13.0742Z" fill="black"/>
<path d="M12.6511 13.1283L13.8448 12.7024L16.3639 13.4861L16.314 13.5038C16.2341 13.5321 16.1543 13.5603 16.0749 13.5897L14.8688 14.0228C14.032 14.3232 13.1948 14.6223 12.3575 14.9214L12.4726 14.8803L9.93809 14.0918C10.8502 13.7668 11.9248 13.3836 12.6487 13.1253L12.6511 13.1283Z" fill="black"/>
</g>
<g opacity="0.89">
<path d="M6.73035 9.62634C6.29936 9.77956 5.86856 9.9332 5.43781 10.087L6.73038 10.4891C6.73037 10.2015 6.73036 9.91393 6.73035 9.62634Z" fill="black"/>
<path d="M9.66311 11.4015L12.2285 12.1996C12.6157 12.0631 13.003 11.9267 13.3905 11.7909C13.7426 11.6723 14.1162 11.6266 14.4864 11.6241C14.7229 11.6306 14.9651 11.6477 15.1874 11.7358C15.2658 11.7697 15.3511 11.8153 15.3868 11.8974C15.421 11.9914 15.3527 12.0785 15.283 12.1333C15.1484 12.2409 14.9851 12.2974 14.8236 12.3534C14.7805 12.3684 14.7376 12.3832 14.6953 12.3991L13.8448 12.7025L16.3639 13.4862C16.5893 13.4063 16.8142 13.3244 17.0278 13.2155C17.3144 13.0704 17.5998 12.904 17.8157 12.6619C17.9292 12.5328 18.0084 12.365 17.9993 12.1901C17.9975 11.9751 17.8655 11.7868 17.7122 11.647C17.4572 11.4181 17.1384 11.277 16.82 11.1607C16.7377 11.1344 16.6564 11.1053 16.5752 11.0762C16.4801 11.0421 16.385 11.0081 16.2883 10.9787C15.3743 10.692 14.414 10.5731 13.4585 10.5695L13.3794 10.5723C13.1154 10.5816 12.8511 10.5908 12.5885 10.6212C11.7833 10.7138 10.9837 10.8767 10.2179 11.1454L9.6631 11.3457C9.6631 11.3643 9.66311 11.3829 9.66311 11.4015Z" fill="black"/>
</g>
<path d="M6.73089 2C7.51364 2.14591 8.28303 2.35436 9.04868 2.57163C9.48669 2.69884 9.9235 2.83046 10.3575 2.97063C11.0392 3.18776 11.718 3.43362 12.3355 3.80028C12.6121 3.96824 12.8777 4.15798 13.1048 4.38942C13.3508 4.6298 13.5521 4.91495 13.6999 5.22522C13.9692 5.7875 14.0614 6.41565 14.0886 7.03325C14.1014 7.43625 14.1006 7.84273 14.0254 8.24052C13.9629 8.5862 13.8517 8.92706 13.6668 9.22731C13.5035 9.49255 13.2765 9.72184 13.0009 9.86963C12.7366 10.0121 12.434 10.0799 12.1343 10.0739C11.6797 10.0787 11.2386 9.93377 10.8307 9.74389C10.8233 8.38723 10.8296 7.03031 10.8274 5.67379C10.8245 5.42832 10.8412 5.18032 10.7918 4.9382C10.757 4.7506 10.6805 4.56152 10.5332 4.43418C10.4355 4.34612 10.309 4.29642 10.1818 4.26956C10.0531 4.24511 9.91588 4.29976 9.83625 4.40305C9.70383 4.56847 9.66909 4.78814 9.66307 4.99405C9.662 8.62602 9.66441 12.2581 9.662 15.8898C8.68496 15.5802 7.70779 15.2703 6.73102 14.9598C6.72995 10.6398 6.73035 6.31998 6.73089 2Z" fill="black"/>
</g>
<defs>
<clipPath id="clip0_211_2326">
<rect width="18" height="18" fill="white"/>
</clipPath>
</defs>
</svg>
