<svg fill="currentColor" viewBox="0 0 49 32" xmlns="http://www.w3.org/2000/svg">
<path d="m27.089 20.93c0-2.2945 0.1849-4.3721 0.5547-6.2325 0.4314-1.8605 1.0478-3.5969 1.8491-5.2093 0.8628-1.6124 1.9106-3.1938 3.1433-4.7442 1.2328-1.5504 2.6504-3.1318 4.2529-4.7442l6.8415 3.2558c-0.4931 0.49613-0.9554 1.0853-1.3868 1.7674-0.3698 0.55814-0.7704 1.2713-1.2019 2.1395-0.4314 0.86822-0.8321 1.8295-1.2019 2.8837 2.5887 0.4961 4.7459 1.7675 6.4717 3.814s2.5887 4.4031 2.5887 7.0697c0 1.5504-0.3082 3.0078-0.9245 4.3721-0.5547 1.3024-1.3252 2.4496-2.3114 3.4419-0.9861 0.9922-2.1572 1.7984-3.5132 2.4186-1.2943 0.5581-2.7119 0.8372-4.2528 0.8372-1.4792 0-2.8968-0.2791-4.2528-0.8372-1.2944-0.6202-2.4346-1.4264-3.4208-2.4186-0.9861-0.9923-1.7874-2.1395-2.4037-3.4419-0.5548-1.3643-0.8321-2.8217-0.8321-4.3721zm-27.089-0.9302c0.061635-2.1085 0.30818-4.031 0.73962-5.7674 0.43145-1.7985 1.0478-3.4729 1.8491-5.0233 0.86289-1.6124 1.8799-3.1318 3.0509-4.5581 1.2327-1.4884 2.6195-3.0388 4.1604-4.6512l6.8415 3.2558c-0.4931 0.49613-0.9553 1.0853-1.3868 1.7674-0.3698 0.55814-0.7704 1.2713-1.2019 2.1395-0.4314 0.86822-0.832 1.8295-1.2019 2.8837 2.5887 0.4961 4.746 1.7675 6.4717 3.814 1.7258 2.0465 2.5887 4.4031 2.5887 7.0697 0 1.5504-0.3082 3.0078-0.9245 4.3721-0.5547 1.3024-1.3252 2.4496-2.3113 3.4419-0.9862 0.9922-2.1573 1.7984-3.5132 2.4186-1.2944 0.5581-2.712 0.8372-4.2529 0.8372-1.4792 0-2.8968-0.2791-4.2528-0.8372-1.2943-0.6202-2.4346-1.4574-3.4208-2.5116-0.98616-1.0543-1.7874-2.2946-2.4038-3.721-0.55472-1.4883-0.83208-3.1318-0.83208-4.9302z"/>
</svg>
