<svg width="18" height="18" viewBox="0 0 18 18" fill="none" xmlns="http://www.w3.org/2000/svg">
<path d="M9.95094 10.8087C9.95094 9.96575 10.0189 9.20258 10.1547 8.51914C10.3132 7.8357 10.5396 7.19783 10.834 6.60552C11.1509 6.01321 11.5358 5.43229 11.9887 4.86276C12.4415 4.29323 12.9623 3.71231 13.5509 3.12L16.0642 4.31601C15.883 4.49826 15.7132 4.71468 15.5547 4.96527C15.4189 5.1703 15.2717 5.43229 15.1132 5.75122C14.9547 6.07016 14.8075 6.42327 14.6717 6.81055C15.6226 6.9928 16.4151 7.45981 17.0491 8.21159C17.683 8.96337 18 9.82906 18 10.8087C18 11.3782 17.8868 11.9135 17.6604 12.4147C17.4566 12.8931 17.1736 13.3146 16.8113 13.6791C16.4491 14.0436 16.0189 14.3397 15.5208 14.5676C15.0453 14.7726 14.5245 14.8751 13.9585 14.8751C13.4151 14.8751 12.8943 14.7726 12.3962 14.5676C11.9208 14.3397 11.5019 14.0436 11.1396 13.6791C10.7774 13.3146 10.483 12.8931 10.2566 12.4147C10.0528 11.9135 9.95094 11.3782 9.95094 10.8087ZM0 10.4669C0.0226415 9.69237 0.113208 8.98616 0.271698 8.34828C0.430189 7.68763 0.656604 7.07253 0.950943 6.503C1.26792 5.91069 1.64151 5.35255 2.0717 4.82859C2.52453 4.28184 3.03396 3.71231 3.6 3.12L6.11321 4.31601C5.93208 4.49826 5.76226 4.71468 5.60377 4.96527C5.46792 5.1703 5.32075 5.43229 5.16226 5.75122C5.00377 6.07016 4.8566 6.42327 4.72075 6.81055C5.6717 6.9928 6.46415 7.45981 7.09811 8.21159C7.73208 8.96337 8.04906 9.82906 8.04906 10.8087C8.04906 11.3782 7.93585 11.9135 7.70943 12.4147C7.50566 12.8931 7.22264 13.3146 6.86038 13.6791C6.49811 14.0436 6.06792 14.3397 5.56981 14.5676C5.09434 14.7726 4.57358 14.8751 4.00755 14.8751C3.46415 14.8751 2.9434 14.7726 2.44528 14.5676C1.96981 14.3397 1.55094 14.0322 1.18868 13.6449C0.826415 13.2576 0.532075 12.802 0.30566 12.278C0.101887 11.7313 0 11.1276 0 10.4669Z" fill="black"/>
</svg>
