<svg width="18" height="18" viewBox="0 0 18 18" fill="none" xmlns="http://www.w3.org/2000/svg">
<path fill-rule="evenodd" clip-rule="evenodd" d="M14 9C14 11.7614 11.7614 14 9 14C6.23858 14 4 11.7614 4 9C4 6.23858 6.23858 4 9 4C11.7614 4 14 6.23858 14 9ZM13.1126 14.6651C11.958 15.5048 10.5368 16 9 16C5.13401 16 2 12.866 2 9C2 5.13401 5.13401 2 9 2C12.866 2 16 5.13401 16 9C16 10.5368 15.5048 11.958 14.6651 13.1126L16.2237 14.6711C16.6524 15.0999 16.6524 15.795 16.2237 16.2237C15.795 16.6524 15.0999 16.6524 14.6711 16.2237L13.1126 14.6651Z" fill="black"/>
<circle cx="9.00012" cy="9" r="4" fill="black"/>
</svg>
