<svg width="18" height="18" viewBox="0 0 18 18" fill="none" xmlns="http://www.w3.org/2000/svg">
<path fill-rule="evenodd" clip-rule="evenodd" d="M17.1344 9.85388L9.8539 17.1344C8.69982 18.2885 6.82868 18.2885 5.6746 17.1344L0.865561 12.3254C-0.288519 11.1713 -0.288521 9.30019 0.86556 8.14611L8.1461 0.865565C8.73257 0.2791 9.53849 -0.0339303 10.3671 0.00292252L14.9713 0.207706C16.5002 0.275709 17.7243 1.49975 17.7923 3.02869L17.9971 7.63293C18.0339 8.4615 17.7209 9.26742 17.1344 9.85388ZM15.7413 8.46079C15.9368 8.2653 16.0412 7.99666 16.0289 7.72047L15.8241 3.11623C15.8014 2.60658 15.3934 2.19857 14.8838 2.1759L10.2795 1.97111C10.0033 1.95883 9.73469 2.06317 9.5392 2.25866L2.25866 9.53921C1.87397 9.9239 1.87397 10.5476 2.25866 10.9323L7.0677 15.7413C7.45239 16.126 8.0761 16.126 8.4608 15.7413L15.7413 8.46079Z" fill="black"/>
<path fill-rule="evenodd" clip-rule="evenodd" d="M5.10916 9.88369C5.30151 9.69134 5.61337 9.69134 5.80571 9.88369L8.0903 12.1683C8.28265 12.3606 8.28265 12.6725 8.0903 12.8648C7.89796 13.0572 7.5861 13.0572 7.39375 12.8648L5.10916 10.5802C4.91682 10.3879 4.91682 10.076 5.10916 9.88369Z" fill="black"/>
<path fill-rule="evenodd" clip-rule="evenodd" d="M5.80571 9.88369C5.61337 9.69134 5.30151 9.69134 5.10916 9.88369C4.91682 10.076 4.91682 10.3879 5.10916 10.5802L7.39375 12.8648C7.5861 13.0572 7.89796 13.0572 8.0903 12.8648C8.28265 12.6725 8.28265 12.3606 8.0903 12.1683L5.80571 9.88369Z" fill="black"/>
<path fill-rule="evenodd" clip-rule="evenodd" d="M13.6146 7.35741C14.4383 6.53367 14.4383 5.19812 13.6146 4.37437C12.7909 3.55063 11.4553 3.55063 10.6316 4.37437C9.80782 5.19812 9.80782 6.53367 10.6316 7.35741C11.4553 8.18115 12.7909 8.18115 13.6146 7.35741ZM12.9181 6.66086C13.3571 6.22181 13.3571 5.50997 12.9181 5.07092C12.479 4.63187 11.7672 4.63187 11.3281 5.07092C10.8891 5.50997 10.8891 6.22181 11.3281 6.66086C11.7672 7.09991 12.479 7.09991 12.9181 6.66086Z" fill="black"/>
</svg>
