<svg width="18" height="18" viewBox="0 0 18 18" fill="none" xmlns="http://www.w3.org/2000/svg">
<path fill-rule="evenodd" clip-rule="evenodd" d="M17.2 5.04949L17.2 5.04671C17.1817 3.72861 16.1026 2.62854 14.7625 2.62854H3.22079C1.8812 2.62854 0.799988 3.72866 0.799988 5.04949V13.3942C0.799988 14.715 1.88118 15.815 3.22079 15.815H14.7792C16.1178 15.815 17.2 14.7328 17.2 13.3942L17.2 5.04949ZM11.1 10.672L10.0838 11.3892L7.61201 9.15837C6.69346 8.31398 5.29855 8.31601 4.36542 9.15769L2.36077 10.9604V5.04965C2.36077 4.59012 2.74038 4.2063 3.22079 4.2063H14.7792C15.2408 4.2063 15.6223 4.5879 15.6223 5.04945V11.9568L13.922 10.7098C13.0772 10.0855 11.9581 10.0876 11.1 10.672ZM6.56896 10.3122L8.77258 12.3141L6.018 14.2376H3.22079C2.74035 14.2376 2.36084 13.8539 2.36084 13.3944V13.0794L5.42424 10.3126L5.42531 10.3116C5.75268 10.0116 6.2416 10.0122 6.56896 10.3122ZM15.5038 13.8111C15.3539 14.0672 15.0779 14.2376 14.7623 14.2376H8.73253L11.9988 11.9439C12.3002 11.7389 12.6956 11.7401 12.9955 11.9579L15.5038 13.8111ZM10.5058 9.53969C11.6437 9.53969 12.5565 8.60771 12.5565 7.48899C12.5565 6.3691 11.6257 5.4383 10.5058 5.4383C9.3859 5.4383 8.4551 6.3691 8.4551 7.48899C8.4551 8.6077 9.36776 9.53969 10.5058 9.53969ZM10.5058 6.98238C10.7823 6.98238 10.9956 7.19566 10.9956 7.47223C10.9956 7.74871 10.7824 7.96207 10.5058 7.96207C10.2293 7.96207 10.0159 7.74879 10.0159 7.47223C10.0159 7.19564 10.2292 6.98238 10.5058 6.98238Z" fill="black"/>
</svg>
