<svg width="18" height="18" viewBox="0 0 18 18" fill="none" xmlns="http://www.w3.org/2000/svg">
<path fill-rule="evenodd" clip-rule="evenodd" d="M9.30682 5.28015C8.95327 4.90662 8.38006 4.90662 8.02652 5.28015L2.26516 11.3672C1.91161 11.7407 1.91161 12.3463 2.26516 12.7199C2.6187 13.0934 3.19192 13.0934 3.54546 12.7199L8.66667 7.30916L13.7879 12.7199C14.1414 13.0934 14.7146 13.0934 15.0682 12.7199C15.4217 12.3463 15.4217 11.7407 15.0682 11.3672L9.30682 5.28015Z" fill="black"/>
<path fill-rule="evenodd" clip-rule="evenodd" d="M9.30682 5.28015C8.95327 4.90662 8.38006 4.90662 8.02652 5.28015L2.26516 11.3672C1.91161 11.7407 1.91161 12.3463 2.26516 12.7199C2.6187 13.0934 3.19192 13.0934 3.54546 12.7199L8.66667 7.30916L13.7879 12.7199C14.1414 13.0934 14.7146 13.0934 15.0682 12.7199C15.4217 12.3463 15.4217 11.7407 15.0682 11.3672L9.30682 5.28015Z" fill="black"/>
</svg>
