<svg width="18" height="18" viewBox="0 0 18 18" fill="none" xmlns="http://www.w3.org/2000/svg">
<path fill-rule="evenodd" clip-rule="evenodd" d="M2.60744 7.54738L7.91074 2.24408C8.23618 1.91864 8.76382 1.91864 9.08926 2.24408L14.3926 7.54738C14.718 7.87282 14.718 8.40045 14.3926 8.72589C14.0671 9.05133 13.5395 9.05133 13.214 8.72589L9.33333 4.84518L9.33333 13.6667H7.66667L7.66667 4.84518L3.78595 8.72589C3.46052 9.05133 2.93288 9.05133 2.60744 8.72589C2.28201 8.40045 2.28201 7.87281 2.60744 7.54738Z" fill="black"/>
<path fill-rule="evenodd" clip-rule="evenodd" d="M16 16.1667C16 16.6269 15.6269 17 15.1667 17L1.83333 17C1.3731 17 1 16.6269 1 16.1667C1 15.7064 1.3731 15.3333 1.83333 15.3333L15.1667 15.3333C15.6269 15.3333 16 15.7064 16 16.1667Z" fill="black"/>
</svg>
