<svg width="18" height="18" viewBox="0 0 18 18" fill="none" xmlns="http://www.w3.org/2000/svg">
<path d="M8.98879 7.21793C11.7011 9.2802 16.2964 14.3462 14.9066 15.7808C13.3151 17.1706 11.2528 18 8.98879 18C6.72478 18 4.6401 17.1706 3.07098 15.7808C1.65878 14.3462 6.27646 9.2802 8.96637 7.24035C8.96637 7.21793 8.98879 7.21793 8.98879 7.21793ZM13.6737 1.32254C12.3063 0.493151 10.8045 0 8.98879 0C7.1731 0 5.67123 0.493151 4.30386 1.32254C4.28145 1.32254 4.28144 1.34496 4.28144 1.36737C4.28144 1.38979 4.30386 1.38979 4.32628 1.38979C6.07472 1.00872 8.7198 2.51059 8.96637 2.6675H9.01121C9.25778 2.51059 11.9029 1.00872 13.6513 1.38979C13.6737 1.38979 13.6961 1.38979 13.6961 1.36737C13.6961 1.34496 13.6961 1.32254 13.6737 1.32254ZM2.68991 2.57783C2.6675 2.57783 2.6675 2.60025 2.64508 2.60025C1.00872 4.23661 0 6.50062 0 8.98879C0 11.0286 0.694894 12.934 1.83811 14.4359C1.83811 14.4583 1.86052 14.4583 1.88294 14.4583C1.90536 14.4583 1.90536 14.4359 1.88294 14.4134C1.18805 12.2839 4.70735 7.15068 6.52304 4.99875L6.54545 4.97634C6.54545 4.95392 6.54545 4.95392 6.52304 4.95392C3.76588 2.21918 2.84682 2.51059 2.68991 2.57783ZM11.4545 4.93151L11.4321 4.95392C11.4321 4.95392 11.4321 4.97634 11.4545 4.97634C13.2702 7.12827 16.7671 12.2615 16.0946 14.391V14.4359C16.1171 14.4359 16.1395 14.4359 16.1395 14.4134C17.2827 12.9116 17.9776 11.0062 17.9776 8.96638C17.9776 6.47821 16.9689 4.2142 15.3101 2.57783C15.2877 2.55542 15.2877 2.55542 15.2653 2.55542C15.1308 2.51059 14.2117 2.21918 11.4545 4.93151Z" fill="black"/>
</svg>
